<?xml version="1.0" standalone="no"?>
<!DOCTYPE svg PUBLIC "-//W3C//DTD SVG 20010904//EN"
 "http://www.w3.org/TR/2001/REC-SVG-20010904/DTD/svg10.dtd">
<svg version="1.0" xmlns="http://www.w3.org/2000/svg"
 width="700.000000pt" height="700.000000pt" viewBox="0 0 700.000000 700.000000"
 preserveAspectRatio="xMidYMid meet">
<metadata>
Created by potrace 1.14, written by Peter Selinger 2001-2017
</metadata>
<g transform="translate(0.000000,700.000000) scale(0.100000,-0.100000)"
fill="#000000" stroke="none">
<path d="M3293 5795 c-570 -72 -1088 -332 -1488 -747 -195 -201 -324 -386
-445 -633 -87 -178 -132 -301 -180 -489 -69 -270 -75 -348 -75 -963 0 -534 0
-542 21 -570 45 -61 143 -61 188 0 21 28 21 40 27 610 6 633 8 651 69 884 43
160 91 289 165 438 389 789 1226 1287 2105 1252 336 -14 612 -84 915 -232 248
-120 449 -267 638 -465 384 -401 594 -892 623 -1455 8 -146 17 -175 68 -199
43 -20 59 -20 102 0 51 24 64 58 64 166 0 325 -91 696 -250 1023 -241 494
-632 886 -1130 1134 -240 119 -447 186 -714 232 -159 28 -537 35 -703 14z"/>
<path d="M2413 2806 c-133 -43 -222 -160 -225 -294 -2 -62 20 -98 70 -119 71
-30 145 17 158 99 22 133 184 121 184 -14 0 -32 38 -76 75 -88 47 -15 86 -5
121 31 26 27 29 37 29 92 -1 114 -69 218 -178 274 -63 32 -169 40 -234 19z"/>
<path d="M4602 2802 c-66 -24 -118 -65 -159 -126 -81 -119 -70 -256 22 -286
73 -24 138 19 154 103 10 54 31 82 68 92 54 13 113 -37 113 -95 0 -52 61 -110
115 -110 33 0 83 32 100 64 37 68 -1 203 -80 281 -85 85 -221 116 -333 77z"/>
</g>
</svg>
