<svg width="163" height="163" viewBox="0 0 163 163" fill="none" xmlns="http://www.w3.org/2000/svg">
<rect width="163" height="163" rx="81.5" fill="#00414C"/>
<path d="M39.3294 79.7317C39.4464 79.7331 39.5986 79.7232 39.7269 79.7599C40.4289 79.7683 41.1675 79.6485 41.8836 79.4582C42.353 79.3469 42.7646 79.1763 43.2114 78.9945C44.4829 78.3546 45.5344 77.513 46.4944 76.5066C47.5868 75.1858 48.0618 74.6065 48.7145 72.8826C49.8168 69.7716 49.9056 67.2569 49.745 64.0839C49.7337 64.0487 49.7576 64.0022 49.7464 63.9669C49.7309 63.3115 49.7506 62.6447 49.7351 61.9893C49.683 60.4909 49.5011 59.0728 49.308 57.6196C49.2291 57.3729 49.1967 57.1502 49.129 56.9387C49.0177 56.4693 48.8823 56.0464 48.747 55.6236C48.2438 54.658 47.6025 53.5035 46.5791 52.9764C46.1379 52.6902 45.6248 52.5436 45.099 52.4788C44.5507 52.3434 43.7289 52.5675 43.2003 52.7367C42.6844 52.8241 42.1685 52.9115 41.6526 52.9989C41.1719 53.075 40.7378 53.1751 40.2557 53.3682C40.126 53.4485 39.985 53.4936 39.8441 53.5387C39.7384 53.5726 39.6679 53.5951 39.5622 53.6289C39.1266 53.846 38.7263 54.0518 38.2682 54.1984C38.092 54.2548 37.8918 54.3577 37.6916 54.4606C37.3392 54.5733 36.8106 55.7137 36.7246 56.052C36.6979 56.3325 36.6246 56.5891 36.5513 56.8456C36.5259 57.0091 36.5005 57.1726 36.5104 57.3249C36.5428 57.5476 36.5287 57.7463 36.5259 57.9803C36.5541 58.554 36.547 59.139 36.54 59.724C36.5639 60.6487 36.6231 61.5621 36.6471 62.4868C36.6527 62.99 36.6583 63.4932 36.664 63.9964C36.6753 64.0317 36.6753 64.0317 36.6513 64.0782C36.6781 64.7689 36.6809 65.5061 36.6724 66.2081C36.7133 66.7 36.7542 67.192 36.795 67.6839C36.8486 69.0653 36.9487 70.4707 37.0375 71.8408C37.1587 73.4336 37.2334 75.0025 37.3433 76.5601C37.3729 77.0168 37.3912 77.4383 37.4448 77.8485C37.442 78.0825 37.4984 78.2587 37.5547 78.4349C37.7112 79.0452 38.4625 79.8148 39.3294 79.7317ZM41.7187 73.7226C41.675 73.4647 41.6313 73.2067 41.5876 72.9488C41.4749 71.6252 41.3156 70.2776 41.2832 69.0837C41.2099 68.369 41.193 67.8305 41.1295 67.2681C41.1169 66.3787 41.0689 65.5005 41.0675 64.6463C41.0182 62.9139 40.9449 61.228 40.8604 59.5069C40.8406 59.2025 40.8561 58.8867 40.8364 58.5822C40.8378 58.4652 40.8618 58.4187 40.9097 58.3257C41.1719 57.931 41.5849 57.6435 41.9725 57.5194C42.2545 57.4292 42.5237 57.4208 42.7563 57.5406C43.1411 57.6505 43.5358 57.9127 43.7542 58.2313C44.1433 58.9614 44.4379 59.7607 44.638 60.629C45.223 63.5497 45.1201 69.1767 44.2531 72.1735C44.1545 72.5936 44.0445 72.9784 43.8528 73.3505C43.6583 73.9566 43.2453 74.2442 42.7406 74.3668C42.6702 74.3894 42.5997 74.4119 42.5532 74.388C41.9795 74.4161 41.8639 74.2977 41.7187 73.7226ZM54.4319 70.043C54.7166 70.69 55.0126 71.3722 55.3918 71.9502C55.5638 72.2448 55.7949 72.4816 56.0148 72.6832C56.1657 72.7903 56.3165 72.8974 56.4081 73.0623C56.7422 73.4993 57.1481 73.7967 57.5781 74.0476C57.9502 74.2394 58.311 74.3958 58.7551 74.448C59.4556 74.5734 60.1816 74.5354 60.9216 74.2986C63.3884 73.5092 63.8648 72.8129 65.2223 70.8634C65.4845 70.4688 65.7579 70.1093 65.9271 69.6667C67.1492 67.2944 67.6214 63.0642 67.4424 60.441C67.4735 59.8095 67.3988 59.2118 67.3593 58.6029C67.2959 58.0404 67.1972 57.4893 67.145 56.9621C67.0844 56.1657 66.9533 55.3918 66.787 54.6292C66.6094 53.8314 66.4079 53.0801 66.0653 52.3739C65.8032 51.7974 65.5297 51.1856 65.2562 50.5738C64.4937 48.7977 62.7683 47.2909 60.7554 47.3134C60.4157 47.3444 60.0408 47.3867 59.6771 47.4642C59.243 47.5643 58.7848 47.7109 58.338 47.8928C57.667 48.224 57.0412 48.6962 56.5069 49.3333C56.2814 49.5997 56.0559 49.8662 55.8303 50.1326C54.8098 51.3138 54.253 52.8517 53.9076 54.3219C53.8089 54.7419 53.7216 55.1972 53.5524 55.6398C53.527 55.8033 53.5016 55.9668 53.465 56.0951C53.2888 57.1227 53.0604 58.5943 53.1295 59.66C53.0787 59.987 53.0745 60.338 53.0703 60.689C53.0773 61.0752 53.0491 61.4727 53.0562 61.8589C53.0463 62.6779 53.1534 63.4983 53.2606 64.3186L53.2253 64.3299C53.2789 64.7401 53.2859 65.1263 53.3282 65.5013C53.3818 65.9115 53.4706 66.3104 53.5129 66.6853C53.6129 67.1195 53.6665 67.5297 53.8018 67.9526C53.9569 68.6799 54.1711 69.3495 54.4319 70.043ZM57.5767 65.4238C57.4005 64.509 57.2469 63.6646 57.1877 62.7512C57.1327 62.458 57.1242 62.1888 57.1045 61.8843C57.0876 61.3458 57.0355 60.8187 57.0298 60.3154C57.0355 59.8475 57.0411 59.3795 57.0467 58.9115C57.0383 58.6423 57.0763 58.397 57.0679 58.1278C57.1116 56.4433 57.519 54.6813 58.228 53.1336C58.5381 52.6459 58.8821 52.2639 59.3416 52.0003C59.6122 51.8748 59.8702 51.8312 60.1394 51.8227C61.3094 51.8368 61.9705 53.2957 62.2749 54.2472C62.8092 56.5237 63.0163 58.7494 63.2109 61.0569C63.2179 61.4432 63.1897 61.8407 63.1615 62.2382C63.2996 64.3695 62.7654 66.949 61.5616 68.7716C61.4192 68.9337 61.3008 69.0493 61.1937 69.2001C61.0161 69.3735 60.8272 69.5116 60.6157 69.5793C60.0871 69.7484 59.5769 69.3678 59.2654 69.0013C58.9412 68.7166 58.7114 68.3628 58.5056 67.9625C58.2998 67.5621 58.1293 67.1505 57.9235 66.7502C57.7529 66.3386 57.6768 65.8579 57.5767 65.4238ZM72.4212 69.1814C72.7087 69.5944 73.1274 69.8101 73.6179 69.8862C74.1085 69.9623 74.5779 69.851 75.0599 69.6579C75.6365 69.3957 76.0185 68.7684 76.0495 68.1369C76.0875 67.8917 76.1369 67.6816 76.2214 67.4603C76.33 67.1925 76.3568 66.912 76.3836 66.6315C76.3948 64.7243 76.2074 62.8031 75.996 60.9283C75.8719 59.5695 75.7944 58.2346 75.7874 56.8771C75.8127 56.7136 75.8381 56.5501 75.8987 56.3753C75.9227 56.3288 75.9932 56.3063 76.0397 56.3302C76.261 56.4148 76.4344 56.5924 76.5485 56.8278C76.9475 57.7102 77.3816 58.5813 77.8397 59.406C78.2978 60.2306 78.6967 61.113 79.0604 62.0067C79.4579 63.0061 79.8794 63.9589 80.3713 64.8893C80.804 65.8774 81.4538 66.3299 82.528 66.53C82.8197 66.5921 83.1482 66.5258 83.4428 66.3539C83.9728 66.0677 84.352 65.6744 84.5 65.0444C84.7072 62.4141 84.4112 59.7894 84.1152 57.1648C84.0532 56.4853 84.0264 55.7946 83.9531 55.08C83.9066 54.0848 83.8249 53.1009 83.8249 52.1297C83.8094 51.4742 83.7586 50.8301 83.7079 50.1859C83.6275 49.085 83.5585 48.0193 83.5486 46.8959C83.5416 45.5385 83.4993 44.1923 83.3753 42.8335C83.3471 42.2598 83.1892 41.7664 82.9961 41.2843C82.8368 40.908 82.5944 40.6359 82.2688 40.4682C82.0009 40.3596 81.7444 40.2863 81.4639 40.2596C80.7619 40.2511 80.0783 40.6641 79.6596 41.4196C79.4566 41.7565 79.3114 42.1526 79.272 42.5149C79.0196 44.033 79.0112 45.7062 79.2268 47.2299C79.2776 47.8741 79.3523 48.4718 79.403 49.116C79.4453 49.4909 79.4876 49.8659 79.4946 50.2521C79.5581 50.8145 79.6102 51.3417 79.6736 51.9041C79.7075 52.0099 79.6948 52.0916 79.6821 52.1734C79.6581 52.2199 79.6454 52.3016 79.5862 52.3594C79.527 52.4172 79.4805 52.3933 79.434 52.3693C79.3762 52.3101 79.2832 52.2622 79.2606 52.1917C79.0069 51.8844 78.7884 51.5658 78.5939 51.2008C77.7059 49.154 76.7939 47.1538 75.7057 45.21C75.4647 44.8209 75.2123 44.3966 74.9008 44.0302C74.6697 43.7933 74.4385 43.5565 74.1833 43.3662C73.7999 43.1393 73.3573 42.9701 72.8414 43.0575C72.2085 43.1435 71.6898 43.4649 71.3078 44.0922C70.9145 44.6842 70.7256 45.7935 70.7524 46.4842C70.7566 47.1044 70.82 47.6669 70.8595 48.2758C70.868 48.545 70.8877 48.8495 70.8722 49.1653C70.8651 49.7502 70.9046 50.3592 70.9328 50.9329C71.0089 52.3848 71.061 53.8831 71.0202 55.3336C71.0357 55.9891 71.0159 56.6558 71.0667 57.3C71.0765 57.4522 71.0864 57.6045 71.085 57.7215C71.092 58.1077 71.0991 58.4939 71.1061 58.8801C71.1484 60.2263 71.2259 61.5612 71.3387 62.8848C71.4021 63.4472 71.4542 63.9744 71.4824 64.5481C71.5134 64.8878 71.591 65.2515 71.598 65.6377C71.6826 66.3876 71.7672 67.1375 71.8982 67.9114C71.9744 68.392 72.1449 68.8036 72.4212 69.1814ZM87.068 41.8461C87.254 41.9419 87.4401 42.0378 87.6628 42.0054C87.7446 42.0181 87.7558 42.0533 87.7544 42.1703C87.7051 42.3803 87.6558 42.5903 87.5712 42.8117C87.5331 43.0569 87.4485 43.2782 87.4105 43.5235C87.3964 43.7222 87.4528 43.8984 87.5331 44.0281C87.636 44.2283 87.8333 44.3594 88.1153 44.2692C88.2915 44.2128 88.4564 44.1212 88.61 43.9943C89.6165 43.0118 90.2931 40.2702 90.1352 38.8056C90.1254 38.6534 90.1155 38.5011 90.1169 38.3842C90.0507 38.0557 89.9957 37.7625 89.835 37.5032C89.7321 37.303 89.5813 37.1959 89.3473 37.193C89.2303 37.1916 89.1485 37.1789 89.0555 37.131C88.8102 37.093 88.5763 37.0901 88.3296 37.1691C87.2724 37.5074 86.4731 38.7732 86.3082 39.836C86.1799 40.7706 86.3702 41.4866 87.068 41.8461ZM92.25 40.5763C92.3994 40.8005 92.6081 40.9668 92.8533 41.0049C92.9816 41.0415 93.1338 41.0316 93.2861 41.0218C93.7188 41.0387 94.1882 40.9273 94.6576 40.816C95.2679 40.6595 95.9023 40.4566 96.5126 40.3001C96.6536 40.255 96.7706 40.2564 96.9101 40.3283C96.9566 40.3522 97.0144 40.4115 97.0609 40.4354C97.154 40.4833 97.223 40.5778 97.1864 40.7061C97.1977 40.7413 97.2089 40.7765 97.2202 40.8118C97.2498 42.2397 97.3851 43.6338 97.4147 45.0617C97.4316 45.6001 97.4485 46.1386 97.4542 46.6418C97.4922 47.3678 97.5063 48.1402 97.5444 48.8662C97.5711 51.4993 97.7262 54.169 97.9869 56.805C98.0038 57.3434 98.0912 57.8593 98.1547 58.4218C98.1857 58.7615 98.2519 59.0899 98.2829 59.4296C98.3266 59.6876 98.4056 59.9343 98.4732 60.1457C98.6649 60.7448 98.9158 61.2861 99.5938 61.341C99.9801 61.334 100.356 61.1747 100.723 60.8632C101.48 60.1936 101.911 59.3563 102.063 58.3753C102.131 57.6155 102.128 56.8783 102.044 56.1284C101.931 54.8048 101.829 53.5164 101.717 52.1928C101.658 51.2794 101.598 50.366 101.515 49.4991L101.55 49.4878C101.467 48.6209 101.395 47.7893 101.323 46.9576C101.254 45.892 101.15 44.8376 101.116 43.7607C101.097 42.485 101.03 41.1853 100.975 39.9209C100.977 39.8039 100.943 39.6982 100.956 39.6165C100.934 39.429 100.995 39.2542 101.102 39.1034C101.221 38.9878 101.315 38.9187 101.456 38.8736C101.738 38.7834 101.985 38.7045 102.231 38.6255C102.725 38.4677 103.207 38.2746 103.69 37.9645C103.749 37.9067 103.82 37.8841 103.926 37.8503C105.22 37.2808 106.039 36.3195 105.729 34.8648C105.64 34.4659 105.421 34.1473 105.072 34.0261C104.886 33.9302 104.722 33.9048 104.488 33.902C103.855 33.988 103.304 34.0867 102.67 34.2897C102.553 34.2882 102.447 34.3221 102.341 34.3559C102.107 34.3531 101.896 34.4207 101.696 34.5236C101.425 34.6491 101.178 34.728 100.896 34.8182C100.732 34.9099 100.544 34.931 100.379 35.0226C99.9788 35.2284 99.5433 35.4455 99.1091 35.5456C99.0034 35.5794 98.8977 35.6132 98.792 35.6471C98.1449 35.9318 97.4528 36.0756 96.796 36.2081C96.538 36.2518 96.2801 36.2954 96.0334 36.3744C95.7627 36.4998 95.5048 36.5435 95.2694 36.6577C95.0227 36.7366 94.8113 36.8043 94.5998 36.872C94.5054 36.941 94.3997 36.9749 94.2474 36.9847C93.8838 37.0622 93.5314 37.175 93.1649 37.4865C93.0704 37.5556 92.976 37.6247 92.8815 37.6937C92.6926 37.8319 92.515 38.0053 92.4065 38.2731C92.2754 38.4704 92.1669 38.7382 92.0823 38.9595C91.9625 39.1921 91.9484 39.3909 91.9456 39.6249C91.9526 40.0111 92.0893 40.317 92.25 40.5763ZM46.5924 105.605C47.8117 108.323 50.676 109.504 53.4923 108.836C55.1133 108.317 56.117 107.569 57.0121 106.117C57.1305 106.001 57.2024 105.862 57.3208 105.746C58.2131 104.528 58.6853 103.212 58.8319 101.727C58.8714 101.365 58.8996 100.968 58.9743 100.594C59.0884 99.8582 59.0856 99.121 59.0236 98.4416C58.9729 97.7974 58.7572 97.2449 58.3879 96.8192C58.2032 96.6063 57.9241 96.4625 57.6563 96.354C57.3533 96.2567 57.084 96.2652 56.7669 96.3667C56.0973 96.5809 55.4574 97.2519 55.2502 97.9398C55.1642 98.2781 55.1134 98.6051 55.0979 98.9208C55.0669 99.5523 55.0359 100.184 55.0049 100.815C54.9612 101.529 54.8005 102.24 54.6045 102.964C54.5918 103.045 54.5439 103.138 54.496 103.231C54.2916 103.685 54.0534 104.033 53.6065 104.215C53.3006 104.352 52.9948 104.489 52.7143 104.462C51.7684 104.298 51.0495 103.751 50.6154 102.88C50.1347 101.985 49.8077 100.963 49.5512 99.9188C49.3454 98.5473 49.2806 97.1306 49.3792 95.7394C49.3821 95.5054 49.3849 95.2714 49.3877 95.0374C49.4413 94.4764 49.4948 93.9153 49.5484 93.3543C49.6231 92.0096 49.8191 90.3153 50.5351 89.1538C50.7734 88.8056 51.0229 88.4927 51.2611 88.1445C51.4866 87.8781 51.7587 87.6356 52.0533 87.4637C52.431 87.1874 52.806 87.1451 53.095 87.4411C53.3149 87.6427 53.4643 87.8668 53.5897 88.1375C53.725 88.5604 53.8716 89.0185 53.9125 89.5104C53.9421 89.9671 54.0069 90.4126 54.0831 90.8932C54.1239 91.3852 54.2818 91.8785 54.4876 92.2788C54.9471 92.9865 55.7139 93.4404 56.5597 93.1697C56.8768 93.0682 57.1954 92.8497 57.4802 92.5255C58.1342 91.6558 58.3344 90.5817 58.3471 89.5288C58.3865 89.1665 58.309 88.8028 58.2667 88.4279C58.2033 87.8655 58.1159 87.3495 58.0525 86.7871C57.9891 86.2247 57.8552 85.6848 57.662 85.2027C57.4929 84.6741 57.2293 84.2146 56.9305 83.7664C56.3934 82.6951 54.7414 81.9029 53.594 81.9592C53.1725 81.9776 52.7031 82.0889 52.2803 82.2242C51.5642 82.4145 50.834 82.8036 50.1616 83.2518C49.6542 83.6084 49.2158 84.0595 48.7774 84.5106C47.8429 85.3535 46.8308 87.7752 46.3726 88.893C45.6594 90.7917 45.4352 92.8835 45.3055 94.9063C45.2618 95.6195 45.2294 96.368 45.1857 97.0813C45.2068 99.2111 45.4507 101.309 45.8468 103.396C46.0244 104.194 46.2964 104.923 46.5924 105.605ZM69.9835 103.481C70.7348 103.28 71.5213 103.067 72.2853 102.783C72.6025 102.682 72.9323 102.499 73.2382 102.362C73.568 102.179 73.8626 102.007 74.1925 101.823C74.5336 101.675 74.8874 101.446 75.1834 101.157C75.385 100.937 75.5513 100.728 75.6712 100.496C75.9601 99.8205 76.1081 99.1904 76.0109 98.5222C75.9785 98.2995 75.9108 98.0881 75.7727 97.8992C75.2427 97.2141 74.4463 97.2747 73.7189 97.4298C73.5075 97.4974 73.2608 97.5764 73.0493 97.644C72.6025 97.8259 72.1796 97.9612 71.7328 98.143C71.4861 98.222 71.2155 98.3474 70.9688 98.4263C70.8631 98.4602 70.7221 98.5053 70.6164 98.5391C70.1935 98.6744 69.7594 98.7745 69.3139 98.8393C69.0447 98.8478 68.729 98.8323 68.4724 98.759C68.1806 98.697 67.9607 98.4954 67.8832 98.1317C67.7366 97.6736 67.6605 97.1929 67.6083 96.6658C67.5097 96.1146 67.4702 95.5057 67.4068 94.9432C67.3405 93.6436 67.3095 92.3327 67.2785 91.0218C67.2334 89.9096 67.1883 88.7974 67.1432 87.6853L67.1334 87.533C67.108 86.7253 67.1179 85.9064 67.0925 85.0987C67.0967 84.7477 67.0418 84.4545 67.0446 84.2205C67.0094 83.2606 66.9558 81.8792 66.6513 80.9277C66.5513 80.4935 66.4751 80.0129 66.4103 79.5674C66.3116 79.0163 66.0579 78.709 65.5801 78.5511C65.277 78.4539 64.9613 78.4384 64.575 78.4454C64.3058 78.4539 64.0352 78.5793 63.7758 78.74C63.2331 79.1079 62.9568 79.7013 62.7158 80.2835C62.6072 80.5513 62.5692 80.7966 62.4959 81.0531C62.2732 82.0567 62.2027 83.0505 62.2027 84.0217C62.2238 84.2092 62.2449 84.3967 62.2308 84.5954C62.2012 85.1099 62.2421 85.6019 62.283 86.0938C62.3492 87.3934 62.4394 88.6466 62.5057 89.9462C62.5578 90.4734 62.5747 91.0119 62.5564 91.5616C62.524 93.2813 62.5268 94.9897 62.6466 96.6995C62.6846 97.4255 62.7579 98.1401 62.7847 98.8308C62.8073 98.9013 62.7833 98.9478 62.8059 99.0183C62.8933 99.5342 62.9454 100.061 63.0328 100.577C63.0737 101.069 63.1963 101.574 63.3542 102.067C64.3127 105.063 67.6929 104.214 69.9835 103.481ZM78.7892 98.9929C79.1204 99.6638 79.8506 100.246 80.6245 100.115C81.0347 100.061 81.3772 99.7964 81.6394 99.4017C81.8297 99.1465 81.9382 98.8787 82.0468 98.6109C82.1934 98.0978 82.3047 97.596 82.3343 97.0815C82.4358 96.4275 82.3851 95.7833 82.4161 95.1518C82.4091 94.7656 82.3907 94.3441 82.3837 93.9579C82.3682 93.3024 82.3879 92.6357 82.3372 91.9915C82.2836 90.6101 82.1596 89.2512 82.1413 87.8586C82.1075 86.7816 82.0384 85.716 82.0046 84.6391C81.9369 83.4564 81.834 82.2851 81.8369 81.0799C81.8651 79.7111 81.6875 77.9421 81.4929 76.6058C81.4281 76.1604 81.3745 75.7502 81.204 75.3386C81.1363 75.1272 81.0926 74.8692 81.0137 74.6225C80.7769 73.8825 80.4019 72.9536 79.4646 73.0593C79.0544 73.1129 78.6315 73.2482 78.2537 73.5244C77.7463 73.8811 77.4249 74.3335 77.3121 74.9524C77.2853 75.2329 77.2585 75.5134 77.267 75.7826C77.2754 78.9654 77.5757 82.2103 77.8886 85.3734C77.9661 86.7083 77.9731 88.0658 77.9336 89.3992C77.959 90.2069 77.9491 91.0259 77.9745 91.8336C77.9956 92.9923 78.0407 94.1044 78.0971 95.2518C78.145 96.13 78.2395 97.0321 78.3931 97.8765C78.4819 98.2754 78.606 98.663 78.7892 98.9929ZM87.2696 92.5887C88.4888 95.3063 91.3531 96.4876 94.1695 95.8195C95.7905 95.3008 96.7941 94.5523 97.6892 93.1004C97.8076 92.9848 97.8795 92.8453 97.9979 92.7297C98.8902 91.5118 99.3624 90.1953 99.509 88.711C99.5485 88.3487 99.5767 87.9512 99.6514 87.5777C99.7656 86.8418 99.7628 86.1046 99.7008 85.4252C99.65 84.781 99.4344 84.2285 99.0651 83.8028C98.8804 83.5899 98.6013 83.4461 98.3335 83.3376C98.0304 83.2403 97.7612 83.2488 97.444 83.3503C96.7745 83.5645 96.1345 84.2355 95.9273 84.9234C95.8413 85.2617 95.7906 85.5887 95.7751 85.9044C95.744 86.5359 95.713 87.1674 95.682 87.7989C95.6383 88.5122 95.4776 89.224 95.2817 89.9471C95.269 90.0289 95.2211 90.1219 95.1731 90.215C94.9687 90.6688 94.7305 91.017 94.2837 91.1988C93.9778 91.3356 93.6719 91.4723 93.3914 91.4455C92.4456 91.282 91.7267 90.7351 91.2925 89.8639C90.8119 88.9689 90.4849 87.9469 90.2283 86.9024C90.0225 85.5309 89.9577 84.1142 90.0564 82.723C90.0592 82.489 90.062 82.255 90.0649 82.021C90.1184 81.46 90.172 80.899 90.2256 80.3379C90.3003 78.9932 90.4962 77.2989 91.2123 76.1374C91.4505 75.7892 91.7 75.4763 91.9382 75.1281C92.1638 74.8617 92.4358 74.6193 92.7304 74.4473C93.1082 74.171 93.4832 74.1287 93.7721 74.4247C93.992 74.6263 94.1414 74.8504 94.2669 75.1211C94.4022 75.544 94.5488 76.0021 94.5897 76.494C94.6193 76.9507 94.6841 77.3962 94.7602 77.8768C94.8011 78.3688 94.959 78.8621 95.1648 79.2625C95.6243 79.9701 96.3911 80.424 97.2368 80.1533C97.554 80.0518 97.8726 79.8334 98.1573 79.5092C98.8114 78.6395 99.0115 77.5653 99.0242 76.5124C99.0637 76.1501 98.9862 75.7864 98.9439 75.4115C98.8805 74.8491 98.7931 74.3332 98.7296 73.7707C98.6662 73.2083 98.5323 72.6684 98.3392 72.1864C98.1701 71.6578 97.9065 71.1982 97.6076 70.75C97.0706 69.6787 95.4186 68.8865 94.2711 68.9429C93.8497 68.9612 93.3803 69.0725 92.9574 69.2079C92.2413 69.3981 91.5112 69.7872 90.8388 70.2354C90.3313 70.5921 89.893 71.0431 89.4546 71.4942C88.52 72.3371 87.5079 74.7588 87.0498 75.8766C86.3365 77.7753 86.1124 79.8671 85.9827 81.8899C85.939 82.6031 85.9066 83.3516 85.8629 84.0649C85.884 86.1948 86.1278 88.2922 86.5239 90.3798C86.7015 91.1777 86.9736 91.9064 87.2696 92.5887ZM104.794 91.7982C105.317 92.097 105.879 92.0336 106.504 91.6784C106.998 91.4035 107.264 90.7748 107.445 90.2505C107.95 88.1854 108.075 85.5424 107.82 83.4097C107.778 83.0348 107.771 82.6486 107.764 82.2623C107.712 81.7351 107.66 81.208 107.608 80.6808C107.588 80.3763 107.533 80.0831 107.478 79.7899C107.445 79.5672 107.413 79.3445 107.358 79.0513C107.393 79.04 107.382 79.0048 107.417 78.9935C107.475 79.0527 107.486 79.0879 107.498 79.1232C107.842 79.7124 108.221 80.2903 108.529 80.8908C108.965 81.6449 109.341 82.4569 109.671 83.2448C110.308 84.7503 111.005 86.1979 111.701 87.6456C112.101 88.411 113.211 89.5711 114.196 89.3723C114.454 89.3286 114.689 89.2145 114.915 88.9481C115.803 88.0812 115.887 87.8599 115.901 86.6899C115.862 86.081 115.682 85.5171 115.477 84.9998C115.273 84.4825 115.033 83.9764 114.77 83.5169C114.461 82.9164 114.128 82.3625 113.82 81.762C113.384 81.0078 112.96 80.2889 112.524 79.5348C111.917 78.4861 111.509 77.3344 111.137 76.1715C110.955 75.7247 110.926 75.268 110.92 74.7648C110.924 74.4138 110.964 74.0515 111.12 73.6906C111.602 72.5263 112.108 71.3155 112.579 70.1159C113.314 68.4047 114.219 66.1339 114.44 64.276C114.526 63.9377 114.541 63.622 114.486 63.3288C114.422 62.8834 114.238 62.5535 113.866 62.3618C113.541 62.1941 113.154 62.2011 112.743 62.3717C112.131 62.6451 111.646 63.0722 111.253 63.6643C111.002 64.0942 110.762 64.5593 110.593 65.0019C109.808 67.0402 109.023 69.0785 108.366 71.1534C108.014 72.2373 107.661 73.3213 107.262 74.3813C107.25 74.4631 107.237 74.5448 107.142 74.6139C107.131 74.5787 107.144 74.4969 107.133 74.4617C107.114 74.0402 107.072 73.6652 107.065 73.279C107.021 73.0211 107.024 72.7871 106.98 72.5291C106.939 72.0372 106.899 71.5452 106.846 71.018C106.806 70.5261 106.765 70.0341 106.724 69.5422C106.653 68.5935 106.594 67.6801 106.418 66.7653C106.329 66.3664 106.252 66.0027 106.092 65.6264C105.875 65.1908 105.527 64.9526 105.048 64.9117C104.884 64.8863 104.697 64.9075 104.533 64.8821C104.288 64.844 104.006 64.9342 103.747 65.0949C103.098 65.4967 102.597 66.3565 102.529 67.1163C102.526 67.3503 102.512 67.549 102.474 67.7943C102.444 68.3088 102.485 68.8007 102.491 69.304C102.478 69.3857 102.501 69.4562 102.499 69.5732C102.554 69.8664 102.574 70.1708 102.629 70.464C102.639 70.6163 102.684 70.7572 102.694 70.9095C102.736 71.2844 102.814 71.6481 102.845 71.9878C102.942 72.656 102.993 73.3001 103.055 73.9796C103.332 77.154 103.469 80.3735 103.687 83.6056C103.762 84.2033 103.766 84.8235 103.735 85.455C103.704 86.0865 103.673 86.718 103.713 87.3269C103.766 87.7371 103.714 88.1812 103.697 88.6139C103.666 89.2454 103.717 89.8896 103.862 90.4647C104.019 91.075 104.317 91.5233 104.794 91.7982ZM69.496 134.709C69.5524 134.886 69.6553 135.086 69.7822 135.239C70.0599 135.5 70.3855 135.668 70.8182 135.685C71.1692 135.689 71.4976 135.623 71.8627 135.428C72.3223 135.165 72.6197 134.759 72.848 134.258C73.2977 132.871 73.4105 130.31 73.3471 128.776C73.3358 127.77 73.3006 126.81 73.3006 125.839C73.2611 125.23 73.2569 124.61 73.2527 123.989C73.1963 122.842 73.1752 121.683 73.0948 120.582C73.0511 120.324 73.0539 120.091 73.0455 119.821C73.0342 119.786 73.0469 119.704 73.0243 119.634C73.0483 119.587 73.0723 119.541 73.1427 119.518C73.1427 119.518 73.1893 119.542 73.2245 119.531C73.2358 119.566 73.2471 119.601 73.2583 119.637C73.9532 121.201 74.6834 122.755 75.3544 124.366C75.6165 124.942 75.9379 125.461 76.3777 125.864C76.4933 125.983 76.6441 126.09 76.8076 126.115C76.9007 126.163 76.9824 126.176 77.0994 126.177C77.3926 126.122 77.6745 126.032 77.9353 125.754C78.0424 125.603 78.1608 125.488 78.268 125.337C78.4822 125.035 78.65 124.71 78.7825 124.395C79.2279 123.359 79.5916 122.311 79.9088 121.238C80.2005 120.329 80.4458 119.396 80.7263 118.451C80.763 118.323 80.7531 118.171 80.8941 118.126C81.035 118.08 81.0562 118.268 81.09 118.374C81.1126 118.444 81.1351 118.515 81.1224 118.596C81.1323 118.749 81.1534 118.936 81.1633 119.088C81.1436 119.755 81.1591 120.411 81.1746 121.066C81.1083 122.68 81.1943 124.284 81.3268 125.912C81.3465 126.217 81.355 126.486 81.3747 126.79C81.4339 127.704 81.5044 128.652 81.7045 129.521C81.7933 129.92 81.9174 130.307 82.0766 130.684C82.2373 130.943 82.4093 131.238 82.6292 131.439C83.0577 131.807 83.5482 131.883 84.0909 131.515C85.8952 130.355 85.7374 127.919 85.5964 126.022C85.5316 125.577 85.502 125.12 85.4724 124.663C85.4329 124.054 85.4047 123.481 85.3653 122.872C85.2173 120.588 85.1863 118.306 85.1553 116.024C85.1792 115.977 85.168 115.942 85.1567 115.907C85.175 115.357 85.1694 114.854 85.1877 114.304C85.1736 113.532 85.1243 112.771 85.1215 112.033C85.0989 111.963 85.1229 111.916 85.1116 111.881C85.1314 110.243 85.1398 108.57 84.7846 106.974C84.6733 106.505 84.5267 106.047 84.4153 105.577C84.0432 104.415 83.5639 104.374 82.5335 104.431C82.3108 104.464 82.1346 104.52 81.9344 104.623C81.6286 104.76 81.3565 105.002 81.0267 105.186C80.6729 105.415 80.3994 105.775 80.219 106.182C80.0385 106.59 79.9046 107.021 79.7707 107.452C79.2689 109.283 78.8601 111.162 78.4865 113.03C78.2032 114.208 78.0016 115.399 77.6718 116.554C77.5985 116.81 77.5139 117.032 77.3476 117.24C77.1685 117.531 76.9923 117.587 76.7837 117.421C76.7259 117.362 76.6921 117.256 76.6696 117.185C75.9591 114.965 73.7334 109.345 71.4753 108.358C71.1722 108.261 70.81 108.222 70.4688 108.37C68.5659 108.979 68.167 111.981 68.2515 113.702C68.4982 117.508 68.8266 121.327 69.1437 125.11C69.1649 125.297 69.1395 125.461 69.1606 125.648C69.1324 126.046 69.1395 126.432 69.1113 126.83C69.107 127.181 69.1141 127.567 69.1211 127.953C69.0929 128.351 69.0647 128.748 69.0718 129.134C69.0661 130.574 69.107 132.037 69.2184 133.477C69.2367 133.899 69.3368 134.333 69.496 134.709ZM90.9641 127.296C91.7929 128.429 93.3407 128.167 94.5036 127.795C94.8207 127.693 95.1379 127.592 95.455 127.49C95.7482 127.435 96.0302 127.345 96.3121 127.255C96.6405 127.189 96.9224 127.099 97.2043 127.008C97.5455 126.86 97.8626 126.759 98.1685 126.622C98.4152 126.543 98.6619 126.464 98.9198 126.421C99.4245 126.298 99.8826 126.151 100.4 125.947C101.492 125.597 102.743 124.77 102.805 123.507C102.784 123.319 102.798 123.121 102.882 122.899C102.908 122.736 102.933 122.572 102.912 122.385C102.87 122.01 102.768 121.693 102.49 121.432C101.946 120.946 101.068 120.994 100.434 121.197C99.8939 121.331 99.4005 121.488 98.8832 121.693C98.2489 121.896 97.6371 122.169 97.0141 122.407C96.6264 122.531 96.2388 122.655 95.8512 122.78C95.675 122.836 95.4523 122.868 95.2648 122.889C95.0068 122.933 94.7968 122.884 94.6107 122.788C94.4712 122.716 94.4021 122.622 94.381 122.434C94.3161 121.989 94.2161 121.555 94.2104 121.051C94.2006 120.899 94.2259 120.736 94.2048 120.548C94.1569 119.67 94.0977 118.757 94.1202 117.856C94.1259 117.388 94.3218 116.665 94.7461 116.412C94.9463 116.31 95.1704 116.16 95.3818 116.092C96.0753 115.832 96.7801 115.606 97.4962 115.416C98.2588 115.25 98.9876 114.977 99.7177 114.588C100.53 114.212 101.205 113.53 101.251 112.583C101.26 111.881 100.961 111.432 100.568 111.053C100.244 110.768 99.7995 110.716 99.3541 110.781C98.9791 110.823 98.5802 110.912 98.2039 111.072C97.8162 111.196 97.4286 111.32 97.0762 111.432C96.3474 111.704 95.5736 111.835 94.8476 111.874C94.6601 111.895 94.4727 111.916 94.2739 111.902C94.0864 111.923 93.9469 111.851 93.9258 111.664C93.8806 111.523 93.8003 111.393 93.7552 111.252C93.6424 110.9 93.5649 110.536 93.5226 110.161C93.4014 109.539 93.4211 108.873 93.4987 108.265C93.5142 107.949 93.5297 107.633 93.5804 107.306C93.6072 107.026 93.6805 106.769 93.8003 106.537C94.0061 105.966 94.491 105.539 95.0549 105.358C95.4552 105.153 95.8316 104.993 96.2432 104.823C96.7957 104.607 97.3596 104.427 97.9121 104.211C98.4647 103.995 99.0525 103.768 99.629 103.506C100.394 103.106 101.056 102.622 101.277 101.736C101.302 101.572 101.328 101.409 101.318 101.257C101.325 100.672 101.089 99.8146 100.272 99.6877C100.108 99.6623 99.9448 99.637 99.7573 99.6581C99.4415 99.6426 99.0779 99.7201 98.7607 99.8216C98.2674 99.9795 97.774 100.137 97.2806 100.295C96.9987 100.385 96.7168 100.476 96.4349 100.566C95.8119 100.804 95.2128 100.996 94.5897 101.234C94.0724 101.438 93.5199 101.654 92.956 101.834C92.3443 102.108 91.7565 102.335 91.1334 102.573C90.2172 102.866 89.6491 103.398 89.4856 104.343C89.3616 104.927 89.3432 105.477 89.3249 106.027C89.284 106.506 89.3136 106.963 89.308 107.43C89.3305 107.501 89.3178 107.583 89.3051 107.664C89.2995 108.132 89.2939 108.6 89.2882 109.068C89.4292 110.966 89.5236 112.839 89.6293 114.748C89.6476 116.14 89.7477 117.546 89.907 118.893C90.1325 120.569 90.3101 122.338 90.3129 124.047C90.3058 124.632 90.334 125.205 90.4327 125.757C90.5314 126.308 90.7005 126.836 90.9641 127.296ZM106.895 117.692C106.977 117.704 107.011 117.81 107.069 117.869C107.276 118.153 107.544 118.261 107.907 118.184C108.447 118.05 108.873 117.68 109.184 117.076C109.377 116.587 109.535 116.109 109.576 115.629C109.664 115.174 109.669 114.706 109.721 114.262C109.853 113.094 109.961 111.855 109.929 110.661C109.934 110.193 109.94 109.725 109.957 109.292C109.95 108.906 109.954 108.555 109.982 108.157C109.934 107.279 110.003 106.402 110.072 105.525C110.068 104.905 110.04 104.332 110.036 103.711C110.025 103.676 110.037 103.594 110.015 103.524C110.034 102.857 110.008 102.166 109.981 101.476C109.981 100.505 109.888 99.4854 109.665 98.5466C109.599 98.2182 109.497 97.901 109.337 97.6417C108.959 96.9467 108.42 96.9636 107.752 97.0609C107.365 97.1849 106.977 97.309 106.612 97.5035C105.504 98.1688 105.012 99.1809 104.985 100.433C105.008 101.474 105.101 102.493 105.194 103.513C105.216 103.583 105.228 103.618 105.239 103.654C105.325 104.286 105.4 104.884 105.486 105.517C105.549 106.079 105.577 106.653 105.652 107.251C105.663 107.286 105.675 107.321 105.686 107.357C105.739 107.767 105.793 108.177 105.858 108.622C105.921 109.185 105.996 109.782 106.024 110.356C106.141 111.329 106.212 112.277 106.293 113.261L106.258 113.273C106.329 114.221 106.41 115.205 106.516 116.142C106.558 116.517 106.601 116.892 106.678 117.256C106.699 117.444 106.744 117.584 106.895 117.692ZM107.596 123.644C107.899 123.742 108.25 123.746 108.626 123.587C109.931 123.052 110.533 121.655 110.491 120.309C110.473 119.888 110.291 119.441 110.048 119.169C109.657 118.673 109.002 118.571 108.343 118.938C107.942 119.143 107.6 119.408 107.222 119.685C107.104 119.8 107.009 119.869 106.926 119.974C106.665 120.251 106.462 120.588 106.352 120.973C106.29 121.265 106.264 121.545 106.272 121.815C106.283 122.821 106.78 123.4 107.596 123.644Z" fill="white"/>
</svg>
