<svg width="400" height="318" viewBox="0 0 400 318" fill="none" xmlns="http://www.w3.org/2000/svg">
<g clip-path="url(#clip0_1_2)">
<g clip-path="url(#clip1_1_2)">
<path d="M57.9157 301.624C57.8471 303.003 56.6736 304.065 55.2946 303.997L32.8224 302.879C31.4434 302.811 30.381 301.637 30.4496 300.258C30.5182 298.879 31.6917 297.817 33.0707 297.885L53.046 298.879L54.0392 278.903C54.1077 277.524 55.2812 276.462 56.6602 276.531C58.0393 276.599 59.1016 277.773 59.033 279.152L57.9157 301.624ZM77.7388 196.861C76.323 197.353 74.9183 197.901 73.5288 198.502L71.5426 193.913C73.0442 193.264 74.5643 192.671 76.0987 192.138L77.7388 196.861ZM65.5007 202.685C62.9393 204.259 60.4719 206.021 58.1307 207.953L54.9478 204.097C57.468 202.017 60.1242 200.12 62.8827 198.425L65.5007 202.685ZM51.5659 214.193C49.5344 216.418 47.6584 218.79 45.9678 221.293L41.8244 218.494C43.655 215.784 45.6827 213.221 47.874 210.821L51.5659 214.193ZM41.5035 229.132C40.232 231.834 39.1686 234.646 38.3409 237.553L33.532 236.184C34.4361 233.009 35.596 229.942 36.9793 227.003L41.5035 229.132ZM36.6113 246.374C36.2905 249.294 36.2055 252.29 36.3814 255.349L31.3897 255.637C31.1976 252.297 31.2902 249.023 31.6412 245.828L36.6113 246.374ZM37.6192 264.268C38.2446 267.114 39.1005 270.006 40.2068 272.934L35.5294 274.701C34.3397 271.552 33.4142 268.428 32.7357 265.342L37.6192 264.268ZM43.9656 281.205C45.3385 283.786 46.9125 286.388 48.7007 289.007L44.5716 291.827C42.6837 289.062 41.0138 286.302 39.5513 283.553L43.9656 281.205ZM54.2411 296.331C55.2073 297.493 56.2172 298.657 57.2721 299.822L53.5654 303.178C52.4644 301.961 51.4084 300.744 50.3964 299.527L54.2411 296.331Z" fill="#00414C"/>
<rect x="66.419" y="34" width="257" height="257" rx="128.5" fill="#00414C"/>
<path d="M120.471 156.288C120.754 156.976 121.137 157.658 121.758 158.079C122.752 158.983 123.731 159.587 125.137 159.671C126.091 159.725 127.09 159.678 128.081 159.48C129.663 159.055 132.067 158.039 133.368 156.976C134.584 156.218 136.522 153.823 136.701 152.313C136.779 151.859 136.905 151.352 137.134 150.891C137.452 150.225 137.671 149.564 137.842 148.955C138.349 146.979 138.803 144.955 139.108 142.938C139.184 142.434 139.21 141.932 139.139 141.485C139.053 140.738 138.68 140.255 137.971 140.089C137.869 140.044 137.769 140.048 137.717 140.001C137.163 139.927 136.609 139.853 136.059 139.879C135.26 139.917 134.416 140.058 133.622 140.196C131.878 140.379 129.645 140.785 128.777 142.528C128.734 142.68 128.641 142.835 128.596 142.937C128.199 144.057 128.634 144.788 129.3 145.106C129.607 145.242 129.959 145.275 130.311 145.309C130.812 145.335 131.262 145.313 131.764 145.34C132.014 145.328 132.168 145.42 132.228 145.618C132.337 145.813 132.349 146.063 132.311 146.315C132.246 147.069 132.135 147.875 131.921 148.636C131.925 148.736 131.882 148.888 131.837 148.99L131.269 150.719C131.002 151.433 130.734 152.096 130.365 152.764C130.134 153.176 129.851 153.54 129.466 153.858C129.035 154.279 128.491 154.405 128.036 154.327C127.53 154.201 127.069 153.972 126.75 153.587C126.429 153.152 126.203 152.612 126.075 152.017C125.937 151.223 125.946 150.372 126.053 149.465C126.118 148.712 126.279 147.903 126.394 147.147C126.75 145.178 127.157 143.206 127.614 141.232C127.728 140.476 127.895 139.767 128.011 139.061C128.135 138.504 128.261 137.998 128.435 137.439C128.43 137.339 128.473 137.187 128.566 137.032C128.884 136.366 129.153 135.703 129.519 134.984C129.793 134.421 130.114 133.805 130.438 133.239C130.947 132.364 131.748 131.324 132.733 130.977C133.127 130.858 133.43 130.894 133.739 131.08C133.996 131.218 134.21 131.508 134.421 131.748C134.474 131.796 134.478 131.895 134.481 131.945C134.611 132.59 134.745 133.284 134.678 133.988C134.652 134.49 134.578 135.044 134.554 135.596C134.526 136.048 134.549 136.547 134.573 137.047C134.789 138.438 136.185 139.373 137.91 138.79C139.144 138.431 139.853 137.547 140.35 136.422C140.631 136.008 140.809 135.549 140.838 135.097C140.833 134.997 140.83 134.947 140.878 134.895C141.102 134.334 141.175 133.779 141.299 133.223C141.378 132.769 141.359 132.369 141.24 131.974C141.135 129.777 140.576 127.501 139.047 125.872C138.733 125.586 138.208 125.061 137.849 124.877C137.287 124.654 136.472 124.342 135.822 124.373C135.473 124.39 135.123 124.406 134.771 124.373C134.22 124.349 133.623 124.428 133.076 124.504C127.629 125.764 123.921 131.997 122.461 137.072C122.332 137.529 122.204 137.985 122.075 138.442C121.856 139.103 121.687 139.762 121.521 140.471C120.665 143.515 119.461 148.728 119.615 151.974C119.639 153.525 119.858 154.966 120.471 156.288ZM142.887 156.424C143.572 158.193 145.684 158.393 147.332 158.315C147.781 158.293 148.231 158.272 148.68 158.251C149.082 158.282 149.482 158.263 149.881 158.244C150.333 158.272 150.733 158.253 151.132 158.234C151.629 158.16 152.079 158.139 152.526 158.068C152.875 158.051 153.225 158.034 153.577 158.068C154.279 158.084 154.928 158.054 155.675 157.968C157.223 157.894 159.145 157.252 159.668 155.626C159.706 155.374 159.794 155.119 159.982 154.86C160.072 154.655 160.163 154.451 160.201 154.199C160.277 153.695 160.255 153.245 159.984 152.808C159.445 151.982 158.282 151.737 157.383 151.78C156.631 151.766 155.932 151.799 155.185 151.884C154.286 151.927 153.392 152.07 152.495 152.163C151.946 152.189 151.397 152.215 150.847 152.241C150.597 152.253 150.295 152.217 150.043 152.179C149.691 152.146 149.434 152.008 149.225 151.817C149.068 151.675 149.011 151.527 149.049 151.275C149.121 150.671 149.142 150.069 149.311 149.411C149.351 149.209 149.442 149.004 149.48 148.752C149.725 147.589 149.968 146.376 150.312 145.208C150.484 144.6 150.993 143.724 151.635 143.544C151.932 143.479 152.277 143.363 152.577 143.349C153.573 143.251 154.572 143.204 155.573 143.206C156.627 143.256 157.673 143.156 158.763 142.904C159.954 142.698 161.074 142.044 161.467 140.824C161.724 139.91 161.491 139.221 161.11 138.588C160.787 138.103 160.226 137.879 159.621 137.808C159.117 137.732 158.566 137.708 158.019 137.784C157.469 137.81 156.92 137.836 156.42 137.86C155.374 137.96 154.318 137.86 153.357 137.655C153.105 137.617 152.853 137.579 152.598 137.491C152.346 137.453 152.189 137.31 152.228 137.058C152.218 136.858 152.159 136.661 152.149 136.461C152.125 135.962 152.152 135.46 152.228 134.956C152.287 134.102 152.546 133.239 152.86 132.473C152.991 132.066 153.122 131.66 153.303 131.251C153.436 130.894 153.622 130.585 153.859 130.323C154.328 129.65 155.11 129.262 155.91 129.224C156.504 129.096 157.051 129.02 157.648 128.942C158.445 128.854 159.244 128.816 160.041 128.728C160.837 128.64 161.684 128.549 162.528 128.409C163.668 128.155 164.7 127.755 165.299 126.676C165.389 126.471 165.48 126.267 165.52 126.064C165.734 125.303 165.727 124.102 164.705 123.65C164.5 123.56 164.296 123.47 164.044 123.432C163.637 123.301 163.135 123.275 162.686 123.296C161.986 123.329 161.287 123.362 160.588 123.396C160.188 123.415 159.789 123.434 159.389 123.453C158.493 123.545 157.644 123.586 156.747 123.678C156 123.764 155.204 123.852 154.404 123.89C153.51 124.033 152.664 124.123 151.767 124.216C150.468 124.277 149.541 124.772 148.996 125.949C148.63 126.667 148.413 127.378 148.197 128.09C147.976 128.701 147.854 129.307 147.683 129.916C147.688 130.016 147.643 130.118 147.597 130.22C147.426 130.829 147.255 131.438 147.084 132.047C146.603 134.573 146.07 137.051 145.54 139.579C145.076 141.403 144.714 143.272 144.45 145.087C144.157 147.353 143.77 149.724 143.175 151.955C142.961 152.716 142.797 153.475 142.732 154.229C142.668 154.982 142.704 155.732 142.887 156.424ZM167.92 127.902C168.037 128.247 168.251 128.537 168.557 128.673C168.712 128.766 168.914 128.806 169.116 128.847C169.675 129.02 170.327 129.039 170.978 129.058C171.83 129.068 172.729 129.025 173.58 129.035C173.78 129.025 173.932 129.068 174.089 129.211C174.142 129.258 174.196 129.356 174.249 129.404C174.353 129.499 174.41 129.646 174.317 129.801C174.32 129.851 174.322 129.901 174.325 129.951C173.863 131.825 173.551 133.691 173.09 135.566C172.923 136.274 172.757 136.983 172.588 137.642C172.383 138.603 172.131 139.616 171.927 140.576C171.039 144.022 170.307 147.561 169.724 151.093C169.557 151.802 169.491 152.506 169.376 153.262C169.298 153.716 169.269 154.168 169.191 154.622C169.157 154.974 169.174 155.324 169.188 155.623C169.229 156.473 169.367 157.267 170.232 157.576C170.739 157.702 171.286 157.626 171.873 157.348C173.096 156.739 173.952 155.797 174.494 154.57C174.849 153.602 175.103 152.639 175.255 151.631C175.572 149.864 175.891 148.147 176.207 146.38C176.45 145.167 176.692 143.954 176.888 142.793L176.937 142.791C177.133 141.63 177.33 140.52 177.528 139.409C177.811 137.994 178.044 136.581 178.377 135.164C178.798 133.492 179.167 131.773 179.538 130.103C179.581 129.951 179.573 129.801 179.619 129.699C179.657 129.447 179.797 129.24 179.99 129.08C180.185 128.971 180.332 128.914 180.532 128.905C180.931 128.886 181.281 128.869 181.631 128.852C182.33 128.819 183.027 128.736 183.766 128.5C183.864 128.446 183.964 128.441 184.114 128.434C186.002 128.144 187.408 127.176 187.512 125.169C187.536 124.617 187.363 124.125 186.949 123.844C186.74 123.654 186.535 123.563 186.231 123.478C185.374 123.368 184.621 123.304 183.722 123.347C183.569 123.304 183.419 123.311 183.27 123.318C182.965 123.233 182.666 123.247 182.368 123.311C181.971 123.38 181.622 123.397 181.222 123.416C180.975 123.477 180.723 123.439 180.475 123.501C179.881 123.629 179.236 123.76 178.634 123.739C178.485 123.746 178.335 123.753 178.185 123.76C177.241 123.905 176.287 123.85 175.383 123.793C175.031 123.76 174.679 123.727 174.33 123.743C173.933 123.812 173.581 123.779 173.233 123.845C172.884 123.862 172.584 123.876 172.284 123.891C172.137 123.948 171.987 123.955 171.785 123.914C171.283 123.888 170.784 123.912 170.196 124.19C170.049 124.247 169.901 124.304 169.754 124.361C169.459 124.475 169.167 124.64 168.931 124.951C168.691 125.163 168.455 125.474 168.267 125.733C168.03 125.995 167.942 126.25 167.856 126.554C167.73 127.061 167.801 127.508 167.92 127.902ZM196.939 154.304C197.137 155.296 197.886 156.311 198.942 156.411C199.496 156.485 200.036 156.259 200.516 155.836C200.854 155.569 201.089 155.258 201.325 154.946C201.696 154.328 202.017 153.712 202.236 153.051C202.597 152.233 202.757 151.374 203.018 150.561C203.144 150.054 203.268 149.498 203.394 148.991C203.604 148.13 203.863 147.267 204.022 146.408C204.436 144.587 204.75 142.77 205.214 140.946C205.547 139.528 205.83 138.113 206.163 136.696C206.489 135.129 206.765 133.564 207.191 131.992C207.707 130.215 208.095 127.844 208.309 126.032C208.381 125.428 208.454 124.874 208.376 124.277C208.362 123.977 208.395 123.625 208.378 123.275C208.329 122.227 208.165 120.883 206.904 120.693C206.35 120.619 205.751 120.647 205.161 120.876C204.374 121.163 203.796 121.641 203.432 122.409C203.298 122.766 203.165 123.123 203.082 123.477C201.978 127.634 201.234 131.975 200.534 136.213C200.168 137.982 199.701 139.756 199.183 141.483C198.933 142.546 198.633 143.611 198.384 144.674C198.005 146.194 197.675 147.661 197.346 149.179C197.101 150.342 196.909 151.552 196.813 152.708C196.79 153.26 196.816 153.809 196.939 154.304ZM209.57 154.604C209.801 155.244 210.272 155.672 210.885 155.943C211.499 156.214 212.151 156.233 212.847 156.15C213.692 156.01 214.41 155.325 214.672 154.512C214.807 154.205 214.945 153.948 215.133 153.689C215.368 153.377 215.502 153.021 215.635 152.664C216.318 150.179 216.746 147.605 217.127 145.085C217.441 143.268 217.807 141.498 218.273 139.724C218.364 139.519 218.454 139.315 218.594 139.108C218.642 139.056 218.742 139.051 218.794 139.099C219.053 139.286 219.217 139.579 219.284 139.926C219.496 141.218 219.757 142.507 220.066 143.743C220.375 144.98 220.587 146.271 220.748 147.565C220.917 149.009 221.134 150.4 221.45 151.787C221.668 153.228 222.358 154.046 223.69 154.684C224.049 154.867 224.501 154.895 224.946 154.774C225.738 154.586 226.37 154.206 226.784 153.435C227.976 150.075 228.509 146.546 229.042 143.016C229.199 142.108 229.406 141.197 229.56 140.238C229.848 138.923 230.086 137.61 230.426 136.343C230.636 135.482 230.795 134.623 230.954 133.765C231.235 132.3 231.518 130.885 231.899 129.415C232.365 127.641 232.781 125.869 233.096 124.052C233.26 123.294 233.226 122.594 233.143 121.898C233.067 121.351 232.846 120.911 232.48 120.578C232.168 120.342 231.859 120.157 231.502 120.023C230.589 119.766 229.552 120.066 228.741 120.906C228.358 121.274 228.03 121.74 227.852 122.199C226.991 124.092 226.393 126.273 226.141 128.337C225.982 129.196 225.87 130.002 225.711 130.861C225.634 131.365 225.558 131.869 225.432 132.376C225.318 133.132 225.201 133.838 225.087 134.595C225.094 134.744 225.049 134.847 225.004 134.949C224.956 135.001 224.911 135.103 224.814 135.158C224.716 135.213 224.664 135.165 224.612 135.118C224.557 135.02 224.452 134.925 224.447 134.825C224.224 134.335 224.05 133.843 223.924 133.298C223.482 130.316 222.992 127.386 222.253 124.468C222.075 123.876 221.894 123.233 221.616 122.646C221.397 122.256 221.178 121.866 220.912 121.528C220.491 121.098 219.973 120.722 219.269 120.655C218.412 120.546 217.623 120.784 216.905 121.468C216.184 122.103 215.549 123.485 215.342 124.396C215.13 125.207 215.016 125.963 214.854 126.772C214.771 127.126 214.69 127.53 214.559 127.937C214.345 128.698 214.183 129.507 214.019 130.265C213.61 132.187 213.153 134.161 212.592 136.04C212.382 136.901 212.123 137.764 211.964 138.622C211.923 138.825 211.883 139.027 211.84 139.179C211.714 139.686 211.588 140.192 211.462 140.699C211.046 142.47 210.679 144.24 210.363 146.007C210.249 146.763 210.132 147.469 209.968 148.228C209.889 148.682 209.863 149.184 209.737 149.691C209.585 150.699 209.432 151.707 209.333 152.763C209.263 153.417 209.342 154.014 209.57 154.604ZM117.818 178.339C117.934 178.684 118.148 178.974 118.455 179.11C118.61 179.203 118.812 179.243 119.014 179.283C119.573 179.457 120.225 179.476 120.876 179.495C121.728 179.505 122.627 179.462 123.478 179.472C123.678 179.462 123.83 179.505 123.987 179.648C124.039 179.695 124.094 179.793 124.146 179.84C124.251 179.935 124.308 180.083 124.215 180.238C124.218 180.287 124.22 180.337 124.222 180.387C123.761 182.261 123.449 184.128 122.988 186.002C122.821 186.711 122.655 187.42 122.486 188.079C122.281 189.039 122.029 190.052 121.824 191.013C120.937 194.459 120.204 197.998 119.621 201.53C119.455 202.238 119.388 202.942 119.274 203.699C119.196 204.153 119.167 204.605 119.089 205.059C119.055 205.411 119.072 205.761 119.086 206.06C119.126 206.909 119.264 207.704 120.13 208.013C120.637 208.139 121.184 208.063 121.771 207.785C122.993 207.176 123.85 206.234 124.392 205.007C124.746 204.039 125.001 203.076 125.153 202.068C125.47 200.301 125.789 198.583 126.105 196.816C126.348 195.604 126.59 194.391 126.785 193.23L126.835 193.228C127.03 192.067 127.228 190.957 127.425 189.846C127.708 188.431 127.942 187.018 128.275 185.601C128.696 183.929 129.064 182.209 129.436 180.54C129.478 180.388 129.471 180.238 129.516 180.136C129.554 179.883 129.695 179.677 129.887 179.517C130.083 179.408 130.23 179.351 130.43 179.341C130.829 179.322 131.179 179.306 131.528 179.289C132.228 179.256 132.925 179.173 133.664 178.937C133.762 178.883 133.862 178.878 134.011 178.871C135.9 178.581 137.305 177.613 137.41 175.606C137.434 175.054 137.26 174.561 136.847 174.281C136.637 174.091 136.433 174 136.128 173.914C135.272 173.805 134.518 173.741 133.619 173.784C133.467 173.741 133.317 173.748 133.167 173.755C132.863 173.669 132.563 173.684 132.266 173.748C131.869 173.817 131.519 173.833 131.12 173.852C130.872 173.914 130.62 173.876 130.373 173.938C129.778 174.066 129.134 174.197 128.532 174.176C128.382 174.183 128.233 174.19 128.083 174.197C127.139 174.342 126.185 174.287 125.281 174.23C124.929 174.197 124.577 174.163 124.228 174.18C123.83 174.249 123.478 174.216 123.131 174.282C122.782 174.299 122.482 174.313 122.182 174.327C122.035 174.384 121.885 174.392 121.683 174.351C121.181 174.325 120.682 174.349 120.094 174.627C119.947 174.684 119.799 174.741 119.652 174.798C119.357 174.912 119.064 175.076 118.829 175.388C118.589 175.6 118.353 175.911 118.165 176.17C117.927 176.432 117.839 176.686 117.754 176.991C117.628 177.497 117.699 177.944 117.818 178.339ZM135.736 199.862C135.881 200.807 136.028 201.801 136.321 202.688C136.442 203.133 136.661 203.523 136.877 203.863C137.037 204.055 137.196 204.248 137.258 204.495C137.541 205.183 137.966 205.713 138.44 206.191C138.858 206.572 139.274 206.902 139.836 207.126C140.706 207.535 141.667 207.74 142.716 207.69C146.212 207.523 147.077 206.782 149.532 204.713C150.012 204.289 150.495 203.916 150.871 203.398C153.297 200.729 155.395 195.374 156.08 191.887C156.342 191.074 156.453 190.268 156.615 189.459C156.729 188.703 156.794 187.949 156.91 187.242C157.11 186.182 157.21 185.126 157.26 184.072C157.308 182.969 157.308 181.917 157.108 180.876C156.968 180.032 156.825 179.137 156.683 178.243C156.309 175.658 154.585 173.087 151.95 172.411C151.496 172.333 150.992 172.257 150.49 172.23C149.888 172.209 149.239 172.24 148.592 172.321C147.6 172.518 146.618 172.915 145.698 173.56C145.31 173.828 144.922 174.097 144.535 174.366C142.789 175.55 141.524 177.362 140.558 179.16C140.282 179.674 140.008 180.237 139.633 180.756C139.542 180.96 139.452 181.165 139.359 181.319C138.769 182.599 137.956 184.44 137.673 185.855C137.492 186.264 137.363 186.72 137.235 187.177C137.109 187.683 136.933 188.192 136.807 188.699C136.507 189.764 136.36 190.873 136.212 191.981L136.162 191.983C136.088 192.537 135.962 193.044 135.886 193.548C135.812 194.102 135.789 194.654 135.712 195.158C135.691 195.76 135.617 196.314 135.646 196.913C135.593 197.917 135.638 198.866 135.736 199.862ZM141.458 194.935C141.549 193.679 141.644 192.524 141.887 191.311C141.918 190.909 142.001 190.554 142.082 190.15C142.248 189.441 142.365 188.735 142.534 188.076C142.705 187.467 142.876 186.859 143.048 186.25C143.131 185.895 143.266 185.589 143.35 185.234C143.997 183.051 145.145 180.894 146.613 179.122C147.189 178.594 147.771 178.216 148.463 178.033C148.861 177.964 149.212 177.998 149.567 178.081C151.089 178.509 151.441 180.645 151.505 181.993C151.405 185.152 150.896 188.129 150.341 191.209C150.215 191.715 150.039 192.224 149.863 192.733C149.297 195.563 147.696 198.743 145.487 200.7C145.244 200.862 145.049 200.971 144.856 201.131C144.564 201.295 144.269 201.409 143.969 201.423C143.22 201.459 142.687 200.783 142.409 200.196C142.086 199.711 141.91 199.168 141.781 198.574C141.653 197.979 141.575 197.382 141.446 196.788C141.368 196.191 141.437 195.537 141.458 194.935ZM160.214 199.7C160.319 200.846 160.751 202.577 161.398 203.548C161.672 204.035 162.09 204.416 162.459 204.799C162.877 205.179 163.291 205.46 163.85 205.634C164.563 205.9 165.32 206.014 166.119 205.976C173.211 205.639 175.558 200.271 177.433 194.426C177.514 194.021 177.645 193.615 177.778 193.258C177.992 192.497 178.156 191.738 178.32 190.98C178.96 188.647 179.441 186.121 179.776 183.702C179.883 182.796 180.04 181.888 180.2 181.029C180.4 179.968 180.599 178.908 180.802 177.897C180.84 177.645 180.93 177.44 180.968 177.188C181.22 176.175 181.425 175.214 181.527 174.208C181.599 173.604 181.572 173.055 181.399 172.563C181.099 171.526 180.517 170.853 179.406 170.655C178.949 170.527 178.452 170.6 177.917 170.926C177.139 171.414 176.68 172.286 176.369 173.102C176.012 174.02 175.805 174.931 175.551 175.894C175.094 177.868 174.789 179.885 174.435 181.904C174.437 181.954 174.439 182.004 174.442 182.054C174.294 184.213 173.595 187.4 173.043 189.479C172.669 191.098 172.298 192.768 171.977 194.435C171.887 194.639 171.849 194.891 171.758 195.096C171.273 196.471 170.141 198.977 168.614 199.5C167.922 199.683 167.268 199.614 166.892 199.082C166.735 198.939 166.623 198.694 166.564 198.497C166.395 198.104 166.326 197.707 166.205 197.262C166.198 197.112 166.191 196.963 166.184 196.813C166.207 196.261 166.281 195.707 166.305 195.155C166.376 194.551 166.445 193.897 166.464 193.245C166.503 192.993 166.543 192.791 166.484 192.594C166.467 192.244 166.5 191.892 166.583 191.538C166.617 191.186 166.702 190.881 166.736 190.529C166.974 189.217 167.264 187.951 167.552 186.636C167.723 186.027 167.842 185.371 167.963 184.765C168.192 183.252 168.572 181.782 168.951 180.263C168.948 180.213 168.948 180.213 168.946 180.163C169.16 179.402 169.374 178.641 169.541 177.932C169.743 176.921 169.947 175.96 170.152 175C170.276 174.443 170.297 173.841 170.271 173.292C170.292 172.69 170.216 172.143 169.99 171.603C169.926 171.306 169.765 171.064 169.505 170.876C168.88 170.355 168.026 170.295 167.087 170.54C166.395 170.723 165.867 171.199 165.498 171.867C165.134 172.635 164.868 173.349 164.853 174.1C164.81 174.252 164.77 174.455 164.777 174.604C164.606 175.213 164.482 175.77 164.361 176.376C164.071 177.641 163.78 178.907 163.488 180.122C163.121 181.891 162.755 183.661 162.386 185.38C162.343 185.532 162.351 185.682 162.308 185.834L162.258 185.837C162.263 185.937 162.217 186.039 162.175 186.191C161.977 187.302 161.73 188.415 161.532 189.525C161.385 190.634 161.135 191.697 161.035 192.753C160.923 193.559 160.761 194.368 160.649 195.174C160.495 196.132 160.34 197.091 160.238 198.097C160.214 198.648 160.188 199.15 160.214 199.7ZM183.121 198.26C183.76 202.234 187.085 204.779 190.995 204.893C193.292 204.784 194.864 204.159 196.541 202.577C196.736 202.468 196.879 202.311 197.074 202.202C198.665 200.924 199.742 199.372 200.453 197.486C200.632 197.027 200.808 196.518 201.036 196.056C201.443 195.136 201.697 194.173 201.855 193.264C202.014 192.406 201.926 191.609 201.593 190.924C201.427 190.582 201.113 190.296 200.801 190.061C200.44 189.828 200.085 189.744 199.636 189.766C198.687 189.811 197.617 190.462 197.105 191.288C196.875 191.699 196.694 192.108 196.563 192.515C196.301 193.328 196.04 194.142 195.778 194.955C195.471 195.87 195.012 196.743 194.503 197.618C194.458 197.721 194.363 197.825 194.268 197.93C193.842 198.451 193.409 198.822 192.762 198.903C192.315 198.974 191.868 199.045 191.511 198.912C190.334 198.367 189.587 197.402 189.326 196.113C189.012 194.776 188.943 193.328 188.974 191.875C189.186 190.012 189.597 188.141 190.213 186.359C190.299 186.055 190.385 185.751 190.47 185.446C190.737 184.733 191.003 184.019 191.27 183.306C191.838 181.577 192.687 179.434 194.029 178.169C194.462 177.798 194.897 177.477 195.33 177.106C195.717 176.837 196.157 176.616 196.602 176.495C197.192 176.267 197.696 176.343 197.97 176.83C198.186 177.17 198.302 177.515 198.371 177.912C198.4 178.512 198.431 179.161 198.312 179.817C198.19 180.424 198.119 181.028 198.05 181.682C197.931 182.338 197.964 183.038 198.093 183.632C198.445 184.717 199.286 185.578 200.485 185.521C200.935 185.499 201.427 185.326 201.912 185.002C203.07 184.096 203.708 182.764 204.093 181.395C204.272 180.936 204.298 180.434 204.374 179.93C204.488 179.173 204.555 178.469 204.669 177.713C204.783 176.957 204.798 176.205 204.714 175.508C204.679 174.759 204.496 174.067 204.263 173.377C203.937 171.791 202.058 170.179 200.541 169.85C199.984 169.727 199.333 169.708 198.733 169.736C197.732 169.734 196.643 169.986 195.608 170.335C194.821 170.623 194.091 171.058 193.361 171.493C191.846 172.266 189.677 175.072 188.687 176.371C187.091 178.599 186.066 181.251 185.188 183.845C184.881 184.761 184.577 185.727 184.27 186.642C183.552 189.429 183.135 192.252 182.921 195.116C182.873 196.219 182.973 197.266 183.121 198.26ZM206.139 202.721C206.332 203.613 207.197 203.923 208.004 204.034C208.608 204.106 209.2 203.927 209.785 203.599C211.095 202.736 211.745 201.654 212.075 200.187C212.194 199.53 212.313 198.874 212.43 198.168C212.551 196.51 212.825 194.895 213.198 193.276C213.37 192.667 213.491 192.06 213.612 191.454C213.784 190.845 213.955 190.236 214.126 189.627C214.304 189.168 214.635 188.752 215.068 188.381C215.213 188.274 215.41 188.215 215.56 188.208C215.96 188.189 216.359 188.17 216.759 188.151C217.356 188.072 217.862 188.198 218.371 188.374C218.676 188.46 218.883 188.6 219.094 188.84C219.201 188.986 219.261 189.183 219.273 189.433C219.292 189.832 219.211 190.236 219.132 190.691C218.585 192.869 218.138 195.043 217.843 197.259C217.845 197.309 217.8 197.412 217.802 197.462C217.774 197.913 217.695 198.368 217.667 198.82C217.641 199.321 217.614 199.823 217.588 200.325C217.626 201.124 217.835 202.366 218.749 202.622C218.851 202.668 218.953 202.713 219.058 202.808C219.419 203.041 219.871 203.07 220.371 203.046C221.162 202.858 221.648 202.535 222.171 201.959C222.689 201.284 223.058 200.615 223.222 199.857C223.439 199.146 223.603 198.387 223.717 197.631C223.955 196.318 224.193 195.005 224.481 193.69C224.84 191.771 225.297 189.797 225.554 187.832C225.708 186.874 225.863 185.916 226.068 184.955C226.298 183.492 226.577 181.977 226.857 180.512C227.122 178.698 227.538 176.926 227.852 175.109C227.935 174.755 228.016 174.35 228.049 173.998C228.128 173.544 228.204 173.04 228.283 172.586C228.363 172.181 228.444 171.777 228.528 171.423C228.608 171.018 228.692 170.664 228.675 170.314C228.621 169.166 228.212 167.934 227.039 167.489C226.123 167.182 225.239 167.525 224.43 168.414C224.054 168.932 223.633 169.553 223.412 170.164C222.546 171.957 222.049 174.133 221.792 176.098C221.628 176.857 221.561 177.561 221.447 178.317C221.24 179.228 220.983 180.141 220.776 181.052C220.686 181.256 220.643 181.408 220.55 181.563C220.567 181.913 219.689 182.405 219.392 182.469C218.453 182.714 217.551 182.707 216.69 182.497C216.286 182.417 215.974 182.181 215.808 181.839C215.582 181.299 215.504 180.702 215.62 179.995C215.775 179.037 215.979 178.076 216.184 177.115C216.296 176.309 216.408 175.503 216.57 174.694C216.643 174.14 216.767 173.584 216.791 173.032C216.893 172.026 216.848 171.077 216.605 170.188C216.541 169.89 216.43 169.645 216.318 169.4C216.101 169.06 215.892 168.87 215.533 168.687C215.431 168.642 215.279 168.599 215.129 168.606C214.525 168.535 213.937 168.813 213.407 169.238C212.201 170.197 211.763 171.519 211.38 172.939C211.204 173.448 211.078 173.954 210.954 174.511C210.79 175.27 210.576 176.031 210.412 176.789C210.079 178.207 209.796 179.622 209.563 181.034C209.437 181.541 209.413 182.093 209.289 182.649C208.937 184.718 208.485 186.792 208.135 188.911C207.74 191.132 207.348 193.404 206.953 195.625C206.793 196.483 206.684 197.34 206.525 198.198C206.525 198.198 206.527 198.248 206.529 198.298C206.458 198.902 206.339 199.558 206.168 200.167C206.132 200.469 206.046 200.774 206.011 201.076C205.937 201.63 206.015 202.227 206.139 202.721ZM231.704 194.448C231.806 194.493 231.814 194.643 231.868 194.74C232.039 195.183 232.351 195.418 232.853 195.444C233.604 195.459 234.289 195.126 234.908 194.446C235.331 193.875 235.704 193.306 235.926 192.695C236.199 192.132 236.371 191.523 236.594 190.962C237.175 189.482 237.75 187.903 238.126 186.334C238.297 185.725 238.469 185.116 238.642 184.557C238.768 184.051 238.897 183.594 239.073 183.085C239.318 181.922 239.715 180.802 240.112 179.682C240.324 178.871 240.488 178.112 240.7 177.301C240.697 177.251 240.743 177.149 240.738 177.049C240.997 176.186 241.204 175.275 241.411 174.364C241.751 173.096 241.987 171.734 242.025 170.43C242.054 169.979 242.032 169.529 241.913 169.134C241.664 168.095 240.955 167.928 240.049 167.821C239.499 167.847 238.95 167.874 238.405 168C236.726 168.48 235.73 169.629 235.256 171.253C234.921 172.62 234.685 173.983 234.45 175.346C234.455 175.446 234.457 175.496 234.459 175.546C234.35 176.402 234.238 177.208 234.129 178.064C234.014 178.82 233.85 179.579 233.739 180.385C233.741 180.435 233.743 180.485 233.746 180.535C233.672 181.089 233.598 181.643 233.527 182.247C233.413 183.004 233.301 183.81 233.137 184.569C232.949 185.879 232.708 187.142 232.47 188.455L232.42 188.457C232.18 189.72 231.942 191.033 231.752 192.293C231.676 192.797 231.6 193.301 231.573 193.803C231.535 194.055 231.545 194.255 231.704 194.448ZM230.534 202.462C230.895 202.696 231.352 202.824 231.899 202.748C233.789 202.508 235.064 200.895 235.481 199.124C235.604 198.567 235.523 197.92 235.302 197.48C234.965 196.695 234.147 196.334 233.157 196.581C232.563 196.71 232.023 196.935 231.433 197.164C231.238 197.273 231.09 197.33 230.945 197.437C230.508 197.708 230.125 198.077 229.847 198.541C229.663 198.9 229.53 199.256 229.447 199.611C229.109 200.928 229.554 201.858 230.534 202.462Z" fill="white"/>
<g filter="url(#filter0_d_1_2)">
<g clip-path="url(#clip2_1_2)">
<path d="M306.815 239.921L252.733 228.692C249.424 228.005 247.299 224.767 247.986 221.458L271.2 109.654C273.298 99.549 283.187 93.0604 293.293 95.1585L322.767 101.278C332.872 103.376 339.361 113.266 337.263 123.371L314.049 235.175C313.362 238.484 310.124 240.608 306.815 239.921Z" fill="white" stroke="#00414C" stroke-width="6" stroke-miterlimit="10" stroke-linecap="round" stroke-linejoin="round"/>
<path d="M342.495 56.6828L332.294 105.816" stroke="#00414C" stroke-width="6" stroke-miterlimit="10" stroke-linecap="round" stroke-linejoin="round"/>
<path d="M315.065 166.77L274.293 158.305C272.025 157.834 270.567 155.611 271.037 153.344L276.455 127.254C276.925 124.986 279.148 123.528 281.416 123.998L322.188 132.464C324.456 132.935 325.914 135.157 325.443 137.425L320.026 163.515C319.547 165.788 317.333 167.241 315.065 166.77Z" stroke="#00414C" stroke-width="6" stroke-miterlimit="10" stroke-linecap="round" stroke-linejoin="round"/>
<path d="M267.932 169.064L283.958 172.391" stroke="#00414C" stroke-width="6" stroke-miterlimit="10" stroke-linecap="round" stroke-linejoin="round"/>
<path d="M265.719 179.72L273.729 181.383" stroke="#00414C" stroke-width="6" stroke-miterlimit="10" stroke-linecap="round" stroke-linejoin="round"/>
<path d="M285.488 183.825L293.505 185.489" stroke="#00414C" stroke-width="6" stroke-miterlimit="10" stroke-linecap="round" stroke-linejoin="round"/>
<path d="M305.023 187.881L313.033 189.544" stroke="#00414C" stroke-width="6" stroke-miterlimit="10" stroke-linecap="round" stroke-linejoin="round"/>
<path d="M263.508 190.37L271.518 192.033" stroke="#00414C" stroke-width="6" stroke-miterlimit="10" stroke-linecap="round" stroke-linejoin="round"/>
<path d="M283.277 194.474L291.294 196.139" stroke="#00414C" stroke-width="6" stroke-miterlimit="10" stroke-linecap="round" stroke-linejoin="round"/>
<path d="M302.812 198.53L310.821 200.194" stroke="#00414C" stroke-width="6" stroke-miterlimit="10" stroke-linecap="round" stroke-linejoin="round"/>
<path d="M261.297 201.019L269.306 202.683" stroke="#00414C" stroke-width="6" stroke-miterlimit="10" stroke-linecap="round" stroke-linejoin="round"/>
<path d="M281.066 205.124L289.082 206.789" stroke="#00414C" stroke-width="6" stroke-miterlimit="10" stroke-linecap="round" stroke-linejoin="round"/>
<path d="M300.601 209.18L308.61 210.843" stroke="#00414C" stroke-width="6" stroke-miterlimit="10" stroke-linecap="round" stroke-linejoin="round"/>
<path d="M259.084 211.676L267.094 213.339" stroke="#00414C" stroke-width="6" stroke-miterlimit="10" stroke-linecap="round" stroke-linejoin="round"/>
<path d="M278.853 215.781L286.87 217.445" stroke="#00414C" stroke-width="6" stroke-miterlimit="10" stroke-linecap="round" stroke-linejoin="round"/>
<path d="M298.388 219.837L306.398 221.5" stroke="#00414C" stroke-width="6" stroke-miterlimit="10" stroke-linecap="round" stroke-linejoin="round"/>
<path d="M299.219 175.56L315.245 178.887" stroke="#00414C" stroke-width="6" stroke-miterlimit="10" stroke-linecap="round" stroke-linejoin="round"/>
<path d="M296.185 114.993L312.218 118.322" stroke="#00414C" stroke-width="6" stroke-miterlimit="10" stroke-linecap="round" stroke-linejoin="round"/>
<path d="M342.495 56.6828C345.609 57.3294 348.658 55.3291 349.304 52.2151C349.951 49.1011 347.951 46.0525 344.837 45.4059C341.723 44.7593 338.674 46.7596 338.027 49.8737C337.381 52.9877 339.381 56.0363 342.495 56.6828Z" stroke="#00414C" stroke-width="6" stroke-miterlimit="10" stroke-linecap="round" stroke-linejoin="round"/>
<path d="M331.484 69.201C324.321 64.392 320.401 55.5683 322.263 46.6005C324.718 34.779 336.288 27.1871 348.11 29.6416C359.931 32.0961 367.523 43.6668 365.069 55.4882C363.228 64.3526 356.258 70.8433 347.898 72.4941" stroke="#FCB23A" stroke-width="6" stroke-miterlimit="10" stroke-linecap="round" stroke-linejoin="round"/>
<path d="M323.149 81.9873C311.153 73.9314 304.587 59.1513 307.705 44.1315C311.816 24.3348 331.203 11.6143 350.999 15.7247C370.796 19.8351 383.517 39.2221 379.406 59.0188C376.323 73.8663 364.647 84.7365 350.649 87.5031" stroke="#FCB23A" stroke-width="6" stroke-miterlimit="10" stroke-linecap="round" stroke-linejoin="round"/>
</g>
</g>
</g>
</g>
<defs>
<filter id="filter0_d_1_2" x="194.04" y="-16.6678" width="239.757" height="296.336" filterUnits="userSpaceOnUse" color-interpolation-filters="sRGB">
<feFlood flood-opacity="0" result="BackgroundImageFix"/>
<feColorMatrix in="SourceAlpha" type="matrix" values="0 0 0 0 0 0 0 0 0 0 0 0 0 0 0 0 0 0 127 0" result="hardAlpha"/>
<feOffset dy="4"/>
<feGaussianBlur stdDeviation="2"/>
<feComposite in2="hardAlpha" operator="out"/>
<feColorMatrix type="matrix" values="0 0 0 0 0 0 0 0 0 0 0 0 0 0 0 0 0 0 0.25 0"/>
<feBlend mode="normal" in2="BackgroundImageFix" result="effect1_dropShadow_1_2"/>
<feBlend mode="normal" in="SourceGraphic" in2="effect1_dropShadow_1_2" result="shape"/>
</filter>
<clipPath id="clip0_1_2">
<rect width="400" height="318" fill="white"/>
</clipPath>
<clipPath id="clip1_1_2">
<rect width="422.419" height="321" fill="white" transform="translate(8 -17)"/>
</clipPath>
<clipPath id="clip2_1_2">
<rect x="250.164" y="-16.6678" width="183.465" height="256.392" transform="rotate(11.7297 250.164 -16.6678)" fill="white"/>
</clipPath>
</defs>
</svg>
