<svg width="423" height="321" viewBox="0 0 423 321" fill="none" xmlns="http://www.w3.org/2000/svg">
<path d="M50.4966 318.624C50.4281 320.003 49.2546 321.065 47.8756 320.997L25.4033 319.879C24.0243 319.811 22.962 318.637 23.0306 317.258C23.0991 315.879 24.2726 314.817 25.6516 314.885L45.627 315.879L46.6201 295.903C46.6887 294.524 47.8622 293.462 49.2412 293.531C50.6202 293.599 51.6825 294.773 51.614 296.152L50.4966 318.624ZM70.3197 213.861C68.904 214.353 67.4992 214.901 66.1098 215.502L64.1236 210.913C65.6251 210.264 67.1453 209.671 68.6796 209.138L70.3197 213.861ZM58.0816 219.685C55.5202 221.259 53.0529 223.021 50.7117 224.953L47.5287 221.097C50.049 219.017 52.7052 217.12 55.4637 215.425L58.0816 219.685ZM44.1469 231.193C42.1153 233.418 40.2394 235.79 38.5488 238.293L34.4054 235.494C36.236 232.784 38.2637 230.221 40.455 227.821L44.1469 231.193ZM34.0844 246.132C32.813 248.834 31.7496 251.646 30.9219 254.553L26.1129 253.184C27.017 250.009 28.177 246.942 29.5603 244.003L34.0844 246.132ZM29.1923 263.374C28.8714 266.294 28.7864 269.29 28.9624 272.349L23.9706 272.637C23.7786 269.297 23.8712 266.023 24.2222 262.828L29.1923 263.374ZM30.2001 281.268C30.8256 284.114 31.6815 287.006 32.7878 289.934L28.1104 291.701C26.9207 288.552 25.9951 285.428 25.3167 282.342L30.2001 281.268ZM36.5466 298.205C37.9194 300.786 39.4934 303.388 41.2817 306.007L37.1526 308.827C35.2646 306.062 33.5947 303.302 32.1323 300.553L36.5466 298.205ZM46.822 313.331C47.7882 314.493 48.7982 315.657 49.8531 316.822L46.1463 320.178C45.0454 318.961 43.9894 317.744 42.9774 316.527L46.822 313.331Z" fill="#00414C"/>
<rect x="59" y="51" width="257" height="257" rx="128.5" fill="#00414C"/>
<path d="M113.052 173.288C113.335 173.976 113.718 174.658 114.339 175.079C115.333 175.983 116.312 176.587 117.718 176.671C118.672 176.725 119.671 176.678 120.662 176.48C122.244 176.055 124.648 175.039 125.949 173.976C127.165 173.218 129.103 170.823 129.282 169.313C129.36 168.859 129.486 168.352 129.715 167.891C130.033 167.225 130.252 166.564 130.423 165.955C130.93 163.979 131.384 161.955 131.689 159.938C131.765 159.434 131.791 158.932 131.72 158.485C131.634 157.738 131.261 157.255 130.552 157.089C130.45 157.044 130.35 157.048 130.298 157.001C129.744 156.927 129.19 156.853 128.64 156.879C127.841 156.917 126.997 157.058 126.203 157.196C124.459 157.379 122.226 157.785 121.358 159.528C121.315 159.68 121.222 159.835 121.177 159.937C120.78 161.057 121.215 161.788 121.881 162.106C122.188 162.242 122.54 162.275 122.892 162.309C123.393 162.335 123.843 162.313 124.345 162.34C124.594 162.328 124.749 162.42 124.809 162.618C124.918 162.813 124.93 163.063 124.892 163.315C124.827 164.069 124.716 164.875 124.502 165.636C124.506 165.736 124.463 165.888 124.418 165.99L123.85 167.719C123.583 168.433 123.315 169.096 122.946 169.764C122.715 170.176 122.432 170.54 122.047 170.858C121.616 171.279 121.072 171.405 120.617 171.327C120.111 171.201 119.65 170.972 119.331 170.587C119.01 170.152 118.784 169.612 118.656 169.017C118.518 168.223 118.527 167.372 118.634 166.465C118.699 165.712 118.86 164.903 118.975 164.147C119.331 162.178 119.738 160.206 120.195 158.232C120.309 157.476 120.476 156.767 120.592 156.061C120.716 155.504 120.842 154.998 121.016 154.439C121.011 154.339 121.054 154.187 121.147 154.032C121.465 153.366 121.734 152.703 122.1 151.984C122.374 151.421 122.695 150.805 123.018 150.239C123.527 149.364 124.329 148.324 125.314 147.977C125.708 147.858 126.01 147.894 126.32 148.08C126.576 148.218 126.791 148.508 127.002 148.748C127.054 148.796 127.059 148.895 127.062 148.945C127.192 149.59 127.326 150.284 127.259 150.988C127.233 151.49 127.159 152.044 127.135 152.596C127.107 153.048 127.13 153.547 127.154 154.047C127.37 155.438 128.766 156.373 130.491 155.79C131.725 155.431 132.434 154.547 132.931 153.422C133.212 153.008 133.39 152.549 133.418 152.097C133.414 151.997 133.411 151.947 133.459 151.895C133.683 151.334 133.756 150.779 133.88 150.223C133.958 149.769 133.939 149.369 133.821 148.974C133.716 146.777 133.157 144.501 131.628 142.872C131.314 142.586 130.789 142.061 130.43 141.877C129.868 141.654 129.053 141.342 128.403 141.373C128.054 141.39 127.704 141.406 127.352 141.373C126.8 141.349 126.204 141.428 125.657 141.504C120.21 142.764 116.502 148.997 115.042 154.072C114.913 154.529 114.785 154.985 114.656 155.442C114.437 156.103 114.268 156.762 114.102 157.471C113.246 160.515 112.042 165.728 112.196 168.974C112.22 170.525 112.439 171.966 113.052 173.288ZM135.468 173.424C136.153 175.193 138.265 175.393 139.913 175.315C140.362 175.293 140.812 175.272 141.261 175.251C141.663 175.282 142.063 175.263 142.462 175.244C142.914 175.272 143.314 175.253 143.713 175.234C144.21 175.16 144.66 175.139 145.107 175.068C145.456 175.051 145.806 175.034 146.158 175.068C146.86 175.084 147.509 175.054 148.256 174.968C149.804 174.894 151.726 174.252 152.249 172.626C152.287 172.374 152.375 172.119 152.563 171.86C152.653 171.655 152.744 171.451 152.782 171.199C152.858 170.695 152.836 170.245 152.565 169.808C152.026 168.982 150.863 168.737 149.964 168.78C149.212 168.766 148.513 168.799 147.766 168.884C146.867 168.927 145.973 169.07 145.076 169.163C144.527 169.189 143.977 169.215 143.428 169.241C143.178 169.253 142.876 169.217 142.624 169.179C142.272 169.146 142.015 169.008 141.806 168.817C141.649 168.675 141.592 168.527 141.63 168.275C141.702 167.671 141.723 167.069 141.892 166.411C141.932 166.209 142.023 166.004 142.061 165.752C142.306 164.589 142.549 163.376 142.893 162.208C143.065 161.6 143.574 160.724 144.216 160.544C144.513 160.479 144.858 160.363 145.158 160.349C146.154 160.251 147.153 160.204 148.154 160.206C149.208 160.256 150.254 160.156 151.344 159.904C152.535 159.698 153.655 159.044 154.048 157.824C154.305 156.91 154.072 156.221 153.691 155.588C153.368 155.103 152.807 154.879 152.202 154.808C151.698 154.732 151.146 154.708 150.599 154.784C150.05 154.81 149.501 154.836 149.001 154.86C147.955 154.96 146.899 154.86 145.938 154.655C145.686 154.617 145.434 154.579 145.179 154.491C144.927 154.453 144.77 154.31 144.808 154.058C144.799 153.858 144.74 153.661 144.73 153.461C144.706 152.962 144.732 152.46 144.809 151.956C144.868 151.102 145.127 150.239 145.441 149.473C145.572 149.066 145.703 148.66 145.884 148.251C146.017 147.894 146.203 147.585 146.44 147.323C146.909 146.65 147.691 146.262 148.491 146.224C149.085 146.096 149.632 146.02 150.229 145.942C151.026 145.854 151.825 145.816 152.622 145.728C153.418 145.64 154.265 145.549 155.109 145.409C156.248 145.155 157.281 144.755 157.88 143.676C157.97 143.471 158.061 143.267 158.101 143.064C158.315 142.303 158.308 141.102 157.286 140.65C157.081 140.56 156.877 140.47 156.625 140.432C156.218 140.301 155.716 140.275 155.267 140.296C154.567 140.329 153.868 140.362 153.169 140.396C152.769 140.415 152.37 140.434 151.97 140.453C151.074 140.545 150.225 140.586 149.328 140.678C148.581 140.764 147.785 140.852 146.985 140.89C146.091 141.033 145.245 141.123 144.348 141.216C143.049 141.277 142.122 141.772 141.577 142.949C141.211 143.667 140.994 144.378 140.778 145.09C140.557 145.701 140.435 146.307 140.264 146.916C140.269 147.016 140.224 147.118 140.178 147.22C140.007 147.829 139.836 148.438 139.665 149.047C139.184 151.573 138.651 154.051 138.121 156.579C137.657 158.403 137.295 160.272 137.031 162.087C136.738 164.353 136.351 166.724 135.756 168.955C135.542 169.716 135.378 170.475 135.313 171.229C135.249 171.982 135.285 172.732 135.468 173.424ZM160.501 144.902C160.618 145.247 160.832 145.537 161.138 145.673C161.293 145.766 161.495 145.806 161.697 145.847C162.256 146.02 162.908 146.039 163.559 146.058C164.411 146.068 165.31 146.025 166.161 146.035C166.361 146.025 166.513 146.068 166.67 146.211C166.722 146.258 166.777 146.356 166.83 146.404C166.934 146.499 166.991 146.646 166.898 146.801C166.901 146.851 166.903 146.901 166.906 146.951C166.444 148.825 166.132 150.691 165.671 152.566C165.504 153.274 165.338 153.983 165.169 154.642C164.964 155.603 164.712 156.616 164.508 157.576C163.62 161.022 162.888 164.561 162.305 168.093C162.138 168.802 162.071 169.506 161.957 170.262C161.879 170.716 161.85 171.168 161.772 171.622C161.738 171.974 161.755 172.324 161.769 172.623C161.81 173.473 161.948 174.267 162.813 174.576C163.32 174.702 163.867 174.626 164.454 174.348C165.677 173.739 166.533 172.797 167.075 171.57C167.43 170.602 167.684 169.639 167.836 168.631C168.153 166.864 168.472 165.147 168.788 163.38C169.031 162.167 169.273 160.954 169.468 159.793L169.518 159.791C169.714 158.63 169.911 157.52 170.108 156.409C170.392 154.994 170.625 153.581 170.958 152.164C171.379 150.492 171.748 148.773 172.119 147.103C172.162 146.951 172.154 146.801 172.2 146.699C172.238 146.447 172.378 146.24 172.571 146.08C172.766 145.971 172.913 145.914 173.113 145.905C173.512 145.886 173.862 145.869 174.212 145.852C174.911 145.819 175.608 145.736 176.347 145.5C176.445 145.446 176.545 145.441 176.695 145.434C178.583 145.144 179.989 144.176 180.093 142.169C180.117 141.617 179.944 141.125 179.53 140.844C179.32 140.654 179.116 140.563 178.812 140.478C177.955 140.368 177.201 140.304 176.302 140.347C176.15 140.304 176 140.311 175.851 140.318C175.546 140.233 175.247 140.247 174.949 140.311C174.552 140.38 174.202 140.397 173.803 140.416C173.556 140.477 173.304 140.439 173.056 140.501C172.462 140.629 171.817 140.76 171.215 140.739C171.066 140.746 170.916 140.753 170.766 140.76C169.822 140.905 168.868 140.85 167.964 140.793C167.612 140.76 167.26 140.727 166.911 140.743C166.514 140.812 166.162 140.779 165.814 140.845C165.465 140.862 165.165 140.876 164.865 140.891C164.718 140.948 164.568 140.955 164.366 140.914C163.864 140.888 163.365 140.912 162.777 141.19C162.63 141.247 162.482 141.304 162.335 141.361C162.04 141.475 161.747 141.64 161.512 141.951C161.272 142.163 161.036 142.474 160.848 142.733C160.611 142.995 160.523 143.25 160.437 143.554C160.311 144.061 160.382 144.508 160.501 144.902ZM189.52 171.304C189.718 172.296 190.467 173.311 191.523 173.411C192.077 173.485 192.617 173.259 193.097 172.836C193.435 172.569 193.67 172.258 193.906 171.946C194.277 171.328 194.598 170.712 194.817 170.051C195.178 169.233 195.338 168.374 195.599 167.561C195.725 167.054 195.849 166.498 195.975 165.991C196.185 165.13 196.444 164.267 196.603 163.408C197.017 161.587 197.331 159.77 197.795 157.946C198.128 156.528 198.411 155.113 198.744 153.696C199.07 152.129 199.346 150.564 199.772 148.992C200.288 147.215 200.676 144.844 200.89 143.032C200.962 142.428 201.035 141.874 200.957 141.277C200.943 140.977 200.976 140.625 200.959 140.275C200.909 139.227 200.745 137.883 199.485 137.693C198.931 137.619 198.332 137.647 197.742 137.876C196.955 138.163 196.377 138.641 196.013 139.409C195.879 139.766 195.746 140.123 195.663 140.477C194.559 144.634 193.815 148.975 193.115 153.213C192.749 154.982 192.282 156.756 191.764 158.483C191.514 159.546 191.214 160.611 190.965 161.674C190.586 163.194 190.256 164.661 189.927 166.179C189.682 167.342 189.49 168.552 189.394 169.708C189.371 170.26 189.397 170.809 189.52 171.304ZM202.151 171.604C202.382 172.244 202.853 172.672 203.466 172.943C204.08 173.214 204.731 173.233 205.428 173.15C206.273 173.01 206.991 172.325 207.253 171.512C207.388 171.205 207.526 170.948 207.714 170.689C207.949 170.377 208.083 170.021 208.216 169.664C208.899 167.179 209.327 164.605 209.708 162.085C210.022 160.268 210.388 158.498 210.854 156.724C210.945 156.519 211.035 156.315 211.175 156.108C211.223 156.056 211.323 156.051 211.375 156.099C211.634 156.286 211.798 156.579 211.865 156.926C212.077 158.218 212.338 159.507 212.647 160.743C212.956 161.98 213.168 163.271 213.329 164.565C213.498 166.009 213.715 167.4 214.031 168.787C214.249 170.228 214.939 171.046 216.271 171.684C216.63 171.867 217.082 171.895 217.527 171.774C218.319 171.586 218.951 171.206 219.365 170.435C220.557 167.075 221.09 163.546 221.623 160.016C221.78 159.108 221.987 158.197 222.141 157.238C222.429 155.923 222.667 154.61 223.007 153.343C223.217 152.482 223.376 151.623 223.535 150.765C223.816 149.3 224.099 147.885 224.48 146.415C224.946 144.641 225.362 142.869 225.677 141.052C225.841 140.294 225.807 139.594 225.724 138.898C225.648 138.351 225.427 137.911 225.061 137.578C224.749 137.342 224.44 137.157 224.083 137.023C223.17 136.766 222.133 137.066 221.322 137.906C220.939 138.274 220.611 138.74 220.433 139.199C219.572 141.092 218.974 143.273 218.722 145.337C218.563 146.196 218.451 147.002 218.292 147.861C218.215 148.365 218.139 148.869 218.013 149.376C217.899 150.132 217.782 150.838 217.668 151.595C217.675 151.744 217.63 151.847 217.585 151.949C217.537 152.001 217.492 152.103 217.395 152.158C217.297 152.213 217.245 152.165 217.193 152.118C217.138 152.02 217.033 151.925 217.028 151.825C216.805 151.335 216.631 150.843 216.505 150.298C216.063 147.316 215.573 144.386 214.834 141.468C214.656 140.876 214.475 140.233 214.197 139.646C213.978 139.256 213.759 138.866 213.493 138.528C213.072 138.098 212.553 137.722 211.85 137.655C210.993 137.546 210.204 137.784 209.485 138.468C208.765 139.103 208.13 140.485 207.923 141.396C207.711 142.207 207.597 142.963 207.435 143.772C207.352 144.126 207.271 144.53 207.14 144.937C206.926 145.698 206.764 146.507 206.6 147.265C206.191 149.187 205.734 151.161 205.173 153.04C204.963 153.901 204.704 154.764 204.545 155.622C204.504 155.825 204.464 156.027 204.421 156.179C204.295 156.686 204.169 157.192 204.043 157.699C203.626 159.47 203.26 161.24 202.944 163.007C202.829 163.763 202.713 164.469 202.549 165.228C202.47 165.682 202.444 166.184 202.318 166.691C202.166 167.699 202.013 168.707 201.913 169.763C201.844 170.417 201.923 171.014 202.151 171.604ZM110.399 195.339C110.515 195.684 110.729 195.974 111.036 196.11C111.191 196.203 111.393 196.243 111.595 196.283C112.154 196.457 112.806 196.476 113.457 196.495C114.309 196.505 115.208 196.462 116.059 196.472C116.259 196.462 116.411 196.505 116.568 196.648C116.62 196.695 116.675 196.793 116.727 196.84C116.832 196.935 116.889 197.083 116.796 197.238C116.799 197.287 116.801 197.337 116.803 197.387C116.342 199.261 116.03 201.128 115.569 203.002C115.402 203.711 115.236 204.42 115.067 205.079C114.862 206.039 114.61 207.052 114.405 208.013C113.518 211.459 112.785 214.998 112.202 218.53C112.036 219.238 111.969 219.942 111.855 220.699C111.777 221.153 111.748 221.605 111.669 222.059C111.636 222.411 111.653 222.761 111.667 223.06C111.707 223.909 111.845 224.704 112.711 225.013C113.218 225.139 113.765 225.063 114.352 224.785C115.574 224.176 116.431 223.234 116.973 222.007C117.327 221.039 117.582 220.076 117.734 219.068C118.051 217.301 118.369 215.583 118.686 213.816C118.929 212.604 119.171 211.391 119.366 210.23L119.416 210.228C119.611 209.067 119.809 207.957 120.006 206.846C120.289 205.431 120.523 204.018 120.856 202.601C121.277 200.929 121.645 199.209 122.017 197.54C122.059 197.388 122.052 197.238 122.097 197.136C122.135 196.883 122.276 196.677 122.468 196.517C122.663 196.408 122.811 196.351 123.011 196.341C123.41 196.322 123.76 196.306 124.109 196.289C124.809 196.256 125.505 196.173 126.245 195.937C126.343 195.883 126.443 195.878 126.592 195.871C128.481 195.581 129.886 194.613 129.991 192.606C130.015 192.054 129.841 191.561 129.428 191.281C129.218 191.091 129.014 191 128.709 190.914C127.853 190.805 127.099 190.741 126.2 190.784C126.048 190.741 125.898 190.748 125.748 190.755C125.444 190.669 125.144 190.684 124.847 190.748C124.45 190.817 124.1 190.833 123.701 190.852C123.453 190.914 123.201 190.876 122.954 190.938C122.359 191.066 121.715 191.197 121.113 191.176C120.963 191.183 120.814 191.19 120.664 191.197C119.72 191.342 118.766 191.287 117.862 191.23C117.51 191.197 117.158 191.163 116.809 191.18C116.411 191.249 116.059 191.216 115.712 191.282C115.363 191.299 115.063 191.313 114.763 191.327C114.616 191.384 114.466 191.392 114.264 191.351C113.762 191.325 113.263 191.349 112.675 191.627C112.528 191.684 112.38 191.741 112.233 191.798C111.938 191.912 111.645 192.076 111.41 192.388C111.17 192.6 110.934 192.911 110.746 193.17C110.508 193.432 110.42 193.686 110.335 193.991C110.209 194.497 110.28 194.944 110.399 195.339ZM128.317 216.862C128.462 217.807 128.609 218.801 128.902 219.688C129.023 220.133 129.242 220.523 129.458 220.863C129.617 221.055 129.777 221.248 129.839 221.495C130.122 222.183 130.547 222.713 131.021 223.191C131.439 223.572 131.855 223.902 132.416 224.126C133.287 224.535 134.248 224.74 135.297 224.69C138.793 224.523 139.658 223.782 142.113 221.713C142.593 221.289 143.076 220.916 143.452 220.398C145.878 217.729 147.976 212.374 148.661 208.887C148.923 208.074 149.034 207.268 149.196 206.459C149.31 205.703 149.375 204.949 149.491 204.242C149.691 203.182 149.791 202.126 149.841 201.072C149.889 199.969 149.889 198.917 149.689 197.876C149.549 197.032 149.406 196.137 149.264 195.243C148.89 192.658 147.166 190.087 144.531 189.411C144.077 189.333 143.573 189.257 143.071 189.23C142.469 189.209 141.82 189.24 141.173 189.321C140.181 189.518 139.199 189.915 138.279 190.56C137.891 190.828 137.503 191.097 137.116 191.366C135.37 192.55 134.105 194.362 133.139 196.16C132.863 196.674 132.589 197.237 132.214 197.756C132.123 197.96 132.033 198.165 131.94 198.319C131.35 199.599 130.537 201.44 130.254 202.855C130.073 203.264 129.944 203.72 129.816 204.177C129.69 204.683 129.514 205.192 129.388 205.699C129.088 206.764 128.941 207.873 128.793 208.981L128.743 208.983C128.669 209.537 128.543 210.044 128.467 210.548C128.393 211.102 128.369 211.654 128.293 212.158C128.272 212.76 128.198 213.314 128.227 213.913C128.174 214.917 128.219 215.866 128.317 216.862ZM134.039 211.935C134.13 210.679 134.225 209.524 134.468 208.311C134.499 207.909 134.582 207.554 134.663 207.15C134.829 206.441 134.946 205.735 135.115 205.076C135.286 204.467 135.457 203.859 135.628 203.25C135.712 202.895 135.847 202.589 135.931 202.234C136.578 200.051 137.726 197.894 139.194 196.122C139.77 195.594 140.352 195.216 141.044 195.033C141.441 194.964 141.793 194.998 142.148 195.081C143.67 195.509 144.022 197.645 144.086 198.993C143.986 202.152 143.477 205.129 142.922 208.209C142.796 208.715 142.62 209.224 142.444 209.733C141.878 212.563 140.277 215.743 138.068 217.7C137.825 217.862 137.63 217.971 137.437 218.131C137.145 218.295 136.85 218.409 136.55 218.423C135.801 218.459 135.268 217.783 134.99 217.196C134.667 216.711 134.491 216.168 134.362 215.574C134.234 214.979 134.156 214.382 134.027 213.788C133.949 213.191 134.018 212.537 134.039 211.935ZM152.795 216.7C152.899 217.846 153.332 219.577 153.979 220.548C154.253 221.035 154.671 221.416 155.04 221.799C155.458 222.179 155.872 222.46 156.431 222.634C157.144 222.9 157.901 223.014 158.7 222.976C165.792 222.639 168.139 217.271 170.014 211.426C170.095 211.021 170.226 210.615 170.359 210.258C170.573 209.497 170.737 208.738 170.901 207.98C171.541 205.647 172.022 203.121 172.357 200.702C172.464 199.796 172.621 198.888 172.781 198.029C172.98 196.968 173.18 195.908 173.383 194.897C173.421 194.645 173.511 194.44 173.549 194.188C173.801 193.175 174.006 192.214 174.108 191.208C174.18 190.604 174.153 190.055 173.98 189.563C173.68 188.526 173.098 187.853 171.987 187.655C171.53 187.527 171.033 187.6 170.498 187.926C169.72 188.414 169.261 189.286 168.95 190.102C168.593 191.02 168.386 191.931 168.131 192.894C167.675 194.868 167.37 196.885 167.016 198.904C167.018 198.954 167.02 199.004 167.023 199.054C166.875 201.213 166.176 204.4 165.624 206.479C165.25 208.098 164.879 209.768 164.558 211.435C164.468 211.639 164.43 211.891 164.339 212.096C163.854 213.471 162.722 215.977 161.195 216.5C160.503 216.683 159.849 216.614 159.473 216.082C159.316 215.939 159.204 215.694 159.145 215.497C158.976 215.104 158.907 214.707 158.786 214.262C158.779 214.112 158.772 213.963 158.765 213.813C158.788 213.261 158.862 212.707 158.886 212.155C158.957 211.551 159.026 210.897 159.045 210.245C159.083 209.993 159.124 209.791 159.064 209.594C159.048 209.244 159.081 208.892 159.164 208.538C159.198 208.186 159.283 207.881 159.317 207.529C159.555 206.217 159.845 204.951 160.133 203.636C160.304 203.027 160.423 202.371 160.544 201.765C160.773 200.252 161.153 198.782 161.532 197.263C161.529 197.213 161.529 197.213 161.527 197.163C161.741 196.402 161.955 195.641 162.121 194.932C162.324 193.921 162.528 192.96 162.733 192C162.857 191.443 162.878 190.841 162.852 190.292C162.873 189.69 162.797 189.143 162.571 188.603C162.507 188.306 162.345 188.064 162.086 187.876C161.461 187.355 160.607 187.295 159.668 187.54C158.976 187.723 158.448 188.199 158.079 188.867C157.715 189.635 157.449 190.349 157.434 191.1C157.391 191.252 157.351 191.455 157.358 191.604C157.187 192.213 157.063 192.77 156.942 193.376C156.652 194.641 156.361 195.907 156.069 197.122C155.702 198.891 155.336 200.661 154.967 202.38C154.924 202.532 154.932 202.682 154.889 202.834L154.839 202.837C154.844 202.937 154.798 203.039 154.755 203.191C154.558 204.302 154.311 205.415 154.113 206.525C153.966 207.634 153.716 208.697 153.616 209.753C153.504 210.559 153.342 211.368 153.23 212.174C153.076 213.132 152.921 214.091 152.819 215.097C152.795 215.648 152.769 216.15 152.795 216.7ZM175.702 215.26C176.341 219.234 179.666 221.779 183.576 221.893C185.873 221.784 187.445 221.159 189.122 219.577C189.317 219.468 189.46 219.311 189.655 219.202C191.246 217.924 192.323 216.372 193.034 214.486C193.213 214.027 193.389 213.518 193.617 213.056C194.024 212.136 194.278 211.173 194.435 210.264C194.595 209.406 194.507 208.609 194.174 207.924C194.008 207.582 193.694 207.296 193.382 207.061C193.021 206.828 192.666 206.744 192.217 206.766C191.268 206.811 190.198 207.462 189.686 208.288C189.456 208.699 189.275 209.108 189.144 209.515C188.882 210.328 188.621 211.142 188.359 211.955C188.052 212.87 187.593 213.743 187.084 214.618C187.039 214.721 186.944 214.825 186.849 214.93C186.423 215.451 185.99 215.822 185.343 215.903C184.896 215.974 184.449 216.045 184.092 215.912C182.915 215.367 182.168 214.402 181.907 213.113C181.593 211.776 181.524 210.328 181.555 208.875C181.767 207.012 182.178 205.141 182.794 203.359C182.88 203.055 182.966 202.751 183.051 202.446C183.318 201.733 183.584 201.019 183.85 200.306C184.419 198.577 185.268 196.434 186.61 195.169C187.042 194.798 187.478 194.477 187.911 194.106C188.298 193.837 188.738 193.616 189.183 193.495C189.773 193.267 190.277 193.343 190.55 193.83C190.767 194.17 190.883 194.515 190.952 194.912C190.981 195.512 191.012 196.161 190.893 196.817C190.771 197.424 190.7 198.028 190.631 198.682C190.512 199.338 190.545 200.038 190.674 200.632C191.026 201.717 191.867 202.578 193.066 202.521C193.516 202.499 194.008 202.326 194.493 202.002C195.651 201.096 196.289 199.764 196.674 198.395C196.853 197.936 196.879 197.434 196.955 196.93C197.069 196.173 197.136 195.469 197.25 194.713C197.364 193.957 197.378 193.205 197.295 192.508C197.26 191.759 197.077 191.067 196.844 190.377C196.518 188.791 194.639 187.179 193.122 186.85C192.565 186.727 191.914 186.708 191.314 186.736C190.313 186.734 189.224 186.986 188.189 187.335C187.402 187.623 186.672 188.058 185.942 188.493C184.427 189.266 182.258 192.072 181.268 193.371C179.672 195.599 178.647 198.251 177.769 200.845C177.462 201.761 177.158 202.727 176.851 203.642C176.133 206.429 175.716 209.252 175.502 212.116C175.454 213.219 175.554 214.266 175.702 215.26ZM198.72 219.721C198.913 220.613 199.778 220.923 200.584 221.034C201.189 221.106 201.781 220.927 202.366 220.599C203.676 219.736 204.326 218.654 204.656 217.187C204.775 216.53 204.894 215.874 205.011 215.168C205.132 213.51 205.406 211.895 205.779 210.276C205.951 209.667 206.072 209.06 206.193 208.454C206.364 207.845 206.536 207.236 206.707 206.627C206.885 206.168 207.216 205.752 207.649 205.381C207.794 205.274 207.991 205.215 208.141 205.208C208.541 205.189 208.94 205.17 209.34 205.151C209.937 205.072 210.443 205.198 210.952 205.374C211.257 205.46 211.464 205.6 211.675 205.84C211.782 205.986 211.842 206.183 211.854 206.433C211.873 206.832 211.792 207.236 211.713 207.691C211.166 209.869 210.719 212.043 210.424 214.259C210.426 214.309 210.381 214.412 210.383 214.462C210.355 214.913 210.276 215.368 210.248 215.82C210.221 216.321 210.195 216.823 210.169 217.325C210.207 218.124 210.416 219.366 211.33 219.622C211.432 219.668 211.534 219.713 211.639 219.808C212 220.041 212.452 220.07 212.951 220.046C213.743 219.858 214.229 219.535 214.752 218.959C215.27 218.284 215.639 217.615 215.803 216.857C216.02 216.146 216.184 215.387 216.298 214.631C216.536 213.318 216.774 212.005 217.062 210.69C217.421 208.771 217.878 206.797 218.135 204.832C218.289 203.874 218.444 202.916 218.649 201.955C218.879 200.492 219.158 198.977 219.438 197.512C219.703 195.698 220.119 193.926 220.433 192.109C220.516 191.755 220.597 191.35 220.63 190.998C220.709 190.544 220.785 190.04 220.864 189.586C220.944 189.181 221.025 188.777 221.109 188.423C221.189 188.018 221.273 187.664 221.256 187.314C221.201 186.166 220.792 184.934 219.62 184.489C218.704 184.182 217.82 184.525 217.011 185.414C216.635 185.932 216.214 186.553 215.993 187.164C215.127 188.957 214.63 191.133 214.373 193.098C214.209 193.857 214.142 194.561 214.028 195.317C213.821 196.228 213.564 197.141 213.357 198.052C213.267 198.256 213.224 198.408 213.131 198.563C213.148 198.913 212.27 199.405 211.973 199.469C211.034 199.714 210.132 199.707 209.271 199.497C208.867 199.417 208.555 199.181 208.389 198.839C208.163 198.299 208.085 197.702 208.201 196.995C208.356 196.037 208.56 195.076 208.765 194.115C208.877 193.309 208.989 192.503 209.15 191.694C209.224 191.14 209.348 190.584 209.372 190.032C209.474 189.026 209.429 188.077 209.186 187.188C209.122 186.89 209.01 186.645 208.899 186.4C208.682 186.06 208.473 185.87 208.114 185.687C208.012 185.642 207.859 185.599 207.71 185.606C207.106 185.535 206.518 185.813 205.988 186.238C204.782 187.197 204.344 188.519 203.961 189.939C203.785 190.448 203.659 190.954 203.535 191.511C203.371 192.27 203.157 193.031 202.993 193.789C202.66 195.207 202.377 196.622 202.144 198.034C202.018 198.541 201.994 199.093 201.87 199.649C201.518 201.718 201.066 203.792 200.716 205.911C200.321 208.132 199.929 210.404 199.534 212.625C199.374 213.483 199.265 214.34 199.106 215.198C199.106 215.198 199.108 215.248 199.11 215.298C199.039 215.902 198.92 216.558 198.749 217.167C198.713 217.469 198.627 217.774 198.592 218.076C198.518 218.63 198.596 219.227 198.72 219.721ZM224.285 211.448C224.387 211.493 224.395 211.643 224.449 211.74C224.62 212.183 224.932 212.418 225.434 212.444C226.185 212.459 226.87 212.126 227.489 211.446C227.912 210.875 228.285 210.306 228.507 209.695C228.78 209.132 228.951 208.523 229.175 207.962C229.755 206.482 230.331 204.903 230.707 203.334C230.878 202.725 231.05 202.116 231.223 201.557C231.349 201.051 231.478 200.594 231.654 200.085C231.899 198.922 232.296 197.802 232.693 196.682C232.905 195.871 233.069 195.112 233.281 194.301C233.278 194.251 233.324 194.149 233.319 194.049C233.578 193.186 233.785 192.275 233.992 191.364C234.332 190.096 234.568 188.734 234.606 187.43C234.635 186.979 234.613 186.529 234.494 186.134C234.245 185.095 233.536 184.928 232.63 184.821C232.08 184.847 231.531 184.874 230.986 185C229.307 185.48 228.311 186.629 227.837 188.253C227.502 189.62 227.266 190.983 227.031 192.346C227.036 192.446 227.038 192.496 227.04 192.546C226.931 193.402 226.819 194.208 226.71 195.064C226.595 195.82 226.431 196.579 226.319 197.385C226.322 197.435 226.324 197.485 226.327 197.535C226.253 198.089 226.179 198.643 226.108 199.247C225.993 200.004 225.882 200.81 225.718 201.569C225.53 202.879 225.289 204.142 225.051 205.455L225.001 205.457C224.761 206.72 224.523 208.033 224.333 209.293C224.257 209.797 224.181 210.301 224.154 210.803C224.116 211.055 224.126 211.255 224.285 211.448ZM223.115 219.462C223.476 219.696 223.933 219.824 224.48 219.748C226.37 219.508 227.645 217.895 228.062 216.124C228.185 215.567 228.104 214.92 227.883 214.48C227.546 213.695 226.727 213.334 225.738 213.581C225.144 213.71 224.604 213.935 224.014 214.164C223.819 214.273 223.671 214.33 223.526 214.437C223.089 214.708 222.706 215.077 222.427 215.541C222.244 215.9 222.111 216.256 222.028 216.611C221.69 217.928 222.135 218.858 223.115 219.462Z" fill="white"/>
<g clip-path="url(#clip0_133_15)">
<path d="M299.396 256.921L245.314 245.692C242.005 245.005 239.88 241.767 240.567 238.458L263.781 126.654C265.879 116.549 275.768 110.06 285.874 112.158L315.348 118.278C325.453 120.376 331.942 130.266 329.844 140.371L306.63 252.175C305.943 255.484 302.704 257.608 299.396 256.921Z" fill="white" stroke="#00414C" stroke-width="6" stroke-miterlimit="10" stroke-linecap="round" stroke-linejoin="round"/>
<path d="M335.076 73.6829L324.875 122.816" stroke="#00414C" stroke-width="6" stroke-miterlimit="10" stroke-linecap="round" stroke-linejoin="round"/>
<path d="M307.646 183.77L266.874 175.305C264.606 174.834 263.148 172.611 263.619 170.344L269.036 144.254C269.507 141.986 271.729 140.528 273.997 140.998L314.769 149.464C317.037 149.935 318.495 152.157 318.024 154.425L312.607 180.515C312.128 182.788 309.914 184.241 307.646 183.77Z" stroke="#00414C" stroke-width="6" stroke-miterlimit="10" stroke-linecap="round" stroke-linejoin="round"/>
<path d="M260.513 186.064L276.539 189.391" stroke="#00414C" stroke-width="6" stroke-miterlimit="10" stroke-linecap="round" stroke-linejoin="round"/>
<path d="M258.3 196.72L266.31 198.383" stroke="#00414C" stroke-width="6" stroke-miterlimit="10" stroke-linecap="round" stroke-linejoin="round"/>
<path d="M278.069 200.825L286.086 202.489" stroke="#00414C" stroke-width="6" stroke-miterlimit="10" stroke-linecap="round" stroke-linejoin="round"/>
<path d="M297.604 204.881L305.614 206.544" stroke="#00414C" stroke-width="6" stroke-miterlimit="10" stroke-linecap="round" stroke-linejoin="round"/>
<path d="M256.089 207.37L264.099 209.033" stroke="#00414C" stroke-width="6" stroke-miterlimit="10" stroke-linecap="round" stroke-linejoin="round"/>
<path d="M275.858 211.474L283.874 213.139" stroke="#00414C" stroke-width="6" stroke-miterlimit="10" stroke-linecap="round" stroke-linejoin="round"/>
<path d="M295.393 215.531L303.402 217.194" stroke="#00414C" stroke-width="6" stroke-miterlimit="10" stroke-linecap="round" stroke-linejoin="round"/>
<path d="M253.878 218.02L261.887 219.683" stroke="#00414C" stroke-width="6" stroke-miterlimit="10" stroke-linecap="round" stroke-linejoin="round"/>
<path d="M273.647 222.124L281.664 223.789" stroke="#00414C" stroke-width="6" stroke-miterlimit="10" stroke-linecap="round" stroke-linejoin="round"/>
<path d="M293.182 226.18L301.191 227.843" stroke="#00414C" stroke-width="6" stroke-miterlimit="10" stroke-linecap="round" stroke-linejoin="round"/>
<path d="M251.665 228.676L259.675 230.339" stroke="#00414C" stroke-width="6" stroke-miterlimit="10" stroke-linecap="round" stroke-linejoin="round"/>
<path d="M271.434 232.781L279.451 234.445" stroke="#00414C" stroke-width="6" stroke-miterlimit="10" stroke-linecap="round" stroke-linejoin="round"/>
<path d="M290.969 236.837L298.978 238.5" stroke="#00414C" stroke-width="6" stroke-miterlimit="10" stroke-linecap="round" stroke-linejoin="round"/>
<path d="M291.8 192.56L307.826 195.887" stroke="#00414C" stroke-width="6" stroke-miterlimit="10" stroke-linecap="round" stroke-linejoin="round"/>
<path d="M288.766 131.993L304.799 135.322" stroke="#00414C" stroke-width="6" stroke-miterlimit="10" stroke-linecap="round" stroke-linejoin="round"/>
<path d="M335.076 73.6829C338.19 74.3294 341.239 72.3292 341.886 69.2151C342.532 66.1011 340.532 63.0525 337.418 62.4059C334.304 61.7594 331.255 63.7597 330.609 66.8737C329.962 69.9877 331.962 73.0363 335.076 73.6829Z" stroke="#00414C" stroke-width="6" stroke-miterlimit="10" stroke-linecap="round" stroke-linejoin="round"/>
<path d="M324.065 86.201C316.902 81.392 312.982 72.5683 314.844 63.6005C317.299 51.779 328.869 44.1871 340.691 46.6416C352.512 49.0961 360.104 60.6667 357.65 72.4882C355.809 81.3526 348.839 87.8432 340.479 89.4941" stroke="#FCB23A" stroke-width="6" stroke-miterlimit="10" stroke-linecap="round" stroke-linejoin="round"/>
<path d="M315.73 98.9872C303.734 90.9314 297.168 76.1513 300.286 61.1314C304.397 41.3348 323.784 28.6143 343.58 32.7247C363.377 36.835 376.098 56.2221 371.987 76.0187C368.904 90.8662 357.228 101.736 343.23 104.503" stroke="#FCB23A" stroke-width="6" stroke-miterlimit="10" stroke-linecap="round" stroke-linejoin="round"/>
</g>
<defs>
<clipPath id="clip0_133_15">
<rect x="242.745" y="0.332153" width="183.465" height="256.392" transform="rotate(11.7297 242.745 0.332153)" fill="white"/>
</clipPath>
</defs>
</svg>
