<svg width="1920" height="174" viewBox="0 0 1920 174" fill="none" xmlns="http://www.w3.org/2000/svg">
<circle cx="45.5" cy="128.5" r="45.5" fill="white"/>
<ellipse cx="137" cy="128.5" rx="46" ry="45.5" fill="white"/>
<circle cx="228.5" cy="128.5" r="45.5" fill="white"/>
<ellipse cx="320" cy="128.5" rx="46" ry="45.5" fill="white"/>
<circle cx="411.5" cy="128.5" r="45.5" fill="white"/>
<ellipse cx="503" cy="128.5" rx="46" ry="45.5" fill="white"/>
<circle cx="594.5" cy="128.5" r="45.5" fill="white"/>
<circle cx="685.5" cy="128.5" r="45.5" fill="white"/>
<ellipse cx="777" cy="128.5" rx="46" ry="45.5" fill="white"/>
<circle cx="868.5" cy="128.5" r="45.5" fill="white"/>
<ellipse cx="960" cy="128.5" rx="46" ry="45.5" fill="white"/>
<circle cx="1051.5" cy="128.5" r="45.5" fill="white"/>
<ellipse cx="1143" cy="128.5" rx="46" ry="45.5" fill="white"/>
<circle cx="1234.5" cy="128.5" r="45.5" fill="white"/>
<circle cx="1325.5" cy="128.5" r="45.5" fill="white"/>
<ellipse cx="1417" cy="128.5" rx="46" ry="45.5" fill="white"/>
<circle cx="1508.5" cy="128.5" r="45.5" fill="white"/>
<ellipse cx="1600" cy="128.5" rx="46" ry="45.5" fill="white"/>
<circle cx="1691.5" cy="128.5" r="45.5" fill="white"/>
<ellipse cx="1783" cy="128.5" rx="46" ry="45.5" fill="white"/>
<circle cx="1874.5" cy="128.5" r="45.5" fill="white"/>
<rect y="-1" width="1920" height="130" fill="white"/>
</svg>
