<svg width="1920" height="499" viewBox="0 0 1920 499" fill="none" xmlns="http://www.w3.org/2000/svg">
<g clip-path="url(#clip0_96_2)">
<path d="M1920 -1H0V499H1920V-1Z" fill="url(#paint0_linear_96_2)"/>
<path d="M1920 440.35V499H0V387.54C83.79 231.2 203.17 97.84 346.91 -1H1546.54C1706.22 108.78 1835.83 261.17 1920 440.35Z" fill="url(#paint1_linear_96_2)"/>
<path d="M1725.65 499H167.82C315.68 212.24 609.02 16.92 946.74 16.92C1284.46 16.92 1577.8 212.24 1725.65 499Z" fill="url(#paint2_linear_96_2)"/>
<path d="M1476.37 499H417.1C539.87 337 731.47 232.79 946.74 232.79C1162.01 232.79 1353.6 337 1476.37 499Z" fill="url(#paint3_linear_96_2)"/>
<path d="M1265.32 499H628.15C716.21 428.89 826.74 387.17 946.74 387.17C1066.74 387.17 1177.26 428.89 1265.32 499Z" fill="url(#paint4_linear_96_2)"/>
</g>
<path d="M486.9 204.5C486.89 204.25 486.89 204.05 486.88 203.8C486.99 202.13 487.26 199.98 488.07 198.5C489.01 196.25 489.87 194.18 491.61 192.43C493.42 190.62 495.16 188.83 496.67 186.75C496.79 186.52 496.95 186.28 497.05 186.01C497.16 185.74 497.22 185.44 497.25 185.15C497.32 184.48 497.21 183.92 496.94 183.4C496.73 182.99 496.43 182.72 495.97 182.69C495.5 182.62 495.06 182.67 494.61 182.88C494.49 182.9 494.38 182.97 494.26 182.99C493.77 183.21 493.44 183.61 493.08 184.05C492.66 184.63 492.43 185.29 492.28 185.98C492.2 186.41 492.2 186.78 492.12 187.21C492.07 187.76 492.05 188.29 491.96 188.85C491.85 189.32 491.61 189.75 491.27 190.1C490.65 190.72 489.98 191.06 489.24 191.05C488.75 191.07 488.33 190.82 488.07 190.38C487.9 190.13 487.78 189.78 487.68 189.47C487.55 188.84 487.6 188.05 487.75 187.4C487.8 187.02 487.8 186.65 487.85 186.27C488.02 183.89 489.15 181.93 490.93 180.34C491.78 179.47 492.63 178.76 493.76 178.24C494.03 178.14 494.34 178.04 494.61 177.95C495.35 177.76 496.01 177.75 496.69 177.86C498.3 178.07 499.81 178.42 500.69 179.93C501.25 180.85 501.62 181.88 501.73 183.01C501.74 183.05 501.75 183.09 501.75 183.13C501.74 183.5 501.78 183.91 501.78 184.28C501.73 184.66 501.72 184.99 501.63 185.38C501.56 185.85 501.49 186.31 501.29 186.77C501.17 187.21 500.98 187.66 500.77 188.07C500.44 188.67 500.11 189.27 499.78 189.88C499.23 190.82 498.42 191.92 497.57 192.59C497.25 192.82 496.98 193.12 496.71 193.42C496.13 194.03 495.6 194.63 495.06 195.24C494.78 195.5 494.56 195.8 494.33 196.13C494.21 196.36 494.05 196.56 493.88 196.76C493.68 197.01 493.56 197.2 493.41 197.47C493.26 197.74 493.07 198.03 492.84 198.33C492.75 198.47 492.64 198.58 492.63 198.7C492.47 199.14 492.13 199.5 492.06 199.97C492.06 200.18 491.98 200.4 491.9 200.62C491.86 200.83 491.79 201.1 491.75 201.31C491.74 201.85 492.05 202.2 492.5 202.15C492.97 202.05 493.39 202.09 493.79 202.01C494.35 201.94 494.87 201.83 495.41 201.68C495.83 201.51 496.26 201.39 496.69 201.3C497.27 201.14 497.85 200.94 498.48 200.81C499.03 200.66 499.59 200.42 500.16 200.35C500.36 200.31 500.52 200.28 500.73 200.32C501.39 200.35 501.72 200.74 501.82 201.46C502.03 202.49 501.56 203.82 500.74 204.48C500.63 204.54 500.53 204.65 500.46 204.7C499.97 205.13 499.45 205.4 498.9 205.55C497.34 205.99 495.73 206.36 494.15 206.68C493.49 206.86 492.82 207.03 492.15 207.17L491.08 207.39C490.25 207.56 489.63 207.56 488.84 207.31C487.94 207.12 487.26 206.44 487 205.54C486.92 205.2 486.9 204.88 486.9 204.5Z" fill="white"/>
<path d="M506.07 201.39C506.03 201.19 505.99 200.99 506.03 200.74C506.03 200.29 506.06 199.83 506.09 199.33C506.17 197.63 506.29 195.92 506.37 194.18C506.45 192.68 506.52 191.15 506.64 189.65C506.66 189.11 506.68 188.57 506.7 188.04C506.8 187.28 506.89 186.48 506.95 185.73C506.98 185.68 506.98 185.68 506.97 185.64C507.03 185.09 507.09 184.55 507.15 184C507.24 183 507.3 182 507.39 180.99C507.47 180.36 507.56 179.73 507.6 179.1C507.63 178.85 507.67 178.63 507.67 178.39C507.68 178.22 507.73 178.05 507.78 177.88C507.89 177.61 508.01 177.34 508.07 177.04C508.21 176.68 508.93 175.52 509.32 175.44C509.55 175.35 509.78 175.27 509.98 175.23C510.49 175.13 510.95 174.96 511.45 174.78C511.57 174.76 511.65 174.74 511.77 174.72C511.93 174.69 512.09 174.66 512.24 174.59C512.79 174.44 513.27 174.39 513.8 174.37C514.37 174.34 514.94 174.31 515.51 174.29C516.1 174.18 517.02 174.04 517.6 174.26C518.16 174.4 518.7 174.62 519.14 174.99C520.18 175.69 520.73 177.03 521.15 178.14C521.24 178.62 521.33 179.09 521.39 179.61C521.44 179.85 521.44 180.09 521.5 180.37C521.52 181.97 521.54 183.53 521.4 185.16C521.33 185.87 521.22 186.59 521.16 187.3C521.17 187.34 521.14 187.39 521.14 187.43C520.9 190.89 520.48 193.6 518.89 196.82C517.96 198.6 517.37 199.17 516.02 200.46C514.85 201.43 513.6 202.2 512.14 202.73C511.63 202.87 511.16 203 510.64 203.06C509.84 203.17 509.02 203.21 508.27 203.11C508.14 203.05 507.97 203.04 507.84 203.03C506.88 203 506.16 202.07 506.07 201.39ZM512.01 197.65C512.1 197.67 512.14 197.67 512.22 197.65C512.78 197.58 513.27 197.32 513.6 196.69C513.82 196.32 513.98 195.92 514.15 195.47C515.48 192.34 516.31 186.26 516.06 183.02C515.96 182.05 515.74 181.15 515.41 180.31C515.21 179.94 514.82 179.6 514.42 179.43C514.18 179.27 513.85 179.25 513.54 179.31C513.1 179.39 512.66 179.64 512.32 180.04C512.26 180.13 512.22 180.18 512.21 180.31C512.19 180.64 512.13 180.98 512.12 181.31C511.99 183.18 511.85 185.02 511.68 186.9C511.57 187.83 511.51 188.78 511.41 189.75C511.41 190.37 511.35 190.95 511.34 191.74C511.22 193.04 511.22 194.52 511.17 195.96C511.18 196.24 511.2 196.53 511.21 196.81C511.27 197.47 511.38 197.61 512.01 197.65Z" fill="white"/>
<path d="M533.46 190.7C533.47 190.53 533.52 190.32 533.49 190.16C533.44 189.64 533.56 188.47 533.72 187.99C533.87 187.23 534.6 186.03 535.26 185.58C535.36 185.48 535.43 185.39 535.54 185.32C536.04 184.9 536.56 184.61 537.12 184.3C537.34 184.14 537.43 183.96 537.46 183.71C537.47 183.54 537.46 183.5 537.29 183.45C537.16 183.39 536.95 183.39 536.82 183.33C536.17 183.12 535.69 182.75 535.38 182.15C535.31 182 535.25 181.89 535.18 181.73C534.86 181.09 534.58 180.44 534.49 179.72C534.4 179.2 534.34 178.64 534.32 178.11C534.34 177.74 534.42 177.31 534.48 176.93C535.01 174.42 536.21 171.91 538.4 170.45C539.27 169.8 540.3 169.37 541.35 169.06C544.45 168.51 547.1 169.34 548.43 172.47C548.77 173.23 548.93 174.1 548.96 175C548.93 175.09 548.95 175.17 548.92 175.25C548.56 176.46 548.35 177.11 547.2 177.77C546.98 177.93 546.75 178.01 546.47 178.06C546.31 178.09 546.11 178.12 545.96 178.19C545.48 178.28 545.06 178.19 544.63 178.1C544.16 177.98 543.86 177.66 543.8 177.14C543.74 176.82 543.73 176.5 543.71 176.17C543.67 175.73 543.63 175.24 543.43 174.83C543.13 174.31 542.67 174.02 542.02 174.06C541.49 174.07 540.99 174.28 540.56 174.85C540.04 175.6 539.5 176.72 539.42 177.64C539.39 178.38 539.55 179.05 539.85 179.61C540.03 179.91 540.23 180.12 540.53 180.23C540.74 180.27 540.92 180.33 541.13 180.37C541.48 180.47 542.7 181.15 544.96 180.71C547.1 180.29 549.93 179.62 550.24 179.77C550.73 179.97 551.01 180.41 551.1 180.93C551.33 182.24 550.84 184.05 549.38 184.39C549.3 184.4 548.95 184.51 548.43 184.6C548.38 186.13 548.03 190.86 547.81 191.43C547.46 192.44 546.72 193.84 546.06 194.73C545.86 194.97 545.62 195.26 545.37 195.47C544.74 196.07 544.05 196.57 543.29 196.91C542.58 197.28 541.81 197.58 541.06 197.72C540.87 197.8 540.67 197.83 540.47 197.87C540.19 197.92 539.91 197.93 539.63 197.98C539.51 198 539.35 197.99 539.23 198.01C537.77 198.11 536.05 197.64 535.14 196.45C534.86 196.05 534.59 195.65 534.31 195.25C534.03 194.85 533.83 194.39 533.7 193.88C533.56 192.85 533.42 191.81 533.46 190.7ZM539.26 192.61C539.39 192.67 539.49 192.73 539.61 192.75C539.96 192.89 540.34 192.95 540.74 192.88C541.06 192.82 541.4 192.68 541.77 192.45C541.84 192.4 541.95 192.34 542.02 192.24C542.38 191.97 542.84 191.77 542.97 191.37C543.65 189.2 543.66 186.49 543.74 185.58C543.27 185.7 542.95 185.76 542.91 185.77C542.83 185.78 541.42 185.91 541.35 185.97C540.7 186.21 540.15 186.59 539.62 187.06C538.46 187.92 538.28 190.09 538.51 191.4C538.57 191.96 538.88 192.31 539.26 192.61Z" fill="white"/>
<path d="M563.06 185.94C563.14 185.68 563.27 185.46 563.39 185.23C563.59 184.95 563.83 184.67 564.13 184.5C564.5 184.24 564.87 184.05 565.27 183.99C565.62 183.89 565.92 183.96 566.2 184.16C566.52 184.39 566.7 184.73 566.85 185.12C566.94 185.43 566.99 185.75 567.09 186.06C567.23 186.94 567.78 187.3 568.5 187.67C568.66 187.89 569.44 187.92 569.68 187.88C570.08 187.81 570.5 187.62 570.9 187.35C571.99 186.76 572.5 185.12 572.56 184.01C572.63 183.22 572.49 182.59 572.18 181.95C571.96 181.37 570.68 181.05 570.15 181.02C570.06 180.99 570.02 181 569.94 181.01C569.61 181.02 569.3 181.07 568.97 181.09C568.33 181.15 567.84 180.91 567.69 180.28C567.5 179.62 567.47 178.93 567.71 178.15C567.9 177.59 568.26 177.04 568.77 176.67C569.14 176.41 569.55 176.17 569.96 175.94C570.56 175.6 571.19 175.21 571.79 174.9C572.12 174.68 572.4 174.39 572.59 174.03C573.01 173.35 573.26 172.61 573.34 171.86C573.33 171.57 573.33 171.29 573.24 171.02C573.14 170.42 572.89 169.89 572.57 169.41C572.25 168.97 571.76 168.93 571.21 169.1C569.88 169.48 569.46 170.65 569.13 171.85C568.81 173.41 568.32 174.39 566.53 174.69C566.36 174.68 566.16 174.71 566.01 174.74C565.73 174.79 565.53 174.78 565.31 174.69C564.67 174.51 564.2 174.14 564.04 173.43C564 173.19 563.96 172.95 563.92 172.71C563.95 172.62 563.93 172.54 563.96 172.46C564.09 171.54 564.39 170.59 564.85 169.7C566.53 166.52 568.96 164.36 572.66 163.75C573.43 163.71 574.13 163.75 574.82 163.93C576.37 164.17 577.52 165.41 578.04 166.84C578.34 167.65 578.48 168.53 578.54 169.41C578.65 171.84 577.29 175.46 575.21 176.75C575.02 176.86 574.83 176.93 574.65 177.05C574.54 177.15 574.47 177.2 574.5 177.36C574.46 177.61 574.57 177.76 574.74 177.85C575.24 177.93 575.77 178.13 576.21 178.34C576.3 178.37 576.39 178.43 576.48 178.5C576.78 178.61 577.03 178.86 577.19 179.12C577.42 179.53 577.65 179.94 577.69 180.43C577.74 180.71 577.74 180.99 577.71 181.29C577.7 181.74 577.69 182.15 577.59 182.58C577.54 182.75 577.53 182.96 577.52 183.12C577.42 184.24 577.11 185.35 576.72 186.48C576.57 187.04 576.29 187.57 575.92 188.08C574.52 190.23 573.11 191.89 570.45 192.62C570.29 192.65 570.18 192.71 570.02 192.73C569.74 192.78 569.43 192.87 569.15 192.91C568.99 192.94 568.79 192.97 568.59 192.96C567.83 193.08 567.09 193.04 566.38 192.92C565.67 192.83 565.05 192.57 564.5 192.17C563.65 191.7 562.97 190.09 562.71 189.23C562.45 188.21 562.55 187.09 563.06 185.94Z" fill="white"/>
<path d="M581.81 187.84C581.78 187.64 581.75 187.44 581.79 187.19C581.8 186.74 581.85 186.28 581.9 185.78C582.05 184.08 582.23 182.38 582.37 180.64C582.51 179.15 582.64 177.62 582.81 176.12C582.85 175.58 582.89 175.05 582.93 174.51C583.06 173.76 583.18 172.96 583.27 172.21C583.3 172.16 583.3 172.16 583.3 172.12C583.38 171.58 583.46 171.03 583.54 170.49C583.67 169.49 583.76 168.5 583.89 167.5C584 166.87 584.1 166.24 584.17 165.62C584.21 165.37 584.26 165.16 584.26 164.91C584.28 164.74 584.33 164.57 584.38 164.4C584.5 164.14 584.63 163.87 584.7 163.57C584.85 163.22 585.61 162.08 586.01 162.02C586.24 161.94 586.48 161.87 586.68 161.84C587.2 161.76 587.66 161.61 588.17 161.45C588.29 161.43 588.37 161.42 588.49 161.4C588.65 161.38 588.81 161.35 588.96 161.29C589.51 161.16 590 161.13 590.53 161.13C591.1 161.12 591.67 161.12 592.24 161.11C592.84 161.02 593.76 160.92 594.33 161.15C594.88 161.31 595.41 161.55 595.84 161.94C596.85 162.68 597.35 164.03 597.73 165.16C597.8 165.64 597.88 166.12 597.92 166.64C597.96 166.88 597.95 167.12 598 167.4C597.96 169 597.92 170.56 597.72 172.18C597.63 172.89 597.49 173.6 597.4 174.31C597.41 174.35 597.37 174.4 597.38 174.44C597.02 177.89 596.49 180.58 594.78 183.74C593.78 185.49 593.17 186.03 591.77 187.27C590.57 188.19 589.29 188.92 587.81 189.39C587.3 189.51 586.83 189.62 586.3 189.66C585.5 189.74 584.68 189.75 583.93 189.62C583.8 189.56 583.63 189.54 583.51 189.52C582.55 189.48 581.88 188.52 581.81 187.84ZM587.88 184.33C587.97 184.36 588.01 184.35 588.09 184.34C588.65 184.29 589.15 184.05 589.5 183.43C589.73 183.07 589.91 182.67 590.09 182.24C591.53 179.16 592.6 173.11 592.46 169.87C592.39 168.9 592.21 167.99 591.91 167.14C591.73 166.76 591.35 166.41 590.95 166.23C590.72 166.06 590.39 166.03 590.07 166.08C589.63 166.15 589.18 166.38 588.83 166.76C588.76 166.85 588.73 166.9 588.71 167.02C588.68 167.35 588.61 167.69 588.58 168.02C588.38 169.89 588.17 171.72 587.93 173.59C587.79 174.51 587.69 175.46 587.55 176.42C587.52 177.04 587.45 177.62 587.41 178.4C587.24 179.69 587.19 181.17 587.08 182.62C587.08 182.91 587.09 183.19 587.09 183.48C587.15 184.11 587.26 184.26 587.88 184.33Z" fill="white"/>
<path d="M1242.8 178.64C1242.94 177.93 1243.04 177.17 1243.18 176.45C1243.26 175.85 1243.39 175.26 1243.51 174.66C1243.58 174.18 1243.68 173.71 1243.79 173.23C1243.82 172.99 1243.9 172.72 1243.98 172.44C1244.11 172.05 1244.17 171.65 1244.27 171.26C1244.46 170.19 1244.64 169.15 1244.86 168.12C1245.11 167.18 1245.33 166.19 1245.54 165.24C1245.93 163.3 1246.38 161.53 1247.28 159.74C1247.44 159.15 1247.79 158.67 1248.25 158.29C1248.82 157.72 1249.7 157.55 1250.47 157.58C1250.55 157.59 1250.68 157.57 1250.8 157.58C1250.97 157.56 1251.17 157.59 1251.33 157.57C1252.37 157.71 1252.5 158.79 1252.39 159.63C1252.32 160.15 1252.17 160.66 1252.01 161.21C1251.82 161.71 1251.67 162.22 1251.51 162.73C1251.25 163.71 1250.95 164.73 1250.65 165.71C1250.56 166.1 1250.42 166.49 1250.29 166.84C1250.06 167.62 1249.79 168.4 1249.57 169.14C1249.41 169.69 1249.26 170.24 1249.1 170.79C1249.02 171.1 1248.93 171.42 1248.85 171.69C1248.69 172.24 1248.54 172.79 1248.42 173.34C1248.03 174.71 1247.63 176.08 1247.4 177.48C1247.37 177.68 1247.35 177.88 1247.53 177.99C1247.78 177.98 1247.92 177.8 1248.07 177.66C1248.22 177.48 1248.36 177.29 1248.47 177.1C1248.73 176.69 1248.92 176.22 1249.18 175.81C1249.41 175.35 1249.67 174.94 1249.93 174.49C1250.37 173.65 1250.85 172.82 1251.25 171.98C1251.41 171.68 1251.53 171.41 1251.65 171.14C1251.86 170.76 1252.04 170.38 1252.26 169.96C1252.48 169.54 1252.71 169.08 1252.93 168.63C1252.94 168.59 1252.94 168.55 1252.99 168.52C1253.45 167.56 1253.91 166.61 1254.36 165.65C1254.64 165.08 1254.84 164.54 1255.04 163.99C1255.59 161.75 1256.92 159.24 1259.41 158.89C1260.08 158.78 1260.53 159.04 1260.88 159.42C1261.02 159.6 1261.15 159.82 1261.2 160.07C1261.37 160.62 1261.37 161.19 1261.25 161.79C1261.04 162.74 1260.7 163.71 1260.25 164.62C1259.85 165.42 1259.46 166.18 1259.07 166.98C1258.74 167.63 1258.37 168.23 1258.03 168.87C1257.74 169.52 1257.41 170.13 1257.04 170.77C1256.6 171.57 1256.13 172.31 1255.7 173.11C1255.55 173.33 1255.43 173.6 1255.28 173.83C1255 174.36 1254.77 174.9 1254.45 175.39C1253.83 176.61 1253.14 177.82 1252.41 178.94C1252.08 179.55 1251.68 180.1 1251.32 180.66C1251.06 181.07 1250.85 181.45 1250.58 181.86C1250.11 182.61 1249.64 183.36 1249.09 184.1C1248.65 184.65 1247.72 185.5 1247 185.64C1246.57 185.78 1246.12 185.84 1245.71 185.83C1245.3 185.82 1244.95 185.73 1244.6 185.64C1242.61 185 1242.18 184 1242.36 181.83C1242.43 180.75 1242.57 179.71 1242.8 178.64Z" fill="white"/>
<path d="M1256.84 184C1257.09 183.1 1257.43 182.17 1257.8 181.28C1258.29 180.13 1258.78 179.02 1259.31 177.87C1259.67 177.07 1260.07 176.27 1260.43 175.46C1261.1 174.17 1261.74 172.84 1262.3 171.49C1263.5 168.24 1264.75 164.91 1266.26 161.79C1266.38 161.52 1266.54 161.26 1266.7 161C1267.11 160.45 1267.64 160.16 1268.3 160.05C1268.8 159.96 1269.28 160.03 1269.71 160.17C1270.68 160.51 1270.61 161.6 1270.49 162.44C1270.45 162.72 1270.37 162.99 1270.34 163.23C1270.31 163.71 1270.17 164.14 1270.02 164.61C1269.57 166.01 1268.91 167.83 1268.23 169.16C1267.65 170.34 1267.2 171.54 1266.7 172.73C1266.22 173.8 1265.78 174.88 1265.3 175.95C1264.65 177.32 1264.13 178.72 1263.52 180.1C1263.26 180.76 1262.93 181.4 1262.63 182.05C1262.45 182.43 1262.27 182.85 1262.09 183.24C1261.76 183.84 1261.5 184.5 1261.09 185.09C1260.82 185.58 1260.47 186.02 1260.08 186.45C1259.85 186.66 1259.61 186.87 1259.3 187.03C1258.85 187.29 1258.39 187.39 1257.97 187.25C1257.15 187.01 1256.71 186.09 1256.7 185.28C1256.68 184.88 1256.74 184.44 1256.84 184Z" fill="white"/>
<path d="M1266.76 185.45C1266.79 185.25 1266.82 185.05 1266.94 184.82C1267.09 184.39 1267.27 183.97 1267.46 183.51C1268.1 181.93 1268.79 180.36 1269.44 178.75C1270.01 177.37 1270.59 175.94 1271.21 174.57C1271.41 174.07 1271.6 173.57 1271.8 173.07C1272.15 172.39 1272.5 171.67 1272.81 170.98C1272.86 170.95 1272.86 170.95 1272.86 170.91C1273.1 170.42 1273.33 169.92 1273.57 169.43C1273.99 168.51 1274.37 167.59 1274.8 166.68C1275.09 166.11 1275.38 165.54 1275.63 164.97C1275.75 164.74 1275.85 164.55 1275.93 164.32C1275.99 164.17 1276.1 164.02 1276.2 163.87C1276.4 163.65 1276.59 163.44 1276.75 163.18C1277 162.89 1278.06 162.03 1278.46 162.09C1278.71 162.09 1278.95 162.08 1279.15 162.11C1279.67 162.19 1280.16 162.18 1280.69 162.18C1280.81 162.2 1280.89 162.21 1281.01 162.23C1281.17 162.25 1281.33 162.28 1281.5 162.26C1282.06 162.3 1282.54 162.42 1283.04 162.57C1283.59 162.73 1284.13 162.9 1284.68 163.06C1285.28 163.15 1286.19 163.33 1286.66 163.72C1287.14 164.04 1287.57 164.43 1287.87 164.92C1288.62 165.93 1288.69 167.37 1288.71 168.55C1288.64 169.03 1288.57 169.51 1288.45 170.02C1288.41 170.26 1288.34 170.49 1288.3 170.77C1287.79 172.28 1287.28 173.76 1286.61 175.25C1286.31 175.9 1285.97 176.54 1285.67 177.19C1285.66 177.23 1285.62 177.26 1285.61 177.3C1284.24 180.48 1282.94 182.9 1280.36 185.41C1278.89 186.78 1278.15 187.12 1276.44 187.88C1275.02 188.4 1273.58 188.72 1272.03 188.73C1271.5 188.69 1271.02 188.66 1270.51 188.54C1269.72 188.38 1268.94 188.14 1268.26 187.79C1268.15 187.69 1268 187.63 1267.88 187.57C1266.98 187.24 1266.62 186.12 1266.76 185.45ZM1273.6 183.9C1273.63 183.95 1273.71 183.96 1273.79 183.97C1274.34 184.09 1274.89 184.01 1275.37 183.51C1275.74 183.24 1276.03 182.92 1276.33 182.55C1278.62 180.04 1281.44 174.58 1282.27 171.45C1282.49 170.5 1282.59 169.58 1282.56 168.68C1282.5 168.26 1282.24 167.82 1281.92 167.52C1281.75 167.29 1281.48 167.17 1281.16 167.12C1280.72 167.05 1280.18 167.14 1279.73 167.4C1279.64 167.47 1279.59 167.5 1279.53 167.62C1279.4 167.93 1279.24 168.23 1279.11 168.54C1278.36 170.26 1277.62 171.95 1276.83 173.67C1276.42 174.51 1276.04 175.39 1275.63 176.26C1275.42 176.84 1275.18 177.38 1274.9 178.11C1274.36 179.29 1273.86 180.69 1273.33 182.04C1273.25 182.31 1273.17 182.59 1273.08 182.86C1272.97 183.48 1273.02 183.65 1273.6 183.9Z" fill="white"/>
<path d="M1286.2 187.46C1286.37 186.88 1286.63 186.3 1286.92 185.74C1287.75 184.07 1288.45 182.26 1289.05 180.52C1289.55 179.13 1290.15 177.71 1290.81 176.34C1291.64 174.43 1292.47 172.56 1293.26 170.64C1293.49 170.19 1293.73 169.73 1293.96 169.28C1294.01 169.21 1294.06 169.13 1294.08 169.05C1294.31 168.6 1294.51 168.14 1294.78 167.69C1295.07 167.16 1295.35 166.64 1295.76 166.13C1296.38 165.29 1297.2 165.05 1298.23 165.21C1298.95 165.28 1299.64 165.35 1300.37 165.38C1301.01 165.48 1301.65 165.54 1302.26 165.59C1302.98 165.66 1303.66 165.77 1304.38 165.84C1304.7 165.89 1305.02 165.94 1305.34 165.99C1305.9 166.08 1306.46 166.17 1307.01 166.25C1307.37 166.31 1307.76 166.41 1308.06 166.58C1308.25 166.65 1308.4 166.76 1308.55 166.86C1309.28 167.38 1309.09 168.33 1308.8 168.9C1308.73 169.05 1308.63 169.2 1308.53 169.35C1307.88 170.11 1307 170.25 1306.06 170.27C1305.37 170.24 1304.69 170.18 1304.04 170.12C1303.4 170.06 1302.76 169.96 1302.11 169.9C1301.63 169.86 1301.18 169.84 1300.69 169.84C1300.05 169.74 1299.37 169.92 1298.89 170.37C1298.66 170.54 1298.46 170.75 1298.3 171.01C1298.09 171.3 1297.92 171.6 1297.75 171.9C1297.38 172.45 1297.03 173.09 1296.85 173.76C1296.71 174.15 1296.6 174.54 1296.54 174.94C1296.52 175.1 1296.53 175.27 1296.5 175.42C1296.43 175.61 1296.53 175.75 1296.72 175.82C1296.91 175.93 1297.1 176 1297.29 176.07C1298.02 176.39 1298.83 176.64 1299.68 176.73C1300.08 176.79 1300.52 176.86 1300.96 176.93C1301.41 176.96 1301.84 177.07 1302.22 177.21C1302.69 177.37 1303.09 177.63 1303.27 178.07C1303.47 178.63 1303.54 179.22 1303.19 179.9C1302.68 180.8 1301.69 181.13 1300.71 181.1C1299.81 181.12 1298.96 181.03 1298.14 180.82C1297.35 180.65 1296.55 180.53 1295.75 180.44C1295.51 180.4 1295.22 180.44 1294.97 180.44C1294.43 180.48 1293.89 181.09 1293.65 181.54C1293.19 182.41 1292.8 183.33 1292.41 184.2C1292.34 184.39 1292.23 184.54 1292.17 184.69C1291.93 185.18 1291.81 185.65 1291.66 186.12C1291.59 186.31 1291.61 186.44 1291.71 186.58C1291.84 186.76 1292.02 186.91 1292.3 187C1292.49 187.07 1292.73 187.15 1292.92 187.18C1293.36 187.25 1293.8 187.32 1294.23 187.39C1294.95 187.46 1295.68 187.5 1296.4 187.61C1297 187.66 1297.56 187.75 1298.15 187.89C1298.87 188 1299.75 188.39 1300.04 189.13C1300.18 189.52 1300.13 189.88 1299.98 190.26C1299.91 190.45 1299.8 190.6 1299.7 190.75C1299.51 190.92 1299.4 191.11 1299.33 191.3C1298.65 192.5 1297.03 192.69 1295.79 192.5C1295.19 192.45 1294.67 192.36 1294.12 192.24C1293.85 192.16 1293.57 192.11 1293.29 192.07C1292.92 192.05 1292.57 192 1292.16 191.97C1291.84 191.92 1291.52 191.87 1291.17 191.77C1290.85 191.72 1290.53 191.67 1290.22 191.58C1289.86 191.52 1289.5 191.47 1289.14 191.41C1287.82 191.2 1286.19 190.7 1285.94 189.19C1285.93 188.64 1286.02 188.05 1286.2 187.46Z" fill="white"/>
<path d="M1305.69 185.87C1305.77 185.39 1305.92 184.97 1306.04 184.5C1306.19 184.11 1306.3 183.68 1306.45 183.26C1306.6 182.88 1306.78 182.5 1306.93 182.07L1306.97 182.08C1307.27 181.23 1307.58 180.38 1307.99 179.59C1308.18 179.21 1308.4 178.84 1308.59 178.46C1308.77 178.12 1308.95 177.78 1309.16 177.49C1309.62 176.42 1310.58 175.11 1311.26 174.2C1311.36 174.09 1311.47 173.95 1311.57 173.8C1311.95 173.45 1312.27 173.06 1312.57 172.7C1313.64 171.44 1314.94 170.23 1316.52 169.59C1316.87 169.44 1317.22 169.3 1317.57 169.15C1318.41 168.8 1319.25 168.65 1320.06 168.66C1320.58 168.71 1321.1 168.79 1321.57 168.91C1321.96 169.02 1322.35 169.16 1322.69 169.3C1324.65 170.28 1325.58 172.6 1325.44 174.7C1325.4 175.43 1325.36 176.16 1325.33 176.85C1325.31 177.71 1325.13 178.54 1324.91 179.4C1324.69 180.22 1324.44 181.04 1324.1 181.84C1323.89 182.38 1323.71 182.96 1323.49 183.54C1323.23 184.15 1323 184.77 1322.66 185.37C1321.53 188.01 1318.97 191.88 1316.6 193.57C1316.22 193.92 1315.77 194.13 1315.32 194.38C1313.03 195.6 1312.22 196.04 1309.44 195.58C1308.6 195.44 1307.88 195.12 1307.26 194.65C1306.85 194.38 1306.58 194.05 1306.32 193.68C1306.03 193.22 1305.78 192.73 1305.67 192.14C1305.66 191.93 1305.57 191.76 1305.48 191.58C1305.37 191.27 1305.26 190.93 1305.24 190.56C1305.16 189.81 1305.21 189 1305.26 188.23C1305.36 187.41 1305.48 186.66 1305.69 185.87ZM1310.29 186.76C1310.29 187.25 1310.25 187.74 1310.25 188.23C1310.25 188.72 1310.3 189.18 1310.47 189.62C1310.59 190.13 1310.9 190.75 1311.49 190.85C1311.73 190.89 1311.98 190.85 1312.24 190.77C1312.42 190.68 1312.59 190.62 1312.81 190.54C1314.89 189.37 1316.69 187.13 1317.61 184.99C1317.83 184.62 1318.06 184.25 1318.24 183.87C1319.2 181.53 1320.1 179.27 1320.72 176.8C1320.9 175.72 1320.98 173.98 1319.85 173.38C1319.58 173.25 1319.31 173.17 1318.99 173.16C1318.41 173.19 1317.89 173.39 1317.35 173.71C1315.89 174.86 1314.62 176.37 1313.74 177.98C1313.62 178.25 1313.46 178.46 1313.33 178.73C1313.09 179.18 1312.85 179.63 1312.62 180.08C1312.37 180.57 1312.16 181.11 1311.91 181.64C1311.78 181.95 1311.65 182.21 1311.56 182.52C1311.16 183.44 1310.89 184.33 1310.61 185.31C1310.5 185.77 1310.33 186.27 1310.29 186.76Z" fill="white"/>
<path d="M1333.71 190.68C1333.78 190.53 1333.89 190.34 1333.92 190.18C1334.05 189.67 1334.57 188.61 1334.88 188.22C1335.28 187.55 1336.38 186.68 1337.15 186.49C1337.28 186.43 1337.38 186.37 1337.5 186.35C1338.11 186.13 1338.7 186.03 1339.33 185.94C1339.59 185.86 1339.74 185.73 1339.86 185.5C1339.93 185.35 1339.93 185.31 1339.79 185.2C1339.68 185.1 1339.49 185.02 1339.39 184.92C1338.85 184.5 1338.53 183.99 1338.44 183.32C1338.43 183.15 1338.41 183.03 1338.4 182.86C1338.32 182.15 1338.28 181.45 1338.45 180.74C1338.54 180.22 1338.68 179.67 1338.85 179.17C1338.99 178.83 1339.22 178.46 1339.4 178.12C1340.77 175.95 1342.75 174 1345.32 173.39C1346.36 173.08 1347.47 173.03 1348.57 173.11C1351.67 173.66 1353.87 175.36 1354.04 178.75C1354.1 179.58 1353.94 180.45 1353.67 181.31C1353.62 181.38 1353.6 181.46 1353.55 181.53C1352.8 182.54 1352.37 183.08 1351.06 183.3C1350.8 183.38 1350.56 183.37 1350.28 183.32C1350.12 183.29 1349.92 183.26 1349.76 183.27C1349.28 183.19 1348.91 182.96 1348.55 182.73C1348.15 182.45 1347.97 182.05 1348.1 181.54C1348.16 181.22 1348.25 180.91 1348.35 180.6C1348.47 180.17 1348.59 179.7 1348.55 179.24C1348.45 178.65 1348.12 178.22 1347.5 178.03C1347 177.86 1346.46 177.89 1345.86 178.27C1345.11 178.79 1344.22 179.66 1343.83 180.49C1343.54 181.18 1343.46 181.86 1343.56 182.49C1343.62 182.83 1343.74 183.1 1343.99 183.3C1344.17 183.41 1344.32 183.52 1344.5 183.64C1344.79 183.86 1345.71 184.92 1347.98 185.28C1350.13 185.62 1353.02 185.97 1353.26 186.22C1353.65 186.58 1353.76 187.09 1353.67 187.6C1353.44 188.91 1352.35 190.44 1350.86 190.26C1350.78 190.25 1350.42 190.22 1349.9 190.13C1349.32 191.54 1347.37 195.87 1346.96 196.33C1346.28 197.15 1345.11 198.21 1344.18 198.83C1343.91 198.99 1343.59 199.18 1343.28 199.29C1342.48 199.64 1341.66 199.86 1340.83 199.92C1340.03 200.02 1339.21 200.04 1338.45 199.91C1338.24 199.91 1338.04 199.88 1337.85 199.84C1337.57 199.79 1337.3 199.7 1337.02 199.65C1336.9 199.63 1336.75 199.56 1336.63 199.54C1335.23 199.13 1333.77 198.09 1333.33 196.66C1333.21 196.19 1333.09 195.72 1332.97 195.24C1332.85 194.76 1332.81 194.27 1332.87 193.75C1333.05 192.74 1333.28 191.71 1333.71 190.68ZM1338.48 194.48C1338.58 194.58 1338.65 194.67 1338.76 194.74C1339.04 194.99 1339.38 195.18 1339.78 195.25C1340.1 195.31 1340.47 195.29 1340.9 195.2C1340.99 195.17 1341.11 195.16 1341.21 195.09C1341.64 194.96 1342.14 194.93 1342.4 194.6C1343.79 192.8 1344.73 190.26 1345.12 189.43C1344.64 189.39 1344.32 189.33 1344.28 189.32C1344.2 189.31 1342.83 188.94 1342.74 188.97C1342.04 188.97 1341.4 189.14 1340.74 189.39C1339.36 189.8 1338.43 191.77 1338.2 193.08C1338.06 193.63 1338.23 194.07 1338.48 194.48Z" fill="white"/>
<path d="M1360.28 200.07C1361.35 198.34 1362.48 196.71 1363.72 195.1C1364.38 194.2 1365.05 193.26 1365.72 192.36C1366.22 191.67 1366.72 190.99 1367.18 190.3C1367.66 189.69 1368.11 189.08 1368.56 188.43C1369 187.82 1369.46 187.16 1369.91 186.51C1371.15 184.73 1372.7 182.81 1374.16 181.2C1375.43 179.92 1376.81 178.7 1378.79 179.08C1380.24 179.44 1380.45 180.5 1380.41 181.81C1380.36 182.74 1380.22 183.7 1380 184.65C1379.79 185.55 1379.58 186.42 1379.33 187.32C1379.18 187.91 1378.99 188.49 1378.83 189.07C1378.71 189.5 1378.59 189.93 1378.42 190.35C1378.37 190.63 1378.28 190.9 1378.19 191.13C1377.93 191.86 1377.71 192.56 1377.5 193.26C1377.29 193.92 1377.09 194.54 1376.9 195.16C1376.75 195.75 1376.56 196.33 1376.36 196.91C1376.22 197.46 1376.08 197.97 1375.93 198.51C1375.79 199.02 1375.66 199.49 1375.49 199.95C1375.34 200.33 1375.23 200.68 1375.12 201.03C1374.89 201.6 1374.65 202.21 1374.5 202.6C1374.23 203.16 1374.07 203.55 1373.91 203.97C1373.49 205.33 1372.55 205.97 1371.12 205.91C1370.56 205.85 1370.15 205.6 1369.9 205.19C1369.71 204.91 1369.65 204.57 1369.67 204.24C1369.68 203.95 1369.7 203.67 1369.7 203.42C1369.74 202.98 1369.87 202.51 1369.99 202.08C1370.07 201.64 1369.91 200.96 1369.4 200.86C1368.41 200.67 1367.39 200.44 1366.4 200.25C1366.09 200.15 1365.75 200.21 1365.43 200.4C1365.34 200.42 1365.3 200.46 1365.26 200.45C1364.98 200.6 1364.79 200.77 1364.62 201.03C1364.21 201.69 1363.72 202.3 1363.16 202.89C1362.95 203.14 1362.74 203.39 1362.46 203.54C1361.93 203.97 1361.3 204.02 1360.64 204.02C1360.24 203.98 1359.98 203.81 1359.78 203.57C1359.49 203.15 1359.37 202.71 1359.47 202.2C1359.62 201.38 1359.9 200.74 1360.28 200.07ZM1367.95 196.64C1367.92 197 1368.13 197.21 1368.45 197.27C1368.78 197.29 1369.08 197.39 1369.28 197.43C1369.72 197.51 1370.07 197.58 1370.38 197.68C1370.66 197.73 1370.91 197.7 1371.15 197.54C1371.38 197.42 1371.57 197.25 1371.73 197.08C1371.95 196.79 1372.05 196.48 1372.15 196.17C1372.3 195.79 1372.41 195.44 1372.57 195.06C1372.74 194.6 1372.92 194.1 1373.08 193.64C1373.21 193.38 1373.3 193.11 1373.4 192.84C1373.54 192.29 1373.72 191.79 1373.9 191.25C1374.08 190.75 1374.25 190.25 1374.43 189.75C1374.62 189.17 1374.82 188.55 1374.98 187.92C1375.16 187.42 1375.22 186.86 1375.28 186.33C1375.29 186.29 1375.29 186.25 1375.26 186.2C1375.27 186.12 1375.16 186.06 1375.07 186.12C1375.03 186.11 1374.98 186.14 1374.98 186.18C1374.82 186.36 1374.68 186.49 1374.56 186.68C1372.94 188.71 1371.45 190.77 1370.01 192.92C1369.54 193.65 1369.03 194.42 1368.52 195.14C1368.17 195.65 1368 196.15 1367.95 196.64Z" fill="white"/>
<path d="M1378 204.73C1378.28 203.92 1378.6 203.16 1378.91 202.4C1379.11 202.03 1379.22 201.64 1379.37 201.3C1379.65 200.74 1379.87 200.21 1380.11 199.64C1380.7 198.32 1381.33 197 1382 195.69C1382.2 195.32 1382.39 194.95 1382.59 194.57C1382.65 194.46 1382.72 194.31 1382.79 194.16C1383.08 193.52 1383.45 192.89 1383.78 192.26C1384.58 190.9 1385.32 189.44 1386.01 188.01C1386.29 187.45 1386.57 186.85 1386.88 186.29C1387.06 186 1387.2 185.7 1387.34 185.43C1387.62 184.83 1387.86 184.26 1388.18 183.66C1388.52 182.99 1389.28 182.03 1389.97 181.67C1390.66 181.27 1391.33 181.24 1391.98 181.49C1392.52 181.68 1392.85 182.07 1393.1 182.49C1393.24 182.81 1393.34 183.15 1393.44 183.5C1393.54 184.01 1393.56 184.55 1393.59 185.05C1393.61 187.48 1393.42 189.87 1393.19 192.29C1393.18 192.74 1393.22 193.16 1393.31 193.59C1393.29 193.67 1393.36 193.76 1393.38 193.85C1393.41 193.9 1393.44 193.94 1393.53 193.92C1393.62 193.9 1393.67 193.82 1393.72 193.79C1393.78 193.72 1393.83 193.65 1393.85 193.53C1394.09 192.96 1394.31 192.43 1394.55 191.86C1394.75 191.49 1394.9 191.11 1395.06 190.73C1395.35 190.09 1395.59 189.48 1395.88 188.84C1396.48 187.27 1397.36 185.68 1398.4 184.36C1398.63 184.04 1398.98 183.73 1399.35 183.52C1400.15 183.02 1401.02 182.98 1401.68 183.36C1401.93 183.53 1402.14 183.74 1402.34 183.98C1402.56 184.31 1402.65 184.7 1402.61 185.14C1402.54 185.7 1402.43 186.26 1402.16 186.82C1401.56 188.18 1400.9 189.49 1400.19 190.79C1399.61 191.87 1399.11 192.92 1398.61 194.02C1398.32 194.66 1398.03 195.3 1397.7 195.94C1397.19 196.87 1396.75 197.85 1396.27 198.82C1395.96 199.54 1395.63 200.21 1395.33 200.9C1394.23 203.56 1393.13 206.22 1391.55 208.63C1391.08 209.15 1390.51 209.33 1389.85 209.32C1389.48 209.33 1389.13 209.22 1388.88 209.01C1387.96 208.25 1387.58 207.48 1387.68 206.31C1387.7 205.16 1387.8 204.03 1387.95 202.87C1388.07 201.83 1388.16 200.77 1388.15 199.74C1388.14 198.71 1388.19 197.65 1388.27 196.6C1388.28 196.31 1388.21 196.05 1388.05 195.86C1388.02 195.81 1387.94 195.8 1387.89 195.83C1387.74 195.96 1387.63 196.11 1387.52 196.25C1386.81 197.55 1386.18 198.86 1385.59 200.23C1384.8 202.13 1383.97 204.06 1382.96 205.88C1382.79 206.13 1382.61 206.39 1382.37 206.59C1382.17 206.76 1382.01 206.93 1381.85 207.15C1381.49 207.74 1380.79 208.13 1380.1 208.08C1379.54 208.01 1379.03 207.87 1378.6 207.54C1378.17 207.21 1377.89 206.78 1377.83 206.24C1377.76 205.71 1377.82 205.23 1378 204.73Z" fill="white"/>
<path d="M1397.47 208.03C1397.77 207.14 1398.16 206.24 1398.58 205.37C1399.14 204.25 1399.68 203.17 1400.28 202.05C1400.69 201.27 1401.13 200.49 1401.54 199.71C1402.29 198.46 1403 197.17 1403.64 195.85C1405.02 192.67 1406.47 189.43 1408.15 186.39C1408.28 186.13 1408.46 185.88 1408.63 185.62C1409.07 185.09 1409.61 184.83 1410.29 184.76C1410.8 184.7 1411.27 184.79 1411.69 184.96C1412.64 185.36 1412.5 186.44 1412.33 187.27C1412.27 187.55 1412.18 187.82 1412.13 188.05C1412.07 188.53 1411.91 188.95 1411.73 189.41C1411.2 190.79 1410.43 192.56 1409.68 193.85C1409.04 195 1408.51 196.16 1407.95 197.33C1407.41 198.37 1406.91 199.42 1406.37 200.47C1405.65 201.8 1405.04 203.16 1404.36 204.51C1404.07 205.15 1403.69 205.77 1403.36 206.41C1403.16 206.78 1402.95 207.19 1402.76 207.56C1402.39 208.14 1402.1 208.78 1401.66 209.35C1401.36 209.82 1400.99 210.24 1400.57 210.65C1400.32 210.85 1400.08 211.04 1399.76 211.19C1399.3 211.43 1398.83 211.5 1398.41 211.33C1397.6 211.04 1397.22 210.1 1397.26 209.29C1397.25 208.89 1397.34 208.46 1397.47 208.03Z" fill="white"/>
<path d="M1407.03 210.07C1407.7 208.64 1408.45 207.23 1409.23 205.87C1409.43 205.5 1409.67 205.14 1409.91 204.78C1410.11 204.41 1410.31 204.04 1410.51 203.71C1410.75 203.35 1410.95 202.98 1411.19 202.62C1411.27 202.43 1411.38 202.29 1411.46 202.1C1413.2 198.34 1414.94 194.54 1416.76 190.8C1417.61 189.12 1419.6 186.49 1421.73 186.94C1422.13 186.98 1422.46 187.22 1422.69 187.47C1424.3 189.62 1423.38 196.15 1422.86 198.64C1422.84 198.72 1422.82 198.84 1422.84 198.92C1422.95 199.19 1423.15 199.23 1423.47 199.05C1423.74 198.94 1423.94 198.78 1424.15 198.57C1425.08 197.65 1425.92 196.63 1426.82 195.67C1428.18 194.1 1429.58 192.54 1431.04 191.07C1431.4 190.73 1431.76 190.4 1432.15 190.11C1432.54 189.82 1432.99 189.63 1433.45 189.6C1433.86 189.6 1434.25 189.52 1434.61 189.56C1434.86 189.57 1435.05 189.61 1435.28 189.7C1436.29 190.2 1436.72 190.5 1436.45 191.8C1436.3 192.31 1436.2 192.82 1436.05 193.32C1435.53 195.02 1434.62 196.61 1433.72 198.15C1433.71 198.19 1433.66 198.22 1433.65 198.3C1433.26 199 1432.89 199.75 1432.49 200.49C1432.18 201 1431.91 201.48 1431.6 201.99C1431.59 202.03 1431.58 202.07 1431.54 202.1C1430.34 204.28 1429.14 206.46 1428.05 208.71C1427.76 209.31 1427.48 209.87 1427.19 210.47C1426.97 210.92 1426.75 211.37 1426.58 211.83C1425.69 213.71 1424.53 216.1 1422.19 216.23C1421.48 216.29 1421.05 215.95 1420.85 215.37C1420.75 215.06 1420.75 214.69 1420.73 214.36C1420.78 213.92 1420.87 213.48 1421 213.06C1421.28 212.13 1421.72 211.19 1422.16 210.29C1422.3 209.99 1422.44 209.73 1422.59 209.43C1423.34 207.81 1424.12 206.25 1425.06 204.75C1425.4 204.12 1425.74 203.49 1426.11 202.87C1426.18 202.72 1426.26 202.53 1426.34 202.38C1426.4 202.31 1426.41 202.23 1426.43 202.15C1426.45 202.03 1426.54 201.84 1426.38 201.81C1426.22 201.78 1426.15 201.93 1426.05 202.03C1425.28 202.77 1424.54 203.53 1423.77 204.23C1422.89 205.08 1421.98 205.88 1421 206.62C1420.71 206.85 1420.37 207.07 1420 207.24C1419.82 207.33 1419.64 207.37 1419.46 207.46C1419.06 207.58 1418.75 207.52 1418.44 207.41C1418.33 207.35 1418.26 207.29 1418.2 207.19C1418.06 207.08 1417.97 206.9 1417.93 206.72C1417.73 206.1 1417.7 205.44 1417.77 204.75C1418 202.86 1418.15 200.99 1418.33 199.14C1418.34 199.1 1418.35 199.06 1418.35 199.02C1418.31 199.01 1418.28 198.96 1418.28 198.96C1418.2 198.94 1418.15 198.97 1418.11 199.01C1418.09 199.09 1418.04 199.16 1418.03 199.2C1417.89 199.46 1417.76 199.68 1417.67 199.95C1417.15 201.04 1416.55 202.15 1415.99 203.27C1415.66 203.86 1415.33 204.45 1415.04 205.05C1414.52 205.97 1414.03 206.9 1413.5 207.86C1412.73 209.35 1411.25 211.72 1410.08 212.79C1409.59 213.14 1409.09 213.37 1408.52 213.37C1408.07 213.36 1407.72 213.24 1407.39 213.05C1406.99 212.8 1406.77 212.47 1406.65 212.07C1406.61 211.86 1406.62 211.61 1406.66 211.41C1406.68 210.94 1406.82 210.48 1407.03 210.07Z" fill="white"/>
<path d="M1430.02 213.98C1431.13 212.28 1432.31 210.68 1433.6 209.1C1434.29 208.22 1434.98 207.3 1435.67 206.41C1436.19 205.74 1436.71 205.07 1437.18 204.39C1437.68 203.8 1438.14 203.2 1438.61 202.56C1439.07 201.96 1439.54 201.32 1440.01 200.68C1441.3 198.94 1442.91 197.06 1444.41 195.49C1445.71 194.25 1447.13 193.07 1449.1 193.5C1450.54 193.9 1450.72 194.97 1450.64 196.27C1450.56 197.2 1450.39 198.16 1450.15 199.09C1449.91 199.99 1449.68 200.85 1449.41 201.74C1449.24 202.32 1449.03 202.9 1448.87 203.48C1448.74 203.9 1448.6 204.33 1448.43 204.75C1448.37 205.03 1448.27 205.29 1448.18 205.52C1447.9 206.24 1447.66 206.94 1447.43 207.63C1447.2 208.28 1446.99 208.9 1446.77 209.51C1446.6 210.09 1446.39 210.67 1446.19 211.24C1446.03 211.78 1445.88 212.29 1445.72 212.83C1445.57 213.33 1445.43 213.8 1445.24 214.25C1445.07 214.63 1444.96 214.97 1444.84 215.32C1444.59 215.89 1444.34 216.49 1444.17 216.87C1443.88 217.43 1443.72 217.8 1443.55 218.22C1443.09 219.56 1442.13 220.18 1440.71 220.08C1440.15 220 1439.75 219.75 1439.51 219.32C1439.33 219.03 1439.28 218.69 1439.31 218.37C1439.33 218.09 1439.35 217.8 1439.36 217.56C1439.41 217.12 1439.56 216.65 1439.69 216.23C1439.78 215.8 1439.65 215.11 1439.13 214.99C1438.14 214.77 1437.13 214.51 1436.14 214.3C1435.83 214.19 1435.49 214.24 1435.16 214.42C1435.07 214.44 1435.02 214.47 1434.99 214.46C1434.71 214.61 1434.51 214.77 1434.33 215.02C1433.9 215.67 1433.4 216.26 1432.82 216.84C1432.6 217.08 1432.38 217.32 1432.1 217.47C1431.56 217.89 1430.93 217.92 1430.27 217.9C1429.87 217.85 1429.62 217.67 1429.42 217.43C1429.14 217 1429.03 216.56 1429.14 216.05C1429.32 215.28 1429.63 214.64 1430.02 213.98ZM1437.78 210.76C1437.74 211.12 1437.94 211.33 1438.26 211.4C1438.58 211.43 1438.89 211.54 1439.09 211.58C1439.52 211.67 1439.88 211.75 1440.18 211.86C1440.46 211.92 1440.71 211.89 1440.95 211.74C1441.18 211.63 1441.38 211.46 1441.54 211.29C1441.77 211.01 1441.87 210.7 1441.98 210.4C1442.15 210.02 1442.26 209.68 1442.43 209.3C1442.61 208.84 1442.8 208.35 1442.99 207.89C1443.13 207.63 1443.23 207.36 1443.33 207.1C1443.49 206.56 1443.68 206.06 1443.88 205.53C1444.07 205.03 1444.26 204.54 1444.45 204.04C1444.66 203.47 1444.87 202.85 1445.05 202.23C1445.24 201.73 1445.32 201.17 1445.39 200.65C1445.4 200.61 1445.41 200.57 1445.38 200.52C1445.4 200.44 1445.29 200.38 1445.19 200.44C1445.15 200.43 1445.1 200.46 1445.09 200.5C1444.93 200.67 1444.78 200.8 1444.65 200.98C1442.98 202.97 1441.42 204.98 1439.93 207.09C1439.44 207.81 1438.91 208.56 1438.38 209.27C1438.04 209.79 1437.84 210.28 1437.78 210.76Z" fill="white"/>
<path d="M1455 197.52C1455.13 197.3 1455.25 197.12 1455.5 196.97C1455.7 196.81 1455.95 196.62 1456.18 196.5C1456.43 196.31 1456.69 196.24 1456.95 196.22C1457.08 196.21 1457.2 196.19 1457.33 196.18C1457.85 196.09 1458.24 196.18 1458.62 196.31C1458.77 196.38 1458.89 196.41 1459.01 196.4C1459.25 196.45 1459.48 196.51 1459.76 196.57C1460.04 196.59 1460.31 196.69 1460.64 196.73C1460.92 196.79 1461.18 196.89 1461.45 196.99C1462.14 197.23 1462.87 197.47 1463.64 197.56C1463.76 197.59 1463.88 197.61 1463.99 197.64C1464.45 197.79 1464.98 197.82 1465.47 197.85C1465.68 197.85 1465.86 197.94 1466.07 197.94C1466.39 198.01 1466.66 198.07 1466.98 198.1C1467.23 198.11 1467.46 198.17 1467.68 198.3C1467.8 198.33 1467.92 198.35 1468.03 198.42C1468.74 198.58 1469.31 198.79 1469.95 199.06C1470.17 199.19 1470.31 199.31 1470.43 199.5C1470.69 199.81 1470.72 200.23 1470.58 200.65C1470.07 202.19 1468.77 202.64 1467.24 202.46C1467.12 202.43 1467.04 202.42 1466.96 202.44C1466.33 202.46 1465.77 202.38 1465.22 202.26C1464.94 202.2 1464.67 202.14 1464.35 202.07C1464.19 202.03 1464.07 202.05 1463.89 202.09C1463.71 202.17 1463.55 202.3 1463.47 202.49C1463.41 202.56 1463.39 202.68 1463.32 202.79C1462.67 204.01 1462.02 205.27 1461.33 206.48C1460.77 207.51 1460.28 208.56 1459.76 209.6C1459.37 210.42 1458.98 211.24 1458.58 212.1L1458.54 212.09C1458.14 212.95 1457.69 213.84 1457.24 214.74C1456.62 216.05 1456 217.31 1455.37 218.62C1455.04 219.37 1454.63 220.07 1454.15 220.74C1453.47 221.58 1452.6 222.13 1451.52 222.34C1451 222.43 1450.56 222.37 1450.19 222.17C1449.58 221.74 1449.65 221.1 1449.8 220.43C1449.85 220.19 1449.92 219.92 1450.02 219.65C1450.18 219.31 1450.3 218.97 1450.46 218.63C1450.71 218.07 1450.91 217.53 1451.19 217.02C1452.4 214.4 1453.73 211.8 1455.16 209.31C1455.53 208.61 1455.94 207.87 1456.3 207.17C1456.57 206.69 1456.85 206.18 1457.13 205.66C1457.89 204.3 1458.53 202.91 1459.29 201.56C1459.3 201.52 1459.31 201.48 1459.32 201.44C1459.43 201.34 1459.41 201.21 1459.35 201.12C1459.32 201.07 1459.3 200.98 1459.27 200.94C1459.18 200.79 1459.07 200.73 1458.91 200.69C1458.25 200.5 1457.54 200.34 1456.88 200.15C1456.38 200 1455.87 199.84 1455.48 199.59C1455.33 199.52 1455.18 199.44 1455.08 199.34C1454.87 199.17 1454.77 198.9 1454.75 198.6C1454.75 198.25 1454.79 197.89 1455 197.52Z" fill="white"/>
<path d="M1462.65 221.99C1462.98 221.11 1463.39 220.21 1463.83 219.36C1464.42 218.25 1464.99 217.18 1465.62 216.09C1466.05 215.32 1466.51 214.56 1466.94 213.78C1467.72 212.55 1468.47 211.28 1469.14 209.98C1470.61 206.84 1472.13 203.63 1473.9 200.64C1474.04 200.38 1474.22 200.13 1474.4 199.89C1474.85 199.37 1475.4 199.13 1476.08 199.08C1476.59 199.03 1477.06 199.14 1477.47 199.32C1478.41 199.74 1478.24 200.82 1478.05 201.65C1477.99 201.93 1477.88 202.19 1477.83 202.43C1477.76 202.91 1477.58 203.33 1477.39 203.78C1476.83 205.14 1476.01 206.9 1475.22 208.17C1474.55 209.3 1473.99 210.45 1473.39 211.6C1472.82 212.63 1472.29 213.67 1471.73 214.7C1470.97 216.02 1470.33 217.36 1469.61 218.68C1469.3 219.31 1468.91 219.93 1468.56 220.55C1468.35 220.92 1468.13 221.32 1467.93 221.69C1467.55 222.26 1467.24 222.9 1466.78 223.45C1466.47 223.92 1466.08 224.32 1465.66 224.72C1465.41 224.91 1465.16 225.1 1464.84 225.23C1464.38 225.45 1463.91 225.51 1463.49 225.33C1462.69 225.02 1462.33 224.07 1462.39 223.26C1462.41 222.85 1462.51 222.42 1462.65 221.99Z" fill="white"/>
<path d="M1474.77 219.19C1474.88 218.72 1475.06 218.31 1475.21 217.84C1475.38 217.47 1475.52 217.04 1475.7 216.63C1475.87 216.26 1476.08 215.89 1476.26 215.48L1476.3 215.49C1476.66 214.66 1477.02 213.84 1477.49 213.08C1477.7 212.72 1477.95 212.36 1478.16 212C1478.36 211.67 1478.56 211.35 1478.79 211.07C1479.32 210.04 1480.37 208.79 1481.11 207.93C1481.22 207.83 1481.33 207.69 1481.45 207.55C1481.86 207.23 1482.19 206.86 1482.52 206.52C1483.67 205.34 1485.05 204.22 1486.67 203.69C1487.03 203.57 1487.39 203.45 1487.75 203.32C1488.61 203.03 1489.46 202.94 1490.27 203C1490.79 203.08 1491.3 203.2 1491.76 203.35C1492.14 203.48 1492.52 203.65 1492.85 203.82C1494.74 204.93 1495.51 207.31 1495.22 209.4C1495.13 210.13 1495.04 210.85 1494.96 211.54C1494.88 212.39 1494.65 213.21 1494.37 214.05C1494.1 214.86 1493.78 215.65 1493.39 216.43C1493.14 216.95 1492.93 217.52 1492.67 218.08C1492.36 218.67 1492.1 219.27 1491.71 219.84C1490.4 222.39 1487.58 226.08 1485.11 227.61C1484.7 227.93 1484.25 228.11 1483.78 228.33C1481.42 229.39 1480.58 229.77 1477.83 229.12C1477.01 228.93 1476.31 228.55 1475.72 228.04C1475.33 227.74 1475.09 227.39 1474.84 227C1474.58 226.52 1474.37 226.02 1474.3 225.42C1474.31 225.21 1474.23 225.03 1474.15 224.84C1474.06 224.53 1473.98 224.18 1473.98 223.8C1473.95 223.05 1474.06 222.24 1474.16 221.48C1474.33 220.7 1474.5 219.95 1474.77 219.19ZM1479.29 220.38C1479.26 220.87 1479.18 221.35 1479.15 221.84C1479.12 222.33 1479.13 222.79 1479.28 223.24C1479.36 223.76 1479.63 224.4 1480.22 224.54C1480.46 224.6 1480.71 224.57 1480.97 224.51C1481.15 224.43 1481.33 224.39 1481.55 224.32C1483.7 223.29 1485.65 221.18 1486.72 219.12C1486.97 218.76 1487.22 218.41 1487.43 218.04C1488.55 215.77 1489.6 213.58 1490.38 211.15C1490.63 210.09 1490.83 208.36 1489.75 207.68C1489.49 207.54 1489.23 207.43 1488.91 207.4C1488.33 207.39 1487.8 207.55 1487.23 207.83C1485.7 208.88 1484.33 210.29 1483.34 211.84C1483.2 212.1 1483.02 212.3 1482.88 212.56C1482.61 212.99 1482.34 213.43 1482.07 213.86C1481.79 214.33 1481.55 214.86 1481.26 215.37C1481.11 215.67 1480.96 215.92 1480.85 216.23C1480.39 217.12 1480.06 217.99 1479.71 218.95C1479.56 219.41 1479.37 219.9 1479.29 220.38Z" fill="white"/>
<path d="M1491.68 229.32C1492 228.53 1492.35 227.78 1492.7 227.03C1492.91 226.67 1493.05 226.28 1493.21 225.95C1493.51 225.4 1493.76 224.88 1494.02 224.32C1494.67 223.02 1495.36 221.74 1496.08 220.46C1496.29 220.1 1496.51 219.73 1496.72 219.37C1496.79 219.26 1496.87 219.12 1496.94 218.97C1497.26 218.34 1497.66 217.73 1498.02 217.11C1498.88 215.78 1499.69 214.36 1500.44 212.97C1500.74 212.42 1501.05 211.83 1501.39 211.29C1501.58 211.01 1501.74 210.71 1501.89 210.46C1502.2 209.87 1502.46 209.31 1502.81 208.73C1503.18 208.07 1503.99 207.15 1504.69 206.82C1505.4 206.45 1506.07 206.45 1506.71 206.73C1507.24 206.94 1507.55 207.35 1507.78 207.78C1507.91 208.1 1507.99 208.45 1508.07 208.81C1508.15 209.33 1508.14 209.87 1508.15 210.37C1508.05 212.8 1507.76 215.18 1507.42 217.59C1507.39 218.04 1507.41 218.46 1507.48 218.89C1507.46 218.97 1507.52 219.07 1507.54 219.15C1507.57 219.2 1507.6 219.25 1507.69 219.23C1507.78 219.21 1507.84 219.14 1507.89 219.11C1507.95 219.04 1508.01 218.97 1508.04 218.85C1508.3 218.29 1508.55 217.77 1508.81 217.21C1509.02 216.85 1509.2 216.47 1509.37 216.1C1509.69 215.47 1509.96 214.87 1510.28 214.25C1510.95 212.71 1511.91 211.16 1513.01 209.89C1513.25 209.58 1513.61 209.29 1513.99 209.09C1514.81 208.63 1515.68 208.63 1516.33 209.04C1516.58 209.22 1516.77 209.44 1516.96 209.69C1517.17 210.03 1517.24 210.42 1517.17 210.86C1517.08 211.42 1516.94 211.97 1516.64 212.52C1515.98 213.85 1515.25 215.13 1514.49 216.4C1513.86 217.45 1513.32 218.48 1512.76 219.55C1512.44 220.18 1512.12 220.81 1511.76 221.42C1511.21 222.32 1510.72 223.29 1510.2 224.24C1509.86 224.95 1509.49 225.6 1509.16 226.27C1507.94 228.88 1506.72 231.49 1505.03 233.82C1504.53 234.32 1503.96 234.47 1503.3 234.44C1502.93 234.43 1502.59 234.31 1502.35 234.08C1501.47 233.28 1501.12 232.49 1501.28 231.33C1501.35 230.18 1501.5 229.06 1501.7 227.9C1501.87 226.86 1502 225.81 1502.05 224.79C1502.09 223.76 1502.19 222.7 1502.32 221.66C1502.35 221.38 1502.29 221.11 1502.13 220.91C1502.1 220.86 1502.02 220.84 1501.97 220.87C1501.81 221 1501.7 221.14 1501.58 221.27C1500.81 222.54 1500.12 223.82 1499.47 225.16C1498.6 227.02 1497.68 228.92 1496.58 230.69C1496.4 230.94 1496.21 231.18 1495.96 231.37C1495.75 231.53 1495.59 231.7 1495.42 231.9C1495.03 232.47 1494.32 232.84 1493.63 232.75C1493.07 232.66 1492.57 232.49 1492.16 232.14C1491.75 231.79 1491.48 231.35 1491.45 230.8C1491.41 230.29 1491.48 229.81 1491.68 229.32Z" fill="white"/>
<path d="M890.41 369.14C865.35 369.14 844.96 348.75 844.96 323.69C844.96 298.63 865.35 278.24 890.41 278.24C914.29 278.24 934.2 296.88 935.75 320.69C935.82 321.65 935.86 322.67 935.86 323.69C935.86 342.58 923.97 359.7 906.27 366.29C901.19 368.18 895.86 369.14 890.41 369.14ZM890.41 286.25C869.76 286.25 852.96 303.05 852.96 323.7C852.96 344.35 869.76 361.15 890.41 361.15C894.9 361.15 899.29 360.36 903.48 358.81C918.06 353.38 927.86 339.27 927.86 323.71C927.86 322.88 927.83 322.06 927.77 321.26C926.5 301.61 910.09 286.25 890.41 286.25Z" fill="#00414C"/>
<path d="M1004.49 369.14C998.06 369.14 991.84 367.82 986 365.22C969.63 357.92 959.05 341.62 959.05 323.7C959.05 323.03 959.06 322.38 959.1 321.72C960.11 297.37 980.06 278.25 1004.5 278.25C1029.56 278.25 1049.95 298.64 1049.95 323.7C1049.94 348.75 1029.55 369.14 1004.49 369.14ZM1004.49 286.25C984.35 286.25 967.92 302 967.08 322.11C967.05 322.67 967.04 323.18 967.04 323.7C967.04 338.47 975.76 351.9 989.25 357.91C994.06 360.05 999.18 361.14 1004.49 361.14C1025.14 361.14 1041.94 344.34 1041.94 323.69C1041.94 303.05 1025.14 286.25 1004.49 286.25Z" fill="#00414C"/>
<path d="M963.08 325.94C962.54 325.94 961.98 325.83 961.45 325.59C956.64 323.45 951.52 322.36 946.21 322.36C941.72 322.36 937.33 323.15 933.14 324.7C931.07 325.47 928.77 324.41 928 322.34C927.23 320.27 928.29 317.97 930.36 317.2C935.44 315.31 940.77 314.36 946.21 314.36C952.64 314.36 958.86 315.68 964.7 318.28C966.72 319.18 967.62 321.54 966.72 323.56C966.08 325.06 964.61 325.94 963.08 325.94Z" fill="#00414C"/>
<path d="M825.13 330.87C822.92 330.87 821.13 329.08 821.13 326.87V282.58C821.4 213.73 877.62 157.74 946.46 157.74C1015.3 157.74 1071.52 213.74 1071.79 282.57C1071.8 284.78 1070.01 286.58 1067.81 286.59C1067.81 286.59 1067.8 286.59 1067.79 286.59C1065.59 286.59 1063.8 284.81 1063.79 282.61C1063.54 218.17 1010.9 165.75 946.46 165.75C882.01 165.75 829.38 218.17 829.13 282.61V326.89C829.13 329.08 827.34 330.87 825.13 330.87Z" fill="white"/>
<path d="M361.37 332.56C360.98 330.54 360.95 328.63 360.72 326.58C360.73 324.83 360.53 322.95 360.51 321.04C360.52 319.29 360.69 317.51 360.67 315.6L360.84 315.57C360.79 311.74 360.74 307.91 361.23 304.15C361.41 302.37 361.75 300.56 361.93 298.78C362.14 297.17 362.35 295.56 362.76 294.08C363.02 289.14 364.86 282.5 366.22 277.87C366.46 277.3 366.66 276.56 366.87 275.82C367.89 273.88 368.53 271.83 369.21 269.95C371.59 263.38 374.98 256.61 380.31 251.73C381.49 250.63 382.67 249.52 383.85 248.42C386.65 245.78 389.78 243.95 393.04 242.78C395.19 242.18 397.38 241.76 399.43 241.53C401.14 241.37 402.89 241.38 404.47 241.42C413.74 242.4 420.85 250.26 423.4 258.83C424.33 261.79 425.25 264.75 426.15 267.54C427.34 270.97 427.87 274.53 428.25 278.3C428.6 281.9 428.79 285.52 428.64 289.22C428.6 291.67 428.75 294.26 428.74 296.88C428.59 299.7 428.62 302.49 428.13 305.38C427.54 317.54 423.09 336.73 416.19 346.97C415.14 348.75 413.72 350.42 412.31 352.09C405.02 360.32 402.45 363.26 390.69 365.56C387.16 366.25 383.8 366.03 380.65 365.08C378.64 364.6 377.06 363.69 375.46 362.61C373.62 361.22 371.91 359.64 370.61 357.45C370.28 356.64 369.64 356.07 369.01 355.49C368.11 354.45 367.17 353.23 366.54 351.78C365.11 348.92 364.12 345.62 363.16 342.49C362.32 339.18 361.69 335.99 361.37 332.56ZM380.97 329.25C381.7 331.2 382.26 333.19 382.99 335.14C383.72 337.09 384.59 338.84 385.92 340.33C387.15 342.18 389.3 344.21 391.82 343.71C392.83 343.51 393.77 342.98 394.68 342.28C395.25 341.64 395.86 341.18 396.6 340.51C403.12 332.78 406.96 321.21 407.48 311.34C407.82 309.53 408.17 307.72 408.34 305.94C408.69 295.23 408.94 284.88 407.71 274.13C406.82 269.59 404.57 262.53 399.2 261.83C397.96 261.72 396.75 261.79 395.44 262.22C393.19 263.18 391.4 264.76 389.71 266.83C385.11 274.54 381.84 283.72 381.17 292.75C380.89 294.9 380.61 297.05 380.34 299.2C380.09 301.52 380.05 303.97 379.84 306.45C379.77 307.86 379.66 309.1 379.76 310.48C379.54 314.71 379.79 318.68 380.11 322.98C380.31 325.02 380.4 327.27 380.97 329.25Z" fill="white"/>
<path d="M441.89 332.96C441.74 330.9 441.93 328.79 442.29 326.66C442.47 325.59 442.62 324.35 442.78 323.12C443.2 320.28 443.99 317.56 445.28 314.75C446.37 312.85 447.46 310.94 449.33 309.61C449.79 309.19 450.38 308.58 451.01 308.13C452.23 307.07 453.51 306.35 454.86 306.14C456.75 306.02 458.49 306.09 459.86 307.09C461.2 307.92 462.09 309.17 462.36 310.86C462.49 311.71 462.46 312.58 462.44 313.62C462.03 317.67 461.99 321.84 462.63 325.9C463 328.27 464.11 329.83 466.73 329.94C468.31 330.04 469.85 329.97 471.49 329.37C475.28 328.08 476.6 325.45 478.15 322.09C478.64 320.8 478.96 319.54 479.46 318.25C480.01 316.26 480.21 314.15 480.25 312.23C480.16 310.51 479.86 308.65 479.63 307.13C479.06 304.62 478.04 302.52 476.88 300.63C476.63 300.15 476.21 299.69 475.8 299.24C474.77 298.19 473.57 297.16 472.51 295.94C471.9 295.34 471.11 294.77 470.19 294.4C468.7 293.77 467.22 293.13 465.73 292.5C464.24 291.87 462.61 291.43 461.13 290.79C457.43 289.29 454.32 287.17 451.62 284.3C450.76 283.22 449.87 281.97 449.12 280.53C448.37 279.09 447.91 277.25 447.79 275.36C447.62 273.13 447.61 270.88 447.43 268.65C447.4 268.48 447.4 268.48 447.55 268.29C447.56 267.25 447.88 265.98 447.89 264.94C447.85 258.01 451.27 247.77 455.69 242.75C457.71 240.18 459.96 237.92 462.38 235.64C463.15 235 463.91 234.36 464.68 233.72C466.55 232.39 468.57 230.86 470.63 229.67C472.5 228.34 474.62 227.49 476.74 226.63C480.04 225.59 483.38 224.73 486.62 224.39C487.8 224.2 488.82 224.05 489.89 224.23C491.3 224.36 492.7 224.48 494.11 224.61C496.08 225 497.76 225.77 499.15 226.94C499.57 227.39 499.99 227.85 500.38 228.13C501.55 228.99 502.59 230.04 503.45 231.12C504.12 232.06 504.78 232.99 505.45 233.93C506.64 236 507.18 238.34 507.55 240.71C507.8 243.44 507.72 246.23 507.27 248.9C507.21 255.15 504.35 264.61 497.49 266.2C493.96 266.93 491.07 266.16 488.98 263.89C487.5 262.21 486.68 260.26 486.62 257.67C486.41 256.32 486.39 255.11 486.18 253.75C486.11 252.2 485.53 250.73 484.79 249.29C484.35 248.67 483.73 248.07 483.14 247.64C481.26 246.72 479.47 246.31 477.27 246.65C476.09 246.84 474.95 247.36 474.02 248.03C472.91 248.72 472.01 249.56 471.34 250.88C470.25 252.78 469.5 254.63 469.14 256.77C468.63 260.14 468.62 263.44 469.27 266.46C469.77 269.67 474.08 272.82 476.71 274.14C477.27 274.4 477.86 274.83 478.56 274.89C480.19 275.33 481.56 276.33 482.76 277.35C484.16 278.52 485.69 279.49 487.43 280.61C488.02 281.04 488.77 281.44 489.56 282.01C490.9 282.84 492.3 284.01 493.36 285.23C495 286.88 496.45 288.39 498.07 289.87C498.71 290.64 499.15 291.26 499.62 292.05C500.67 294.31 501.35 296.46 501.75 299C502.07 301.03 502.22 303.09 502.05 305.37C500.95 319.41 496.23 330.2 486.24 340.6C483.97 342.69 481.47 344.47 478.87 345.57C475.31 347.17 471.66 348.26 468.25 348.62C463.88 349.48 459.85 349.24 455.92 348.47C451.62 347.58 448.01 345.55 445.25 342.34C443.11 339.7 441.96 336.76 441.89 332.96Z" fill="white"/>
<path d="M517.23 331.87C517.06 329.13 517.37 326.16 518.05 323.31C518.5 321.35 519.11 319.38 519.21 317.47C519.55 314.67 520.23 311.82 520.9 308.97C521.58 306.12 522.09 303.3 522.25 300.51C524 285.62 526.12 270.85 527.55 256.17C527.84 253.03 528.16 250.05 528.29 246.93C528.44 245.36 528.39 243.64 528.52 241.9C528.6 241.2 528.52 240.52 528.6 239.82C528.6 238.44 528.77 237.04 528.77 235.66C528.88 235.13 528.83 234.79 528.96 234.43C529.36 232.14 529.59 229.86 530.17 227.55C530.55 226.47 530.79 225.57 531 224.51C531.95 221.11 534.97 217.62 538.26 216.35C539.58 215.84 540.94 215.67 542.02 216.05C542.74 216.3 543.61 216.37 544.34 216.62C546.49 217.21 547.87 218.59 548.49 220.76C548.89 222.61 548.94 224.33 549 226.22C549.02 230.53 548.52 234.74 548.03 239.11C547.8 241.38 547.57 243.66 547.33 245.93C547.12 248.37 546.89 250.65 546.66 252.92C546.64 254.13 546.43 255.19 546.41 256.4C546.11 258.16 545.99 259.9 545.71 261.84C545.73 262.01 545.6 262.37 545.63 262.54C546.12 262.31 546.25 261.95 546.37 261.58C549.09 257.1 551.61 252.46 554.14 247.83C558.89 238.95 564.2 230.34 569.5 221.73C570.65 219.86 572.13 217.95 573.64 216.2C575.93 213.84 578.5 212.31 581.52 211.58C583.54 211.15 585.3 211.45 586.64 212.49C588.17 213.68 588.72 215.33 588.64 217.42C588.64 218.8 588.3 220.22 587.62 221.69C585.03 229.95 578.99 239.52 574.19 246.68C571.03 251.74 567.7 256.82 564.51 261.7C563.49 263.21 563 264.82 562.69 266.42C562.29 268.71 562.03 270.82 562.48 273.01C563.18 278.62 564.06 284.2 565.93 289.49C567.27 293.29 568.59 296.92 569.93 300.72C570.82 303.71 571.87 306.52 572.76 309.51C573.57 311.82 574.23 314.33 574.72 316.86C575.21 319.39 575.55 322.11 575.21 324.91C574.15 330.22 573.58 331.16 568.8 334.35C567.55 335.37 566.38 335.69 565.17 335.67C560.52 335.74 556.46 329.52 555.29 325.69C553.35 318.51 551.41 311.33 549.79 303.94C548.96 300.07 547.94 296.06 546.6 292.26C545.71 289.27 544.47 286.31 543.41 283.34C543.39 283.17 543.37 283 543.15 282.68C542.98 282.7 543 282.87 542.83 282.89C542.83 284.27 542.79 285.31 542.75 286.35C542.75 287.73 542.75 289.11 542.58 290.51C542.37 292.95 542.16 295.4 541.95 297.84C541.65 299.6 541.36 301.37 541.23 303.11C540.58 313.03 537.76 324.95 533.71 333.92C532.44 336.15 530.7 338.79 528.21 339.62C525.07 340.7 522.45 340.52 520.33 338.71C518.4 337.07 517.42 334.78 517.23 331.87Z" fill="white"/>
<path d="M587.57 316.33C589.85 308.02 592.51 300.01 595.68 291.96C597.31 287.5 598.92 282.87 600.55 278.41C601.77 275.02 602.98 271.63 604.03 268.26C605.28 265.21 606.36 262.18 607.42 258.98C608.5 255.95 609.56 252.75 610.63 249.55C613.56 240.83 617.6 231.14 621.61 222.83C625.25 216.11 629.42 209.5 637.94 208.67C644.28 208.39 646.4 212.49 647.79 217.86C648.69 221.73 649.26 225.8 649.49 229.91C649.7 233.85 649.9 237.61 649.94 241.57C650.02 244.14 649.93 246.73 650.01 249.31C650.02 251.2 650.04 253.09 649.88 255C650 256.19 649.94 257.4 649.87 258.44C649.68 261.73 649.64 264.83 649.6 267.93C649.54 270.86 649.47 273.62 649.4 276.38C649.48 278.95 649.39 281.54 649.3 284.13C649.36 286.53 649.41 288.77 649.47 291.17C649.52 293.4 649.55 295.46 649.41 297.54C649.24 299.28 649.22 300.83 649.2 302.38C648.94 304.99 648.7 307.76 648.52 309.5C648.09 312.12 647.92 313.86 647.76 315.77C647.66 321.8 644.59 325.55 638.71 326.98C636.34 327.38 634.4 326.89 632.88 325.49C631.76 324.57 631.11 323.25 630.81 321.91C630.52 320.73 630.23 319.56 629.96 318.55C629.61 316.69 629.58 314.63 629.56 312.74C629.38 310.86 627.92 308.25 625.7 308.47C621.44 308.89 616.99 309.15 612.73 309.57C611.35 309.53 610.04 310.18 608.94 311.32C608.62 311.52 608.46 311.71 608.29 311.73C607.35 312.68 606.75 313.6 606.36 314.84C605.47 318.03 604.22 321.07 602.63 324.15C602.06 325.41 601.5 326.67 600.56 327.62C598.9 330.02 596.41 330.95 593.74 331.73C592.05 332.07 590.81 331.67 589.7 330.92C588.02 329.54 587 327.92 586.78 325.7C586.45 322.46 586.85 319.5 587.57 316.33ZM614.73 293.19C615.05 294.71 616.14 295.29 617.5 295.16C618.85 294.86 620.23 294.89 621.08 294.81C622.96 294.63 624.49 294.48 625.87 294.51C627.06 294.39 628.05 293.95 628.82 293.02C629.61 292.25 630.2 291.34 630.63 290.43C631.18 289 631.21 287.62 631.25 286.24C631.42 284.5 631.44 282.95 631.62 281.21C631.76 279.13 631.88 276.88 632.02 274.8C632.24 273.57 632.3 272.36 632.35 271.15C632.29 268.75 632.41 266.5 632.52 264.08C632.64 261.83 632.77 259.58 632.89 257.33C632.98 254.74 633.05 251.98 632.96 249.24C633.08 246.99 632.68 244.62 632.29 242.42C632.27 242.25 632.26 242.08 632.07 241.93C632.04 241.59 631.51 241.47 631.2 241.84C631.03 241.86 630.88 242.04 630.89 242.21C630.46 243.11 630.02 243.84 629.76 244.73C625.6 254.95 621.95 265.11 618.67 275.59C617.64 279.13 616.46 282.86 615.26 286.42C614.48 288.91 614.36 291.16 614.73 293.19Z" fill="white"/>
<path d="M665.75 315.15C665.83 311.37 666.06 307.4 666.48 303.6C667.23 297.19 668.34 290.94 669.52 283.3C672.94 266.06 676.38 248.99 678.93 231.65C680.23 220.91 682.73 205.12 695.47 203.19C697.5 202.7 699.53 202.39 701.39 201.91C702.76 201.81 704.11 201.55 705.47 201.28C705.98 201.24 706.49 201.21 707.01 201.17C709.4 201 711.62 200.85 714.03 200.85C718.65 200.7 722.99 201.25 726.75 203.56C731.75 206.3 736.29 212.33 738.03 217.53C739.11 220.72 739.71 224.28 739.45 227.9C739.39 229.45 739.51 231.16 739.45 232.71C739.54 241.29 735.28 253.95 728.79 259.38C725.59 262.7 722.29 264.64 718.33 266.81C717.67 267.2 717.37 267.74 717.24 268.43C716.96 269.31 717.02 270.16 717.26 271.18C718.21 274.89 718.97 278.44 719.92 282.15C720.89 286.2 722.03 290.24 723.17 294.11C723.91 297.32 724.65 300.53 725.06 303.93C725.41 306.48 725.43 309.23 724.77 312.02C724.06 314.13 723.01 316.26 721.07 317.95C719.13 319.63 717.1 320.12 714.85 319.76C714.5 319.61 713.97 319.48 713.62 319.33C712.19 318.57 710.78 317.98 709.68 317.03C708.06 315.94 707.08 314.29 706.28 312.63C705.06 309.97 704.33 306.93 703.62 304.06C702.61 299.5 702.1 294.72 701.61 290.12C700.87 284.51 700.13 278.89 699.57 273.27C699.5 272.25 698.95 271.77 698.07 271.49C697.9 271.5 697.39 271.54 697.06 271.73C696.05 271.97 695.24 272.72 694.62 273.62C692.87 275.63 691.89 278.79 691.21 281.24C690.79 282.64 690.39 284.22 689.98 285.79C689.69 286.5 689.58 287.36 689.29 288.24C688.55 292.41 687.65 296.6 687.25 300.74C686.72 305.41 685.9 310.79 684.32 315.2C682.84 318.57 679.02 322.78 675.09 323.06C673.38 323.18 672.01 323.28 670.59 322.52C670.24 322.37 669.88 322.23 669.53 322.08C667.6 321.53 666.31 320.25 666 318.21C665.89 317.2 665.82 316.17 665.75 315.15ZM699.56 251.65C699.91 251.8 700.26 251.77 700.61 251.92C701.31 252.04 702 252.17 702.7 252.29C704.93 252.3 706.97 251.99 709.11 250.64C712.38 248.35 714.75 245.44 716.38 241.72C717.69 238.37 718.63 234.69 718.72 231.08C718.81 229.87 718.73 228.85 718.48 227.66C718.24 226.65 717.66 225.83 716.75 225.04C716.01 224.23 714.76 223.63 713.7 223.19C711.59 222.48 709.33 222.12 707.1 222.11C705.37 221.89 703.69 222.52 702.06 223.67C701.73 223.86 701.57 224.05 701.42 224.4C701.16 225.62 700.89 226.67 700.64 227.89C700 231.03 699.21 234.34 698.44 238.17C698.1 240.6 697.78 243.37 697.3 246.32C697.36 247.17 697.41 247.86 697.3 248.72C697.41 250.25 698.32 251.05 699.56 251.65Z" fill="white"/>
<path d="M744.26 306.53C744.58 302.57 745.24 298.42 746.07 294.44C747.19 289.24 748.31 284.21 749.6 279.01C750.45 275.37 751.47 271.72 752.32 268.07C754.09 262.15 755.68 256.08 756.93 250.01C759.31 235.49 761.84 220.62 765.6 206.38C765.88 205.17 766.34 203.94 766.79 202.72C768.03 200.09 770.01 198.45 772.71 197.46C774.73 196.68 776.78 196.58 778.68 196.83C783 197.48 783.57 202.08 783.74 205.67C783.8 206.87 783.69 208.07 783.74 209.1C784.01 211.14 783.76 213.04 783.52 215.11C782.79 221.32 781.48 229.44 779.72 235.53C778.27 240.92 777.33 246.28 776.22 251.65C775.09 256.51 774.12 261.35 772.99 266.21C771.41 272.46 770.34 278.68 768.93 284.93C768.39 287.87 767.5 290.83 766.79 293.78C766.36 295.52 765.94 297.42 765.51 299.16C764.62 301.95 764.07 304.89 762.84 307.69C762.09 309.95 761 312.07 759.73 314.19C758.92 315.26 758.12 316.33 756.96 317.24C755.32 318.69 753.47 319.47 751.57 319.22C747.95 318.88 745.38 315.41 744.7 312.01C744.27 310.3 744.18 308.42 744.26 306.53Z" fill="white"/>
<path d="M1096.82 311.91C1097.74 307 1099.19 301.97 1101.28 297.5C1102.55 294.68 1103.64 291.85 1104.74 289.02C1108.91 278.2 1112.4 267.14 1116.07 256.11C1118.09 250.44 1119.94 244.75 1121.96 239.07C1123.3 235.4 1124.63 231.73 1126.15 227.9C1127.22 225.41 1128.13 222.74 1129.19 220.25C1130.21 218.27 1131.07 216.28 1132.09 214.3C1132.73 212.81 1133.7 211.51 1134.82 210.4C1137.11 207.67 1139.54 207.36 1142.83 207.11C1143.17 207.14 1143.51 207.17 1143.87 207.02C1145.45 206.64 1146.84 206.41 1148.38 206.54C1150.77 206.74 1152.97 207.09 1155.38 207.12C1160.02 207.16 1164.28 207.52 1168.89 207.9C1170.41 208.2 1171.76 208.48 1173.11 208.77C1173.95 209.01 1174.96 209.27 1175.97 209.52C1178.15 210.22 1179.94 211.4 1181.35 213.06C1182.91 214.91 1183.24 217.17 1182.49 220.03C1182.01 221.71 1180.4 224.5 1178.93 225.58C1178.56 225.89 1178.19 226.21 1177.82 226.52C1175.99 227.91 1174.19 228.8 1172.12 228.97C1169.16 229.41 1166.25 229.34 1163.56 228.6C1161.87 228.29 1160.36 227.82 1158.47 227.83C1156.25 227.65 1154.03 227.46 1151.81 227.28C1150.27 227.15 1148.85 227.72 1147.4 228.63C1143.89 231.6 1140.23 242.47 1139.18 246.85C1139.11 247.7 1138.7 248.53 1138.46 249.37C1138.2 250.38 1138.12 251.4 1138.2 252.44C1138.07 253.98 1139.1 254.06 1140.29 254.16C1141.13 254.4 1142.22 253.63 1142.85 254.37C1143.7 254.44 1144.56 254.51 1145.41 254.58C1146.28 254.48 1147.13 254.55 1148 254.45C1149.88 254.61 1151.56 255.09 1153.42 255.42C1153.76 255.45 1154.1 255.48 1154.61 255.52C1156.69 255.35 1158.54 255.85 1160 256.83C1161.48 257.64 1162.05 259.06 1162.09 260.61C1162.12 262.33 1161.98 264.04 1161.15 265.69C1160.3 267.68 1158.79 269.27 1156.97 270.5C1155.7 271.25 1154.45 271.84 1153.2 272.42C1152.32 272.69 1151.27 272.95 1150.4 273.05C1148.34 273.05 1146.09 273.21 1144.03 273.21C1143.33 273.32 1142.65 273.27 1142.15 273.05C1140.12 272.71 1138.07 272.54 1135.82 272.7C1135.31 272.66 1134.97 272.63 1134.45 272.59C1133.77 272.53 1133.06 272.82 1132.49 273.46C1131.01 274.71 1129.86 276.16 1128.86 277.8C1128.08 278.94 1127.65 279.93 1127.38 281.11C1125.82 285.45 1124.25 289.79 1122.52 294.11C1121.45 296.6 1120.54 299.27 1119.65 301.78C1119 303.44 1118.51 305.12 1117.86 306.79C1116.51 310.63 1114.36 315.78 1111.22 318.44C1110.85 318.75 1110.31 319.05 1109.94 319.36C1107.41 320.87 1104.76 321.68 1102.2 321.47C1099.1 321.56 1097.35 319.86 1096.71 317.23C1096.36 315.48 1096.67 313.79 1096.82 311.91Z" fill="white"/>
<path d="M1164.93 317.3C1165.69 313.59 1166.63 309.74 1167.73 306.07C1169.62 299.9 1171.84 293.95 1174.37 286.65C1180.84 270.31 1187.29 254.14 1192.93 237.54C1196.15 227.21 1201.45 212.12 1214.33 212.52C1216.41 212.41 1218.47 212.46 1220.38 212.33C1221.74 212.48 1223.12 212.46 1224.5 212.44C1225.01 212.5 1225.52 212.55 1226.03 212.61C1228.41 212.88 1230.63 213.12 1232.99 213.56C1237.57 214.24 1241.73 215.57 1245.02 218.52C1249.44 222.11 1252.83 228.87 1253.6 234.3C1254.09 237.63 1254.03 241.24 1253.13 244.76C1252.79 246.27 1252.6 247.97 1252.26 249.49C1250.8 257.94 1244.33 269.63 1236.97 273.81C1233.22 276.49 1229.63 277.82 1225.34 279.23C1224.62 279.49 1224.22 279.97 1223.98 280.63C1223.55 281.44 1223.45 282.29 1223.51 283.33C1223.77 287.15 1223.89 290.78 1224.15 294.6C1224.38 298.76 1224.77 302.94 1225.19 306.95C1225.34 310.24 1225.49 313.53 1225.28 316.95C1225.17 319.52 1224.69 322.23 1223.54 324.86C1222.46 326.81 1221.04 328.72 1218.83 330.02C1216.62 331.32 1214.54 331.44 1212.38 330.68C1212.06 330.47 1211.57 330.25 1211.25 330.04C1209.98 329.04 1208.7 328.2 1207.79 327.07C1206.39 325.71 1205.73 323.91 1205.24 322.13C1204.52 319.29 1204.35 316.17 1204.16 313.22C1203.99 308.55 1204.35 303.76 1204.69 299.15C1204.98 293.49 1205.26 287.84 1205.72 282.2C1205.83 281.18 1205.38 280.61 1204.57 280.18C1204.4 280.16 1203.89 280.1 1203.53 280.24C1202.49 280.3 1201.56 280.88 1200.79 281.66C1198.71 283.32 1197.18 286.25 1196.06 288.54C1195.4 289.84 1194.72 291.32 1194.03 292.79C1193.61 293.43 1193.35 294.27 1192.91 295.08C1191.43 299.05 1189.79 303 1188.65 307.01C1187.29 311.51 1185.51 316.65 1183.16 320.7C1181.1 323.74 1176.58 327.2 1172.66 326.77C1170.96 326.58 1169.6 326.43 1168.33 325.43C1168.01 325.22 1167.69 325.01 1167.37 324.81C1165.57 323.92 1164.53 322.43 1164.59 320.36C1164.71 319.34 1164.82 318.32 1164.93 317.3ZM1209.64 260.93C1209.96 261.14 1210.3 261.18 1210.62 261.38C1211.28 261.63 1211.94 261.87 1212.61 262.12C1214.8 262.54 1216.86 262.59 1219.21 261.65C1222.84 259.99 1225.7 257.55 1227.97 254.18C1229.86 251.12 1231.45 247.67 1232.19 244.14C1232.49 242.97 1232.61 241.95 1232.57 240.74C1232.51 239.7 1232.1 238.79 1231.34 237.85C1230.75 236.92 1229.64 236.11 1228.67 235.49C1226.72 234.41 1224.57 233.65 1222.37 233.24C1220.71 232.71 1218.95 233.03 1217.13 233.86C1216.77 233.99 1216.58 234.14 1216.37 234.46C1215.9 235.61 1215.44 236.6 1214.97 237.75C1213.78 240.72 1212.4 243.84 1210.96 247.47C1210.18 249.8 1209.37 252.46 1208.37 255.28C1208.28 256.13 1208.2 256.81 1207.93 257.64C1207.77 259.17 1208.52 260.12 1209.64 260.93Z" fill="white"/>
<path d="M1243.67 322.97C1244.71 319.14 1246.11 315.18 1247.65 311.41C1249.7 306.5 1251.72 301.76 1253.94 296.88C1255.44 293.45 1257.11 290.05 1258.61 286.62C1261.43 281.13 1264.1 275.44 1266.43 269.7C1271.41 255.86 1276.61 241.7 1282.91 228.38C1283.41 227.24 1284.08 226.12 1284.75 225C1286.45 222.64 1288.7 221.39 1291.53 220.91C1293.66 220.51 1295.69 220.78 1297.52 221.37C1301.65 222.79 1301.37 227.42 1300.89 230.98C1300.73 232.17 1300.4 233.33 1300.26 234.35C1300.15 236.41 1299.56 238.23 1298.95 240.22C1297.11 246.19 1294.33 253.94 1291.49 259.6C1289.08 264.63 1287.18 269.73 1285.11 274.81C1283.11 279.38 1281.28 283.97 1279.28 288.54C1276.59 294.4 1274.4 300.32 1271.88 306.2C1270.81 308.99 1269.4 311.74 1268.16 314.51C1267.42 316.14 1266.66 317.94 1265.92 319.56C1264.54 322.14 1263.47 324.93 1261.74 327.46C1260.59 329.55 1259.13 331.43 1257.5 333.28C1256.51 334.18 1255.53 335.09 1254.22 335.78C1252.34 336.91 1250.38 337.33 1248.56 336.74C1245.06 335.75 1243.17 331.86 1243.12 328.4C1243 326.68 1243.25 324.82 1243.67 322.97Z" fill="white"/>
<path d="M1284.45 328.5C1287.03 322.33 1289.94 316.21 1293 310.29C1293.79 308.68 1294.74 307.1 1295.69 305.53C1296.47 303.92 1297.26 302.32 1298.02 300.88C1298.97 299.3 1299.76 297.69 1300.71 296.12C1301.02 295.3 1301.47 294.68 1301.77 293.87C1308.43 277.61 1315.13 261.18 1322.13 244.97C1325.41 237.7 1333.38 226.17 1342.5 227.66C1344.22 227.77 1345.63 228.69 1346.67 229.73C1353.9 238.55 1351.23 266.41 1349.48 277.05C1349.42 277.39 1349.34 277.9 1349.45 278.26C1349.96 279.38 1350.8 279.52 1352.15 278.7C1353.27 278.19 1354.09 277.46 1354.93 276.55C1358.72 272.49 1362.06 268 1365.71 263.74C1371.18 256.83 1376.83 249.95 1382.75 243.46C1384.21 241.96 1385.67 240.47 1387.27 239.17C1388.87 237.87 1390.76 236.97 1392.7 236.76C1394.45 236.7 1396.08 236.27 1397.63 236.35C1398.67 236.35 1399.52 236.49 1400.5 236.82C1404.87 238.75 1406.76 239.93 1405.84 245.51C1405.31 247.68 1404.95 249.88 1404.42 252.04C1402.52 259.37 1398.96 266.24 1395.43 272.95C1395.4 273.12 1395.21 273.26 1395.15 273.6C1393.61 276.64 1392.21 279.89 1390.64 283.1C1389.41 285.33 1388.37 287.41 1387.14 289.64C1387.11 289.81 1387.08 289.98 1386.89 290.12C1382.21 299.59 1377.53 309.06 1373.33 318.78C1372.21 321.37 1371.12 323.8 1370 326.39C1369.16 328.33 1368.32 330.28 1367.65 332.25C1364.23 340.37 1359.75 350.74 1349.87 351.72C1346.86 352.09 1345 350.75 1344.01 348.33C1343.53 347.04 1343.44 345.46 1343.32 344.05C1343.46 342.16 1343.76 340.3 1344.24 338.47C1345.24 334.47 1346.95 330.41 1348.63 326.52C1349.19 325.22 1349.72 324.1 1350.28 322.8C1353.16 315.81 1356.19 309.02 1359.86 302.51C1361.18 299.78 1362.49 297.04 1363.98 294.34C1364.26 293.69 1364.57 292.88 1364.85 292.23C1365.07 291.92 1365.13 291.58 1365.19 291.24C1365.27 290.73 1365.58 289.92 1364.9 289.8C1364.22 289.69 1363.94 290.34 1363.52 290.79C1360.37 294.09 1357.4 297.42 1354.28 300.55C1350.71 304.3 1347 307.86 1342.99 311.19C1341.78 312.21 1340.4 313.19 1338.89 313.99C1338.13 314.39 1337.4 314.61 1336.64 315.01C1334.98 315.6 1333.63 315.38 1332.3 314.99C1331.82 314.74 1331.51 314.51 1331.23 314.12C1330.61 313.67 1330.21 312.91 1329.99 312.18C1329.03 309.59 1328.79 306.78 1328.93 303.85C1329.56 295.8 1329.82 287.86 1330.26 279.94C1330.29 279.77 1330.32 279.6 1330.34 279.43C1330.17 279.4 1330.03 279.21 1330.03 279.21C1329.69 279.15 1329.49 279.3 1329.3 279.44C1329.25 279.78 1329.02 280.09 1328.99 280.26C1328.46 281.39 1327.95 282.35 1327.59 283.5C1325.6 288.21 1323.25 293.03 1321.06 297.87C1319.77 300.44 1318.48 303 1317.36 305.59C1315.31 309.59 1313.44 313.62 1311.36 317.79C1308.39 324.24 1302.53 334.56 1297.75 339.33C1295.75 340.91 1293.67 341.96 1291.22 342.08C1289.31 342.11 1287.81 341.69 1286.38 340.94C1284.63 339.96 1283.64 338.58 1283.05 336.92C1282.85 336.02 1282.85 334.98 1282.99 334.13C1283.14 332.28 1283.64 330.28 1284.45 328.5Z" fill="white"/>
<path d="M1382.27 340.81C1386.88 333.53 1391.75 326.64 1397.13 319.86C1399.99 316.07 1402.88 312.11 1405.74 308.31C1407.89 305.42 1410.04 302.54 1412.03 299.62C1414.11 297.07 1416.03 294.49 1417.98 291.73C1419.9 289.15 1421.85 286.39 1423.8 283.64C1429.15 276.15 1435.84 268.07 1442.09 261.29C1447.54 255.92 1453.45 250.82 1461.85 252.51C1468 254.09 1468.83 258.63 1468.59 264.17C1468.32 268.13 1467.68 272.2 1466.7 276.19C1465.76 280.02 1464.85 283.68 1463.73 287.47C1463.06 289.95 1462.21 292.41 1461.54 294.89C1461 296.7 1460.46 298.52 1459.76 300.3C1459.52 301.48 1459.12 302.62 1458.75 303.59C1457.61 306.68 1456.66 309.63 1455.72 312.59C1454.81 315.38 1453.93 318 1453.06 320.61C1452.39 323.1 1451.54 325.55 1450.7 328C1450.06 330.32 1449.45 332.47 1448.81 334.78C1448.2 336.93 1447.63 338.91 1446.89 340.86C1446.22 342.47 1445.75 343.95 1445.27 345.43C1444.26 347.85 1443.22 350.43 1442.54 352.04C1441.36 354.42 1440.69 356.04 1439.98 357.82C1438.13 363.56 1434.1 366.24 1428.05 365.9C1425.67 365.6 1423.95 364.55 1422.91 362.77C1422.1 361.56 1421.87 360.12 1421.97 358.74C1422.04 357.53 1422.11 356.32 1422.14 355.28C1422.34 353.4 1422.92 351.42 1423.46 349.61C1423.83 347.76 1423.2 344.84 1421.01 344.4C1416.81 343.56 1412.48 342.51 1408.28 341.67C1406.97 341.23 1405.53 341.47 1404.15 342.24C1403.78 342.34 1403.58 342.47 1403.41 342.44C1402.23 343.08 1401.39 343.78 1400.65 344.86C1398.87 347.65 1396.78 350.2 1394.36 352.68C1393.45 353.72 1392.54 354.76 1391.37 355.4C1389.08 357.21 1386.43 357.38 1383.64 357.34C1381.93 357.17 1380.85 356.43 1380.02 355.39C1378.81 353.58 1378.31 351.73 1378.75 349.54C1379.41 346.35 1380.65 343.63 1382.27 340.81ZM1414.99 326.6C1414.85 328.14 1415.73 329.02 1417.07 329.29C1418.45 329.39 1419.76 329.83 1420.6 330C1422.45 330.37 1423.96 330.67 1425.27 331.11C1426.44 331.35 1427.52 331.21 1428.53 330.54C1429.5 330.04 1430.35 329.33 1431.02 328.59C1431.96 327.38 1432.4 326.07 1432.84 324.76C1433.51 323.15 1433.98 321.67 1434.66 320.06C1435.4 318.11 1436.17 316 1436.91 314.05C1437.48 312.94 1437.89 311.8 1438.29 310.66C1438.93 308.34 1439.7 306.23 1440.51 303.95C1441.28 301.83 1442.06 299.72 1442.83 297.6C1443.67 295.15 1444.55 292.53 1445.25 289.88C1446.02 287.76 1446.33 285.38 1446.6 283.16C1446.63 282.99 1446.67 282.82 1446.53 282.62C1446.6 282.28 1446.13 282.02 1445.72 282.28C1445.55 282.25 1445.35 282.38 1445.32 282.55C1444.65 283.29 1444.01 283.86 1443.5 284.63C1436.54 293.19 1430.08 301.85 1423.9 310.91C1421.88 314 1419.66 317.22 1417.48 320.28C1416 322.43 1415.23 324.55 1414.99 326.6Z" fill="white"/>
<path d="M1456.88 361.25C1458.2 357.87 1459.65 354.69 1461.11 351.51C1462 349.96 1462.56 348.33 1463.25 346.91C1464.5 344.57 1465.55 342.35 1466.64 339.97C1469.35 334.45 1472.22 328.97 1475.26 323.52C1476.15 321.97 1477.04 320.42 1477.94 318.87C1478.22 318.41 1478.55 317.78 1478.87 317.15C1480.2 314.47 1481.87 311.87 1483.37 309.24C1486.99 303.58 1490.35 297.51 1493.51 291.57C1494.76 289.23 1496.06 286.72 1497.48 284.41C1498.29 283.19 1498.94 281.94 1499.55 280.85C1500.84 278.34 1501.93 275.96 1503.39 273.49C1504.93 270.69 1508.32 266.73 1511.29 265.32C1514.3 263.74 1517.12 263.7 1519.84 264.87C1522.1 265.75 1523.45 267.48 1524.43 269.29C1524.99 270.65 1525.34 272.14 1525.69 273.63C1526.05 275.83 1526.04 278.11 1526.07 280.23C1525.76 290.54 1524.61 300.65 1523.26 310.88C1523.16 312.79 1523.27 314.58 1523.55 316.4C1523.47 316.73 1523.73 317.15 1523.81 317.52C1523.94 317.73 1524.06 317.93 1524.44 317.84C1524.81 317.75 1525.06 317.46 1525.26 317.33C1525.51 317.04 1525.75 316.74 1525.87 316.24C1526.96 313.86 1528.01 311.64 1529.1 309.26C1529.99 307.71 1530.72 306.12 1531.44 304.53C1532.77 301.85 1533.9 299.3 1535.23 296.63C1538 290.07 1542.02 283.45 1546.64 278.03C1547.66 276.69 1549.18 275.46 1550.79 274.61C1554.25 272.61 1557.95 272.6 1560.71 274.31C1561.76 275.08 1562.6 275.99 1563.41 277.06C1564.3 278.5 1564.62 280.16 1564.35 282.03C1563.97 284.4 1563.42 286.74 1562.16 289.08C1559.41 294.77 1556.37 300.21 1553.17 305.61C1550.53 310.09 1548.27 314.48 1545.96 319.04C1544.63 321.72 1543.29 324.39 1541.79 327.03C1539.48 330.88 1537.46 334.98 1535.27 339.04C1533.86 342.05 1532.32 344.86 1530.95 347.7C1525.87 358.82 1520.79 369.94 1513.7 379.88C1511.61 382.03 1509.17 382.68 1506.38 382.56C1504.8 382.54 1503.34 382.02 1502.33 381.08C1498.54 377.73 1497.04 374.38 1497.68 369.43C1497.94 364.57 1498.54 359.78 1499.35 354.87C1500.04 350.46 1500.56 346 1500.7 341.64C1500.85 337.28 1501.2 332.79 1501.72 328.33C1501.83 327.12 1501.56 326.01 1500.89 325.14C1500.76 324.93 1500.43 324.86 1500.22 324.98C1499.56 325.53 1499.07 326.12 1498.58 326.71C1495.37 332.11 1492.5 337.59 1489.76 343.28C1486.13 351.22 1482.3 359.29 1477.71 366.83C1476.93 367.88 1476.16 368.93 1475.09 369.73C1474.23 370.41 1473.53 371.12 1472.8 372.01C1471.17 374.44 1468.16 376.02 1465.25 375.69C1462.88 375.31 1460.75 374.63 1458.98 373.16C1457.22 371.69 1456.07 369.84 1455.91 367.51C1455.73 365.38 1456.04 363.34 1456.88 361.25Z" fill="white"/>
<path d="M901.28 328.9C899.09 328.9 897.32 327.13 897.31 324.94C897.3 321.36 894.37 318.44 890.78 318.44C887.19 318.44 884.27 321.36 884.25 324.94C884.24 327.13 882.46 328.9 880.28 328.9C880.27 328.9 880.27 328.9 880.26 328.9C878.07 328.89 876.29 327.11 876.3 324.91C876.33 316.96 882.82 310.49 890.77 310.49C898.72 310.49 905.21 316.96 905.24 324.91C905.25 327.1 903.48 328.89 901.28 328.9C901.28 328.9 901.29 328.9 901.28 328.9Z" fill="#1C1C1C"/>
<path d="M1013.63 328.9C1011.44 328.9 1009.67 327.13 1009.66 324.94C1009.65 321.36 1006.72 318.44 1003.13 318.44C999.55 318.44 996.62 321.36 996.6 324.94C996.59 327.13 994.81 328.9 992.63 328.9C992.63 328.9 992.62 328.9 992.61 328.9C990.42 328.89 988.64 327.11 988.65 324.91C988.68 316.96 995.17 310.49 1003.12 310.49C1011.07 310.49 1017.56 316.96 1017.59 324.91C1017.6 327.1 1015.83 328.89 1013.63 328.9C1013.63 328.9 1013.64 328.9 1013.63 328.9Z" fill="#1C1C1C"/>
<defs>
<linearGradient id="paint0_linear_96_2" x1="960" y1="-1" x2="960" y2="499" gradientUnits="userSpaceOnUse">
<stop stop-color="#FFE878"/>
<stop offset="0.0994" stop-color="#FED866"/>
<stop offset="0.2462" stop-color="#FDC752"/>
<stop offset="0.4157" stop-color="#FDBB45"/>
<stop offset="0.6258" stop-color="#FCB43C"/>
<stop offset="1" stop-color="#FCB23A"/>
</linearGradient>
<linearGradient id="paint1_linear_96_2" x1="960" y1="-1" x2="960" y2="499" gradientUnits="userSpaceOnUse">
<stop stop-color="#FFE878"/>
<stop offset="0.0679" stop-color="#FFDF6E"/>
<stop offset="0.26" stop-color="#FDCB57"/>
<stop offset="0.4672" stop-color="#FDBD47"/>
<stop offset="0.6979" stop-color="#FCB53D"/>
<stop offset="1" stop-color="#FCB23A"/>
</linearGradient>
<linearGradient id="paint2_linear_96_2" x1="946.735" y1="16.9158" x2="946.735" y2="499" gradientUnits="userSpaceOnUse">
<stop stop-color="#FFE878"/>
<stop offset="1" stop-color="#FCB23A"/>
</linearGradient>
<linearGradient id="paint3_linear_96_2" x1="946.735" y1="232.79" x2="946.735" y2="499" gradientUnits="userSpaceOnUse">
<stop stop-color="#FFE878"/>
<stop offset="1" stop-color="#FCB23A"/>
</linearGradient>
<linearGradient id="paint4_linear_96_2" x1="946.735" y1="387.167" x2="946.735" y2="499" gradientUnits="userSpaceOnUse">
<stop stop-color="#FFE878"/>
<stop offset="1" stop-color="#FCB23A"/>
</linearGradient>
<clipPath id="clip0_96_2">
<rect width="1920" height="500" fill="white" transform="translate(0 -1)"/>
</clipPath>
</defs>
</svg>
