<svg width="1558" height="499" viewBox="0 0 1558 499" fill="none" xmlns="http://www.w3.org/2000/svg">
<path d="M305.9 204.5C305.89 204.25 305.89 204.05 305.88 203.8C305.99 202.13 306.26 199.98 307.07 198.5C308.01 196.25 308.87 194.18 310.61 192.43C312.42 190.62 314.16 188.83 315.67 186.75C315.79 186.52 315.95 186.28 316.05 186.01C316.16 185.74 316.22 185.44 316.25 185.15C316.32 184.48 316.21 183.92 315.94 183.4C315.73 182.99 315.43 182.72 314.97 182.69C314.5 182.62 314.06 182.67 313.61 182.88C313.49 182.9 313.38 182.97 313.26 182.99C312.77 183.21 312.44 183.61 312.08 184.05C311.66 184.63 311.43 185.29 311.28 185.98C311.2 186.41 311.2 186.78 311.12 187.21C311.07 187.76 311.05 188.29 310.96 188.85C310.85 189.32 310.61 189.75 310.27 190.1C309.65 190.72 308.98 191.06 308.24 191.05C307.75 191.07 307.33 190.82 307.07 190.38C306.9 190.13 306.78 189.78 306.68 189.47C306.55 188.84 306.6 188.05 306.75 187.4C306.8 187.02 306.8 186.65 306.85 186.27C307.02 183.89 308.15 181.93 309.93 180.34C310.78 179.47 311.63 178.76 312.76 178.24C313.03 178.14 313.34 178.04 313.61 177.95C314.35 177.76 315.01 177.75 315.69 177.86C317.3 178.07 318.81 178.42 319.69 179.93C320.25 180.85 320.62 181.88 320.73 183.01C320.74 183.05 320.75 183.09 320.75 183.13C320.74 183.5 320.78 183.91 320.78 184.28C320.73 184.66 320.72 184.99 320.63 185.38C320.56 185.85 320.49 186.31 320.29 186.77C320.17 187.21 319.98 187.66 319.77 188.07C319.44 188.67 319.11 189.27 318.78 189.88C318.23 190.82 317.42 191.92 316.57 192.59C316.25 192.82 315.98 193.12 315.71 193.42C315.13 194.03 314.6 194.63 314.06 195.24C313.78 195.5 313.56 195.8 313.33 196.13C313.21 196.36 313.05 196.56 312.88 196.76C312.68 197.01 312.56 197.2 312.41 197.47C312.26 197.74 312.07 198.03 311.84 198.33C311.75 198.47 311.64 198.58 311.63 198.7C311.47 199.14 311.13 199.5 311.06 199.97C311.06 200.18 310.98 200.4 310.9 200.62C310.86 200.83 310.79 201.1 310.75 201.31C310.74 201.85 311.05 202.2 311.5 202.15C311.97 202.05 312.39 202.09 312.79 202.01C313.35 201.94 313.87 201.83 314.41 201.68C314.83 201.51 315.26 201.39 315.69 201.3C316.27 201.14 316.85 200.94 317.48 200.81C318.03 200.66 318.59 200.42 319.16 200.35C319.36 200.31 319.52 200.28 319.73 200.32C320.39 200.35 320.72 200.74 320.82 201.46C321.03 202.49 320.56 203.82 319.74 204.48C319.63 204.54 319.53 204.65 319.46 204.7C318.97 205.13 318.45 205.4 317.9 205.55C316.34 205.99 314.73 206.36 313.15 206.68C312.49 206.86 311.82 207.03 311.15 207.17L310.08 207.39C309.25 207.56 308.63 207.56 307.84 207.31C306.94 207.12 306.26 206.44 306 205.54C305.92 205.2 305.9 204.88 305.9 204.5Z" fill="white"/>
<path d="M325.07 201.39C325.03 201.19 324.99 200.99 325.03 200.74C325.03 200.29 325.06 199.83 325.09 199.33C325.17 197.63 325.29 195.92 325.37 194.18C325.45 192.68 325.52 191.15 325.64 189.65C325.66 189.11 325.68 188.57 325.7 188.04C325.8 187.28 325.89 186.48 325.95 185.73C325.98 185.68 325.98 185.68 325.97 185.64C326.03 185.09 326.09 184.55 326.15 184C326.24 183 326.3 182 326.39 180.99C326.47 180.36 326.56 179.73 326.6 179.1C326.63 178.85 326.67 178.63 326.67 178.39C326.68 178.22 326.73 178.05 326.78 177.88C326.89 177.61 327.01 177.34 327.07 177.04C327.21 176.68 327.93 175.52 328.32 175.44C328.55 175.35 328.78 175.27 328.98 175.23C329.49 175.13 329.95 174.96 330.45 174.78C330.57 174.76 330.65 174.74 330.77 174.72C330.93 174.69 331.09 174.66 331.24 174.59C331.79 174.44 332.27 174.39 332.8 174.37C333.37 174.34 333.94 174.31 334.51 174.29C335.1 174.18 336.02 174.04 336.6 174.26C337.16 174.4 337.7 174.62 338.14 174.99C339.18 175.69 339.73 177.03 340.15 178.14C340.24 178.62 340.33 179.09 340.39 179.61C340.44 179.85 340.44 180.09 340.5 180.37C340.52 181.97 340.54 183.53 340.4 185.16C340.33 185.87 340.22 186.59 340.16 187.3C340.17 187.34 340.14 187.39 340.14 187.43C339.9 190.89 339.48 193.6 337.89 196.82C336.96 198.6 336.37 199.17 335.02 200.46C333.85 201.43 332.6 202.2 331.14 202.73C330.63 202.87 330.16 203 329.64 203.06C328.84 203.17 328.02 203.21 327.27 203.11C327.14 203.05 326.97 203.04 326.84 203.03C325.88 203 325.16 202.07 325.07 201.39ZM331.01 197.65C331.1 197.67 331.14 197.67 331.22 197.65C331.78 197.58 332.27 197.32 332.6 196.69C332.82 196.32 332.98 195.92 333.15 195.47C334.48 192.34 335.31 186.26 335.06 183.02C334.96 182.05 334.74 181.15 334.41 180.31C334.21 179.94 333.82 179.6 333.42 179.43C333.18 179.27 332.85 179.25 332.54 179.31C332.1 179.39 331.66 179.64 331.32 180.04C331.26 180.13 331.22 180.18 331.21 180.31C331.19 180.64 331.13 180.98 331.12 181.31C330.99 183.18 330.85 185.02 330.68 186.9C330.57 187.83 330.51 188.78 330.41 189.75C330.41 190.37 330.35 190.95 330.34 191.74C330.22 193.04 330.22 194.52 330.17 195.96C330.18 196.24 330.2 196.53 330.21 196.81C330.27 197.47 330.38 197.61 331.01 197.65Z" fill="white"/>
<path d="M352.46 190.7C352.47 190.53 352.52 190.32 352.49 190.16C352.44 189.64 352.56 188.47 352.72 187.99C352.87 187.23 353.6 186.03 354.26 185.58C354.36 185.48 354.43 185.39 354.54 185.32C355.04 184.9 355.56 184.61 356.12 184.3C356.34 184.14 356.43 183.96 356.46 183.71C356.47 183.54 356.46 183.5 356.29 183.45C356.16 183.39 355.95 183.39 355.82 183.33C355.17 183.12 354.69 182.75 354.38 182.15C354.31 182 354.25 181.89 354.18 181.73C353.86 181.09 353.58 180.44 353.49 179.72C353.4 179.2 353.34 178.64 353.32 178.11C353.34 177.74 353.42 177.31 353.48 176.93C354.01 174.42 355.21 171.91 357.4 170.45C358.27 169.8 359.3 169.37 360.35 169.06C363.45 168.51 366.1 169.34 367.43 172.47C367.77 173.23 367.93 174.1 367.96 175C367.93 175.09 367.95 175.17 367.92 175.25C367.56 176.46 367.35 177.11 366.2 177.77C365.98 177.93 365.75 178.01 365.47 178.06C365.31 178.09 365.11 178.12 364.96 178.19C364.48 178.28 364.06 178.19 363.63 178.1C363.16 177.98 362.86 177.66 362.8 177.14C362.74 176.82 362.73 176.5 362.71 176.17C362.67 175.73 362.63 175.24 362.43 174.83C362.13 174.31 361.67 174.02 361.02 174.06C360.49 174.07 359.99 174.28 359.56 174.85C359.04 175.6 358.5 176.72 358.42 177.64C358.39 178.38 358.55 179.05 358.85 179.61C359.03 179.91 359.23 180.12 359.53 180.23C359.74 180.27 359.92 180.33 360.13 180.37C360.48 180.47 361.7 181.15 363.96 180.71C366.1 180.29 368.93 179.62 369.24 179.77C369.73 179.97 370.01 180.41 370.1 180.93C370.33 182.24 369.84 184.05 368.38 184.39C368.3 184.4 367.95 184.51 367.43 184.6C367.38 186.13 367.03 190.86 366.81 191.43C366.46 192.44 365.72 193.84 365.06 194.73C364.86 194.97 364.62 195.26 364.37 195.47C363.74 196.07 363.05 196.57 362.29 196.91C361.58 197.28 360.81 197.58 360.06 197.72C359.87 197.8 359.67 197.83 359.47 197.87C359.19 197.92 358.91 197.93 358.63 197.98C358.51 198 358.35 197.99 358.23 198.01C356.77 198.11 355.05 197.64 354.14 196.45C353.86 196.05 353.59 195.65 353.31 195.25C353.03 194.85 352.83 194.39 352.7 193.88C352.56 192.85 352.42 191.81 352.46 190.7ZM358.26 192.61C358.39 192.67 358.49 192.73 358.61 192.75C358.96 192.89 359.34 192.95 359.74 192.88C360.06 192.82 360.4 192.68 360.77 192.45C360.84 192.4 360.95 192.34 361.02 192.24C361.38 191.97 361.84 191.77 361.97 191.37C362.65 189.2 362.66 186.49 362.74 185.58C362.27 185.7 361.95 185.76 361.91 185.77C361.83 185.78 360.42 185.91 360.35 185.97C359.7 186.21 359.15 186.59 358.62 187.06C357.46 187.92 357.28 190.09 357.51 191.4C357.57 191.96 357.88 192.31 358.26 192.61Z" fill="white"/>
<path d="M382.06 185.94C382.14 185.68 382.27 185.46 382.39 185.23C382.59 184.95 382.83 184.67 383.13 184.5C383.5 184.24 383.87 184.05 384.27 183.99C384.62 183.89 384.92 183.96 385.2 184.16C385.52 184.39 385.7 184.73 385.85 185.12C385.94 185.43 385.99 185.75 386.09 186.06C386.23 186.94 386.78 187.3 387.5 187.67C387.66 187.89 388.44 187.92 388.68 187.88C389.08 187.81 389.5 187.62 389.9 187.35C390.99 186.76 391.5 185.12 391.56 184.01C391.63 183.22 391.49 182.59 391.18 181.95C390.96 181.37 389.68 181.05 389.15 181.02C389.06 180.99 389.02 181 388.94 181.01C388.61 181.02 388.3 181.07 387.97 181.09C387.33 181.15 386.84 180.91 386.69 180.28C386.5 179.62 386.47 178.93 386.71 178.15C386.9 177.59 387.26 177.04 387.77 176.67C388.14 176.41 388.55 176.17 388.96 175.94C389.56 175.6 390.19 175.21 390.79 174.9C391.12 174.68 391.4 174.39 391.59 174.03C392.01 173.35 392.26 172.61 392.34 171.86C392.33 171.57 392.33 171.29 392.24 171.02C392.14 170.42 391.89 169.89 391.57 169.41C391.25 168.97 390.76 168.93 390.21 169.1C388.88 169.48 388.46 170.65 388.13 171.85C387.81 173.41 387.32 174.39 385.53 174.69C385.36 174.68 385.16 174.71 385.01 174.74C384.73 174.79 384.53 174.78 384.31 174.69C383.67 174.51 383.2 174.14 383.04 173.43C383 173.19 382.96 172.95 382.92 172.71C382.95 172.62 382.93 172.54 382.96 172.46C383.09 171.54 383.39 170.59 383.85 169.7C385.53 166.52 387.96 164.36 391.66 163.75C392.43 163.71 393.13 163.75 393.82 163.93C395.37 164.17 396.52 165.41 397.04 166.84C397.34 167.65 397.48 168.53 397.54 169.41C397.65 171.84 396.29 175.46 394.21 176.75C394.02 176.86 393.83 176.93 393.65 177.05C393.54 177.15 393.47 177.2 393.5 177.36C393.46 177.61 393.57 177.76 393.74 177.85C394.24 177.93 394.77 178.13 395.21 178.34C395.3 178.37 395.39 178.43 395.48 178.5C395.78 178.61 396.03 178.86 396.19 179.12C396.42 179.53 396.65 179.94 396.69 180.43C396.74 180.71 396.74 180.99 396.71 181.29C396.7 181.74 396.69 182.15 396.59 182.58C396.54 182.75 396.53 182.96 396.52 183.12C396.42 184.24 396.11 185.35 395.72 186.48C395.57 187.04 395.29 187.57 394.92 188.08C393.52 190.23 392.11 191.89 389.45 192.62C389.29 192.65 389.18 192.71 389.02 192.73C388.74 192.78 388.43 192.87 388.15 192.91C387.99 192.94 387.79 192.97 387.59 192.96C386.83 193.08 386.09 193.04 385.38 192.92C384.67 192.83 384.05 192.57 383.5 192.17C382.65 191.7 381.97 190.09 381.71 189.23C381.45 188.21 381.55 187.09 382.06 185.94Z" fill="white"/>
<path d="M400.81 187.84C400.78 187.64 400.75 187.44 400.79 187.19C400.8 186.74 400.85 186.28 400.9 185.78C401.05 184.08 401.23 182.38 401.37 180.64C401.51 179.15 401.64 177.62 401.81 176.12C401.85 175.58 401.89 175.05 401.93 174.51C402.06 173.76 402.18 172.96 402.27 172.21C402.3 172.16 402.3 172.16 402.3 172.12C402.38 171.58 402.46 171.03 402.54 170.49C402.67 169.49 402.76 168.5 402.89 167.5C403 166.87 403.1 166.24 403.17 165.62C403.21 165.37 403.26 165.16 403.26 164.91C403.28 164.74 403.33 164.57 403.38 164.4C403.5 164.14 403.63 163.87 403.7 163.57C403.85 163.22 404.61 162.08 405.01 162.02C405.24 161.94 405.48 161.87 405.68 161.84C406.2 161.76 406.66 161.61 407.17 161.45C407.29 161.43 407.37 161.42 407.49 161.4C407.65 161.38 407.81 161.35 407.96 161.29C408.51 161.16 409 161.13 409.53 161.13C410.1 161.12 410.67 161.12 411.24 161.11C411.84 161.02 412.76 160.92 413.33 161.15C413.88 161.31 414.41 161.55 414.84 161.94C415.85 162.68 416.35 164.03 416.73 165.16C416.8 165.64 416.88 166.12 416.92 166.64C416.96 166.88 416.95 167.12 417 167.4C416.96 169 416.92 170.56 416.72 172.18C416.63 172.89 416.49 173.6 416.4 174.31C416.41 174.35 416.37 174.4 416.38 174.44C416.02 177.89 415.49 180.58 413.78 183.74C412.78 185.49 412.17 186.03 410.77 187.27C409.57 188.19 408.29 188.92 406.81 189.39C406.3 189.51 405.83 189.62 405.3 189.66C404.5 189.74 403.68 189.75 402.93 189.62C402.8 189.56 402.63 189.54 402.51 189.52C401.55 189.48 400.88 188.52 400.81 187.84ZM406.88 184.33C406.97 184.36 407.01 184.35 407.09 184.34C407.65 184.29 408.15 184.05 408.5 183.43C408.73 183.07 408.91 182.67 409.09 182.24C410.53 179.16 411.6 173.11 411.46 169.87C411.39 168.9 411.21 167.99 410.91 167.14C410.73 166.76 410.35 166.41 409.95 166.23C409.72 166.06 409.39 166.03 409.07 166.08C408.63 166.15 408.18 166.38 407.83 166.76C407.76 166.85 407.73 166.9 407.71 167.02C407.68 167.35 407.61 167.69 407.58 168.02C407.38 169.89 407.17 171.72 406.93 173.59C406.79 174.51 406.69 175.46 406.55 176.42C406.52 177.04 406.45 177.62 406.41 178.4C406.24 179.69 406.19 181.17 406.08 182.62C406.08 182.91 406.09 183.19 406.09 183.48C406.15 184.11 406.26 184.26 406.88 184.33Z" fill="white"/>
<path d="M1061.8 178.64C1061.94 177.93 1062.04 177.17 1062.18 176.45C1062.26 175.85 1062.39 175.26 1062.51 174.66C1062.58 174.18 1062.68 173.71 1062.79 173.23C1062.82 172.99 1062.9 172.72 1062.98 172.44C1063.11 172.05 1063.17 171.65 1063.27 171.26C1063.46 170.19 1063.64 169.15 1063.86 168.12C1064.11 167.18 1064.33 166.19 1064.54 165.24C1064.93 163.3 1065.38 161.53 1066.28 159.74C1066.44 159.15 1066.79 158.67 1067.25 158.29C1067.82 157.72 1068.7 157.55 1069.47 157.58C1069.55 157.59 1069.68 157.57 1069.8 157.58C1069.97 157.56 1070.17 157.59 1070.33 157.57C1071.37 157.71 1071.5 158.79 1071.39 159.63C1071.32 160.15 1071.17 160.66 1071.01 161.21C1070.82 161.71 1070.67 162.22 1070.51 162.73C1070.25 163.71 1069.95 164.73 1069.65 165.71C1069.56 166.1 1069.42 166.49 1069.29 166.84C1069.06 167.62 1068.79 168.4 1068.57 169.14C1068.41 169.69 1068.26 170.24 1068.1 170.79C1068.02 171.1 1067.93 171.42 1067.85 171.69C1067.69 172.24 1067.54 172.79 1067.42 173.34C1067.03 174.71 1066.63 176.08 1066.4 177.48C1066.37 177.68 1066.35 177.88 1066.53 177.99C1066.78 177.98 1066.92 177.8 1067.07 177.66C1067.22 177.48 1067.36 177.29 1067.47 177.1C1067.73 176.69 1067.92 176.22 1068.18 175.81C1068.41 175.35 1068.67 174.94 1068.93 174.49C1069.37 173.65 1069.85 172.82 1070.25 171.98C1070.41 171.68 1070.53 171.41 1070.65 171.14C1070.86 170.76 1071.04 170.38 1071.26 169.96C1071.48 169.54 1071.71 169.08 1071.93 168.63C1071.94 168.59 1071.94 168.55 1071.99 168.52C1072.45 167.56 1072.91 166.61 1073.36 165.65C1073.64 165.08 1073.84 164.54 1074.04 163.99C1074.59 161.75 1075.92 159.24 1078.41 158.89C1079.08 158.78 1079.53 159.04 1079.88 159.42C1080.02 159.6 1080.15 159.82 1080.2 160.07C1080.37 160.62 1080.37 161.19 1080.25 161.79C1080.04 162.74 1079.7 163.71 1079.25 164.62C1078.85 165.42 1078.46 166.18 1078.07 166.98C1077.74 167.63 1077.37 168.23 1077.03 168.87C1076.74 169.52 1076.41 170.13 1076.04 170.77C1075.6 171.57 1075.13 172.31 1074.7 173.11C1074.55 173.33 1074.43 173.6 1074.28 173.83C1074 174.36 1073.77 174.9 1073.45 175.39C1072.83 176.61 1072.14 177.82 1071.41 178.94C1071.08 179.55 1070.68 180.1 1070.32 180.66C1070.06 181.07 1069.85 181.45 1069.58 181.86C1069.11 182.61 1068.64 183.36 1068.09 184.1C1067.65 184.65 1066.72 185.5 1066 185.64C1065.57 185.78 1065.12 185.84 1064.71 185.83C1064.3 185.82 1063.95 185.73 1063.6 185.64C1061.61 185 1061.18 184 1061.36 181.83C1061.43 180.75 1061.57 179.71 1061.8 178.64Z" fill="white"/>
<path d="M1075.84 184C1076.09 183.1 1076.43 182.17 1076.8 181.28C1077.29 180.13 1077.78 179.02 1078.31 177.87C1078.67 177.07 1079.07 176.27 1079.43 175.46C1080.1 174.17 1080.74 172.84 1081.3 171.49C1082.5 168.24 1083.75 164.91 1085.26 161.79C1085.38 161.52 1085.54 161.26 1085.7 161C1086.11 160.45 1086.64 160.16 1087.3 160.05C1087.8 159.96 1088.28 160.03 1088.71 160.17C1089.68 160.51 1089.61 161.6 1089.49 162.44C1089.45 162.72 1089.37 162.99 1089.34 163.23C1089.31 163.71 1089.17 164.14 1089.02 164.61C1088.57 166.01 1087.91 167.83 1087.23 169.16C1086.65 170.34 1086.2 171.54 1085.7 172.73C1085.22 173.8 1084.78 174.88 1084.3 175.95C1083.65 177.32 1083.13 178.72 1082.52 180.1C1082.26 180.76 1081.93 181.4 1081.63 182.05C1081.45 182.43 1081.27 182.85 1081.09 183.24C1080.76 183.84 1080.5 184.5 1080.09 185.09C1079.82 185.58 1079.47 186.02 1079.08 186.45C1078.85 186.66 1078.61 186.87 1078.3 187.03C1077.85 187.29 1077.39 187.39 1076.97 187.25C1076.15 187.01 1075.71 186.09 1075.7 185.28C1075.68 184.88 1075.74 184.44 1075.84 184Z" fill="white"/>
<path d="M1085.76 185.45C1085.79 185.25 1085.82 185.05 1085.94 184.82C1086.09 184.39 1086.27 183.97 1086.46 183.51C1087.1 181.93 1087.79 180.36 1088.44 178.75C1089.01 177.37 1089.59 175.94 1090.21 174.57C1090.41 174.07 1090.6 173.57 1090.8 173.07C1091.15 172.39 1091.5 171.67 1091.81 170.98C1091.86 170.95 1091.86 170.95 1091.86 170.91C1092.1 170.42 1092.33 169.92 1092.57 169.43C1092.99 168.51 1093.37 167.59 1093.8 166.68C1094.09 166.11 1094.38 165.54 1094.63 164.97C1094.75 164.74 1094.85 164.55 1094.93 164.32C1094.99 164.17 1095.1 164.02 1095.2 163.87C1095.4 163.65 1095.59 163.44 1095.75 163.18C1096 162.89 1097.06 162.03 1097.46 162.09C1097.71 162.09 1097.95 162.08 1098.15 162.11C1098.67 162.19 1099.16 162.18 1099.69 162.18C1099.81 162.2 1099.89 162.21 1100.01 162.23C1100.17 162.25 1100.33 162.28 1100.5 162.26C1101.06 162.3 1101.54 162.42 1102.04 162.57C1102.59 162.73 1103.13 162.9 1103.68 163.06C1104.28 163.15 1105.19 163.33 1105.66 163.72C1106.14 164.04 1106.57 164.43 1106.87 164.92C1107.62 165.93 1107.69 167.37 1107.71 168.55C1107.64 169.03 1107.57 169.51 1107.45 170.02C1107.41 170.26 1107.34 170.49 1107.3 170.77C1106.79 172.28 1106.28 173.76 1105.61 175.25C1105.31 175.9 1104.97 176.54 1104.67 177.19C1104.66 177.23 1104.62 177.26 1104.61 177.3C1103.24 180.48 1101.94 182.9 1099.36 185.41C1097.89 186.78 1097.15 187.12 1095.44 187.88C1094.02 188.4 1092.58 188.72 1091.03 188.73C1090.5 188.69 1090.02 188.66 1089.51 188.54C1088.72 188.38 1087.94 188.14 1087.26 187.79C1087.15 187.69 1087 187.63 1086.88 187.57C1085.98 187.24 1085.62 186.12 1085.76 185.45ZM1092.6 183.9C1092.63 183.95 1092.71 183.96 1092.79 183.97C1093.34 184.09 1093.89 184.01 1094.37 183.51C1094.74 183.24 1095.03 182.92 1095.33 182.55C1097.62 180.04 1100.44 174.58 1101.27 171.45C1101.49 170.5 1101.59 169.58 1101.56 168.68C1101.5 168.26 1101.24 167.82 1100.92 167.52C1100.75 167.29 1100.48 167.17 1100.16 167.12C1099.72 167.05 1099.18 167.14 1098.73 167.4C1098.64 167.47 1098.59 167.5 1098.53 167.62C1098.4 167.93 1098.24 168.23 1098.11 168.54C1097.36 170.26 1096.62 171.95 1095.83 173.67C1095.42 174.51 1095.04 175.39 1094.63 176.26C1094.42 176.84 1094.18 177.38 1093.9 178.11C1093.36 179.29 1092.86 180.69 1092.33 182.04C1092.25 182.31 1092.17 182.59 1092.08 182.86C1091.97 183.48 1092.02 183.65 1092.6 183.9Z" fill="white"/>
<path d="M1105.2 187.46C1105.37 186.88 1105.63 186.3 1105.92 185.74C1106.75 184.07 1107.45 182.26 1108.05 180.52C1108.55 179.13 1109.15 177.71 1109.81 176.34C1110.64 174.43 1111.47 172.56 1112.26 170.64C1112.49 170.19 1112.73 169.73 1112.96 169.28C1113.01 169.21 1113.06 169.13 1113.08 169.05C1113.31 168.6 1113.51 168.14 1113.78 167.69C1114.07 167.16 1114.35 166.64 1114.76 166.13C1115.38 165.29 1116.2 165.05 1117.23 165.21C1117.95 165.28 1118.64 165.35 1119.37 165.38C1120.01 165.48 1120.65 165.54 1121.26 165.59C1121.98 165.66 1122.66 165.77 1123.38 165.84C1123.7 165.89 1124.02 165.94 1124.34 165.99C1124.9 166.08 1125.46 166.17 1126.01 166.25C1126.37 166.31 1126.76 166.41 1127.06 166.58C1127.25 166.65 1127.4 166.76 1127.55 166.86C1128.28 167.38 1128.09 168.33 1127.8 168.9C1127.73 169.05 1127.63 169.2 1127.53 169.35C1126.88 170.11 1126 170.25 1125.06 170.27C1124.37 170.24 1123.69 170.18 1123.04 170.12C1122.4 170.06 1121.76 169.96 1121.11 169.9C1120.63 169.86 1120.18 169.84 1119.69 169.84C1119.05 169.74 1118.37 169.92 1117.89 170.37C1117.66 170.54 1117.46 170.75 1117.3 171.01C1117.09 171.3 1116.92 171.6 1116.75 171.9C1116.38 172.45 1116.03 173.09 1115.85 173.76C1115.71 174.15 1115.6 174.54 1115.54 174.94C1115.52 175.1 1115.53 175.27 1115.5 175.42C1115.43 175.61 1115.53 175.75 1115.72 175.82C1115.91 175.93 1116.1 176 1116.29 176.07C1117.02 176.39 1117.83 176.64 1118.68 176.73C1119.08 176.79 1119.52 176.86 1119.96 176.93C1120.41 176.96 1120.84 177.07 1121.22 177.21C1121.69 177.37 1122.09 177.63 1122.27 178.07C1122.47 178.63 1122.54 179.22 1122.19 179.9C1121.68 180.8 1120.69 181.13 1119.71 181.1C1118.81 181.12 1117.96 181.03 1117.14 180.82C1116.35 180.65 1115.55 180.53 1114.75 180.44C1114.51 180.4 1114.22 180.44 1113.97 180.44C1113.43 180.48 1112.89 181.09 1112.65 181.54C1112.19 182.41 1111.8 183.33 1111.41 184.2C1111.34 184.39 1111.23 184.54 1111.17 184.69C1110.93 185.18 1110.81 185.65 1110.66 186.12C1110.59 186.31 1110.61 186.44 1110.71 186.58C1110.84 186.76 1111.02 186.91 1111.3 187C1111.49 187.07 1111.73 187.15 1111.92 187.18C1112.36 187.25 1112.8 187.32 1113.23 187.39C1113.95 187.46 1114.68 187.5 1115.4 187.61C1116 187.66 1116.56 187.75 1117.15 187.89C1117.87 188 1118.75 188.39 1119.04 189.13C1119.18 189.52 1119.13 189.88 1118.98 190.26C1118.91 190.45 1118.8 190.6 1118.7 190.75C1118.51 190.92 1118.4 191.11 1118.33 191.3C1117.65 192.5 1116.03 192.69 1114.79 192.5C1114.19 192.45 1113.67 192.36 1113.12 192.24C1112.85 192.16 1112.57 192.11 1112.29 192.07C1111.92 192.05 1111.57 192 1111.16 191.97C1110.84 191.92 1110.52 191.87 1110.17 191.77C1109.85 191.72 1109.53 191.67 1109.22 191.58C1108.86 191.52 1108.5 191.47 1108.14 191.41C1106.82 191.2 1105.19 190.7 1104.94 189.19C1104.93 188.64 1105.02 188.05 1105.2 187.46Z" fill="white"/>
<path d="M1124.69 185.87C1124.77 185.39 1124.92 184.97 1125.04 184.5C1125.19 184.11 1125.3 183.68 1125.45 183.26C1125.6 182.88 1125.78 182.5 1125.93 182.07L1125.97 182.08C1126.27 181.23 1126.58 180.38 1126.99 179.59C1127.18 179.21 1127.4 178.84 1127.59 178.46C1127.77 178.12 1127.95 177.78 1128.16 177.49C1128.62 176.42 1129.58 175.11 1130.26 174.2C1130.36 174.09 1130.47 173.95 1130.57 173.8C1130.95 173.45 1131.27 173.06 1131.57 172.7C1132.64 171.44 1133.94 170.23 1135.52 169.59C1135.87 169.44 1136.22 169.3 1136.57 169.15C1137.41 168.8 1138.25 168.65 1139.06 168.66C1139.58 168.71 1140.1 168.79 1140.57 168.91C1140.96 169.02 1141.35 169.16 1141.69 169.3C1143.65 170.28 1144.58 172.6 1144.44 174.7C1144.4 175.43 1144.36 176.16 1144.33 176.85C1144.31 177.71 1144.13 178.54 1143.91 179.4C1143.69 180.22 1143.44 181.04 1143.1 181.84C1142.89 182.38 1142.71 182.96 1142.49 183.54C1142.23 184.15 1142 184.77 1141.66 185.37C1140.53 188.01 1137.97 191.88 1135.6 193.57C1135.22 193.92 1134.77 194.13 1134.32 194.38C1132.03 195.6 1131.22 196.04 1128.44 195.58C1127.6 195.44 1126.88 195.12 1126.26 194.65C1125.85 194.38 1125.58 194.05 1125.32 193.68C1125.03 193.22 1124.78 192.73 1124.67 192.14C1124.66 191.93 1124.57 191.76 1124.48 191.58C1124.37 191.27 1124.26 190.93 1124.24 190.56C1124.16 189.81 1124.21 189 1124.26 188.23C1124.36 187.41 1124.48 186.66 1124.69 185.87ZM1129.29 186.76C1129.29 187.25 1129.25 187.74 1129.25 188.23C1129.25 188.72 1129.3 189.18 1129.47 189.62C1129.59 190.13 1129.9 190.75 1130.49 190.85C1130.73 190.89 1130.98 190.85 1131.24 190.77C1131.42 190.68 1131.59 190.62 1131.81 190.54C1133.89 189.37 1135.69 187.13 1136.61 184.99C1136.83 184.62 1137.06 184.25 1137.24 183.87C1138.2 181.53 1139.1 179.27 1139.72 176.8C1139.9 175.72 1139.98 173.98 1138.85 173.38C1138.58 173.25 1138.31 173.17 1137.99 173.16C1137.41 173.19 1136.89 173.39 1136.35 173.71C1134.89 174.86 1133.62 176.37 1132.74 177.98C1132.62 178.25 1132.46 178.46 1132.33 178.73C1132.09 179.18 1131.85 179.63 1131.62 180.08C1131.37 180.57 1131.16 181.11 1130.91 181.64C1130.78 181.95 1130.65 182.21 1130.56 182.52C1130.16 183.44 1129.89 184.33 1129.61 185.31C1129.5 185.77 1129.33 186.27 1129.29 186.76Z" fill="white"/>
<path d="M1152.71 190.68C1152.78 190.53 1152.89 190.34 1152.92 190.18C1153.05 189.67 1153.57 188.61 1153.88 188.22C1154.28 187.55 1155.38 186.68 1156.15 186.49C1156.28 186.43 1156.38 186.37 1156.5 186.35C1157.11 186.13 1157.7 186.03 1158.33 185.94C1158.59 185.86 1158.74 185.73 1158.86 185.5C1158.93 185.35 1158.93 185.31 1158.79 185.2C1158.68 185.1 1158.49 185.02 1158.39 184.92C1157.85 184.5 1157.53 183.99 1157.44 183.32C1157.43 183.15 1157.41 183.03 1157.4 182.86C1157.32 182.15 1157.28 181.45 1157.45 180.74C1157.54 180.22 1157.68 179.67 1157.85 179.17C1157.99 178.83 1158.22 178.46 1158.4 178.12C1159.77 175.95 1161.75 174 1164.32 173.39C1165.36 173.08 1166.47 173.03 1167.57 173.11C1170.67 173.66 1172.87 175.36 1173.04 178.75C1173.1 179.58 1172.94 180.45 1172.67 181.31C1172.62 181.38 1172.6 181.46 1172.55 181.53C1171.8 182.54 1171.37 183.08 1170.06 183.3C1169.8 183.38 1169.56 183.37 1169.28 183.32C1169.12 183.29 1168.92 183.26 1168.76 183.27C1168.28 183.19 1167.91 182.96 1167.55 182.73C1167.15 182.45 1166.97 182.05 1167.1 181.54C1167.16 181.22 1167.25 180.91 1167.35 180.6C1167.47 180.17 1167.59 179.7 1167.55 179.24C1167.45 178.65 1167.12 178.22 1166.5 178.03C1166 177.86 1165.46 177.89 1164.86 178.27C1164.11 178.79 1163.22 179.66 1162.83 180.49C1162.54 181.18 1162.46 181.86 1162.56 182.49C1162.62 182.83 1162.74 183.1 1162.99 183.3C1163.17 183.41 1163.32 183.52 1163.5 183.64C1163.79 183.86 1164.71 184.92 1166.98 185.28C1169.13 185.62 1172.02 185.97 1172.26 186.22C1172.65 186.58 1172.76 187.09 1172.67 187.6C1172.44 188.91 1171.35 190.44 1169.86 190.26C1169.78 190.25 1169.42 190.22 1168.9 190.13C1168.32 191.54 1166.37 195.87 1165.96 196.33C1165.28 197.15 1164.11 198.21 1163.18 198.83C1162.91 198.99 1162.59 199.18 1162.28 199.29C1161.48 199.64 1160.66 199.86 1159.83 199.92C1159.03 200.02 1158.21 200.04 1157.45 199.91C1157.24 199.91 1157.04 199.88 1156.85 199.84C1156.57 199.79 1156.3 199.7 1156.02 199.65C1155.9 199.63 1155.75 199.56 1155.63 199.54C1154.23 199.13 1152.77 198.09 1152.33 196.66C1152.21 196.19 1152.09 195.72 1151.97 195.24C1151.85 194.76 1151.81 194.27 1151.87 193.75C1152.05 192.74 1152.28 191.71 1152.71 190.68ZM1157.48 194.48C1157.58 194.58 1157.65 194.67 1157.76 194.74C1158.04 194.99 1158.38 195.18 1158.78 195.25C1159.1 195.31 1159.47 195.29 1159.9 195.2C1159.99 195.17 1160.11 195.16 1160.21 195.09C1160.64 194.96 1161.14 194.93 1161.4 194.6C1162.79 192.8 1163.73 190.26 1164.12 189.43C1163.64 189.39 1163.32 189.33 1163.28 189.32C1163.2 189.31 1161.83 188.94 1161.74 188.97C1161.04 188.97 1160.4 189.14 1159.74 189.39C1158.36 189.8 1157.43 191.77 1157.2 193.08C1157.06 193.63 1157.23 194.07 1157.48 194.48Z" fill="white"/>
<path d="M1179.28 200.07C1180.35 198.34 1181.48 196.71 1182.72 195.1C1183.38 194.2 1184.05 193.26 1184.72 192.36C1185.22 191.67 1185.72 190.99 1186.18 190.3C1186.66 189.69 1187.11 189.08 1187.56 188.43C1188 187.82 1188.46 187.16 1188.91 186.51C1190.15 184.73 1191.7 182.81 1193.16 181.2C1194.43 179.92 1195.81 178.7 1197.79 179.08C1199.24 179.44 1199.45 180.5 1199.41 181.81C1199.36 182.74 1199.22 183.7 1199 184.65C1198.79 185.55 1198.58 186.42 1198.33 187.32C1198.18 187.91 1197.99 188.49 1197.83 189.07C1197.71 189.5 1197.59 189.93 1197.42 190.35C1197.37 190.63 1197.28 190.9 1197.19 191.13C1196.93 191.86 1196.71 192.56 1196.5 193.26C1196.29 193.92 1196.09 194.54 1195.9 195.16C1195.75 195.75 1195.56 196.33 1195.36 196.91C1195.22 197.46 1195.08 197.97 1194.93 198.51C1194.79 199.02 1194.66 199.49 1194.49 199.95C1194.34 200.33 1194.23 200.68 1194.12 201.03C1193.89 201.6 1193.65 202.21 1193.5 202.6C1193.23 203.16 1193.07 203.55 1192.91 203.97C1192.49 205.33 1191.55 205.97 1190.12 205.91C1189.56 205.85 1189.15 205.6 1188.9 205.19C1188.71 204.91 1188.65 204.57 1188.67 204.24C1188.68 203.95 1188.7 203.67 1188.7 203.42C1188.74 202.98 1188.87 202.51 1188.99 202.08C1189.07 201.64 1188.91 200.96 1188.4 200.86C1187.41 200.67 1186.39 200.44 1185.4 200.25C1185.09 200.15 1184.75 200.21 1184.43 200.4C1184.34 200.42 1184.3 200.46 1184.26 200.45C1183.98 200.6 1183.79 200.77 1183.62 201.03C1183.21 201.69 1182.72 202.3 1182.16 202.89C1181.95 203.14 1181.74 203.39 1181.46 203.54C1180.93 203.97 1180.3 204.02 1179.64 204.02C1179.24 203.98 1178.98 203.81 1178.78 203.57C1178.49 203.15 1178.37 202.71 1178.47 202.2C1178.62 201.38 1178.9 200.74 1179.28 200.07ZM1186.95 196.64C1186.92 197 1187.13 197.21 1187.45 197.27C1187.78 197.29 1188.08 197.39 1188.28 197.43C1188.72 197.51 1189.07 197.58 1189.38 197.68C1189.66 197.73 1189.91 197.7 1190.15 197.54C1190.38 197.42 1190.57 197.25 1190.73 197.08C1190.95 196.79 1191.05 196.48 1191.15 196.17C1191.3 195.79 1191.41 195.44 1191.57 195.06C1191.74 194.6 1191.92 194.1 1192.08 193.64C1192.21 193.38 1192.3 193.11 1192.4 192.84C1192.54 192.29 1192.72 191.79 1192.9 191.25C1193.08 190.75 1193.25 190.25 1193.43 189.75C1193.62 189.17 1193.82 188.55 1193.98 187.92C1194.16 187.42 1194.22 186.86 1194.28 186.33C1194.29 186.29 1194.29 186.25 1194.26 186.2C1194.27 186.12 1194.16 186.06 1194.07 186.12C1194.03 186.11 1193.98 186.14 1193.98 186.18C1193.82 186.36 1193.68 186.49 1193.56 186.68C1191.94 188.71 1190.45 190.77 1189.01 192.92C1188.54 193.65 1188.03 194.42 1187.52 195.14C1187.17 195.65 1187 196.15 1186.95 196.64Z" fill="white"/>
<path d="M1197 204.73C1197.28 203.92 1197.6 203.16 1197.91 202.4C1198.11 202.03 1198.22 201.64 1198.37 201.3C1198.65 200.74 1198.87 200.21 1199.11 199.64C1199.7 198.32 1200.33 197 1201 195.69C1201.2 195.32 1201.39 194.95 1201.59 194.57C1201.65 194.46 1201.72 194.31 1201.79 194.16C1202.08 193.52 1202.45 192.89 1202.78 192.26C1203.58 190.9 1204.32 189.44 1205.01 188.01C1205.29 187.45 1205.57 186.85 1205.88 186.29C1206.06 186 1206.2 185.7 1206.34 185.43C1206.62 184.83 1206.86 184.26 1207.18 183.66C1207.52 182.99 1208.28 182.03 1208.97 181.67C1209.66 181.27 1210.33 181.24 1210.98 181.49C1211.52 181.68 1211.85 182.07 1212.1 182.49C1212.24 182.81 1212.34 183.15 1212.44 183.5C1212.54 184.01 1212.56 184.55 1212.59 185.05C1212.61 187.48 1212.42 189.87 1212.19 192.29C1212.18 192.74 1212.22 193.16 1212.31 193.59C1212.29 193.67 1212.36 193.76 1212.38 193.85C1212.41 193.9 1212.44 193.94 1212.53 193.92C1212.62 193.9 1212.67 193.82 1212.72 193.79C1212.78 193.72 1212.83 193.65 1212.85 193.53C1213.09 192.96 1213.31 192.43 1213.55 191.86C1213.75 191.49 1213.9 191.11 1214.06 190.73C1214.35 190.09 1214.59 189.48 1214.88 188.84C1215.48 187.27 1216.36 185.68 1217.4 184.36C1217.63 184.04 1217.98 183.73 1218.35 183.52C1219.15 183.02 1220.02 182.98 1220.68 183.36C1220.93 183.53 1221.14 183.74 1221.34 183.98C1221.56 184.31 1221.65 184.7 1221.61 185.14C1221.54 185.7 1221.43 186.26 1221.16 186.82C1220.56 188.18 1219.9 189.49 1219.19 190.79C1218.61 191.87 1218.11 192.92 1217.61 194.02C1217.32 194.66 1217.03 195.3 1216.7 195.94C1216.19 196.87 1215.75 197.85 1215.27 198.82C1214.96 199.54 1214.63 200.21 1214.33 200.9C1213.23 203.56 1212.13 206.22 1210.55 208.63C1210.08 209.15 1209.51 209.33 1208.85 209.32C1208.48 209.33 1208.13 209.22 1207.88 209.01C1206.96 208.25 1206.58 207.48 1206.68 206.31C1206.7 205.16 1206.8 204.03 1206.95 202.87C1207.07 201.83 1207.16 200.77 1207.15 199.74C1207.14 198.71 1207.19 197.65 1207.27 196.6C1207.28 196.31 1207.21 196.05 1207.05 195.86C1207.02 195.81 1206.94 195.8 1206.89 195.83C1206.74 195.96 1206.63 196.11 1206.52 196.25C1205.81 197.55 1205.18 198.86 1204.59 200.23C1203.8 202.13 1202.97 204.06 1201.96 205.88C1201.79 206.13 1201.61 206.39 1201.37 206.59C1201.17 206.76 1201.01 206.93 1200.85 207.15C1200.49 207.74 1199.79 208.13 1199.1 208.08C1198.54 208.01 1198.03 207.87 1197.6 207.54C1197.17 207.21 1196.89 206.78 1196.83 206.24C1196.76 205.71 1196.82 205.23 1197 204.73Z" fill="white"/>
<path d="M1216.47 208.03C1216.77 207.14 1217.16 206.24 1217.58 205.37C1218.14 204.25 1218.68 203.17 1219.28 202.05C1219.69 201.27 1220.13 200.49 1220.54 199.71C1221.29 198.46 1222 197.17 1222.64 195.85C1224.02 192.67 1225.47 189.43 1227.15 186.39C1227.28 186.13 1227.46 185.88 1227.63 185.62C1228.07 185.09 1228.61 184.83 1229.29 184.76C1229.8 184.7 1230.27 184.79 1230.69 184.96C1231.64 185.36 1231.5 186.44 1231.33 187.27C1231.27 187.55 1231.18 187.82 1231.13 188.05C1231.07 188.53 1230.91 188.95 1230.73 189.41C1230.2 190.79 1229.43 192.56 1228.68 193.85C1228.04 195 1227.51 196.16 1226.95 197.33C1226.41 198.37 1225.91 199.42 1225.37 200.47C1224.65 201.8 1224.04 203.16 1223.36 204.51C1223.07 205.15 1222.69 205.77 1222.36 206.41C1222.16 206.78 1221.95 207.19 1221.76 207.56C1221.39 208.14 1221.1 208.78 1220.66 209.35C1220.36 209.82 1219.99 210.24 1219.57 210.65C1219.32 210.85 1219.08 211.04 1218.76 211.19C1218.3 211.43 1217.83 211.5 1217.41 211.33C1216.6 211.04 1216.22 210.1 1216.26 209.29C1216.25 208.89 1216.34 208.46 1216.47 208.03Z" fill="white"/>
<path d="M1226.03 210.07C1226.7 208.64 1227.45 207.23 1228.23 205.87C1228.43 205.5 1228.67 205.14 1228.91 204.78C1229.11 204.41 1229.31 204.04 1229.51 203.71C1229.75 203.35 1229.95 202.98 1230.19 202.62C1230.27 202.43 1230.38 202.29 1230.46 202.1C1232.2 198.34 1233.94 194.54 1235.76 190.8C1236.61 189.12 1238.6 186.49 1240.73 186.94C1241.13 186.98 1241.46 187.22 1241.69 187.47C1243.3 189.62 1242.38 196.15 1241.86 198.64C1241.84 198.72 1241.82 198.84 1241.84 198.92C1241.95 199.19 1242.15 199.23 1242.47 199.05C1242.74 198.94 1242.94 198.78 1243.15 198.57C1244.08 197.65 1244.92 196.63 1245.82 195.67C1247.18 194.1 1248.58 192.54 1250.04 191.07C1250.4 190.73 1250.76 190.4 1251.15 190.11C1251.54 189.82 1251.99 189.63 1252.45 189.6C1252.86 189.6 1253.25 189.52 1253.61 189.56C1253.86 189.57 1254.05 189.61 1254.28 189.7C1255.29 190.2 1255.72 190.5 1255.45 191.8C1255.3 192.31 1255.2 192.82 1255.05 193.32C1254.53 195.02 1253.62 196.61 1252.72 198.15C1252.71 198.19 1252.66 198.22 1252.65 198.3C1252.26 199 1251.89 199.75 1251.49 200.49C1251.18 201 1250.91 201.48 1250.6 201.99C1250.59 202.03 1250.58 202.07 1250.54 202.1C1249.34 204.28 1248.14 206.46 1247.05 208.71C1246.76 209.31 1246.48 209.87 1246.19 210.47C1245.97 210.92 1245.75 211.37 1245.58 211.83C1244.69 213.71 1243.53 216.1 1241.19 216.23C1240.48 216.29 1240.05 215.95 1239.85 215.37C1239.75 215.06 1239.75 214.69 1239.73 214.36C1239.78 213.92 1239.87 213.48 1240 213.06C1240.28 212.13 1240.72 211.19 1241.16 210.29C1241.3 209.99 1241.44 209.73 1241.59 209.43C1242.34 207.81 1243.12 206.25 1244.06 204.75C1244.4 204.12 1244.74 203.49 1245.11 202.87C1245.18 202.72 1245.26 202.53 1245.34 202.38C1245.4 202.31 1245.41 202.23 1245.43 202.15C1245.45 202.03 1245.54 201.84 1245.38 201.81C1245.22 201.78 1245.15 201.93 1245.05 202.03C1244.28 202.77 1243.54 203.53 1242.77 204.23C1241.89 205.08 1240.98 205.88 1240 206.62C1239.71 206.85 1239.37 207.07 1239 207.24C1238.82 207.33 1238.64 207.37 1238.46 207.46C1238.06 207.58 1237.75 207.52 1237.44 207.41C1237.33 207.35 1237.26 207.29 1237.2 207.19C1237.06 207.08 1236.97 206.9 1236.93 206.72C1236.73 206.1 1236.7 205.44 1236.77 204.75C1237 202.86 1237.15 200.99 1237.33 199.14C1237.34 199.1 1237.35 199.06 1237.35 199.02C1237.31 199.01 1237.28 198.96 1237.28 198.96C1237.2 198.94 1237.15 198.97 1237.11 199.01C1237.09 199.09 1237.04 199.16 1237.03 199.2C1236.89 199.46 1236.76 199.68 1236.67 199.95C1236.15 201.04 1235.55 202.15 1234.99 203.27C1234.66 203.86 1234.33 204.45 1234.04 205.05C1233.52 205.97 1233.03 206.9 1232.5 207.86C1231.73 209.35 1230.25 211.72 1229.08 212.79C1228.59 213.14 1228.09 213.37 1227.52 213.37C1227.07 213.36 1226.72 213.24 1226.39 213.05C1225.99 212.8 1225.77 212.47 1225.65 212.07C1225.61 211.86 1225.62 211.61 1225.66 211.41C1225.68 210.94 1225.82 210.48 1226.03 210.07Z" fill="white"/>
<path d="M1249.02 213.98C1250.13 212.28 1251.31 210.68 1252.6 209.1C1253.29 208.22 1253.98 207.3 1254.67 206.41C1255.19 205.74 1255.71 205.07 1256.18 204.39C1256.68 203.8 1257.14 203.2 1257.61 202.56C1258.07 201.96 1258.54 201.32 1259.01 200.68C1260.3 198.94 1261.91 197.06 1263.41 195.49C1264.71 194.25 1266.13 193.07 1268.1 193.5C1269.54 193.9 1269.72 194.97 1269.64 196.27C1269.56 197.2 1269.39 198.16 1269.15 199.09C1268.91 199.99 1268.68 200.85 1268.41 201.74C1268.24 202.32 1268.03 202.9 1267.87 203.48C1267.74 203.9 1267.6 204.33 1267.43 204.75C1267.37 205.03 1267.27 205.29 1267.18 205.52C1266.9 206.24 1266.66 206.94 1266.43 207.63C1266.2 208.28 1265.99 208.9 1265.77 209.51C1265.6 210.09 1265.39 210.67 1265.19 211.24C1265.03 211.78 1264.88 212.29 1264.72 212.83C1264.57 213.33 1264.43 213.8 1264.24 214.25C1264.07 214.63 1263.96 214.97 1263.84 215.32C1263.59 215.89 1263.34 216.49 1263.17 216.87C1262.88 217.43 1262.72 217.8 1262.55 218.22C1262.09 219.56 1261.13 220.18 1259.71 220.08C1259.15 220 1258.75 219.75 1258.51 219.32C1258.33 219.03 1258.28 218.69 1258.31 218.37C1258.33 218.09 1258.35 217.8 1258.36 217.56C1258.41 217.12 1258.56 216.65 1258.69 216.23C1258.78 215.8 1258.65 215.11 1258.13 214.99C1257.14 214.77 1256.13 214.51 1255.14 214.3C1254.83 214.19 1254.49 214.24 1254.16 214.42C1254.07 214.44 1254.02 214.47 1253.99 214.46C1253.71 214.61 1253.51 214.77 1253.33 215.02C1252.9 215.67 1252.4 216.26 1251.82 216.84C1251.6 217.08 1251.38 217.32 1251.1 217.47C1250.56 217.89 1249.93 217.92 1249.27 217.9C1248.87 217.85 1248.62 217.67 1248.42 217.43C1248.14 217 1248.03 216.56 1248.14 216.05C1248.32 215.28 1248.63 214.64 1249.02 213.98ZM1256.78 210.76C1256.74 211.12 1256.94 211.33 1257.26 211.4C1257.58 211.43 1257.89 211.54 1258.09 211.58C1258.52 211.67 1258.88 211.75 1259.18 211.86C1259.46 211.92 1259.71 211.89 1259.95 211.74C1260.18 211.63 1260.38 211.46 1260.54 211.29C1260.77 211.01 1260.87 210.7 1260.98 210.4C1261.15 210.02 1261.26 209.68 1261.43 209.3C1261.61 208.84 1261.8 208.35 1261.99 207.89C1262.13 207.63 1262.23 207.36 1262.33 207.1C1262.49 206.56 1262.68 206.06 1262.88 205.53C1263.07 205.03 1263.26 204.54 1263.45 204.04C1263.66 203.47 1263.87 202.85 1264.05 202.23C1264.24 201.73 1264.32 201.17 1264.39 200.65C1264.4 200.61 1264.41 200.57 1264.38 200.52C1264.4 200.44 1264.29 200.38 1264.19 200.44C1264.15 200.43 1264.1 200.46 1264.09 200.5C1263.93 200.67 1263.78 200.8 1263.65 200.98C1261.98 202.97 1260.42 204.98 1258.93 207.09C1258.44 207.81 1257.91 208.56 1257.38 209.27C1257.04 209.79 1256.84 210.28 1256.78 210.76Z" fill="white"/>
<path d="M1274 197.52C1274.13 197.3 1274.25 197.12 1274.5 196.97C1274.7 196.81 1274.95 196.62 1275.18 196.5C1275.43 196.31 1275.69 196.24 1275.95 196.22C1276.08 196.21 1276.2 196.19 1276.33 196.18C1276.85 196.09 1277.24 196.18 1277.62 196.31C1277.77 196.38 1277.89 196.41 1278.01 196.4C1278.25 196.45 1278.48 196.51 1278.76 196.57C1279.04 196.59 1279.31 196.69 1279.64 196.73C1279.92 196.79 1280.18 196.89 1280.45 196.99C1281.14 197.23 1281.87 197.47 1282.64 197.56C1282.76 197.59 1282.88 197.61 1282.99 197.64C1283.45 197.79 1283.98 197.82 1284.47 197.85C1284.68 197.85 1284.86 197.94 1285.07 197.94C1285.39 198.01 1285.66 198.07 1285.98 198.1C1286.23 198.11 1286.46 198.17 1286.68 198.3C1286.8 198.33 1286.92 198.35 1287.03 198.42C1287.74 198.58 1288.31 198.79 1288.95 199.06C1289.17 199.19 1289.31 199.31 1289.43 199.5C1289.69 199.81 1289.72 200.23 1289.58 200.65C1289.07 202.19 1287.77 202.64 1286.24 202.46C1286.12 202.43 1286.04 202.42 1285.96 202.44C1285.33 202.46 1284.77 202.38 1284.22 202.26C1283.94 202.2 1283.67 202.14 1283.35 202.07C1283.19 202.03 1283.07 202.05 1282.89 202.09C1282.71 202.17 1282.55 202.3 1282.47 202.49C1282.41 202.56 1282.39 202.68 1282.32 202.79C1281.67 204.01 1281.02 205.27 1280.33 206.48C1279.77 207.51 1279.28 208.56 1278.76 209.6C1278.37 210.42 1277.98 211.24 1277.58 212.1L1277.54 212.09C1277.14 212.95 1276.69 213.84 1276.24 214.74C1275.62 216.05 1275 217.31 1274.37 218.62C1274.04 219.37 1273.63 220.07 1273.15 220.74C1272.47 221.58 1271.6 222.13 1270.52 222.34C1270 222.43 1269.56 222.37 1269.19 222.17C1268.58 221.74 1268.65 221.1 1268.8 220.43C1268.85 220.19 1268.92 219.92 1269.02 219.65C1269.18 219.31 1269.3 218.97 1269.46 218.63C1269.71 218.07 1269.91 217.53 1270.19 217.02C1271.4 214.4 1272.73 211.8 1274.16 209.31C1274.53 208.61 1274.94 207.87 1275.3 207.17C1275.57 206.69 1275.85 206.18 1276.13 205.66C1276.89 204.3 1277.53 202.91 1278.29 201.56C1278.3 201.52 1278.31 201.48 1278.32 201.44C1278.43 201.34 1278.41 201.21 1278.35 201.12C1278.32 201.07 1278.3 200.98 1278.27 200.94C1278.18 200.79 1278.07 200.73 1277.91 200.69C1277.25 200.5 1276.54 200.34 1275.88 200.15C1275.38 200 1274.87 199.84 1274.48 199.59C1274.33 199.52 1274.18 199.44 1274.08 199.34C1273.87 199.17 1273.77 198.9 1273.75 198.6C1273.75 198.25 1273.79 197.89 1274 197.52Z" fill="white"/>
<path d="M1281.65 221.99C1281.98 221.11 1282.39 220.21 1282.83 219.36C1283.42 218.25 1283.99 217.18 1284.62 216.09C1285.05 215.32 1285.51 214.56 1285.94 213.78C1286.72 212.55 1287.47 211.28 1288.14 209.98C1289.61 206.84 1291.13 203.63 1292.9 200.64C1293.04 200.38 1293.22 200.13 1293.4 199.89C1293.85 199.37 1294.4 199.13 1295.08 199.08C1295.59 199.03 1296.06 199.14 1296.47 199.32C1297.41 199.74 1297.24 200.82 1297.05 201.65C1296.99 201.93 1296.88 202.19 1296.83 202.43C1296.76 202.91 1296.58 203.33 1296.39 203.78C1295.83 205.14 1295.01 206.9 1294.22 208.17C1293.55 209.3 1292.99 210.45 1292.39 211.6C1291.82 212.63 1291.29 213.67 1290.73 214.7C1289.97 216.02 1289.33 217.36 1288.61 218.68C1288.3 219.31 1287.91 219.93 1287.56 220.55C1287.35 220.92 1287.13 221.32 1286.93 221.69C1286.55 222.26 1286.24 222.9 1285.78 223.45C1285.47 223.92 1285.08 224.32 1284.66 224.72C1284.41 224.91 1284.16 225.1 1283.84 225.23C1283.38 225.45 1282.91 225.51 1282.49 225.33C1281.69 225.02 1281.33 224.07 1281.39 223.26C1281.41 222.85 1281.51 222.42 1281.65 221.99Z" fill="white"/>
<path d="M1293.77 219.19C1293.88 218.72 1294.06 218.31 1294.21 217.84C1294.38 217.47 1294.52 217.04 1294.7 216.63C1294.87 216.26 1295.08 215.89 1295.26 215.48L1295.3 215.49C1295.66 214.66 1296.02 213.84 1296.49 213.08C1296.7 212.72 1296.95 212.36 1297.16 212C1297.36 211.67 1297.56 211.35 1297.79 211.07C1298.32 210.04 1299.37 208.79 1300.11 207.93C1300.22 207.83 1300.33 207.69 1300.45 207.55C1300.86 207.23 1301.19 206.86 1301.52 206.52C1302.67 205.34 1304.05 204.22 1305.67 203.69C1306.03 203.57 1306.39 203.45 1306.75 203.32C1307.61 203.03 1308.46 202.94 1309.27 203C1309.79 203.08 1310.3 203.2 1310.76 203.35C1311.14 203.48 1311.52 203.65 1311.85 203.82C1313.74 204.93 1314.51 207.31 1314.22 209.4C1314.13 210.13 1314.04 210.85 1313.96 211.54C1313.88 212.39 1313.65 213.21 1313.37 214.05C1313.1 214.86 1312.78 215.65 1312.39 216.43C1312.14 216.95 1311.93 217.52 1311.67 218.08C1311.36 218.67 1311.1 219.27 1310.71 219.84C1309.4 222.39 1306.58 226.08 1304.11 227.61C1303.7 227.93 1303.25 228.11 1302.78 228.33C1300.42 229.39 1299.58 229.77 1296.83 229.12C1296.01 228.93 1295.31 228.55 1294.72 228.04C1294.33 227.74 1294.09 227.39 1293.84 227C1293.58 226.52 1293.37 226.02 1293.3 225.42C1293.31 225.21 1293.23 225.03 1293.15 224.84C1293.06 224.53 1292.98 224.18 1292.98 223.8C1292.95 223.05 1293.06 222.24 1293.16 221.48C1293.33 220.7 1293.5 219.95 1293.77 219.19ZM1298.29 220.38C1298.26 220.87 1298.18 221.35 1298.15 221.84C1298.12 222.33 1298.13 222.79 1298.28 223.24C1298.36 223.76 1298.63 224.4 1299.22 224.54C1299.46 224.6 1299.71 224.57 1299.97 224.51C1300.15 224.43 1300.33 224.39 1300.55 224.32C1302.7 223.29 1304.65 221.18 1305.72 219.12C1305.97 218.76 1306.22 218.41 1306.43 218.04C1307.55 215.77 1308.6 213.58 1309.38 211.15C1309.63 210.09 1309.83 208.36 1308.75 207.68C1308.49 207.54 1308.23 207.43 1307.91 207.4C1307.33 207.39 1306.8 207.55 1306.23 207.83C1304.7 208.88 1303.33 210.29 1302.34 211.84C1302.2 212.1 1302.02 212.3 1301.88 212.56C1301.61 212.99 1301.34 213.43 1301.07 213.86C1300.79 214.33 1300.55 214.86 1300.26 215.37C1300.11 215.67 1299.96 215.92 1299.85 216.23C1299.39 217.12 1299.06 217.99 1298.71 218.95C1298.56 219.41 1298.37 219.9 1298.29 220.38Z" fill="white"/>
<path d="M1310.68 229.32C1311 228.53 1311.35 227.78 1311.7 227.03C1311.91 226.67 1312.05 226.28 1312.21 225.95C1312.51 225.4 1312.76 224.88 1313.02 224.32C1313.67 223.02 1314.36 221.74 1315.08 220.46C1315.29 220.1 1315.51 219.73 1315.72 219.37C1315.79 219.26 1315.87 219.12 1315.94 218.97C1316.26 218.34 1316.66 217.73 1317.02 217.11C1317.88 215.78 1318.69 214.36 1319.44 212.97C1319.74 212.42 1320.05 211.83 1320.39 211.29C1320.58 211.01 1320.74 210.71 1320.89 210.46C1321.2 209.87 1321.46 209.31 1321.81 208.73C1322.18 208.07 1322.99 207.15 1323.69 206.82C1324.4 206.45 1325.07 206.45 1325.71 206.73C1326.24 206.94 1326.55 207.35 1326.78 207.78C1326.91 208.1 1326.99 208.45 1327.07 208.81C1327.15 209.33 1327.14 209.87 1327.15 210.37C1327.05 212.8 1326.76 215.18 1326.42 217.59C1326.39 218.04 1326.41 218.46 1326.48 218.89C1326.46 218.97 1326.52 219.07 1326.54 219.15C1326.57 219.2 1326.6 219.25 1326.69 219.23C1326.78 219.21 1326.84 219.14 1326.89 219.11C1326.95 219.04 1327.01 218.97 1327.04 218.85C1327.3 218.29 1327.55 217.77 1327.81 217.21C1328.02 216.85 1328.2 216.47 1328.37 216.1C1328.69 215.47 1328.96 214.87 1329.28 214.25C1329.95 212.71 1330.91 211.16 1332.01 209.89C1332.25 209.58 1332.61 209.29 1332.99 209.09C1333.81 208.63 1334.68 208.63 1335.33 209.04C1335.58 209.22 1335.77 209.44 1335.96 209.69C1336.17 210.03 1336.24 210.42 1336.17 210.86C1336.08 211.42 1335.94 211.97 1335.64 212.52C1334.98 213.85 1334.25 215.13 1333.49 216.4C1332.86 217.45 1332.32 218.48 1331.76 219.55C1331.44 220.18 1331.12 220.81 1330.76 221.42C1330.21 222.32 1329.72 223.29 1329.2 224.24C1328.86 224.95 1328.49 225.6 1328.16 226.27C1326.94 228.88 1325.72 231.49 1324.03 233.82C1323.53 234.32 1322.96 234.47 1322.3 234.44C1321.93 234.43 1321.59 234.31 1321.35 234.08C1320.47 233.28 1320.12 232.49 1320.28 231.33C1320.35 230.18 1320.5 229.06 1320.7 227.9C1320.87 226.86 1321 225.81 1321.05 224.79C1321.09 223.76 1321.19 222.7 1321.32 221.66C1321.35 221.38 1321.29 221.11 1321.13 220.91C1321.1 220.86 1321.02 220.84 1320.97 220.87C1320.81 221 1320.7 221.14 1320.58 221.27C1319.81 222.54 1319.12 223.82 1318.47 225.16C1317.6 227.02 1316.68 228.92 1315.58 230.69C1315.4 230.94 1315.21 231.18 1314.96 231.37C1314.75 231.53 1314.59 231.7 1314.42 231.9C1314.03 232.47 1313.32 232.84 1312.63 232.75C1312.07 232.66 1311.57 232.49 1311.16 232.14C1310.75 231.79 1310.48 231.35 1310.45 230.8C1310.41 230.29 1310.48 229.81 1310.68 229.32Z" fill="white"/>
<path d="M709.41 369.14C684.35 369.14 663.96 348.75 663.96 323.69C663.96 298.63 684.35 278.24 709.41 278.24C733.29 278.24 753.2 296.88 754.75 320.69C754.82 321.65 754.86 322.67 754.86 323.69C754.86 342.58 742.97 359.7 725.27 366.29C720.19 368.18 714.86 369.14 709.41 369.14ZM709.41 286.25C688.76 286.25 671.96 303.05 671.96 323.7C671.96 344.35 688.76 361.15 709.41 361.15C713.9 361.15 718.29 360.36 722.48 358.81C737.06 353.38 746.86 339.27 746.86 323.71C746.86 322.88 746.83 322.06 746.77 321.26C745.5 301.61 729.09 286.25 709.41 286.25Z" fill="#00414C"/>
<path d="M823.49 369.14C817.06 369.14 810.84 367.82 805 365.22C788.63 357.92 778.05 341.62 778.05 323.7C778.05 323.03 778.06 322.38 778.1 321.72C779.11 297.37 799.06 278.25 823.5 278.25C848.56 278.25 868.95 298.64 868.95 323.7C868.94 348.75 848.55 369.14 823.49 369.14ZM823.49 286.25C803.35 286.25 786.92 302 786.08 322.11C786.05 322.67 786.04 323.18 786.04 323.7C786.04 338.47 794.76 351.9 808.25 357.91C813.06 360.05 818.18 361.14 823.49 361.14C844.14 361.14 860.94 344.34 860.94 323.69C860.94 303.05 844.14 286.25 823.49 286.25Z" fill="#00414C"/>
<path d="M782.08 325.94C781.54 325.94 780.98 325.83 780.45 325.59C775.64 323.45 770.52 322.36 765.21 322.36C760.72 322.36 756.33 323.15 752.14 324.7C750.07 325.47 747.77 324.41 747 322.34C746.23 320.27 747.29 317.97 749.36 317.2C754.44 315.31 759.77 314.36 765.21 314.36C771.64 314.36 777.86 315.68 783.7 318.28C785.72 319.18 786.62 321.54 785.72 323.56C785.08 325.06 783.61 325.94 782.08 325.94Z" fill="#00414C"/>
<path d="M644.13 330.87C641.92 330.87 640.13 329.08 640.13 326.87V282.58C640.4 213.73 696.62 157.74 765.46 157.74C834.3 157.74 890.52 213.74 890.79 282.57C890.8 284.78 889.01 286.58 886.81 286.59C886.81 286.59 886.8 286.59 886.79 286.59C884.59 286.59 882.8 284.81 882.79 282.61C882.54 218.17 829.9 165.75 765.46 165.75C701.01 165.75 648.38 218.17 648.13 282.61V326.89C648.13 329.08 646.34 330.87 644.13 330.87Z" fill="white"/>
<path d="M180.37 332.56C179.98 330.54 179.95 328.63 179.72 326.58C179.73 324.83 179.53 322.95 179.51 321.04C179.52 319.29 179.69 317.51 179.67 315.6L179.84 315.57C179.79 311.74 179.74 307.91 180.23 304.15C180.41 302.37 180.75 300.56 180.93 298.78C181.14 297.17 181.35 295.56 181.76 294.08C182.02 289.14 183.86 282.5 185.22 277.87C185.46 277.3 185.66 276.56 185.87 275.82C186.89 273.88 187.53 271.83 188.21 269.95C190.59 263.38 193.98 256.61 199.31 251.73C200.49 250.63 201.67 249.52 202.85 248.42C205.65 245.78 208.78 243.95 212.04 242.78C214.19 242.18 216.38 241.76 218.43 241.53C220.14 241.37 221.89 241.38 223.47 241.42C232.74 242.4 239.85 250.26 242.4 258.83C243.33 261.79 244.25 264.75 245.15 267.54C246.34 270.97 246.87 274.53 247.25 278.3C247.6 281.9 247.79 285.52 247.64 289.22C247.6 291.67 247.75 294.26 247.74 296.88C247.59 299.7 247.62 302.49 247.13 305.38C246.54 317.54 242.09 336.73 235.19 346.97C234.14 348.75 232.72 350.42 231.31 352.09C224.02 360.32 221.45 363.26 209.69 365.56C206.16 366.25 202.8 366.03 199.65 365.08C197.64 364.6 196.06 363.69 194.46 362.61C192.62 361.22 190.91 359.64 189.61 357.45C189.28 356.64 188.64 356.07 188.01 355.49C187.11 354.45 186.17 353.23 185.54 351.78C184.11 348.92 183.12 345.62 182.16 342.49C181.32 339.18 180.69 335.99 180.37 332.56ZM199.97 329.25C200.7 331.2 201.26 333.19 201.99 335.14C202.72 337.09 203.59 338.84 204.92 340.33C206.15 342.18 208.3 344.21 210.82 343.71C211.83 343.51 212.77 342.98 213.68 342.28C214.25 341.64 214.86 341.18 215.6 340.51C222.12 332.78 225.96 321.21 226.48 311.34C226.82 309.53 227.17 307.72 227.34 305.94C227.69 295.23 227.94 284.88 226.71 274.13C225.82 269.59 223.57 262.53 218.2 261.83C216.96 261.72 215.75 261.79 214.44 262.22C212.19 263.18 210.4 264.76 208.71 266.83C204.11 274.54 200.84 283.72 200.17 292.75C199.89 294.9 199.61 297.05 199.34 299.2C199.09 301.52 199.05 303.97 198.84 306.45C198.77 307.86 198.66 309.1 198.76 310.48C198.54 314.71 198.79 318.68 199.11 322.98C199.31 325.02 199.4 327.27 199.97 329.25Z" fill="white"/>
<path d="M260.89 332.96C260.74 330.9 260.93 328.79 261.29 326.66C261.47 325.59 261.62 324.35 261.78 323.12C262.2 320.28 262.99 317.56 264.28 314.75C265.37 312.85 266.46 310.94 268.33 309.61C268.79 309.19 269.38 308.58 270.01 308.13C271.23 307.07 272.51 306.35 273.86 306.14C275.75 306.02 277.49 306.09 278.86 307.09C280.2 307.92 281.09 309.17 281.36 310.86C281.49 311.71 281.46 312.58 281.44 313.62C281.03 317.67 280.99 321.84 281.63 325.9C282 328.27 283.11 329.83 285.73 329.94C287.31 330.04 288.85 329.97 290.49 329.37C294.28 328.08 295.6 325.45 297.15 322.09C297.64 320.8 297.96 319.54 298.46 318.25C299.01 316.26 299.21 314.15 299.25 312.23C299.16 310.51 298.86 308.65 298.63 307.13C298.06 304.62 297.04 302.52 295.88 300.63C295.63 300.15 295.21 299.69 294.8 299.24C293.77 298.19 292.57 297.16 291.51 295.94C290.9 295.34 290.11 294.77 289.19 294.4C287.7 293.77 286.22 293.13 284.73 292.5C283.24 291.87 281.61 291.43 280.13 290.79C276.43 289.29 273.32 287.17 270.62 284.3C269.76 283.22 268.87 281.97 268.12 280.53C267.37 279.09 266.91 277.25 266.79 275.36C266.62 273.13 266.61 270.88 266.43 268.65C266.4 268.48 266.4 268.48 266.55 268.29C266.56 267.25 266.88 265.98 266.89 264.94C266.85 258.01 270.27 247.77 274.69 242.75C276.71 240.18 278.96 237.92 281.38 235.64C282.15 235 282.91 234.36 283.68 233.72C285.55 232.39 287.57 230.86 289.63 229.67C291.5 228.34 293.62 227.49 295.74 226.63C299.04 225.59 302.38 224.73 305.62 224.39C306.8 224.2 307.82 224.05 308.89 224.23C310.3 224.36 311.7 224.48 313.11 224.61C315.08 225 316.76 225.77 318.15 226.94C318.57 227.39 318.99 227.85 319.38 228.13C320.55 228.99 321.59 230.04 322.45 231.12C323.12 232.06 323.78 232.99 324.45 233.93C325.64 236 326.18 238.34 326.55 240.71C326.8 243.44 326.72 246.23 326.27 248.9C326.21 255.15 323.35 264.61 316.49 266.2C312.96 266.93 310.07 266.16 307.98 263.89C306.5 262.21 305.68 260.26 305.62 257.67C305.41 256.32 305.39 255.11 305.18 253.75C305.11 252.2 304.53 250.73 303.79 249.29C303.35 248.67 302.73 248.07 302.14 247.64C300.26 246.72 298.47 246.31 296.27 246.65C295.09 246.84 293.95 247.36 293.02 248.03C291.91 248.72 291.01 249.56 290.34 250.88C289.25 252.78 288.5 254.63 288.14 256.77C287.63 260.14 287.62 263.44 288.27 266.46C288.77 269.67 293.08 272.82 295.71 274.14C296.27 274.4 296.86 274.83 297.56 274.89C299.19 275.33 300.56 276.33 301.76 277.35C303.16 278.52 304.69 279.49 306.43 280.61C307.02 281.04 307.77 281.44 308.56 282.01C309.9 282.84 311.3 284.01 312.36 285.23C314 286.88 315.45 288.39 317.07 289.87C317.71 290.64 318.15 291.26 318.62 292.05C319.67 294.31 320.35 296.46 320.75 299C321.07 301.03 321.22 303.09 321.05 305.37C319.95 319.41 315.23 330.2 305.24 340.6C302.97 342.69 300.47 344.47 297.87 345.57C294.31 347.17 290.66 348.26 287.25 348.62C282.88 349.48 278.85 349.24 274.92 348.47C270.62 347.58 267.01 345.55 264.25 342.34C262.11 339.7 260.96 336.76 260.89 332.96Z" fill="white"/>
<path d="M336.23 331.87C336.06 329.13 336.37 326.16 337.05 323.31C337.5 321.35 338.11 319.38 338.21 317.47C338.55 314.67 339.23 311.82 339.9 308.97C340.58 306.12 341.09 303.3 341.25 300.51C343 285.62 345.12 270.85 346.55 256.17C346.84 253.03 347.16 250.05 347.29 246.93C347.44 245.36 347.39 243.64 347.52 241.9C347.6 241.2 347.52 240.52 347.6 239.82C347.6 238.44 347.77 237.04 347.77 235.66C347.88 235.13 347.83 234.79 347.96 234.43C348.36 232.14 348.59 229.86 349.17 227.55C349.55 226.47 349.79 225.57 350 224.51C350.95 221.11 353.97 217.62 357.26 216.35C358.58 215.84 359.94 215.67 361.02 216.05C361.74 216.3 362.61 216.37 363.34 216.62C365.49 217.21 366.87 218.59 367.49 220.76C367.89 222.61 367.94 224.33 368 226.22C368.02 230.53 367.52 234.74 367.03 239.11C366.8 241.38 366.57 243.66 366.33 245.93C366.12 248.37 365.89 250.65 365.66 252.92C365.64 254.13 365.43 255.19 365.41 256.4C365.11 258.16 364.99 259.9 364.71 261.84C364.73 262.01 364.6 262.37 364.63 262.54C365.12 262.31 365.25 261.95 365.37 261.58C368.09 257.1 370.61 252.46 373.14 247.83C377.89 238.95 383.2 230.34 388.5 221.73C389.65 219.86 391.13 217.95 392.64 216.2C394.93 213.84 397.5 212.31 400.52 211.58C402.54 211.15 404.3 211.45 405.64 212.49C407.17 213.68 407.72 215.33 407.64 217.42C407.64 218.8 407.3 220.22 406.62 221.69C404.03 229.95 397.99 239.52 393.19 246.68C390.03 251.74 386.7 256.82 383.51 261.7C382.49 263.21 382 264.82 381.69 266.42C381.29 268.71 381.03 270.82 381.48 273.01C382.18 278.62 383.06 284.2 384.93 289.49C386.27 293.29 387.59 296.92 388.93 300.72C389.82 303.71 390.87 306.52 391.76 309.51C392.57 311.82 393.23 314.33 393.72 316.86C394.21 319.39 394.55 322.11 394.21 324.91C393.15 330.22 392.58 331.16 387.8 334.35C386.55 335.37 385.38 335.69 384.17 335.67C379.52 335.74 375.46 329.52 374.29 325.69C372.35 318.51 370.41 311.33 368.79 303.94C367.96 300.07 366.94 296.06 365.6 292.26C364.71 289.27 363.47 286.31 362.41 283.34C362.39 283.17 362.37 283 362.15 282.68C361.98 282.7 362 282.87 361.83 282.89C361.83 284.27 361.79 285.31 361.75 286.35C361.75 287.73 361.75 289.11 361.58 290.51C361.37 292.95 361.16 295.4 360.95 297.84C360.65 299.6 360.36 301.37 360.23 303.11C359.58 313.03 356.76 324.95 352.71 333.92C351.44 336.15 349.7 338.79 347.21 339.62C344.07 340.7 341.45 340.52 339.33 338.71C337.4 337.07 336.42 334.78 336.23 331.87Z" fill="white"/>
<path d="M406.57 316.33C408.85 308.02 411.51 300.01 414.68 291.96C416.31 287.5 417.92 282.87 419.55 278.41C420.77 275.02 421.98 271.63 423.03 268.26C424.28 265.21 425.36 262.18 426.42 258.98C427.5 255.95 428.56 252.75 429.63 249.55C432.56 240.83 436.6 231.14 440.61 222.83C444.25 216.11 448.42 209.5 456.94 208.67C463.28 208.39 465.4 212.49 466.79 217.86C467.69 221.73 468.26 225.8 468.49 229.91C468.7 233.85 468.9 237.61 468.94 241.57C469.02 244.14 468.93 246.73 469.01 249.31C469.02 251.2 469.04 253.09 468.88 255C469 256.19 468.94 257.4 468.87 258.44C468.68 261.73 468.64 264.83 468.6 267.93C468.54 270.86 468.47 273.62 468.4 276.38C468.48 278.95 468.39 281.54 468.3 284.13C468.36 286.53 468.41 288.77 468.47 291.17C468.52 293.4 468.55 295.46 468.41 297.54C468.24 299.28 468.22 300.83 468.2 302.38C467.94 304.99 467.7 307.76 467.52 309.5C467.09 312.12 466.92 313.86 466.76 315.77C466.66 321.8 463.59 325.55 457.71 326.98C455.34 327.38 453.4 326.89 451.88 325.49C450.76 324.57 450.11 323.25 449.81 321.91C449.52 320.73 449.23 319.56 448.96 318.55C448.61 316.69 448.58 314.63 448.56 312.74C448.38 310.86 446.92 308.25 444.7 308.47C440.44 308.89 435.99 309.15 431.73 309.57C430.35 309.53 429.04 310.18 427.94 311.32C427.62 311.52 427.46 311.71 427.29 311.73C426.35 312.68 425.75 313.6 425.36 314.84C424.47 318.03 423.22 321.07 421.63 324.15C421.06 325.41 420.5 326.67 419.56 327.62C417.9 330.02 415.41 330.95 412.74 331.73C411.05 332.07 409.81 331.67 408.7 330.92C407.02 329.54 406 327.92 405.78 325.7C405.45 322.46 405.85 319.5 406.57 316.33ZM433.73 293.19C434.05 294.71 435.14 295.29 436.5 295.16C437.85 294.86 439.23 294.89 440.08 294.81C441.96 294.63 443.49 294.48 444.87 294.51C446.06 294.39 447.05 293.95 447.82 293.02C448.61 292.25 449.2 291.34 449.63 290.43C450.18 289 450.21 287.62 450.25 286.24C450.42 284.5 450.44 282.95 450.62 281.21C450.76 279.13 450.88 276.88 451.02 274.8C451.24 273.57 451.3 272.36 451.35 271.15C451.29 268.75 451.41 266.5 451.52 264.08C451.64 261.83 451.77 259.58 451.89 257.33C451.98 254.74 452.05 251.98 451.96 249.24C452.08 246.99 451.68 244.62 451.29 242.42C451.27 242.25 451.26 242.08 451.07 241.93C451.04 241.59 450.51 241.47 450.2 241.84C450.03 241.86 449.88 242.04 449.89 242.21C449.46 243.11 449.02 243.84 448.76 244.73C444.6 254.95 440.95 265.11 437.67 275.59C436.64 279.13 435.46 282.86 434.26 286.42C433.48 288.91 433.36 291.16 433.73 293.19Z" fill="white"/>
<path d="M484.75 315.15C484.83 311.37 485.06 307.4 485.48 303.6C486.23 297.19 487.34 290.94 488.52 283.3C491.94 266.06 495.38 248.99 497.93 231.65C499.23 220.91 501.73 205.12 514.47 203.19C516.5 202.7 518.53 202.39 520.39 201.91C521.76 201.81 523.11 201.55 524.47 201.28C524.98 201.24 525.49 201.21 526.01 201.17C528.4 201 530.62 200.85 533.03 200.85C537.65 200.7 541.99 201.25 545.75 203.56C550.75 206.3 555.29 212.33 557.03 217.53C558.11 220.72 558.71 224.28 558.45 227.9C558.39 229.45 558.51 231.16 558.45 232.71C558.54 241.29 554.28 253.95 547.79 259.38C544.59 262.7 541.29 264.64 537.33 266.81C536.67 267.2 536.37 267.74 536.24 268.43C535.96 269.31 536.02 270.16 536.26 271.18C537.21 274.89 537.97 278.44 538.92 282.15C539.89 286.2 541.03 290.24 542.17 294.11C542.91 297.32 543.65 300.53 544.06 303.93C544.41 306.48 544.43 309.23 543.77 312.02C543.06 314.13 542.01 316.26 540.07 317.95C538.13 319.63 536.1 320.12 533.85 319.76C533.5 319.61 532.97 319.48 532.62 319.33C531.19 318.57 529.78 317.98 528.68 317.03C527.06 315.94 526.08 314.29 525.28 312.63C524.06 309.97 523.33 306.93 522.62 304.06C521.61 299.5 521.1 294.72 520.61 290.12C519.87 284.51 519.13 278.89 518.57 273.27C518.5 272.25 517.95 271.77 517.07 271.49C516.9 271.5 516.39 271.54 516.06 271.73C515.05 271.97 514.24 272.72 513.62 273.62C511.87 275.63 510.89 278.79 510.21 281.24C509.79 282.64 509.39 284.22 508.98 285.79C508.69 286.5 508.58 287.36 508.29 288.24C507.55 292.41 506.65 296.6 506.25 300.74C505.72 305.41 504.9 310.79 503.32 315.2C501.84 318.57 498.02 322.78 494.09 323.06C492.38 323.18 491.01 323.28 489.59 322.52C489.24 322.37 488.88 322.23 488.53 322.08C486.6 321.53 485.31 320.25 485 318.21C484.89 317.2 484.82 316.17 484.75 315.15ZM518.56 251.65C518.91 251.8 519.26 251.77 519.61 251.92C520.31 252.04 521 252.17 521.7 252.29C523.93 252.3 525.97 251.99 528.11 250.64C531.38 248.35 533.75 245.44 535.38 241.72C536.69 238.37 537.63 234.69 537.72 231.08C537.81 229.87 537.73 228.85 537.48 227.66C537.24 226.65 536.66 225.83 535.75 225.04C535.01 224.23 533.76 223.63 532.7 223.19C530.59 222.48 528.33 222.12 526.1 222.11C524.37 221.89 522.69 222.52 521.06 223.67C520.73 223.86 520.57 224.05 520.42 224.4C520.16 225.62 519.89 226.67 519.64 227.89C519 231.03 518.21 234.34 517.44 238.17C517.1 240.6 516.78 243.37 516.3 246.32C516.36 247.17 516.41 247.86 516.3 248.72C516.41 250.25 517.32 251.05 518.56 251.65Z" fill="white"/>
<path d="M563.26 306.53C563.58 302.57 564.24 298.42 565.07 294.44C566.19 289.24 567.31 284.21 568.6 279.01C569.45 275.37 570.47 271.72 571.32 268.07C573.09 262.15 574.68 256.08 575.93 250.01C578.31 235.49 580.84 220.62 584.6 206.38C584.88 205.17 585.34 203.94 585.79 202.72C587.03 200.09 589.01 198.45 591.71 197.46C593.73 196.68 595.78 196.58 597.68 196.83C602 197.48 602.57 202.08 602.74 205.67C602.8 206.87 602.69 208.07 602.74 209.1C603.01 211.14 602.76 213.04 602.52 215.11C601.79 221.32 600.48 229.44 598.72 235.53C597.27 240.92 596.33 246.28 595.22 251.65C594.09 256.51 593.12 261.35 591.99 266.21C590.41 272.46 589.34 278.68 587.93 284.93C587.39 287.87 586.5 290.83 585.79 293.78C585.36 295.52 584.94 297.42 584.51 299.16C583.62 301.95 583.07 304.89 581.84 307.69C581.09 309.95 580 312.07 578.73 314.19C577.92 315.26 577.12 316.33 575.96 317.24C574.32 318.69 572.47 319.47 570.57 319.22C566.95 318.88 564.38 315.41 563.7 312.01C563.27 310.3 563.18 308.42 563.26 306.53Z" fill="white"/>
<path d="M915.82 311.91C916.74 307 918.19 301.97 920.28 297.5C921.55 294.68 922.64 291.85 923.74 289.02C927.91 278.2 931.4 267.14 935.07 256.11C937.09 250.44 938.94 244.75 940.96 239.07C942.3 235.4 943.63 231.73 945.15 227.9C946.22 225.41 947.13 222.74 948.19 220.25C949.21 218.27 950.07 216.28 951.09 214.3C951.73 212.81 952.7 211.51 953.82 210.4C956.11 207.67 958.54 207.36 961.83 207.11C962.17 207.14 962.51 207.17 962.87 207.02C964.45 206.64 965.84 206.41 967.38 206.54C969.77 206.74 971.97 207.09 974.38 207.12C979.02 207.16 983.28 207.52 987.89 207.9C989.41 208.2 990.76 208.48 992.11 208.77C992.95 209.01 993.96 209.27 994.97 209.52C997.15 210.22 998.94 211.4 1000.35 213.06C1001.91 214.91 1002.24 217.17 1001.49 220.03C1001.01 221.71 999.4 224.5 997.93 225.58C997.56 225.89 997.19 226.21 996.82 226.52C994.99 227.91 993.19 228.8 991.12 228.97C988.16 229.41 985.25 229.34 982.56 228.6C980.87 228.29 979.36 227.82 977.47 227.83C975.25 227.65 973.03 227.46 970.81 227.28C969.27 227.15 967.85 227.72 966.4 228.63C962.89 231.6 959.23 242.47 958.18 246.85C958.11 247.7 957.7 248.53 957.46 249.37C957.2 250.38 957.12 251.4 957.2 252.44C957.07 253.98 958.1 254.06 959.29 254.16C960.13 254.4 961.22 253.63 961.85 254.37C962.7 254.44 963.56 254.51 964.41 254.58C965.28 254.48 966.13 254.55 967 254.45C968.88 254.61 970.56 255.09 972.42 255.42C972.76 255.45 973.1 255.48 973.61 255.52C975.69 255.35 977.54 255.85 979 256.83C980.48 257.64 981.05 259.06 981.09 260.61C981.12 262.33 980.98 264.04 980.15 265.69C979.3 267.68 977.79 269.27 975.97 270.5C974.7 271.25 973.45 271.84 972.2 272.42C971.32 272.69 970.27 272.95 969.4 273.05C967.34 273.05 965.09 273.21 963.03 273.21C962.33 273.32 961.65 273.27 961.15 273.05C959.12 272.71 957.07 272.54 954.82 272.7C954.31 272.66 953.97 272.63 953.45 272.59C952.77 272.53 952.06 272.82 951.49 273.46C950.01 274.71 948.86 276.16 947.86 277.8C947.08 278.94 946.65 279.93 946.38 281.11C944.82 285.45 943.25 289.79 941.52 294.11C940.45 296.6 939.54 299.27 938.65 301.78C938 303.44 937.51 305.12 936.86 306.79C935.51 310.63 933.36 315.78 930.22 318.44C929.85 318.75 929.31 319.05 928.94 319.36C926.41 320.87 923.76 321.68 921.2 321.47C918.1 321.56 916.35 319.86 915.71 317.23C915.36 315.48 915.67 313.79 915.82 311.91Z" fill="white"/>
<path d="M983.93 317.3C984.69 313.59 985.63 309.74 986.73 306.07C988.62 299.9 990.84 293.95 993.37 286.65C999.84 270.31 1006.29 254.14 1011.93 237.54C1015.15 227.21 1020.45 212.12 1033.33 212.52C1035.41 212.41 1037.47 212.46 1039.38 212.33C1040.74 212.48 1042.12 212.46 1043.5 212.44C1044.01 212.5 1044.52 212.55 1045.03 212.61C1047.41 212.88 1049.63 213.12 1051.99 213.56C1056.57 214.24 1060.73 215.57 1064.02 218.52C1068.44 222.11 1071.83 228.87 1072.6 234.3C1073.09 237.63 1073.03 241.24 1072.13 244.76C1071.79 246.27 1071.6 247.97 1071.26 249.49C1069.8 257.94 1063.33 269.63 1055.97 273.81C1052.22 276.49 1048.63 277.82 1044.34 279.23C1043.62 279.49 1043.22 279.97 1042.98 280.63C1042.55 281.44 1042.45 282.29 1042.51 283.33C1042.77 287.15 1042.89 290.78 1043.15 294.6C1043.38 298.76 1043.77 302.94 1044.19 306.95C1044.34 310.24 1044.49 313.53 1044.28 316.95C1044.17 319.52 1043.69 322.23 1042.54 324.86C1041.46 326.81 1040.04 328.72 1037.83 330.02C1035.62 331.32 1033.54 331.44 1031.38 330.68C1031.06 330.47 1030.57 330.25 1030.25 330.04C1028.98 329.04 1027.7 328.2 1026.79 327.07C1025.39 325.71 1024.73 323.91 1024.24 322.13C1023.52 319.29 1023.35 316.17 1023.16 313.22C1022.99 308.55 1023.35 303.76 1023.69 299.15C1023.98 293.49 1024.26 287.84 1024.72 282.2C1024.83 281.18 1024.38 280.61 1023.57 280.18C1023.4 280.16 1022.89 280.1 1022.53 280.24C1021.49 280.3 1020.56 280.88 1019.79 281.66C1017.71 283.32 1016.18 286.25 1015.06 288.54C1014.4 289.84 1013.72 291.32 1013.03 292.79C1012.61 293.43 1012.35 294.27 1011.91 295.08C1010.43 299.05 1008.79 303 1007.65 307.01C1006.29 311.51 1004.51 316.65 1002.16 320.7C1000.1 323.74 995.58 327.2 991.66 326.77C989.96 326.58 988.6 326.43 987.33 325.43C987.01 325.22 986.69 325.01 986.37 324.81C984.57 323.92 983.53 322.43 983.59 320.36C983.71 319.34 983.82 318.32 983.93 317.3ZM1028.64 260.93C1028.96 261.14 1029.3 261.18 1029.62 261.38C1030.28 261.63 1030.94 261.87 1031.61 262.12C1033.8 262.54 1035.86 262.59 1038.21 261.65C1041.84 259.99 1044.7 257.55 1046.97 254.18C1048.86 251.12 1050.45 247.67 1051.19 244.14C1051.49 242.97 1051.61 241.95 1051.57 240.74C1051.51 239.7 1051.1 238.79 1050.34 237.85C1049.75 236.92 1048.64 236.11 1047.67 235.49C1045.72 234.41 1043.57 233.65 1041.37 233.24C1039.71 232.71 1037.95 233.03 1036.13 233.86C1035.77 233.99 1035.58 234.14 1035.37 234.46C1034.9 235.61 1034.44 236.6 1033.97 237.75C1032.78 240.72 1031.4 243.84 1029.96 247.47C1029.18 249.8 1028.37 252.46 1027.37 255.28C1027.28 256.13 1027.2 256.81 1026.93 257.64C1026.77 259.17 1027.52 260.12 1028.64 260.93Z" fill="white"/>
<path d="M1062.67 322.97C1063.71 319.14 1065.11 315.18 1066.65 311.41C1068.7 306.5 1070.72 301.76 1072.94 296.88C1074.44 293.45 1076.11 290.05 1077.61 286.62C1080.43 281.13 1083.1 275.44 1085.43 269.7C1090.41 255.86 1095.61 241.7 1101.91 228.38C1102.41 227.24 1103.08 226.12 1103.75 225C1105.45 222.64 1107.7 221.39 1110.53 220.91C1112.66 220.51 1114.69 220.78 1116.52 221.37C1120.65 222.79 1120.37 227.42 1119.89 230.98C1119.73 232.17 1119.4 233.33 1119.26 234.35C1119.15 236.41 1118.56 238.23 1117.95 240.22C1116.11 246.19 1113.33 253.94 1110.49 259.6C1108.08 264.63 1106.18 269.73 1104.11 274.81C1102.11 279.38 1100.28 283.97 1098.28 288.54C1095.59 294.4 1093.4 300.32 1090.88 306.2C1089.81 308.99 1088.4 311.74 1087.16 314.51C1086.42 316.14 1085.66 317.94 1084.92 319.56C1083.54 322.14 1082.47 324.93 1080.74 327.46C1079.59 329.55 1078.13 331.43 1076.5 333.28C1075.51 334.18 1074.53 335.09 1073.22 335.78C1071.34 336.91 1069.38 337.33 1067.56 336.74C1064.06 335.75 1062.17 331.86 1062.12 328.4C1062 326.68 1062.25 324.82 1062.67 322.97Z" fill="white"/>
<path d="M1103.45 328.5C1106.03 322.33 1108.94 316.21 1112 310.29C1112.79 308.68 1113.74 307.1 1114.69 305.53C1115.47 303.92 1116.26 302.32 1117.02 300.88C1117.97 299.3 1118.76 297.69 1119.71 296.12C1120.02 295.3 1120.47 294.68 1120.77 293.87C1127.43 277.61 1134.13 261.18 1141.13 244.97C1144.41 237.7 1152.38 226.17 1161.5 227.66C1163.22 227.77 1164.63 228.69 1165.67 229.73C1172.9 238.55 1170.23 266.41 1168.48 277.05C1168.42 277.39 1168.34 277.9 1168.45 278.26C1168.96 279.38 1169.8 279.52 1171.15 278.7C1172.27 278.19 1173.09 277.46 1173.93 276.55C1177.72 272.49 1181.06 268 1184.71 263.74C1190.18 256.83 1195.83 249.95 1201.75 243.46C1203.21 241.96 1204.67 240.47 1206.27 239.17C1207.87 237.87 1209.76 236.97 1211.7 236.76C1213.45 236.7 1215.08 236.27 1216.63 236.35C1217.67 236.35 1218.52 236.49 1219.5 236.82C1223.87 238.75 1225.76 239.93 1224.84 245.51C1224.31 247.68 1223.95 249.88 1223.42 252.04C1221.52 259.37 1217.96 266.24 1214.43 272.95C1214.4 273.12 1214.21 273.26 1214.15 273.6C1212.61 276.64 1211.21 279.89 1209.64 283.1C1208.41 285.33 1207.37 287.41 1206.14 289.64C1206.11 289.81 1206.08 289.98 1205.89 290.12C1201.21 299.59 1196.53 309.06 1192.33 318.78C1191.21 321.37 1190.12 323.8 1189 326.39C1188.16 328.33 1187.32 330.28 1186.65 332.25C1183.23 340.37 1178.75 350.74 1168.87 351.72C1165.86 352.09 1164 350.75 1163.01 348.33C1162.53 347.04 1162.44 345.46 1162.32 344.05C1162.46 342.16 1162.76 340.3 1163.24 338.47C1164.24 334.47 1165.95 330.41 1167.63 326.52C1168.19 325.22 1168.72 324.1 1169.28 322.8C1172.16 315.81 1175.19 309.02 1178.86 302.51C1180.18 299.78 1181.49 297.04 1182.98 294.34C1183.26 293.69 1183.57 292.88 1183.85 292.23C1184.07 291.92 1184.13 291.58 1184.19 291.24C1184.27 290.73 1184.58 289.92 1183.9 289.8C1183.22 289.69 1182.94 290.34 1182.52 290.79C1179.37 294.09 1176.4 297.42 1173.28 300.55C1169.71 304.3 1166 307.86 1161.99 311.19C1160.78 312.21 1159.4 313.19 1157.89 313.99C1157.13 314.39 1156.4 314.61 1155.64 315.01C1153.98 315.6 1152.63 315.38 1151.3 314.99C1150.82 314.74 1150.51 314.51 1150.23 314.12C1149.61 313.67 1149.21 312.91 1148.99 312.18C1148.03 309.59 1147.79 306.78 1147.93 303.85C1148.56 295.8 1148.82 287.86 1149.26 279.94C1149.29 279.77 1149.32 279.6 1149.34 279.43C1149.17 279.4 1149.03 279.21 1149.03 279.21C1148.69 279.15 1148.49 279.3 1148.3 279.44C1148.25 279.78 1148.02 280.09 1147.99 280.26C1147.46 281.39 1146.95 282.35 1146.59 283.5C1144.6 288.21 1142.25 293.03 1140.06 297.87C1138.77 300.44 1137.48 303 1136.36 305.59C1134.31 309.59 1132.44 313.62 1130.36 317.79C1127.39 324.24 1121.53 334.56 1116.75 339.33C1114.75 340.91 1112.67 341.96 1110.22 342.08C1108.31 342.11 1106.81 341.69 1105.38 340.94C1103.63 339.96 1102.64 338.58 1102.05 336.92C1101.85 336.02 1101.85 334.98 1101.99 334.13C1102.14 332.28 1102.64 330.28 1103.45 328.5Z" fill="white"/>
<path d="M1201.27 340.81C1205.88 333.53 1210.75 326.64 1216.13 319.86C1218.99 316.07 1221.88 312.11 1224.74 308.31C1226.89 305.42 1229.04 302.54 1231.03 299.62C1233.11 297.07 1235.03 294.49 1236.98 291.73C1238.9 289.15 1240.85 286.39 1242.8 283.64C1248.15 276.15 1254.84 268.07 1261.09 261.29C1266.54 255.92 1272.45 250.82 1280.85 252.51C1287 254.09 1287.83 258.63 1287.59 264.17C1287.32 268.13 1286.68 272.2 1285.7 276.19C1284.76 280.02 1283.85 283.68 1282.73 287.47C1282.06 289.95 1281.21 292.41 1280.54 294.89C1280 296.7 1279.46 298.52 1278.76 300.3C1278.52 301.48 1278.12 302.62 1277.75 303.59C1276.61 306.68 1275.66 309.63 1274.72 312.59C1273.81 315.38 1272.93 318 1272.06 320.61C1271.39 323.1 1270.54 325.55 1269.7 328C1269.06 330.32 1268.45 332.47 1267.81 334.78C1267.2 336.93 1266.63 338.91 1265.89 340.86C1265.22 342.47 1264.75 343.95 1264.27 345.43C1263.26 347.85 1262.22 350.43 1261.54 352.04C1260.36 354.42 1259.69 356.04 1258.98 357.82C1257.13 363.56 1253.1 366.24 1247.05 365.9C1244.67 365.6 1242.95 364.55 1241.91 362.77C1241.1 361.56 1240.87 360.12 1240.97 358.74C1241.04 357.53 1241.11 356.32 1241.14 355.28C1241.34 353.4 1241.92 351.42 1242.46 349.61C1242.83 347.76 1242.2 344.84 1240.01 344.4C1235.81 343.56 1231.48 342.51 1227.28 341.67C1225.97 341.23 1224.53 341.47 1223.15 342.24C1222.78 342.34 1222.58 342.47 1222.41 342.44C1221.23 343.08 1220.39 343.78 1219.65 344.86C1217.87 347.65 1215.78 350.2 1213.36 352.68C1212.45 353.72 1211.54 354.76 1210.37 355.4C1208.08 357.21 1205.43 357.38 1202.64 357.34C1200.93 357.17 1199.85 356.43 1199.02 355.39C1197.81 353.58 1197.31 351.73 1197.75 349.54C1198.41 346.35 1199.65 343.63 1201.27 340.81ZM1233.99 326.6C1233.85 328.14 1234.73 329.02 1236.07 329.29C1237.45 329.39 1238.76 329.83 1239.6 330C1241.45 330.37 1242.96 330.67 1244.27 331.11C1245.44 331.35 1246.52 331.21 1247.53 330.54C1248.5 330.04 1249.35 329.33 1250.02 328.59C1250.96 327.38 1251.4 326.07 1251.84 324.76C1252.51 323.15 1252.98 321.67 1253.66 320.06C1254.4 318.11 1255.17 316 1255.91 314.05C1256.48 312.94 1256.89 311.8 1257.29 310.66C1257.93 308.34 1258.7 306.23 1259.51 303.95C1260.28 301.83 1261.06 299.72 1261.83 297.6C1262.67 295.15 1263.55 292.53 1264.25 289.88C1265.02 287.76 1265.33 285.38 1265.6 283.16C1265.63 282.99 1265.67 282.82 1265.53 282.62C1265.6 282.28 1265.13 282.02 1264.72 282.28C1264.55 282.25 1264.35 282.38 1264.32 282.55C1263.65 283.29 1263.01 283.86 1262.5 284.63C1255.54 293.19 1249.08 301.85 1242.9 310.91C1240.88 314 1238.66 317.22 1236.48 320.28C1235 322.43 1234.23 324.55 1233.99 326.6Z" fill="white"/>
<path d="M1275.88 361.25C1277.2 357.87 1278.65 354.69 1280.11 351.51C1281 349.96 1281.56 348.33 1282.25 346.91C1283.5 344.57 1284.55 342.35 1285.64 339.97C1288.35 334.45 1291.22 328.97 1294.26 323.52C1295.15 321.97 1296.04 320.42 1296.94 318.87C1297.22 318.41 1297.55 317.78 1297.87 317.15C1299.2 314.47 1300.87 311.87 1302.37 309.24C1305.99 303.58 1309.35 297.51 1312.51 291.57C1313.76 289.23 1315.06 286.72 1316.48 284.41C1317.29 283.19 1317.94 281.94 1318.55 280.85C1319.84 278.34 1320.93 275.96 1322.39 273.49C1323.93 270.69 1327.32 266.73 1330.29 265.32C1333.3 263.74 1336.12 263.7 1338.84 264.87C1341.1 265.75 1342.45 267.48 1343.43 269.29C1343.99 270.65 1344.34 272.14 1344.69 273.63C1345.05 275.83 1345.04 278.11 1345.07 280.23C1344.76 290.54 1343.61 300.65 1342.26 310.88C1342.16 312.79 1342.27 314.58 1342.55 316.4C1342.47 316.73 1342.73 317.15 1342.81 317.52C1342.94 317.73 1343.06 317.93 1343.44 317.84C1343.81 317.75 1344.06 317.46 1344.26 317.33C1344.51 317.04 1344.75 316.74 1344.87 316.24C1345.96 313.86 1347.01 311.64 1348.1 309.26C1348.99 307.71 1349.72 306.12 1350.44 304.53C1351.77 301.85 1352.9 299.3 1354.23 296.63C1357 290.07 1361.02 283.45 1365.64 278.03C1366.66 276.69 1368.18 275.46 1369.79 274.61C1373.25 272.61 1376.95 272.6 1379.71 274.31C1380.76 275.08 1381.6 275.99 1382.41 277.06C1383.3 278.5 1383.62 280.16 1383.35 282.03C1382.97 284.4 1382.42 286.74 1381.16 289.08C1378.41 294.77 1375.37 300.21 1372.17 305.61C1369.53 310.09 1367.27 314.48 1364.96 319.04C1363.63 321.72 1362.29 324.39 1360.79 327.03C1358.48 330.88 1356.46 334.98 1354.27 339.04C1352.86 342.05 1351.32 344.86 1349.95 347.7C1344.87 358.82 1339.79 369.94 1332.7 379.88C1330.61 382.03 1328.17 382.68 1325.38 382.56C1323.8 382.54 1322.34 382.02 1321.33 381.08C1317.54 377.73 1316.04 374.38 1316.68 369.43C1316.94 364.57 1317.54 359.78 1318.35 354.87C1319.04 350.46 1319.56 346 1319.7 341.64C1319.85 337.28 1320.2 332.79 1320.72 328.33C1320.83 327.12 1320.56 326.01 1319.89 325.14C1319.76 324.93 1319.43 324.86 1319.22 324.98C1318.56 325.53 1318.07 326.12 1317.58 326.71C1314.37 332.11 1311.5 337.59 1308.76 343.28C1305.13 351.22 1301.3 359.29 1296.71 366.83C1295.93 367.88 1295.16 368.93 1294.09 369.73C1293.23 370.41 1292.53 371.12 1291.8 372.01C1290.17 374.44 1287.16 376.02 1284.25 375.69C1281.88 375.31 1279.75 374.63 1277.98 373.16C1276.22 371.69 1275.07 369.84 1274.91 367.51C1274.73 365.38 1275.04 363.34 1275.88 361.25Z" fill="white"/>
<path d="M720.28 328.9C718.09 328.9 716.32 327.13 716.31 324.94C716.3 321.36 713.37 318.44 709.78 318.44C706.19 318.44 703.27 321.36 703.25 324.94C703.24 327.13 701.46 328.9 699.28 328.9C699.27 328.9 699.27 328.9 699.26 328.9C697.07 328.89 695.29 327.11 695.3 324.91C695.33 316.96 701.82 310.49 709.77 310.49C717.72 310.49 724.21 316.96 724.24 324.91C724.25 327.1 722.48 328.89 720.28 328.9C720.29 328.9 720.28 328.9 720.28 328.9Z" fill="#1C1C1C"/>
<path d="M832.63 328.9C830.44 328.9 828.67 327.13 828.66 324.94C828.65 321.36 825.72 318.44 822.13 318.44C818.55 318.44 815.62 321.36 815.6 324.94C815.59 327.13 813.81 328.9 811.63 328.9C811.63 328.9 811.62 328.9 811.61 328.9C809.42 328.89 807.64 327.11 807.65 324.91C807.68 316.96 814.17 310.49 822.12 310.49C830.07 310.49 836.56 316.96 836.59 324.91C836.6 327.1 834.83 328.89 832.63 328.9C832.64 328.9 832.63 328.9 832.63 328.9Z" fill="#1C1C1C"/>
</svg>
