<svg width="850" height="289" viewBox="0 0 850 289" fill="none" xmlns="http://www.w3.org/2000/svg">
<g clip-path="url(#clip0_4_30)">
<path d="M379.706 169.37C363.572 169.37 350.446 156.239 350.446 140.1C350.446 123.962 363.572 110.831 379.706 110.831C395.079 110.831 407.897 122.835 408.895 138.168C408.94 138.787 408.966 139.443 408.966 140.1C408.966 152.266 401.311 163.291 389.916 167.535C386.646 168.752 383.214 169.37 379.706 169.37ZM379.706 115.989C366.412 115.989 355.596 126.808 355.596 140.107C355.596 153.405 366.412 164.225 379.706 164.225C382.596 164.225 385.422 163.716 388.12 162.718C397.506 159.221 403.815 150.134 403.815 140.113C403.815 139.579 403.796 139.051 403.757 138.535C402.94 125.881 392.375 115.989 379.706 115.989Z" fill="#00616B"/>
<path d="M453.148 169.37C449.009 169.37 445.004 168.52 441.245 166.846C430.706 162.144 423.895 151.647 423.895 140.107C423.895 139.675 423.901 139.257 423.927 138.832C424.577 123.15 437.421 110.837 453.155 110.837C469.288 110.837 482.415 123.968 482.415 140.107C482.408 156.239 469.281 169.37 453.148 169.37ZM453.148 115.989C440.183 115.989 429.605 126.132 429.064 139.083C429.045 139.443 429.039 139.772 429.039 140.107C429.039 149.619 434.652 158.268 443.337 162.138C446.434 163.516 449.73 164.218 453.148 164.218C466.442 164.218 477.258 153.399 477.258 140.1C477.258 126.808 466.442 115.989 453.148 115.989Z" fill="#00616B"/>
<path d="M426.489 141.549C426.142 141.549 425.781 141.479 425.44 141.324C422.343 139.946 419.047 139.244 415.629 139.244C412.738 139.244 409.912 139.753 407.214 140.751C405.882 141.247 404.401 140.564 403.905 139.231C403.41 137.898 404.092 136.417 405.425 135.921C408.695 134.704 412.127 134.092 415.629 134.092C419.768 134.092 423.773 134.942 427.532 136.616C428.833 137.196 429.412 138.716 428.833 140.017C428.421 140.983 427.474 141.549 426.489 141.549Z" fill="#00616B"/>
<path d="M337.68 144.724C336.257 144.724 335.104 143.572 335.104 142.148V113.626C335.278 69.2861 371.472 33.2286 415.79 33.2286C460.108 33.2286 496.301 69.2926 496.475 113.619C496.481 115.042 495.329 116.202 493.913 116.208C493.913 116.208 493.906 116.208 493.9 116.208C492.484 116.208 491.331 115.062 491.325 113.645C491.164 72.1455 457.275 38.387 415.79 38.387C374.298 38.387 340.416 72.1455 340.255 113.645V142.161C340.255 143.572 339.102 144.724 337.68 144.724Z" fill="black"/>
<path d="M39.119 145.813C38.8679 144.512 38.8486 143.282 38.7006 141.961C38.707 140.834 38.5782 139.624 38.5654 138.394C38.5718 137.267 38.6813 136.12 38.6684 134.89L38.7778 134.871C38.7456 132.405 38.7134 129.938 39.0289 127.517C39.1448 126.37 39.3637 125.205 39.4795 124.058C39.6147 123.021 39.7499 121.985 40.0139 121.031C40.1813 117.85 41.3658 113.574 42.2414 110.592C42.3959 110.225 42.5246 109.749 42.6598 109.272C43.3165 108.023 43.7285 106.703 44.1663 105.492C45.6985 101.261 47.8809 96.9008 51.3123 93.7581C52.0719 93.0497 52.8316 92.3349 53.5913 91.6265C55.3939 89.9263 57.4089 88.7478 59.5076 87.9943C60.8917 87.6079 62.3016 87.3374 63.6214 87.1893C64.7223 87.0863 65.8489 87.0927 66.8661 87.1185C72.8339 87.7496 77.4112 92.8114 79.0529 98.3305C79.6516 100.237 80.2439 102.143 80.8233 103.94C81.5894 106.149 81.9306 108.441 82.1752 110.869C82.4005 113.188 82.5228 115.519 82.4263 117.902C82.4005 119.479 82.4971 121.147 82.4907 122.835C82.3941 124.651 82.4134 126.448 82.098 128.309C81.7181 136.14 78.8533 148.498 74.4112 155.093C73.7352 156.239 72.821 157.314 71.9133 158.39C67.2201 163.69 65.5656 165.583 57.9947 167.065C55.7222 167.509 53.5591 167.367 51.5312 166.755C50.2371 166.446 49.22 165.86 48.1899 165.165C47.0054 164.27 45.9045 163.252 45.0676 161.842C44.8551 161.32 44.4431 160.953 44.0375 160.58C43.4581 159.91 42.853 159.124 42.4474 158.19C41.5268 156.348 40.8894 154.223 40.2714 152.208C39.7306 150.076 39.325 148.022 39.119 145.813ZM51.7372 143.681C52.2071 144.937 52.5676 146.218 53.0376 147.474C53.5076 148.73 54.0677 149.857 54.9239 150.816C55.7157 152.008 57.0999 153.315 58.7222 152.993C59.3724 152.864 59.9776 152.523 60.5634 152.072C60.9304 151.66 61.3231 151.364 61.7995 150.932C65.997 145.954 68.4691 138.503 68.8038 132.147C69.0227 130.981 69.248 129.816 69.3575 128.669C69.5828 121.772 69.7438 115.107 68.9519 108.184C68.3789 105.26 66.9304 100.713 63.4733 100.262C62.675 100.192 61.8961 100.237 61.0527 100.514C59.6042 101.132 58.4518 102.149 57.3638 103.482C54.4024 108.448 52.2973 114.36 51.8659 120.175C51.6857 121.56 51.5054 122.944 51.3316 124.329C51.1706 125.823 51.1449 127.401 51.0097 128.998C50.9646 129.906 50.8938 130.704 50.9582 131.593C50.8166 134.317 50.9775 136.874 51.1835 139.643C51.3123 140.957 51.3702 142.406 51.7372 143.681Z" fill="#FCB23A"/>
<path d="M90.9563 146.07C90.8597 144.744 90.982 143.385 91.2138 142.013C91.3297 141.324 91.4262 140.525 91.5292 139.733C91.7996 137.904 92.3082 136.153 93.1387 134.343C93.8404 133.119 94.5421 131.889 95.746 131.033C96.0421 130.762 96.422 130.37 96.8276 130.08C97.613 129.397 98.437 128.933 99.3061 128.798C100.523 128.721 101.643 128.766 102.525 129.41C103.388 129.944 103.961 130.749 104.134 131.838C104.218 132.385 104.199 132.945 104.186 133.615C103.922 136.223 103.896 138.909 104.308 141.524C104.547 143.05 105.261 144.055 106.948 144.125C107.965 144.19 108.956 144.145 110.012 143.758C112.452 142.927 113.302 141.234 114.3 139.07C114.615 138.239 114.821 137.428 115.143 136.597C115.497 135.315 115.626 133.957 115.652 132.72C115.594 131.612 115.401 130.415 115.253 129.436C114.886 127.819 114.229 126.467 113.482 125.25C113.321 124.941 113.051 124.644 112.787 124.355C112.124 123.678 111.351 123.015 110.669 122.229C110.276 121.843 109.768 121.476 109.175 121.238C108.216 120.832 107.263 120.42 106.304 120.014C105.345 119.608 104.295 119.325 103.343 118.913C100.961 117.947 98.9585 116.581 97.2203 114.733C96.6666 114.038 96.0936 113.233 95.6108 112.305C95.128 111.378 94.8318 110.193 94.7546 108.976C94.6451 107.54 94.6387 106.091 94.5228 104.655C94.5035 104.545 94.5035 104.545 94.6001 104.423C94.6065 103.753 94.8125 102.935 94.819 102.265C94.7932 97.8024 96.9949 91.2079 99.8405 87.975C101.141 86.3199 102.589 84.8645 104.147 83.3961C104.643 82.984 105.132 82.5718 105.628 82.1597C106.832 81.3031 108.132 80.3178 109.459 79.5515C110.662 78.6949 112.027 78.1475 113.392 77.5937C115.517 76.9239 117.667 76.3701 119.753 76.1511C120.512 76.0288 121.169 75.9322 121.858 76.0481C122.766 76.1318 123.667 76.2091 124.575 76.2928C125.843 76.544 126.924 77.0399 127.819 77.7933C128.09 78.0831 128.36 78.3794 128.611 78.5597C129.364 79.1135 130.034 79.7897 130.587 80.4853C131.019 81.0906 131.444 81.6895 131.875 82.2949C132.641 83.628 132.989 85.1349 133.227 86.6612C133.388 88.4193 133.336 90.2161 133.047 91.9356C133.008 95.9606 131.167 102.053 126.751 103.077C124.478 103.547 122.617 103.051 121.272 101.589C120.319 100.507 119.791 99.2514 119.753 97.5835C119.617 96.7141 119.605 95.9348 119.469 95.059C119.424 94.0608 119.051 93.1141 118.575 92.1867C118.291 91.7875 117.892 91.4011 117.512 91.1241C116.302 90.5317 115.15 90.2676 113.733 90.4866C112.974 90.6089 112.24 90.9438 111.641 91.3753C110.926 91.8197 110.347 92.3606 109.916 93.2107C109.214 94.4343 108.731 95.6257 108.499 97.0038C108.171 99.1741 108.165 101.299 108.583 103.244C108.905 105.311 111.68 107.34 113.373 108.19C113.733 108.358 114.113 108.635 114.564 108.673C115.613 108.957 116.495 109.601 117.268 110.257C118.169 111.011 119.154 111.636 120.274 112.357C120.654 112.634 121.137 112.891 121.645 113.258C122.508 113.793 123.409 114.546 124.092 115.332C125.148 116.395 126.081 117.367 127.124 118.32C127.536 118.816 127.819 119.215 128.122 119.724C128.798 121.18 129.236 122.564 129.493 124.2C129.699 125.507 129.796 126.834 129.686 128.302C128.978 137.344 125.939 144.293 119.508 150.99C118.047 152.336 116.437 153.483 114.763 154.191C112.471 155.221 110.122 155.923 107.926 156.155C105.113 156.709 102.519 156.555 99.9885 156.059C97.2203 155.486 94.8962 154.178 93.1194 152.111C91.7417 150.411 91.0013 148.517 90.9563 146.07Z" fill="#FCB23A"/>
<path d="M139.459 145.368C139.35 143.604 139.549 141.691 139.987 139.856C140.277 138.593 140.669 137.325 140.734 136.095C140.953 134.291 141.39 132.456 141.822 130.621C142.259 128.785 142.588 126.969 142.691 125.172C143.817 115.583 145.182 106.071 146.103 96.6175C146.289 94.5953 146.495 92.6762 146.579 90.6669C146.676 89.6558 146.644 88.5481 146.727 87.4276C146.779 86.9768 146.727 86.5389 146.779 86.0881C146.779 85.1993 146.888 84.2977 146.888 83.409C146.959 83.0677 146.927 82.8487 147.01 82.6169C147.268 81.1421 147.416 79.6738 147.789 78.1862C148.034 77.4907 148.189 76.9111 148.324 76.2284C148.935 74.0388 150.88 71.7913 152.998 70.9734C153.847 70.6449 154.723 70.5355 155.418 70.7802C155.882 70.9412 156.442 70.9863 156.912 71.1473C158.296 71.5272 159.184 72.4159 159.584 73.8134C159.841 75.0048 159.873 76.1125 159.912 77.3297C159.925 80.1053 159.603 82.8165 159.287 85.6308C159.139 87.0927 158.991 88.561 158.837 90.0229C158.702 91.5943 158.554 93.0626 158.405 94.5245C158.393 95.3037 158.257 95.9863 158.245 96.7656C158.051 97.899 157.974 99.0196 157.794 100.269C157.807 100.378 157.723 100.61 157.742 100.72C158.058 100.572 158.141 100.34 158.219 100.101C159.97 97.2164 161.592 94.2282 163.221 91.2465C166.279 85.5278 169.697 79.9829 173.109 74.4381C173.85 73.2338 174.803 72.0038 175.775 70.8768C177.249 69.3569 178.903 68.3716 180.848 67.9015C182.148 67.6246 183.281 67.8178 184.144 68.4875C185.129 69.2539 185.483 70.3165 185.431 71.6625C185.431 72.5512 185.213 73.4657 184.775 74.4123C183.107 79.7318 179.219 85.8949 176.129 90.5059C174.094 93.7645 171.951 97.0361 169.897 100.179C169.24 101.151 168.925 102.188 168.725 103.218C168.468 104.693 168.3 106.052 168.59 107.462C169.041 111.075 169.607 114.669 170.811 118.076C171.674 120.523 172.524 122.86 173.386 125.308C173.959 127.233 174.635 129.043 175.208 130.968C175.73 132.456 176.155 134.072 176.47 135.702C176.785 137.331 177.004 139.083 176.785 140.886C176.103 144.306 175.736 144.911 172.659 146.965C171.854 147.622 171.101 147.828 170.322 147.815C167.328 147.861 164.715 143.855 163.961 141.388C162.712 136.764 161.463 132.14 160.42 127.381C159.886 124.889 159.229 122.307 158.367 119.859C157.794 117.934 156.996 116.028 156.313 114.115C156.3 114.005 156.287 113.896 156.146 113.69C156.036 113.703 156.049 113.812 155.94 113.825C155.94 114.714 155.914 115.384 155.888 116.053C155.888 116.942 155.888 117.831 155.779 118.732C155.644 120.304 155.508 121.882 155.373 123.453C155.18 124.586 154.993 125.726 154.91 126.847C154.491 133.235 152.676 140.912 150.068 146.688C149.251 148.125 148.131 149.825 146.528 150.359C144.506 151.055 142.819 150.939 141.455 149.773C140.212 148.717 139.581 147.242 139.459 145.368Z" fill="#FCB23A"/>
<path d="M184.743 135.361C186.21 130.009 187.923 124.85 189.964 119.666C191.013 116.794 192.05 113.812 193.099 110.94C193.884 108.757 194.663 106.574 195.339 104.403C196.144 102.439 196.839 100.488 197.522 98.4271C198.217 96.4758 198.899 94.415 199.588 92.3542C201.475 86.7385 204.075 80.4982 206.657 75.1465C209 70.8188 211.685 66.562 217.17 66.0275C221.251 65.8472 222.616 68.4876 223.511 71.9458C224.091 74.4381 224.458 77.0592 224.606 79.706C224.741 82.2434 224.87 84.6648 224.895 87.2151C224.947 88.8702 224.889 90.5381 224.94 92.1996C224.947 93.4168 224.96 94.634 224.857 95.864C224.934 96.6304 224.895 97.4096 224.85 98.0794C224.728 100.198 224.702 102.195 224.676 104.191C224.638 106.078 224.593 107.855 224.548 109.633C224.599 111.288 224.541 112.956 224.483 114.624C224.522 116.169 224.554 117.612 224.593 119.157C224.625 120.594 224.644 121.92 224.554 123.26C224.445 124.38 224.432 125.379 224.419 126.377C224.252 128.058 224.097 129.841 223.981 130.962C223.704 132.649 223.595 133.77 223.492 135C223.427 138.883 221.451 141.298 217.666 142.219C216.14 142.477 214.891 142.161 213.912 141.26C213.191 140.667 212.773 139.817 212.58 138.954C212.393 138.194 212.206 137.441 212.033 136.79C211.807 135.592 211.788 134.266 211.775 133.049C211.659 131.838 210.719 130.157 209.29 130.299C206.548 130.569 203.683 130.737 200.94 131.007C200.052 130.981 199.208 131.4 198.5 132.134C198.294 132.263 198.191 132.385 198.082 132.398C197.477 133.01 197.09 133.602 196.839 134.401C196.266 136.455 195.462 138.413 194.438 140.397C194.071 141.208 193.71 142.019 193.105 142.631C192.037 144.177 190.434 144.776 188.715 145.278C187.627 145.497 186.828 145.239 186.114 144.756C185.032 143.868 184.376 142.824 184.234 141.395C184.022 139.308 184.279 137.402 184.743 135.361ZM202.228 120.458C202.434 121.437 203.135 121.811 204.011 121.727C204.88 121.534 205.769 121.553 206.316 121.502C207.526 121.386 208.511 121.289 209.399 121.308C210.166 121.231 210.803 120.948 211.299 120.349C211.807 119.853 212.187 119.267 212.464 118.681C212.818 117.76 212.837 116.871 212.863 115.983C212.972 114.862 212.985 113.864 213.101 112.743C213.191 111.404 213.269 109.955 213.359 108.615C213.5 107.823 213.539 107.044 213.571 106.265C213.533 104.719 213.61 103.27 213.681 101.712C213.758 100.263 213.842 98.8135 213.919 97.3645C213.977 95.6966 214.022 93.9191 213.964 92.1546C214.041 90.7056 213.784 89.1793 213.533 87.7625C213.52 87.653 213.513 87.5435 213.391 87.4469C213.372 87.228 213.03 87.1507 212.831 87.389C212.721 87.4018 212.625 87.5178 212.631 87.6272C212.354 88.2068 212.071 88.677 211.904 89.2501C209.226 95.8318 206.876 102.375 204.764 109.124C204.101 111.404 203.341 113.806 202.569 116.098C202.067 117.702 201.99 119.151 202.228 120.458Z" fill="#FCB23A"/>
<path d="M235.073 134.601C235.125 132.166 235.273 129.61 235.543 127.162C236.026 123.034 236.741 119.009 237.501 114.089C239.702 102.987 241.917 91.9935 243.559 80.8266C244.395 73.91 246.005 63.7413 254.207 62.4984C255.514 62.1828 256.82 61.9832 258.018 61.674C258.9 61.6096 259.769 61.4422 260.644 61.2683C260.973 61.2426 261.301 61.2232 261.636 61.1975C263.175 61.088 264.604 60.9914 266.155 60.9914C269.13 60.8948 271.924 61.249 274.344 62.7366C277.563 64.5012 280.486 68.3845 281.606 71.7333C282.301 73.7877 282.688 76.0803 282.52 78.4116C282.482 79.4098 282.559 80.511 282.52 81.5092C282.578 87.0348 279.836 95.1878 275.657 98.6847C273.597 100.823 271.473 102.072 268.924 103.47C268.499 103.721 268.306 104.069 268.222 104.513C268.042 105.08 268.08 105.627 268.235 106.284C268.846 108.673 269.336 110.959 269.947 113.349C270.572 115.957 271.306 118.559 272.039 121.051C272.516 123.118 272.992 125.185 273.256 127.375C273.482 129.017 273.494 130.788 273.07 132.585C272.612 133.944 271.936 135.315 270.688 136.404C269.439 137.486 268.132 137.801 266.683 137.569C266.458 137.473 266.117 137.389 265.891 137.293C264.971 136.803 264.063 136.423 263.355 135.811C262.312 135.109 261.681 134.047 261.166 132.978C260.381 131.265 259.911 129.307 259.454 127.459C258.803 124.522 258.475 121.444 258.16 118.481C257.683 114.868 257.207 111.249 256.846 107.63C256.801 106.973 256.447 106.664 255.881 106.484C255.771 106.49 255.443 106.516 255.23 106.638C254.58 106.793 254.059 107.276 253.659 107.855C252.533 109.15 251.902 111.185 251.464 112.763C251.194 113.664 250.936 114.682 250.672 115.693C250.486 116.15 250.415 116.704 250.228 117.271C249.752 119.956 249.172 122.654 248.915 125.321C248.574 128.328 248.046 131.793 247.029 134.633C246.076 136.803 243.616 139.514 241.086 139.695C239.986 139.772 239.104 139.836 238.189 139.347C237.964 139.25 237.732 139.16 237.507 139.064C236.264 138.709 235.434 137.885 235.234 136.571C235.164 135.921 235.119 135.257 235.073 134.601ZM256.84 93.7066C257.065 93.8032 257.29 93.7839 257.516 93.8805C257.966 93.9578 258.411 94.0415 258.861 94.1187C260.297 94.1252 261.61 93.9256 262.988 93.0562C265.093 91.5814 266.619 89.7074 267.668 87.3117C268.512 85.1543 269.117 82.7844 269.175 80.4595C269.233 79.6803 269.181 79.0234 269.02 78.257C268.866 77.6066 268.492 77.0785 267.906 76.5697C267.43 76.0481 266.625 75.6617 265.943 75.3784C264.584 74.9211 263.129 74.6893 261.694 74.6828C260.58 74.5412 259.499 74.9469 258.449 75.6875C258.237 75.8098 258.134 75.9322 258.037 76.1576C257.87 76.9433 257.696 77.6195 257.535 78.4052C257.123 80.4273 256.614 82.559 256.119 85.0255C255.9 86.5904 255.694 88.3743 255.385 90.2741C255.423 90.8215 255.456 91.2658 255.385 91.8197C255.456 92.805 256.041 93.3202 256.84 93.7066Z" fill="#FCB23A"/>
<path d="M285.617 129.049C285.823 126.499 286.248 123.826 286.782 121.263C287.503 117.915 288.224 114.675 289.055 111.326C289.602 108.982 290.258 106.632 290.806 104.281C291.945 100.469 292.969 96.5595 293.774 92.6504C295.306 83.2996 296.934 73.7233 299.355 64.5527C299.535 63.7735 299.832 62.9814 300.121 62.1957C300.919 60.502 302.194 59.4458 303.932 58.8082C305.233 58.3059 306.553 58.2415 307.776 58.4025C310.557 58.8211 310.924 61.7835 311.033 64.0955C311.072 64.8683 311.001 65.6411 311.033 66.3044C311.207 67.6182 311.046 68.8418 310.892 70.1748C310.422 74.1741 309.578 79.4034 308.445 83.3253C307.512 86.7965 306.907 90.2483 306.192 93.7066C305.465 96.8364 304.84 99.9534 304.113 103.083C303.095 107.108 302.407 111.114 301.499 115.139C301.151 117.032 300.578 118.939 300.121 120.838C299.844 121.959 299.574 123.182 299.297 124.303C298.724 126.1 298.37 127.993 297.578 129.796C297.095 131.252 296.394 132.617 295.576 133.982C295.055 134.671 294.54 135.361 293.793 135.947C292.737 136.88 291.546 137.383 290.323 137.222C287.992 137.003 286.338 134.768 285.9 132.578C285.623 131.477 285.565 130.266 285.617 129.049Z" fill="#FCB23A"/>
<path d="M512.589 132.514C513.181 129.352 514.114 126.113 515.46 123.234C516.277 121.418 516.979 119.595 517.687 117.773C520.372 110.805 522.619 103.682 524.981 96.5788C526.282 92.9273 527.473 89.263 528.773 85.6051C529.636 83.2416 530.492 80.8781 531.471 78.4116C532.16 76.808 532.745 75.0885 533.428 73.485C534.084 72.2099 534.638 70.9283 535.295 69.6532C535.707 68.6936 536.331 67.8564 537.052 67.1416C538.527 65.3835 540.091 65.1838 542.209 65.0228C542.428 65.0421 542.647 65.0615 542.879 64.9649C543.896 64.7201 544.791 64.572 545.782 64.6557C547.321 64.7845 548.737 65.0099 550.288 65.0293C553.276 65.055 556.018 65.2869 558.986 65.5316C559.965 65.7248 560.834 65.9051 561.703 66.0919C562.243 66.2464 562.894 66.4139 563.544 66.5749C564.947 67.0257 566.1 67.7856 567.007 68.8546C568.012 70.046 568.224 71.5015 567.741 73.3433C567.432 74.4252 566.396 76.222 565.45 76.9175C565.211 77.1171 564.973 77.3232 564.735 77.5229C563.557 78.418 562.398 78.9912 561.065 79.1007C559.16 79.384 557.286 79.339 555.555 78.8624C554.467 78.6628 553.494 78.3601 552.278 78.3665C550.849 78.2506 549.419 78.1282 547.99 78.0123C546.999 77.9286 546.085 78.2957 545.151 78.8817C542.891 80.7944 540.535 87.7947 539.859 90.6154C539.814 91.1628 539.55 91.6973 539.396 92.2383C539.228 92.8887 539.177 93.5456 539.228 94.2154C539.145 95.2071 539.808 95.2586 540.574 95.323C541.115 95.4776 541.816 94.9817 542.222 95.4583C542.769 95.5033 543.323 95.5484 543.87 95.5935C544.43 95.5291 544.977 95.5742 545.537 95.5098C546.748 95.6128 547.829 95.922 549.027 96.1345C549.246 96.1538 549.464 96.1731 549.793 96.1989C551.132 96.0894 552.323 96.4114 553.263 97.0425C554.216 97.5641 554.582 98.4786 554.608 99.4768C554.628 100.584 554.537 101.686 554.003 102.748C553.456 104.03 552.484 105.054 551.312 105.846C550.494 106.329 549.69 106.709 548.885 107.082C548.318 107.256 547.643 107.424 547.082 107.488C545.756 107.488 544.308 107.591 542.982 107.591C542.531 107.662 542.093 107.63 541.771 107.488C540.464 107.269 539.145 107.16 537.696 107.263C537.368 107.237 537.149 107.218 536.814 107.192C536.376 107.153 535.919 107.34 535.552 107.752C534.599 108.557 533.859 109.491 533.215 110.547C532.713 111.281 532.436 111.919 532.263 112.679C531.258 115.474 530.248 118.269 529.134 121.051C528.445 122.654 527.859 124.374 527.286 125.99C526.868 127.059 526.552 128.141 526.134 129.217C525.265 131.69 523.88 135.006 521.859 136.719C521.621 136.919 521.273 137.112 521.035 137.312C519.406 138.284 517.7 138.806 516.052 138.671C514.056 138.729 512.93 137.634 512.518 135.94C512.292 134.813 512.492 133.725 512.589 132.514Z" fill="#FCB23A"/>
<path d="M556.437 135.985C556.926 133.596 557.531 131.117 558.239 128.753C559.456 124.78 560.885 120.948 562.514 116.247C566.679 105.724 570.832 95.3102 574.463 84.6198C576.536 77.9672 579.948 68.2493 588.24 68.5069C589.579 68.436 590.905 68.4682 592.135 68.3845C593.01 68.4811 593.898 68.4682 594.787 68.4554C595.115 68.494 595.444 68.5262 595.772 68.5648C597.304 68.7387 598.733 68.8933 600.253 69.1766C603.201 69.6146 605.879 70.4711 607.997 72.3709C610.843 74.6828 613.025 79.0363 613.521 82.5332C613.836 84.6777 613.798 87.0026 613.218 89.2694C613 90.2419 612.877 91.3367 612.658 92.3156C611.718 97.7574 607.553 105.286 602.815 107.978C600.401 109.704 598.09 110.56 595.328 111.468C594.864 111.636 594.607 111.945 594.452 112.37C594.175 112.891 594.111 113.439 594.15 114.109C594.317 116.569 594.394 118.906 594.562 121.366C594.71 124.045 594.961 126.737 595.231 129.32C595.328 131.439 595.424 133.557 595.289 135.76C595.218 137.415 594.909 139.16 594.169 140.854C593.474 142.11 592.559 143.34 591.137 144.177C589.714 145.014 588.375 145.091 586.984 144.602C586.778 144.467 586.463 144.325 586.257 144.19C585.439 143.546 584.615 143.005 584.029 142.277C583.128 141.401 582.703 140.242 582.388 139.096C581.924 137.267 581.815 135.257 581.692 133.358C581.583 130.35 581.815 127.265 582.034 124.297C582.22 120.652 582.401 117.013 582.697 113.381C582.767 112.724 582.478 112.357 581.956 112.08C581.847 112.067 581.519 112.028 581.287 112.119C580.617 112.157 580.019 112.531 579.523 113.033C578.184 114.102 577.199 115.989 576.478 117.464C576.053 118.301 575.615 119.254 575.171 120.201C574.9 120.613 574.733 121.154 574.45 121.676C573.497 124.232 572.441 126.776 571.707 129.358C570.832 132.256 569.686 135.567 568.173 138.175C566.847 140.133 563.937 142.361 561.413 142.084C560.319 141.962 559.443 141.865 558.626 141.221C558.42 141.086 558.214 140.95 558.008 140.822C556.849 140.248 556.179 139.289 556.218 137.956C556.295 137.299 556.366 136.642 556.437 135.985ZM585.22 99.6829C585.426 99.8182 585.645 99.8439 585.851 99.9727C586.276 100.134 586.701 100.288 587.132 100.449C588.542 100.72 589.868 100.752 591.381 100.147C593.718 99.0776 595.559 97.5062 597.021 95.3359C598.238 93.3653 599.261 91.1435 599.738 88.8702C599.931 88.1167 600.008 87.4598 599.982 86.6806C599.944 86.0108 599.68 85.4248 599.19 84.8194C598.811 84.2205 598.096 83.6988 597.472 83.2996C596.216 82.604 594.832 82.1146 593.416 81.8506C592.347 81.5092 591.214 81.7153 590.042 82.2498C589.81 82.3336 589.688 82.4302 589.553 82.6362C589.25 83.3768 588.954 84.0144 588.652 84.755C587.886 86.6677 586.997 88.677 586.07 91.0147C585.568 92.5152 585.046 94.2282 584.403 96.0443C584.345 96.5917 584.293 97.0297 584.119 97.5642C584.016 98.5495 584.499 99.1613 585.22 99.6829Z" fill="#FCB23A"/>
<path d="M607.128 139.637C607.798 137.17 608.699 134.62 609.69 132.192C611.01 129.03 612.311 125.977 613.74 122.835C614.705 120.626 615.781 118.436 616.746 116.227C618.562 112.692 620.281 109.027 621.781 105.331C624.987 96.4179 628.334 87.2988 632.39 78.7207C632.712 77.9866 633.143 77.2653 633.575 76.544C634.669 75.0242 636.118 74.2192 637.94 73.91C639.311 73.6524 640.618 73.8263 641.796 74.2063C644.455 75.1208 644.274 78.1025 643.965 80.3951C643.862 81.1615 643.65 81.9085 643.56 82.5654C643.489 83.892 643.109 85.0641 642.716 86.3457C641.532 90.1904 639.742 95.1814 637.914 98.8264C636.362 102.066 635.139 105.35 633.806 108.622C632.519 111.565 631.341 114.521 630.053 117.464C628.321 121.238 626.912 125.05 625.289 128.837C624.6 130.634 623.693 132.405 622.894 134.188C622.418 135.238 621.929 136.397 621.452 137.441C620.564 139.102 619.875 140.899 618.761 142.528C618.021 143.874 617.081 145.085 616.032 146.276C615.394 146.856 614.763 147.442 613.92 147.886C612.71 148.614 611.448 148.885 610.276 148.505C608.023 147.867 606.806 145.362 606.774 143.134C606.697 142.026 606.858 140.828 607.128 139.637Z" fill="#FCB23A"/>
<path d="M633.382 143.198C635.043 139.225 636.916 135.283 638.886 131.471C639.395 130.434 640.006 129.416 640.618 128.405C641.12 127.368 641.628 126.338 642.118 125.411C642.729 124.393 643.238 123.356 643.849 122.345C644.049 121.817 644.339 121.418 644.532 120.896C648.82 110.425 653.133 99.8439 657.639 89.4047C659.751 84.7228 664.882 77.2975 670.753 78.2571C671.86 78.3279 672.768 78.9204 673.438 79.5901C678.092 85.2702 676.373 103.212 675.247 110.064C675.208 110.283 675.157 110.612 675.227 110.843C675.556 111.565 676.097 111.655 676.966 111.127C677.687 110.798 678.215 110.328 678.755 109.742C681.195 107.128 683.345 104.236 685.695 101.493C689.217 97.0425 692.854 92.6118 696.665 88.4323C697.605 87.4663 698.545 86.5067 699.575 85.6695C700.605 84.8323 701.822 84.2527 703.071 84.1175C704.198 84.0788 705.247 83.8019 706.245 83.8534C706.914 83.8534 707.462 83.9436 708.092 84.1561C710.906 85.399 712.122 86.1589 711.53 89.7525C711.189 91.1499 710.957 92.5667 710.616 93.9578C709.393 98.6783 707.101 103.103 704.828 107.424C704.809 107.533 704.687 107.623 704.648 107.842C703.657 109.8 702.755 111.893 701.745 113.96C700.953 115.397 700.283 116.736 699.492 118.172C699.472 118.282 699.453 118.391 699.331 118.481C696.318 124.58 693.305 130.679 690.601 136.938C689.88 138.606 689.178 140.171 688.457 141.839C687.916 143.089 687.376 144.344 686.944 145.613C684.742 150.842 681.858 157.521 675.498 158.152C673.56 158.39 672.363 157.527 671.725 155.969C671.416 155.138 671.358 154.12 671.281 153.212C671.371 151.995 671.564 150.797 671.873 149.619C672.517 147.043 673.618 144.428 674.699 141.923C675.06 141.086 675.401 140.364 675.762 139.527C677.616 135.026 679.566 130.653 681.929 126.46C682.779 124.702 683.622 122.938 684.582 121.199C684.762 120.78 684.961 120.259 685.142 119.84C685.283 119.64 685.322 119.422 685.36 119.203C685.412 118.874 685.612 118.352 685.174 118.275C684.736 118.204 684.556 118.623 684.285 118.913C682.257 121.038 680.345 123.182 678.337 125.198C676.039 127.613 673.65 129.906 671.069 132.05C670.29 132.707 669.401 133.338 668.429 133.854C667.94 134.111 667.47 134.253 666.981 134.51C665.912 134.89 665.043 134.749 664.187 134.498C663.878 134.337 663.678 134.188 663.498 133.937C663.099 133.647 662.841 133.158 662.699 132.688C662.081 131.02 661.927 129.21 662.017 127.323C662.423 122.139 662.59 117.026 662.873 111.925C662.893 111.816 662.912 111.706 662.925 111.597C662.815 111.578 662.725 111.455 662.725 111.455C662.506 111.417 662.378 111.513 662.255 111.603C662.223 111.822 662.075 112.022 662.056 112.131C661.714 112.859 661.386 113.477 661.154 114.218C659.873 117.251 658.36 120.355 656.95 123.472C656.12 125.127 655.289 126.776 654.568 128.444C653.249 131.02 652.045 133.615 650.706 136.301C648.794 140.455 645.021 147.101 641.944 150.173C640.656 151.19 639.317 151.866 637.74 151.944C636.51 151.963 635.545 151.692 634.624 151.209C633.498 150.578 632.86 149.69 632.48 148.62C632.352 148.041 632.352 147.371 632.442 146.824C632.538 145.632 632.86 144.344 633.382 143.198Z" fill="#FCB23A"/>
<path d="M696.356 151.126C699.324 146.437 702.459 142 705.923 137.634C707.764 135.193 709.625 132.643 711.466 130.196C712.85 128.334 714.234 126.48 715.515 124.599C716.854 122.957 718.09 121.296 719.346 119.518C720.582 117.857 721.837 116.079 723.093 114.308C726.537 109.485 730.844 104.281 734.867 99.9148C738.376 96.4565 742.181 93.1721 747.588 94.2604C751.548 95.2779 752.082 98.2017 751.928 101.769C751.754 104.32 751.342 106.941 750.711 109.51C750.106 111.977 749.52 114.334 748.799 116.775C748.367 118.372 747.82 119.956 747.389 121.553C747.041 122.719 746.694 123.891 746.243 125.037C746.089 125.797 745.831 126.531 745.593 127.156C744.859 129.146 744.247 131.046 743.642 132.952C743.056 134.749 742.49 136.436 741.93 138.117C741.498 139.72 740.951 141.298 740.41 142.876C739.998 144.37 739.606 145.755 739.194 147.242C738.801 148.627 738.434 149.902 737.958 151.158C737.526 152.195 737.224 153.148 736.915 154.101C736.264 155.659 735.595 157.321 735.157 158.358C734.397 159.89 733.966 160.934 733.509 162.08C732.318 165.777 729.724 167.503 725.829 167.284C724.296 167.09 723.189 166.414 722.52 165.268C721.998 164.489 721.85 163.561 721.914 162.673C721.96 161.893 722.005 161.114 722.024 160.444C722.153 159.234 722.526 157.958 722.874 156.793C723.112 155.601 722.706 153.721 721.296 153.438C718.593 152.897 715.805 152.22 713.101 151.679C712.258 151.396 711.331 151.551 710.442 152.047C710.204 152.111 710.075 152.195 709.966 152.175C709.206 152.587 708.665 153.038 708.189 153.734C707.043 155.531 705.698 157.173 704.14 158.77C703.554 159.44 702.968 160.109 702.215 160.522C700.74 161.687 699.034 161.797 697.238 161.771C696.137 161.661 695.442 161.185 694.908 160.515C694.129 159.349 693.807 158.158 694.09 156.748C694.515 154.693 695.313 152.942 696.356 151.126ZM717.421 141.974C717.331 142.966 717.897 143.533 718.76 143.707C719.648 143.771 720.492 144.054 721.032 144.164C722.223 144.402 723.196 144.595 724.039 144.879C724.792 145.033 725.487 144.943 726.138 144.512C726.762 144.19 727.309 143.732 727.741 143.256C728.346 142.477 728.629 141.633 728.912 140.789C729.344 139.753 729.646 138.799 730.084 137.763C730.56 136.507 731.056 135.148 731.533 133.892C731.9 133.177 732.164 132.443 732.421 131.709C732.833 130.215 733.329 128.856 733.85 127.388C734.346 126.023 734.848 124.664 735.344 123.298C735.885 121.721 736.451 120.033 736.902 118.327C737.397 116.961 737.597 115.429 737.771 113.999C737.79 113.89 737.816 113.78 737.726 113.651C737.771 113.432 737.468 113.265 737.204 113.432C737.095 113.413 736.966 113.497 736.947 113.606C736.515 114.083 736.103 114.45 735.775 114.946C731.294 120.458 727.136 126.035 723.157 131.87C721.857 133.86 720.427 135.934 719.024 137.904C718.071 139.289 717.575 140.654 717.421 141.974Z" fill="#FCB23A"/>
<path d="M744.389 164.289C745.239 162.112 746.172 160.064 747.112 158.016C747.685 157.018 748.046 155.969 748.49 155.054C749.295 153.547 749.971 152.117 750.672 150.585C752.417 147.03 754.265 143.501 756.222 139.991C756.795 138.993 757.368 137.994 757.947 136.996C758.127 136.7 758.34 136.294 758.546 135.889C759.402 134.163 760.477 132.488 761.443 130.795C763.773 127.15 765.936 123.24 767.971 119.415C768.775 117.908 769.612 116.292 770.527 114.804C771.048 114.018 771.467 113.213 771.859 112.511C772.69 110.895 773.391 109.362 774.331 107.772C775.323 105.968 777.505 103.418 779.417 102.51C781.355 101.493 783.17 101.467 784.922 102.22C786.376 102.787 787.246 103.901 787.877 105.067C788.237 105.943 788.462 106.902 788.688 107.862C788.919 109.279 788.913 110.747 788.932 112.112C788.733 118.752 787.992 125.263 787.123 131.851C787.059 133.081 787.13 134.234 787.31 135.406C787.259 135.618 787.426 135.889 787.477 136.127C787.561 136.262 787.638 136.391 787.883 136.333C788.121 136.275 788.282 136.088 788.411 136.005C788.572 135.818 788.726 135.625 788.804 135.303C789.505 133.77 790.181 132.34 790.883 130.807C791.456 129.809 791.926 128.785 792.389 127.761C793.246 126.035 793.973 124.393 794.829 122.674C796.613 118.449 799.201 114.186 802.175 110.695C802.832 109.832 803.81 109.04 804.847 108.493C807.074 107.205 809.456 107.198 811.233 108.3C811.909 108.796 812.45 109.382 812.971 110.071C813.544 110.998 813.75 112.067 813.576 113.271C813.332 114.798 812.978 116.305 812.166 117.812C810.396 121.476 808.439 124.979 806.379 128.457C804.679 131.342 803.224 134.169 801.737 137.106C800.881 138.832 800.018 140.551 799.053 142.251C797.565 144.731 796.265 147.371 794.855 149.986C793.947 151.924 792.956 153.734 792.074 155.563C788.804 162.724 785.533 169.885 780.969 176.287C779.623 177.671 778.052 178.09 776.256 178.013C775.239 178 774.299 177.665 773.649 177.06C771.209 174.902 770.243 172.745 770.655 169.557C770.823 166.427 771.209 163.342 771.73 160.18C772.175 157.34 772.509 154.468 772.6 151.66C772.696 148.852 772.921 145.961 773.256 143.089C773.327 142.309 773.153 141.594 772.722 141.034C772.638 140.899 772.426 140.854 772.291 140.931C771.866 141.285 771.55 141.665 771.235 142.045C769.168 145.523 767.321 149.052 765.557 152.716C763.22 157.83 760.754 163.027 757.799 167.883C757.297 168.559 756.801 169.235 756.112 169.75C755.559 170.188 755.108 170.645 754.638 171.218C753.589 172.783 751.651 173.801 749.777 173.588C748.252 173.344 746.88 172.906 745.741 171.959C744.608 171.012 743.868 169.821 743.765 168.32C743.649 166.949 743.848 165.635 744.389 164.289Z" fill="#FCB23A"/>
<path d="M386.704 143.456C385.294 143.456 384.154 142.316 384.148 140.905C384.141 138.6 382.255 136.719 379.944 136.719C377.633 136.719 375.753 138.6 375.74 140.905C375.733 142.316 374.588 143.456 373.184 143.456C373.178 143.456 373.178 143.456 373.171 143.456C371.761 143.449 370.615 142.303 370.622 140.886C370.641 135.766 374.819 131.6 379.937 131.6C385.055 131.6 389.234 135.766 389.253 140.886C389.259 142.296 388.12 143.449 386.704 143.456C386.704 143.456 386.71 143.456 386.704 143.456Z" fill="#1C1C1C"/>
<path d="M459.032 143.456C457.623 143.456 456.483 142.316 456.477 140.905C456.47 138.6 454.584 136.719 452.273 136.719C449.968 136.719 448.082 138.6 448.069 140.905C448.062 142.316 446.917 143.456 445.513 143.456C445.513 143.456 445.507 143.456 445.5 143.456C444.09 143.449 442.944 142.303 442.951 140.886C442.97 135.766 447.148 131.6 452.266 131.6C457.384 131.6 461.563 135.766 461.582 140.886C461.588 142.296 460.449 143.449 459.032 143.456C459.032 143.456 459.039 143.456 459.032 143.456Z" fill="#1C1C1C"/>
<path d="M218.496 251.073C218.496 251.684 218.731 252.154 219.154 252.577C219.436 252.812 219.765 252.953 220.235 252.906C220.987 252.765 221.692 252.577 222.209 251.966C222.491 251.731 222.679 251.402 222.867 251.073C223.384 250.274 223.807 249.475 224.136 248.629C224.277 248.347 224.465 248.065 224.747 247.83C224.794 247.83 224.841 247.783 224.935 247.736C225.264 247.454 225.64 247.313 226.016 247.36C227.191 247.36 228.413 247.407 229.588 247.407C230.199 247.407 230.528 248.159 230.528 248.676C230.481 249.193 230.434 249.757 230.481 250.274C230.528 250.556 230.575 250.885 230.622 251.214C230.669 251.59 230.81 251.966 231.092 252.248C231.468 252.671 231.985 252.859 232.643 252.812C234.288 252.577 235.228 251.637 235.416 249.992C235.51 249.475 235.604 249.005 235.792 248.3C235.886 247.83 236.027 247.078 236.168 246.373C236.215 245.95 236.262 245.527 236.356 245.057C236.45 244.493 236.497 243.929 236.544 243.318C236.591 242.66 236.638 242.049 236.685 241.391C236.779 240.686 236.873 239.981 236.92 239.276C237.014 238.524 237.108 237.772 237.202 236.973C237.296 236.127 237.39 235.281 237.531 234.388C237.578 234.106 237.625 233.777 237.625 233.448C237.719 232.931 237.766 232.414 237.813 231.897C237.86 231.192 237.954 230.487 238.001 229.782C238.095 228.701 238.142 227.667 238.189 226.586C238.236 225.458 238.189 224.33 238.048 223.249C237.813 221.745 237.343 220.57 235.604 220.476C233.254 220.476 231.938 222.168 230.763 223.907C229.447 226.069 228.084 228.607 227.05 230.91C226.674 231.756 226.298 232.602 225.922 233.401C225.546 234.247 225.17 235.046 224.747 235.845C224.371 236.738 223.948 237.631 223.525 238.524C222.961 239.699 222.397 240.921 221.833 242.096C220.752 244.211 219.812 246.326 218.966 248.535C218.684 249.381 218.496 250.18 218.496 251.073ZM227.332 241.109C227.755 240.169 228.178 239.182 228.554 238.242C229.729 235.469 230.998 232.79 232.408 230.111C232.502 229.876 232.643 229.688 232.784 229.453C232.784 229.406 232.831 229.359 232.878 229.359C232.972 229.265 233.113 229.312 233.113 229.406C233.16 229.453 233.16 229.5 233.16 229.547C233.207 230.158 233.254 230.816 233.16 231.427C233.113 232.179 233.019 232.931 232.925 233.636C232.831 234.247 232.737 234.858 232.643 235.469C232.549 236.127 232.455 236.738 232.408 237.396C232.361 237.725 232.314 238.054 232.22 238.383C232.126 238.947 232.032 239.558 231.938 240.122C231.844 240.592 231.797 241.015 231.703 241.485C231.656 241.861 231.609 242.237 231.421 242.613C231.28 242.848 231.092 243.083 230.857 243.271C230.622 243.506 230.34 243.6 230.011 243.6C229.635 243.553 229.212 243.553 228.695 243.553C228.46 243.553 228.084 243.506 227.708 243.553C227.332 243.553 227.05 243.365 227.003 242.942C226.956 242.378 227.05 241.767 227.332 241.109ZM240.432 251.778C240.62 252.389 241.043 252.812 241.607 253.094C242.171 253.376 242.782 253.423 243.44 253.376C244.239 253.282 244.944 252.671 245.226 251.919C245.367 251.637 245.508 251.402 245.696 251.167C245.931 250.885 246.072 250.556 246.213 250.227C246.965 247.924 247.482 245.527 247.952 243.177C248.328 241.485 248.751 239.84 249.268 238.195C249.362 238.007 249.456 237.819 249.597 237.631C249.644 237.584 249.738 237.584 249.785 237.631C250.02 237.819 250.161 238.101 250.208 238.43C250.349 239.652 250.537 240.874 250.772 242.049C251.007 243.224 251.148 244.446 251.242 245.668C251.336 247.031 251.477 248.347 251.712 249.663C251.853 251.026 252.464 251.825 253.686 252.483C254.015 252.671 254.438 252.718 254.861 252.624C255.613 252.483 256.224 252.154 256.647 251.449C257.916 248.347 258.574 245.057 259.232 241.767C259.42 240.921 259.655 240.075 259.843 239.182C260.172 237.96 260.454 236.738 260.83 235.563C261.065 234.764 261.253 233.965 261.441 233.166C261.77 231.803 262.099 230.487 262.522 229.124C263.039 227.479 263.509 225.834 263.885 224.142C264.073 223.437 264.073 222.779 264.026 222.121C263.979 221.604 263.791 221.181 263.462 220.852C263.18 220.617 262.898 220.429 262.569 220.288C261.723 220.006 260.736 220.241 259.937 220.993C259.561 221.322 259.232 221.745 259.044 222.168C258.151 223.907 257.493 225.928 257.164 227.855C256.976 228.654 256.835 229.406 256.647 230.205C256.553 230.675 256.459 231.145 256.318 231.615C256.177 232.32 256.036 232.978 255.895 233.683C255.895 233.824 255.848 233.918 255.801 234.012C255.754 234.059 255.707 234.153 255.613 234.2C255.519 234.247 255.472 234.2 255.425 234.153C255.378 234.059 255.284 233.965 255.284 233.871C255.096 233.401 254.955 232.931 254.861 232.414C254.579 229.594 254.25 226.821 253.686 224.048C253.545 223.484 253.404 222.873 253.169 222.309C252.981 221.933 252.793 221.557 252.558 221.228C252.182 220.805 251.712 220.429 251.054 220.335C250.255 220.194 249.503 220.382 248.798 220.993C248.093 221.557 247.435 222.826 247.2 223.672C246.965 224.424 246.824 225.129 246.636 225.881C246.542 226.21 246.448 226.586 246.307 226.962C246.072 227.667 245.884 228.419 245.696 229.124C245.226 230.91 244.709 232.743 244.098 234.482C243.863 235.281 243.581 236.08 243.393 236.879C243.346 237.067 243.299 237.255 243.252 237.396C243.111 237.866 242.97 238.336 242.829 238.806C242.359 240.451 241.936 242.096 241.56 243.741C241.419 244.446 241.278 245.104 241.09 245.809C240.996 246.232 240.949 246.702 240.808 247.172C240.62 248.112 240.432 249.052 240.291 250.039C240.197 250.65 240.244 251.214 240.432 251.778ZM263.377 250.932C263.518 251.872 264.176 252.859 265.163 253C265.68 253.094 266.197 252.906 266.667 252.53C266.996 252.295 267.231 252.013 267.466 251.731C267.842 251.167 268.171 250.603 268.406 249.992C268.782 249.24 268.97 248.441 269.252 247.689C269.393 247.219 269.534 246.702 269.675 246.232C269.91 245.433 270.192 244.634 270.38 243.835C270.85 242.143 271.226 240.451 271.743 238.759C272.119 237.443 272.448 236.127 272.824 234.811C273.2 233.354 273.529 231.897 273.999 230.44C274.563 228.795 275.033 226.586 275.315 224.894C275.409 224.33 275.503 223.813 275.456 223.249C275.456 222.967 275.503 222.638 275.503 222.309C275.503 221.322 275.409 220.053 274.234 219.818C273.717 219.724 273.153 219.724 272.589 219.912C271.837 220.147 271.273 220.57 270.897 221.275C270.756 221.604 270.615 221.933 270.521 222.262C269.299 226.116 268.406 230.158 267.56 234.106C267.137 235.751 266.62 237.396 266.056 238.994C265.774 239.981 265.445 240.968 265.163 241.955C264.74 243.365 264.364 244.728 263.988 246.138C263.706 247.219 263.471 248.347 263.33 249.428C263.283 249.945 263.283 250.462 263.377 250.932ZM274.612 251.167C274.612 251.402 274.659 251.684 274.753 251.919C274.988 252.342 275.317 252.671 275.834 252.859C276.257 253 276.68 253.047 277.197 252.953C277.855 252.812 278.372 252.436 278.842 251.919C279.923 250.415 281.051 247.36 281.568 245.48C281.944 244.258 282.273 243.083 282.649 241.908C282.837 241.156 283.072 240.404 283.307 239.652C283.683 238.242 284.106 236.832 284.435 235.469C284.482 235.14 284.576 234.858 284.67 234.529C284.67 234.482 284.717 234.388 284.717 234.294C284.764 234.247 284.811 234.2 284.905 234.2C284.905 234.2 284.952 234.247 284.999 234.247C284.999 234.294 284.999 234.341 284.999 234.388C285.234 236.55 285.516 238.712 285.704 240.921C285.798 241.72 285.986 242.472 286.362 243.13C286.456 243.318 286.597 243.506 286.785 243.6C286.879 243.694 286.973 243.741 287.114 243.788C287.49 243.835 287.866 243.835 288.289 243.6C288.477 243.459 288.665 243.365 288.853 243.224C289.229 242.942 289.558 242.613 289.84 242.284C290.78 241.203 291.626 240.075 292.425 238.9C293.13 237.913 293.788 236.879 294.493 235.845C294.587 235.704 294.634 235.516 294.822 235.516C295.01 235.516 294.963 235.751 294.963 235.892C294.963 235.986 294.963 236.08 294.916 236.174C294.869 236.362 294.822 236.597 294.775 236.785C294.493 237.584 294.258 238.383 294.023 239.182C293.318 241.109 292.801 243.083 292.331 245.104C292.237 245.48 292.143 245.809 292.049 246.185C291.767 247.313 291.485 248.488 291.391 249.616C291.344 250.133 291.344 250.65 291.391 251.167C291.485 251.543 291.579 251.966 291.767 252.295C292.143 252.906 292.707 253.188 293.506 252.953C296.138 252.248 296.89 249.24 297.454 246.89C297.548 246.326 297.689 245.762 297.83 245.198C298.018 244.446 298.206 243.741 298.394 242.989C299.099 240.169 299.945 237.396 300.791 234.623C300.838 234.576 300.838 234.529 300.838 234.482C301.073 233.824 301.261 233.213 301.496 232.555C301.778 231.615 302.013 230.675 302.295 229.782C302.295 229.688 302.342 229.641 302.342 229.594C303 227.62 303.658 225.599 303.846 223.531C303.893 222.92 303.893 222.309 303.94 221.698C303.94 220.147 303.376 219.912 302.107 219.583C301.825 219.536 301.59 219.536 301.308 219.583C300.885 219.63 300.462 219.818 299.992 219.912C299.475 220.053 299.005 220.382 298.629 220.805C298.253 221.228 297.924 221.698 297.595 222.168C296.279 224.189 295.057 226.304 293.882 228.419C293.083 229.735 292.378 231.098 291.532 232.367C291.344 232.649 291.156 232.884 290.874 233.072C290.545 233.354 290.31 233.354 290.122 233.072C290.075 232.978 290.075 232.837 290.075 232.743C290.075 229.782 289.558 222.121 287.208 220.053C286.879 219.818 286.456 219.63 285.986 219.677C283.448 219.677 281.803 223.155 281.239 225.27C280.064 229.97 278.983 234.717 277.902 239.417C277.855 239.652 277.761 239.84 277.714 240.075C277.526 240.545 277.385 241.015 277.197 241.485C277.056 241.908 276.915 242.378 276.774 242.848C276.586 243.318 276.398 243.788 276.257 244.258C275.693 245.997 275.176 247.783 274.753 249.569C274.612 250.086 274.565 250.65 274.612 251.167ZM301.434 251.073C301.434 251.684 301.669 252.154 302.092 252.577C302.374 252.812 302.703 252.953 303.173 252.906C303.925 252.765 304.63 252.577 305.147 251.966C305.429 251.731 305.617 251.402 305.805 251.073C306.322 250.274 306.745 249.475 307.074 248.629C307.215 248.3 307.403 248.065 307.685 247.83C307.732 247.83 307.779 247.783 307.873 247.736C308.202 247.454 308.578 247.313 308.954 247.36C310.129 247.36 311.351 247.407 312.526 247.407C313.137 247.407 313.466 248.159 313.466 248.676C313.419 249.193 313.372 249.757 313.419 250.274C313.466 250.556 313.513 250.885 313.56 251.214C313.607 251.59 313.748 251.966 314.03 252.248C314.406 252.671 314.923 252.859 315.581 252.812C317.226 252.577 318.166 251.637 318.354 249.992C318.448 249.475 318.542 249.005 318.73 248.3C318.824 247.83 318.965 247.078 319.106 246.373C319.153 245.95 319.2 245.527 319.294 245.057C319.388 244.493 319.435 243.929 319.482 243.318C319.529 242.66 319.576 242.049 319.623 241.391C319.717 240.686 319.811 239.981 319.858 239.276C319.952 238.524 320.046 237.772 320.14 236.973C320.234 236.127 320.328 235.281 320.469 234.388C320.516 234.106 320.563 233.777 320.563 233.448C320.657 232.931 320.704 232.414 320.751 231.897C320.798 231.192 320.892 230.487 320.939 229.782C321.033 228.701 321.08 227.667 321.127 226.586C321.174 225.458 321.127 224.33 320.986 223.249C320.751 221.745 320.281 220.57 318.542 220.476C316.192 220.476 314.876 222.168 313.701 223.907C312.385 226.069 311.022 228.607 309.988 230.91C309.612 231.756 309.236 232.602 308.86 233.401C308.484 234.247 308.108 235.046 307.685 235.845C307.309 236.738 306.886 237.631 306.463 238.524C305.899 239.699 305.335 240.921 304.771 242.096C303.69 244.211 302.75 246.326 301.904 248.535C301.622 249.381 301.434 250.18 301.434 251.073ZM310.27 241.109C310.693 240.169 311.116 239.182 311.492 238.242C312.667 235.469 313.936 232.79 315.346 230.111C315.44 229.876 315.581 229.688 315.722 229.453C315.722 229.406 315.769 229.359 315.816 229.359C315.91 229.265 316.051 229.312 316.051 229.406C316.098 229.453 316.098 229.5 316.098 229.547C316.145 230.158 316.192 230.816 316.098 231.427C316.051 232.179 315.957 232.931 315.863 233.636C315.769 234.247 315.675 234.858 315.581 235.469C315.487 236.127 315.393 236.738 315.346 237.396C315.299 237.725 315.252 238.054 315.158 238.383C315.064 238.947 314.97 239.558 314.876 240.122C314.782 240.592 314.735 241.015 314.641 241.485C314.594 241.861 314.547 242.237 314.359 242.613C314.218 242.848 314.03 243.083 313.795 243.271C313.56 243.506 313.278 243.6 312.949 243.6C312.573 243.553 312.15 243.553 311.633 243.553C311.398 243.553 311.022 243.506 310.646 243.553C310.27 243.553 309.988 243.365 309.941 242.942C309.894 242.378 309.988 241.767 310.27 241.109ZM326.076 224.847C326.17 225.176 326.358 225.458 326.64 225.599C326.781 225.693 326.969 225.74 327.157 225.787C327.674 225.975 328.285 226.022 328.896 226.069C329.695 226.116 330.541 226.116 331.34 226.163C331.528 226.163 331.669 226.21 331.81 226.351C331.857 226.398 331.904 226.492 331.951 226.539C332.045 226.633 332.092 226.774 331.998 226.915C331.998 226.962 331.998 227.009 331.998 227.056C331.481 228.795 331.105 230.534 330.588 232.273C330.4 232.931 330.212 233.589 330.024 234.2C329.789 235.093 329.507 236.033 329.272 236.926C328.285 240.122 327.439 243.412 326.734 246.702C326.546 247.36 326.452 248.018 326.311 248.723C326.217 249.146 326.17 249.569 326.076 249.992C326.029 250.321 326.029 250.65 326.029 250.932C326.029 251.731 326.123 252.483 326.922 252.812C327.392 252.953 327.909 252.906 328.473 252.671C329.648 252.154 330.494 251.308 331.058 250.18C331.434 249.287 331.716 248.394 331.904 247.454C332.28 245.809 332.656 244.211 333.032 242.566C333.314 241.438 333.596 240.31 333.831 239.229H333.878C334.113 238.148 334.348 237.114 334.583 236.08C334.912 234.764 335.194 233.448 335.57 232.132C336.04 230.581 336.463 228.983 336.886 227.432C336.933 227.291 336.933 227.15 336.98 227.056C337.027 226.821 337.168 226.633 337.356 226.492C337.544 226.398 337.685 226.351 337.873 226.351C338.249 226.351 338.578 226.351 338.907 226.351C339.565 226.351 340.223 226.304 340.928 226.116C341.022 226.069 341.116 226.069 341.257 226.069C343.043 225.881 344.406 225.035 344.594 223.155C344.641 222.638 344.5 222.168 344.124 221.886C343.936 221.698 343.748 221.604 343.466 221.51C342.667 221.369 341.962 221.275 341.116 221.275C340.975 221.228 340.834 221.228 340.693 221.228C340.411 221.134 340.129 221.134 339.847 221.181C339.471 221.228 339.142 221.228 338.766 221.228C338.531 221.275 338.296 221.228 338.061 221.275C337.497 221.369 336.886 221.463 336.322 221.416C336.181 221.416 336.04 221.416 335.899 221.416C335.006 221.51 334.113 221.416 333.267 221.322C332.938 221.275 332.609 221.228 332.28 221.228C331.904 221.275 331.575 221.228 331.246 221.275C330.917 221.275 330.635 221.275 330.353 221.275C330.212 221.322 330.071 221.322 329.883 221.275C329.413 221.228 328.943 221.228 328.379 221.463C328.238 221.51 328.097 221.557 327.956 221.604C327.674 221.698 327.392 221.839 327.157 222.121C326.922 222.309 326.687 222.591 326.499 222.826C326.264 223.061 326.17 223.296 326.076 223.578C325.935 224.048 325.982 224.471 326.076 224.847ZM341.939 245.856C342.033 246.749 342.127 247.689 342.362 248.535C342.456 248.958 342.644 249.334 342.832 249.663C342.973 249.851 343.114 250.039 343.161 250.274C343.396 250.932 343.772 251.449 344.195 251.919C344.571 252.295 344.947 252.624 345.464 252.859C346.263 253.282 347.156 253.517 348.143 253.517C351.433 253.517 352.279 252.859 354.676 251.026C355.146 250.65 355.616 250.321 355.992 249.851C358.389 247.454 360.598 242.519 361.397 239.276C361.679 238.524 361.82 237.772 362.008 237.02C362.149 236.315 362.243 235.61 362.384 234.952C362.619 233.965 362.76 232.978 362.854 231.991C362.948 230.957 362.995 229.97 362.854 228.983C362.76 228.184 362.666 227.338 362.572 226.492C362.337 224.048 360.833 221.557 358.389 220.805C357.966 220.711 357.496 220.617 357.026 220.57C356.462 220.523 355.851 220.523 355.24 220.57C354.3 220.711 353.36 221.04 352.467 221.604C352.091 221.839 351.715 222.074 351.339 222.309C349.647 223.343 348.378 224.988 347.391 226.633C347.109 227.103 346.827 227.62 346.451 228.09C346.357 228.278 346.263 228.466 346.169 228.607C345.558 229.782 344.712 231.474 344.383 232.79C344.195 233.166 344.054 233.589 343.913 234.012C343.772 234.482 343.584 234.952 343.443 235.422C343.114 236.409 342.926 237.443 342.738 238.477H342.691C342.597 238.994 342.456 239.464 342.362 239.934C342.268 240.451 342.221 240.968 342.127 241.438C342.08 242.002 341.986 242.519 341.986 243.083C341.892 244.023 341.892 244.916 341.939 245.856ZM347.532 241.485C347.673 240.31 347.814 239.229 348.096 238.101C348.143 237.725 348.237 237.396 348.331 237.02C348.519 236.362 348.66 235.704 348.848 235.093C349.036 234.529 349.224 233.965 349.412 233.401C349.506 233.072 349.647 232.79 349.741 232.461C350.446 230.44 351.621 228.466 353.078 226.868C353.642 226.398 354.206 226.069 354.864 225.928C355.24 225.881 355.569 225.928 355.898 226.022C357.308 226.492 357.543 228.513 357.543 229.782C357.308 232.743 356.697 235.516 356.039 238.383C355.898 238.853 355.71 239.323 355.522 239.793C354.864 242.425 353.219 245.339 351.057 247.078C350.822 247.219 350.634 247.313 350.446 247.454C350.164 247.595 349.882 247.689 349.6 247.689C348.895 247.689 348.425 247.031 348.19 246.467C347.908 245.997 347.767 245.48 347.673 244.916C347.579 244.352 347.532 243.788 347.438 243.224C347.391 242.66 347.485 242.049 347.532 241.485ZM364.084 251.167C364.131 251.731 364.46 252.107 364.977 252.295C365.071 252.342 365.165 252.389 365.259 252.436C365.635 252.671 366.011 252.671 366.481 252.671C367.562 252.671 368.69 251.59 369.16 250.697C369.677 249.522 370.006 248.065 370.241 246.796C370.429 245.668 370.758 244.54 371.04 243.412C371.134 243.177 371.181 242.942 371.275 242.754C371.416 242.331 371.557 241.908 371.698 241.532C371.933 240.874 372.262 240.028 372.779 239.511C372.967 239.276 373.202 239.088 373.484 239.041C373.578 238.994 373.719 238.994 373.766 238.994C374.001 239.088 374.142 239.229 374.142 239.511C374.189 241.062 374.283 242.613 374.377 244.164C374.424 245.433 374.471 246.749 374.659 248.018C374.8 248.817 374.941 249.663 375.223 250.415C375.411 250.885 375.646 251.355 376.069 251.684C376.351 251.966 376.727 252.154 377.103 252.389C377.197 252.436 377.338 252.483 377.432 252.53C378.043 252.671 378.607 252.577 379.171 252.154C379.735 251.731 380.064 251.167 380.299 250.603C380.534 249.851 380.581 249.099 380.534 248.394C380.487 247.454 380.346 246.561 380.205 245.668C379.97 244.587 379.735 243.459 379.547 242.331C379.359 241.297 379.218 240.31 379.03 239.276C378.983 238.994 378.983 238.759 379.077 238.524C379.124 238.336 379.218 238.195 379.406 238.101C380.534 237.584 381.474 237.114 382.414 236.268C384.294 234.905 385.704 231.521 385.845 229.171C385.892 228.748 385.892 228.278 385.939 227.855C386.08 226.868 385.986 225.881 385.751 224.988C385.375 223.531 384.247 221.792 382.931 220.946C381.944 220.241 380.769 220.006 379.5 219.959C378.842 219.912 378.231 219.912 377.573 219.912C377.432 219.912 377.291 219.912 377.15 219.912C376.774 219.959 376.398 220.006 376.022 220.006C375.505 220.1 374.941 220.147 374.377 220.241C370.852 220.523 369.865 224.8 369.301 227.714C368.267 232.414 366.998 237.02 365.729 241.673C365.259 243.741 364.836 245.433 364.507 247.172C364.319 248.206 364.178 249.287 364.084 250.321C364.084 250.603 364.084 250.885 364.084 251.167ZM374.001 232.743C374.048 232.508 374.048 232.32 374.048 232.085C374.236 231.286 374.377 230.534 374.518 229.876C374.8 228.842 375.082 227.949 375.317 227.103C375.411 226.774 375.505 226.492 375.599 226.163C375.646 226.069 375.693 226.022 375.787 225.975C376.257 225.693 376.727 225.552 377.197 225.646C377.808 225.693 378.419 225.834 378.983 226.069C379.265 226.21 379.594 226.398 379.782 226.633C380.017 226.868 380.158 227.103 380.205 227.385C380.252 227.714 380.252 227.996 380.205 228.325C380.111 229.312 379.782 230.299 379.359 231.192C378.842 232.179 378.137 232.931 377.197 233.495C376.586 233.824 376.022 233.871 375.411 233.824C375.223 233.777 375.035 233.73 374.847 233.683C374.753 233.636 374.659 233.636 374.565 233.589C374.236 233.401 374.001 233.166 374.001 232.743ZM430.675 251.825C430.91 252.53 431.427 252.953 432.273 252.859C432.978 252.859 433.683 252.577 434.341 252.107C434.435 252.013 434.576 251.919 434.67 251.825C435.469 251.026 435.939 249.569 436.221 248.488C436.362 248.018 436.456 247.548 436.597 247.078C436.785 246.373 436.973 245.621 437.208 244.916C437.584 243.694 437.913 242.472 438.242 241.25C438.289 240.921 438.383 240.639 438.571 240.31C438.806 239.84 439.088 239.417 439.464 239.041C439.605 238.853 439.793 238.759 439.981 238.759C440.122 238.759 440.216 238.759 440.357 238.759C440.968 238.665 441.532 238.665 442.096 238.712C442.237 238.759 442.425 238.759 442.613 238.712C443.177 238.665 443.788 238.571 444.352 238.524C444.587 238.477 444.869 238.383 445.104 238.289C445.433 238.101 445.762 237.913 446.091 237.678C446.561 237.302 446.937 236.832 447.125 236.268C447.313 235.798 447.313 235.328 447.266 234.858C447.219 234.435 447.031 234.059 446.608 233.871C446.185 233.636 445.668 233.542 445.104 233.636C444.963 233.636 444.869 233.636 444.775 233.636C444.258 233.589 443.788 233.495 443.271 233.495C443.036 233.542 442.801 233.542 442.566 233.589C442.331 233.589 442.096 233.589 441.861 233.589C441.673 233.401 441.391 233.636 441.156 233.589C440.827 233.589 440.545 233.589 440.545 233.166C440.498 232.884 440.498 232.602 440.545 232.32C440.592 232.085 440.686 231.85 440.686 231.615C440.874 230.393 441.626 227.338 442.519 226.445C442.895 226.163 443.271 225.975 443.694 225.975C444.305 225.975 444.916 225.975 445.527 225.975C446.044 225.928 446.467 226.022 446.937 226.069C447.689 226.21 448.488 226.163 449.287 225.975C449.851 225.881 450.321 225.599 450.791 225.176C450.885 225.082 450.979 224.988 451.073 224.894C451.449 224.565 451.825 223.766 451.919 223.296C452.107 222.497 451.919 221.886 451.449 221.416C451.026 220.993 450.509 220.711 449.898 220.57C449.616 220.523 449.334 220.476 449.099 220.429C448.723 220.382 448.347 220.335 447.924 220.288C446.655 220.288 445.48 220.288 444.211 220.382C443.553 220.429 442.942 220.382 442.284 220.382C441.861 220.382 441.485 220.476 441.062 220.617C440.968 220.664 440.874 220.664 440.78 220.664C439.887 220.805 439.229 220.946 438.665 221.745C438.383 222.074 438.148 222.45 438.007 222.873C437.772 223.437 437.584 224.001 437.349 224.565C437.114 225.27 436.926 226.022 436.691 226.727C436.362 227.808 436.08 228.842 435.798 229.876C435.375 231.474 434.999 233.072 434.576 234.67C433.824 237.772 433.119 240.874 432.226 243.929C431.991 244.728 431.756 245.527 431.474 246.326C431.004 247.595 430.722 249.005 430.581 250.368C430.581 250.885 430.534 251.355 430.675 251.825ZM449.22 250.932C449.361 251.872 450.019 252.859 451.006 253C451.523 253.094 452.04 252.906 452.51 252.53C452.839 252.295 453.074 252.013 453.309 251.731C453.685 251.167 454.014 250.603 454.249 249.992C454.625 249.24 454.813 248.441 455.095 247.689C455.236 247.219 455.377 246.702 455.518 246.232C455.753 245.433 456.035 244.634 456.223 243.835C456.693 242.143 457.069 240.451 457.586 238.759C457.962 237.443 458.291 236.127 458.667 234.811C459.043 233.354 459.372 231.897 459.842 230.44C460.406 228.795 460.876 226.586 461.158 224.894C461.252 224.33 461.346 223.813 461.299 223.249C461.299 222.967 461.346 222.638 461.346 222.309C461.346 221.322 461.252 220.053 460.077 219.818C459.56 219.724 458.996 219.724 458.432 219.912C457.68 220.147 457.116 220.57 456.74 221.275C456.599 221.604 456.458 221.933 456.364 222.262C455.142 226.116 454.249 230.158 453.403 234.106C452.98 235.751 452.463 237.396 451.899 238.994C451.617 239.981 451.288 240.968 451.006 241.955C450.583 243.365 450.207 244.728 449.831 246.138C449.549 247.219 449.314 248.347 449.173 249.428C449.126 249.945 449.126 250.462 449.22 250.932ZM468.774 252.953C469.761 253 470.795 253.047 471.829 253C472.252 253 472.722 252.906 473.145 252.859C473.615 252.765 474.038 252.671 474.508 252.577C474.978 252.53 475.495 252.389 475.965 252.154C476.294 251.966 476.576 251.778 476.811 251.543C477.422 250.838 477.845 250.133 477.986 249.287C478.033 249.005 478.033 248.723 477.939 248.441C477.563 247.407 476.576 247.172 475.636 247.078C475.354 247.078 475.025 247.078 474.743 247.078C474.132 247.125 473.568 247.125 472.957 247.172C472.628 247.172 472.252 247.219 471.923 247.219C471.782 247.219 471.594 247.219 471.453 247.219C470.889 247.219 470.325 247.172 469.761 247.078C469.432 246.984 469.056 246.843 468.774 246.655C468.445 246.467 468.257 246.138 468.304 245.668C468.304 245.057 468.398 244.446 468.539 243.788C468.633 243.083 468.821 242.331 468.962 241.626C469.385 240.028 469.855 238.43 470.325 236.832C470.701 235.469 471.077 234.106 471.453 232.743L471.5 232.555C471.782 231.568 472.111 230.581 472.393 229.594C472.534 229.171 472.581 228.795 472.675 228.513C473.004 227.338 473.474 225.646 473.474 224.377C473.521 223.813 473.615 223.202 473.709 222.638C473.803 221.933 473.615 221.463 473.098 221.087C472.769 220.852 472.393 220.711 471.923 220.57C471.594 220.476 471.218 220.523 470.842 220.617C470.043 220.852 469.479 221.463 468.962 222.074C468.727 222.356 468.586 222.638 468.398 222.92C467.74 224.048 467.27 225.223 466.894 226.398C466.847 226.633 466.8 226.868 466.706 227.103C466.471 227.714 466.33 228.325 466.189 228.936C465.766 230.534 465.39 232.085 464.967 233.683C464.826 234.341 464.638 234.999 464.403 235.657C463.698 237.725 463.04 239.793 462.523 241.908C462.288 242.801 462.1 243.694 461.865 244.54C461.865 244.634 461.818 244.681 461.818 244.775C461.724 245.433 461.583 246.091 461.489 246.749C461.348 247.36 461.301 248.018 461.301 248.676C461.301 252.671 465.719 252.953 468.774 252.953ZM480.742 251.167C480.742 251.402 480.789 251.684 480.883 251.919C481.118 252.342 481.447 252.671 481.964 252.859C482.387 253 482.81 253.047 483.327 252.953C483.985 252.812 484.502 252.436 484.972 251.919C486.053 250.415 487.181 247.36 487.698 245.48C488.074 244.258 488.403 243.083 488.779 241.908C488.967 241.156 489.202 240.404 489.437 239.652C489.813 238.242 490.236 236.832 490.565 235.469C490.612 235.14 490.706 234.858 490.8 234.529C490.8 234.482 490.847 234.388 490.847 234.294C490.894 234.247 490.941 234.2 491.035 234.2C491.035 234.2 491.082 234.247 491.129 234.247C491.129 234.294 491.129 234.341 491.129 234.388C491.364 236.55 491.646 238.712 491.834 240.921C491.928 241.72 492.116 242.472 492.492 243.13C492.586 243.318 492.727 243.506 492.915 243.6C493.009 243.694 493.103 243.741 493.244 243.788C493.62 243.835 493.996 243.835 494.419 243.6C494.607 243.459 494.795 243.365 494.983 243.224C495.359 242.942 495.688 242.613 495.97 242.284C496.91 241.203 497.756 240.075 498.555 238.9C499.26 237.913 499.918 236.879 500.623 235.845C500.717 235.704 500.764 235.516 500.952 235.516C501.14 235.516 501.093 235.751 501.093 235.892C501.093 235.986 501.093 236.08 501.046 236.174C500.999 236.362 500.952 236.597 500.905 236.785C500.623 237.584 500.388 238.383 500.153 239.182C499.448 241.109 498.931 243.083 498.461 245.104C498.367 245.48 498.273 245.809 498.179 246.185C497.897 247.313 497.615 248.488 497.521 249.616C497.474 250.133 497.474 250.65 497.521 251.167C497.615 251.543 497.709 251.966 497.897 252.295C498.273 252.906 498.837 253.188 499.636 252.953C502.268 252.248 503.02 249.24 503.584 246.89C503.678 246.326 503.819 245.762 503.96 245.198C504.148 244.446 504.336 243.741 504.524 242.989C505.229 240.169 506.075 237.396 506.921 234.623C506.968 234.576 506.968 234.529 506.968 234.482C507.203 233.824 507.391 233.213 507.626 232.555C507.908 231.615 508.143 230.675 508.425 229.782C508.425 229.688 508.472 229.641 508.472 229.594C509.13 227.62 509.788 225.599 509.976 223.531C510.023 222.92 510.023 222.309 510.07 221.698C510.07 220.147 509.506 219.912 508.237 219.583C507.955 219.536 507.72 219.536 507.438 219.583C507.015 219.63 506.592 219.818 506.122 219.912C505.605 220.053 505.135 220.382 504.759 220.805C504.383 221.228 504.054 221.698 503.725 222.168C502.409 224.189 501.187 226.304 500.012 228.419C499.213 229.735 498.508 231.098 497.662 232.367C497.474 232.649 497.286 232.884 497.004 233.072C496.675 233.354 496.44 233.354 496.252 233.072C496.205 232.978 496.205 232.837 496.205 232.743C496.205 229.782 495.688 222.121 493.338 220.053C493.009 219.818 492.586 219.63 492.116 219.677C489.578 219.677 487.933 223.155 487.369 225.27C486.194 229.97 485.113 234.717 484.032 239.417C483.985 239.652 483.891 239.84 483.844 240.075C483.656 240.545 483.515 241.015 483.327 241.485C483.186 241.908 483.045 242.378 482.904 242.848C482.716 243.318 482.528 243.788 482.387 244.258C481.823 245.997 481.306 247.783 480.883 249.569C480.742 250.086 480.695 250.65 480.742 251.167ZM508.786 251.167C508.786 251.402 508.833 251.684 508.927 251.919C509.162 252.342 509.491 252.671 510.008 252.859C510.431 253 510.854 253.047 511.371 252.953C512.029 252.812 512.546 252.436 513.016 251.919C514.097 250.415 515.225 247.36 515.742 245.48C516.118 244.258 516.447 243.083 516.823 241.908C517.011 241.156 517.246 240.404 517.481 239.652C517.857 238.242 518.28 236.832 518.609 235.469C518.656 235.14 518.75 234.858 518.844 234.529C518.844 234.482 518.891 234.388 518.891 234.294C518.938 234.247 518.985 234.2 519.079 234.2C519.079 234.2 519.126 234.247 519.173 234.247C519.173 234.294 519.173 234.341 519.173 234.388C519.408 236.55 519.69 238.712 519.878 240.921C519.972 241.72 520.16 242.472 520.536 243.13C520.63 243.318 520.771 243.506 520.959 243.6C521.053 243.694 521.147 243.741 521.288 243.788C521.664 243.835 522.04 243.835 522.463 243.6C522.651 243.459 522.839 243.365 523.027 243.224C523.403 242.942 523.732 242.613 524.014 242.284C524.954 241.203 525.8 240.075 526.599 238.9C527.304 237.913 527.962 236.879 528.667 235.845C528.761 235.704 528.808 235.516 528.996 235.516C529.184 235.516 529.137 235.751 529.137 235.892C529.137 235.986 529.137 236.08 529.09 236.174C529.043 236.362 528.996 236.597 528.949 236.785C528.667 237.584 528.432 238.383 528.197 239.182C527.492 241.109 526.975 243.083 526.505 245.104C526.411 245.48 526.317 245.809 526.223 246.185C525.941 247.313 525.659 248.488 525.565 249.616C525.518 250.133 525.518 250.65 525.565 251.167C525.659 251.543 525.753 251.966 525.941 252.295C526.317 252.906 526.881 253.188 527.68 252.953C530.312 252.248 531.064 249.24 531.628 246.89C531.722 246.326 531.863 245.762 532.004 245.198C532.192 244.446 532.38 243.741 532.568 242.989C533.273 240.169 534.119 237.396 534.965 234.623C535.012 234.576 535.012 234.529 535.012 234.482C535.247 233.824 535.435 233.213 535.67 232.555C535.952 231.615 536.187 230.675 536.469 229.782C536.469 229.688 536.516 229.641 536.516 229.594C537.174 227.62 537.832 225.599 538.02 223.531C538.067 222.92 538.067 222.309 538.114 221.698C538.114 220.147 537.55 219.912 536.281 219.583C535.999 219.536 535.764 219.536 535.482 219.583C535.059 219.63 534.636 219.818 534.166 219.912C533.649 220.053 533.179 220.382 532.803 220.805C532.427 221.228 532.098 221.698 531.769 222.168C530.453 224.189 529.231 226.304 528.056 228.419C527.257 229.735 526.552 231.098 525.706 232.367C525.518 232.649 525.33 232.884 525.048 233.072C524.719 233.354 524.484 233.354 524.296 233.072C524.249 232.978 524.249 232.837 524.249 232.743C524.249 229.782 523.732 222.121 521.382 220.053C521.053 219.818 520.63 219.63 520.16 219.677C517.622 219.677 515.977 223.155 515.413 225.27C514.238 229.97 513.157 234.717 512.076 239.417C512.029 239.652 511.935 239.84 511.888 240.075C511.7 240.545 511.559 241.015 511.371 241.485C511.23 241.908 511.089 242.378 510.948 242.848C510.76 243.318 510.572 243.788 510.431 244.258C509.867 245.997 509.35 247.783 508.927 249.569C508.786 250.086 508.739 250.65 508.786 251.167ZM535.608 251.073C535.608 251.684 535.843 252.154 536.266 252.577C536.548 252.812 536.877 252.953 537.347 252.906C538.099 252.765 538.804 252.577 539.321 251.966C539.603 251.731 539.791 251.402 539.979 251.073C540.496 250.274 540.919 249.475 541.248 248.629C541.389 248.3 541.577 248.065 541.859 247.83C541.906 247.83 541.953 247.783 542.047 247.736C542.376 247.454 542.752 247.313 543.128 247.36C544.303 247.36 545.525 247.407 546.7 247.407C547.311 247.407 547.64 248.159 547.64 248.676C547.593 249.193 547.546 249.757 547.593 250.274C547.64 250.556 547.687 250.885 547.734 251.214C547.781 251.59 547.922 251.966 548.204 252.248C548.58 252.671 549.097 252.859 549.755 252.812C551.4 252.577 552.34 251.637 552.528 249.992C552.622 249.475 552.716 249.005 552.904 248.3C552.998 247.83 553.139 247.078 553.28 246.373C553.327 245.95 553.374 245.527 553.468 245.057C553.562 244.493 553.609 243.929 553.656 243.318C553.703 242.66 553.75 242.049 553.797 241.391C553.891 240.686 553.985 239.981 554.032 239.276C554.126 238.524 554.22 237.772 554.314 236.973C554.408 236.127 554.502 235.281 554.643 234.388C554.69 234.106 554.737 233.777 554.737 233.448C554.831 232.931 554.878 232.414 554.925 231.897C554.972 231.192 555.066 230.487 555.113 229.782C555.207 228.701 555.254 227.667 555.301 226.586C555.348 225.458 555.301 224.33 555.16 223.249C554.925 221.745 554.455 220.57 552.716 220.476C550.366 220.476 549.05 222.168 547.875 223.907C546.559 226.069 545.196 228.607 544.162 230.91C543.786 231.756 543.41 232.602 543.034 233.401C542.658 234.247 542.282 235.046 541.859 235.845C541.483 236.738 541.06 237.631 540.637 238.524C540.073 239.699 539.509 240.921 538.945 242.096C537.864 244.211 536.924 246.326 536.078 248.535C535.796 249.381 535.608 250.18 535.608 251.073ZM544.444 241.109C544.867 240.169 545.29 239.182 545.666 238.242C546.841 235.469 548.11 232.79 549.52 230.111C549.614 229.876 549.755 229.688 549.896 229.453C549.896 229.406 549.943 229.359 549.99 229.359C550.084 229.265 550.225 229.312 550.225 229.406C550.272 229.453 550.272 229.5 550.272 229.547C550.319 230.158 550.366 230.816 550.272 231.427C550.225 232.179 550.131 232.931 550.037 233.636C549.943 234.247 549.849 234.858 549.755 235.469C549.661 236.127 549.567 236.738 549.52 237.396C549.473 237.725 549.426 238.054 549.332 238.383C549.238 238.947 549.144 239.558 549.05 240.122C548.956 240.592 548.909 241.015 548.815 241.485C548.768 241.861 548.721 242.237 548.533 242.613C548.392 242.848 548.204 243.083 547.969 243.271C547.734 243.506 547.452 243.6 547.123 243.6C546.747 243.553 546.324 243.553 545.807 243.553C545.572 243.553 545.196 243.506 544.82 243.553C544.444 243.553 544.162 243.365 544.115 242.942C544.068 242.378 544.162 241.767 544.444 241.109ZM557.639 252.295C558.156 252.859 558.861 253 559.754 252.812C560.459 252.671 561.023 252.013 561.446 251.449C562.856 249.146 564.031 245.997 564.548 243.318C564.642 242.848 564.783 242.378 564.924 241.908C565.065 241.25 565.206 240.592 565.347 239.934C565.441 239.558 565.488 239.182 565.535 238.806C565.582 238.524 565.629 238.242 565.676 237.866C565.723 237.866 565.723 237.819 565.77 237.819C565.817 237.913 565.817 237.96 565.817 238.007C566.005 238.853 566.24 239.699 566.381 240.545C566.616 241.626 566.757 242.754 566.851 243.835C567.039 245.903 567.321 247.924 567.603 249.945C567.791 251.026 568.684 252.859 569.953 253C570.282 253.047 570.611 253 570.987 252.765C572.397 252.06 572.585 251.825 573.055 250.415C573.243 249.663 573.243 248.911 573.196 248.206C573.149 247.501 573.055 246.796 572.914 246.138C572.773 245.292 572.585 244.493 572.444 243.647C572.209 242.566 571.974 241.532 571.739 240.451C571.41 238.947 571.363 237.396 571.363 235.845C571.316 235.234 571.457 234.67 571.645 234.059C571.786 233.636 571.974 233.213 572.303 232.837C573.337 231.615 574.418 230.346 575.452 229.077C577.003 227.291 578.977 224.894 579.964 222.732C580.199 222.356 580.34 221.98 580.387 221.604C580.481 221.04 580.387 220.57 580.011 220.194C579.682 219.865 579.212 219.724 578.648 219.771C577.802 219.865 577.05 220.194 576.345 220.758C575.875 221.181 575.405 221.651 575.029 222.121C573.29 224.283 571.551 226.445 569.953 228.701C569.107 229.876 568.261 231.051 567.368 232.179C567.321 232.273 567.274 232.367 567.133 232.414C567.133 232.367 567.18 232.273 567.18 232.226C567.321 231.709 567.415 231.239 567.556 230.769C567.603 230.44 567.697 230.158 567.744 229.829C567.885 229.218 568.026 228.607 568.167 227.949C568.308 227.338 568.449 226.727 568.59 226.116C568.872 224.941 569.154 223.813 569.295 222.638C569.342 222.121 569.389 221.651 569.342 221.134C569.248 220.523 568.919 220.1 568.355 219.865C568.167 219.771 567.932 219.724 567.744 219.63C567.462 219.489 567.086 219.489 566.71 219.583C565.77 219.818 564.83 220.664 564.454 221.557C564.36 221.839 564.266 222.074 564.125 222.356C563.89 222.967 563.749 223.578 563.561 224.189C563.514 224.283 563.514 224.377 563.467 224.518C563.42 224.894 563.326 225.27 563.279 225.646C563.232 225.834 563.232 226.022 563.185 226.21C563.091 226.68 563.044 227.15 562.95 227.573C562.809 228.419 562.621 229.218 562.433 230.064C561.54 234.012 560.459 237.96 559.472 241.955C559.331 242.707 559.096 243.459 558.814 244.211C558.532 244.963 558.25 245.715 558.062 246.467C557.968 246.984 557.733 247.501 557.545 248.018C557.263 248.77 557.075 249.569 557.028 250.321C556.981 251.12 557.169 251.778 557.639 252.295ZM578.387 250.509C578.951 252.201 580.925 252.483 582.476 252.483C582.899 252.483 583.322 252.483 583.745 252.483C584.121 252.53 584.497 252.53 584.873 252.53C585.296 252.577 585.672 252.577 586.048 252.577C586.518 252.53 586.941 252.53 587.364 252.483C587.693 252.483 588.022 252.483 588.351 252.53C589.009 252.577 589.62 252.577 590.325 252.53C591.782 252.53 593.615 252.013 594.179 250.509C594.226 250.274 594.32 250.039 594.508 249.804C594.602 249.616 594.696 249.428 594.743 249.193C594.837 248.723 594.837 248.3 594.602 247.877C594.132 247.078 593.051 246.796 592.205 246.796C591.5 246.749 590.842 246.749 590.137 246.796C589.291 246.796 588.445 246.89 587.599 246.937C587.082 246.937 586.565 246.937 586.048 246.937C585.813 246.937 585.531 246.89 585.296 246.843C584.967 246.796 584.732 246.655 584.544 246.467C584.403 246.326 584.356 246.185 584.403 245.95C584.497 245.386 584.544 244.822 584.732 244.211C584.779 244.023 584.873 243.835 584.92 243.6C585.202 242.519 585.484 241.391 585.86 240.31C586.048 239.746 586.565 238.947 587.176 238.806C587.458 238.759 587.787 238.665 588.069 238.665C589.009 238.618 589.949 238.618 590.889 238.665C591.876 238.759 592.863 238.712 593.897 238.524C595.025 238.383 596.106 237.819 596.529 236.691C596.811 235.845 596.623 235.187 596.294 234.576C596.012 234.106 595.495 233.871 594.931 233.777C594.461 233.683 593.944 233.636 593.427 233.683C592.91 233.683 592.393 233.683 591.923 233.683C590.936 233.73 589.949 233.589 589.056 233.354C588.821 233.307 588.586 233.26 588.351 233.166C588.116 233.119 587.975 232.978 588.022 232.743C588.022 232.555 587.975 232.367 587.975 232.179C587.975 231.709 588.022 231.239 588.116 230.769C588.21 229.97 588.492 229.171 588.821 228.466C588.962 228.09 589.103 227.714 589.291 227.338C589.432 227.009 589.62 226.727 589.855 226.492C590.325 225.881 591.077 225.552 591.829 225.552C592.393 225.458 592.91 225.411 593.474 225.364C594.226 225.317 594.978 225.317 595.73 225.27C596.482 225.223 597.281 225.176 598.08 225.082C599.161 224.894 600.148 224.565 600.759 223.578C600.853 223.39 600.947 223.202 600.994 223.014C601.229 222.309 601.276 221.181 600.336 220.711C600.148 220.617 599.96 220.523 599.725 220.476C599.349 220.335 598.879 220.288 598.456 220.288C597.798 220.288 597.14 220.288 596.482 220.288C596.106 220.288 595.73 220.288 595.354 220.288C594.508 220.335 593.709 220.335 592.863 220.382C592.158 220.429 591.406 220.476 590.654 220.476C589.808 220.57 589.009 220.617 588.163 220.664C586.941 220.664 586.048 221.087 585.484 222.168C585.108 222.826 584.873 223.484 584.638 224.142C584.403 224.706 584.262 225.27 584.074 225.834C584.074 225.928 584.027 226.022 583.98 226.116C583.792 226.68 583.604 227.244 583.416 227.808C582.852 230.158 582.241 232.461 581.63 234.811C581.113 236.503 580.69 238.242 580.361 239.934C579.985 242.049 579.515 244.258 578.857 246.326C578.622 247.031 578.434 247.736 578.34 248.441C578.246 249.146 578.246 249.851 578.387 250.509ZM599.405 251.167C599.452 251.731 599.781 252.107 600.298 252.295C600.392 252.342 600.486 252.389 600.58 252.436C600.956 252.671 601.332 252.671 601.802 252.671C602.883 252.671 604.011 251.59 604.481 250.697C604.998 249.522 605.327 248.065 605.562 246.796C605.75 245.668 606.079 244.54 606.361 243.412C606.455 243.177 606.502 242.942 606.596 242.754C606.737 242.331 606.878 241.908 607.019 241.532C607.254 240.874 607.583 240.028 608.1 239.511C608.288 239.276 608.523 239.088 608.805 239.041C608.899 238.994 609.04 238.994 609.087 238.994C609.322 239.088 609.463 239.229 609.463 239.511C609.51 241.062 609.604 242.613 609.698 244.164C609.745 245.433 609.792 246.749 609.98 248.018C610.121 248.817 610.262 249.663 610.544 250.415C610.732 250.885 610.967 251.355 611.39 251.684C611.672 251.966 612.048 252.154 612.424 252.389C612.518 252.436 612.659 252.483 612.753 252.53C613.364 252.671 613.928 252.577 614.492 252.154C615.056 251.731 615.385 251.167 615.62 250.603C615.855 249.851 615.902 249.099 615.855 248.394C615.808 247.454 615.667 246.561 615.526 245.668C615.291 244.587 615.056 243.459 614.868 242.331C614.68 241.297 614.539 240.31 614.351 239.276C614.304 238.994 614.304 238.759 614.398 238.524C614.445 238.336 614.539 238.195 614.727 238.101C615.855 237.584 616.795 237.114 617.735 236.268C619.615 234.905 621.025 231.521 621.166 229.171C621.213 228.748 621.213 228.278 621.26 227.855C621.401 226.868 621.307 225.881 621.072 224.988C620.696 223.531 619.568 221.792 618.252 220.946C617.265 220.241 616.09 220.006 614.821 219.959C614.163 219.912 613.552 219.912 612.894 219.912C612.753 219.912 612.612 219.912 612.471 219.912C612.095 219.959 611.719 220.006 611.343 220.006C610.826 220.1 610.262 220.147 609.698 220.241C606.173 220.523 605.186 224.8 604.622 227.714C603.588 232.414 602.319 237.02 601.05 241.673C600.58 243.741 600.157 245.433 599.828 247.172C599.64 248.206 599.499 249.287 599.405 250.321C599.405 250.603 599.405 250.885 599.405 251.167ZM609.322 232.743C609.369 232.508 609.369 232.32 609.369 232.085C609.557 231.286 609.698 230.534 609.839 229.876C610.121 228.842 610.403 227.949 610.638 227.103C610.732 226.774 610.826 226.492 610.92 226.163C610.967 226.069 611.014 226.022 611.108 225.975C611.578 225.693 612.048 225.552 612.518 225.646C613.129 225.693 613.74 225.834 614.304 226.069C614.586 226.21 614.915 226.398 615.103 226.633C615.338 226.868 615.479 227.103 615.526 227.385C615.573 227.714 615.573 227.996 615.526 228.325C615.432 229.312 615.103 230.299 614.68 231.192C614.163 232.179 613.458 232.931 612.518 233.495C611.907 233.824 611.343 233.871 610.732 233.824C610.544 233.777 610.356 233.73 610.168 233.683C610.074 233.636 609.98 233.636 609.886 233.589C609.557 233.401 609.322 233.166 609.322 232.743Z" fill="black"/>
<path d="M396.802 246.937C396.849 247.548 396.99 248.112 397.225 248.629C397.46 249.146 397.695 249.663 397.93 250.18C398.729 251.731 400.609 252.624 402.301 252.812C402.442 252.812 402.63 252.859 402.771 252.859C403.1 252.859 403.429 252.906 403.758 252.906C403.993 252.906 404.228 252.906 404.463 252.859C405.356 252.859 406.296 252.671 407.189 252.389C408.129 252.154 409.022 251.731 409.868 251.167C410.197 250.979 410.526 250.697 410.808 250.462C411.748 249.569 412.876 248.112 413.487 247.031C413.863 246.42 415.226 241.062 415.602 239.323C416.213 239.323 416.636 239.276 416.73 239.276C418.469 239.182 419.409 237.208 419.409 235.657C419.409 235.046 419.174 234.482 418.657 234.153C418.328 233.918 414.944 234.106 412.406 234.153C409.727 234.2 408.458 233.166 408.082 232.978C407.847 232.884 407.659 232.79 407.424 232.696C407.095 232.508 406.907 232.226 406.766 231.85C406.531 231.145 406.484 230.346 406.672 229.5C406.954 228.466 407.8 227.291 408.552 226.539C409.163 225.975 409.774 225.834 410.385 225.928C411.137 226.022 411.607 226.445 411.842 227.103C411.983 227.62 411.936 228.184 411.889 228.701C411.842 229.077 411.795 229.453 411.795 229.829C411.748 230.44 412.03 230.863 412.547 231.098C413.017 231.286 413.487 231.474 414.051 231.474C414.239 231.427 414.474 231.427 414.662 231.427C414.991 231.427 415.273 231.38 415.555 231.239C417.012 230.722 417.388 230.017 418.046 228.701C418.093 228.607 418.093 228.513 418.14 228.419C418.281 227.385 418.281 226.351 418.046 225.411C417.153 221.557 414.286 220.053 410.62 220.053C409.351 220.194 408.082 220.476 406.954 221.04C404.134 222.262 402.254 224.894 401.126 227.667C400.985 228.09 400.797 228.56 400.703 228.983C400.609 229.594 400.562 230.252 400.562 230.863C400.515 231.709 400.703 232.508 400.938 233.307C400.985 233.495 401.032 233.636 401.079 233.824C401.314 234.576 401.784 235.093 402.489 235.469C402.63 235.563 402.865 235.61 403.006 235.704C403.194 235.798 403.194 235.845 403.147 236.033C403.053 236.315 402.912 236.503 402.63 236.644C401.925 236.879 401.267 237.114 400.609 237.49C400.468 237.537 400.374 237.631 400.233 237.725C399.387 238.101 398.306 239.323 397.977 240.169C397.695 240.686 397.319 242.002 397.272 242.613C397.272 242.801 397.178 243.036 397.131 243.224C396.849 244.493 396.802 245.715 396.802 246.937ZM402.771 245.057C402.771 243.506 403.429 241.062 404.933 240.31C405.638 239.887 406.343 239.558 407.142 239.417C407.236 239.37 408.881 239.511 408.975 239.511C409.022 239.511 409.398 239.511 409.962 239.464C409.68 240.498 409.116 243.6 407.894 245.95C407.659 246.373 407.095 246.514 406.625 246.749C406.531 246.843 406.39 246.89 406.296 246.937C405.826 247.125 405.403 247.219 405.027 247.219C404.557 247.219 404.134 247.078 403.758 246.843C403.617 246.796 403.523 246.702 403.382 246.608C403.006 246.185 402.724 245.715 402.771 245.057Z" fill="#FCB23A"/>
</g>
</svg>
