<svg width="774" height="156" viewBox="0 0 774 156" fill="none" xmlns="http://www.w3.org/2000/svg">
<path d="M194.904 17.392C194.424 17.392 194.028 17.236 193.716 16.924C193.404 16.612 193.248 16.216 193.248 15.736C193.248 15.256 193.404 14.86 193.716 14.548C194.028 14.236 194.424 14.08 194.904 14.08H220.356C220.836 14.08 221.232 14.248 221.544 14.584C221.88 14.896 222.048 15.28 222.048 15.736C222.048 16.936 221.868 18.016 221.508 18.976C219.972 22.864 217.392 25.984 213.768 28.336C213.336 28.624 212.868 28.708 212.364 28.588C211.86 28.468 211.464 28.192 211.176 27.76C210.912 27.352 210.828 26.908 210.924 26.428C211.044 25.948 211.308 25.576 211.716 25.312C214.812 23.272 216.864 20.74 217.872 17.716C217.92 17.5 217.86 17.392 217.692 17.392H194.904ZM203.184 22.468C203.208 21.94 203.4 21.496 203.76 21.136C204.144 20.752 204.6 20.56 205.128 20.56C205.656 20.56 206.1 20.752 206.46 21.136C206.82 21.496 206.988 21.94 206.964 22.468C206.844 27.508 206.148 31.396 204.876 34.132C203.628 36.868 201.54 39.028 198.612 40.612C198.156 40.852 197.676 40.9 197.172 40.756C196.692 40.612 196.32 40.312 196.056 39.856C195.816 39.448 195.768 39.016 195.912 38.56C196.056 38.08 196.344 37.72 196.776 37.48C199.008 36.208 200.604 34.444 201.564 32.188C202.548 29.932 203.088 26.692 203.184 22.468ZM232.956 14.62H253.044C253.548 14.62 253.98 14.8 254.34 15.16C254.7 15.52 254.88 15.952 254.88 16.456C254.88 16.96 254.7 17.404 254.34 17.788C253.98 18.148 253.548 18.328 253.044 18.328H232.956C232.452 18.328 232.02 18.148 231.66 17.788C231.3 17.404 231.12 16.96 231.12 16.456C231.12 15.952 231.3 15.52 231.66 15.16C232.02 14.8 232.452 14.62 232.956 14.62ZM230.436 39.46C229.932 39.46 229.5 39.28 229.14 38.92C228.78 38.56 228.6 38.128 228.6 37.624C228.6 37.12 228.78 36.688 229.14 36.328C229.5 35.944 229.932 35.752 230.436 35.752H255.564C256.068 35.752 256.5 35.944 256.86 36.328C257.22 36.688 257.4 37.12 257.4 37.624C257.4 38.128 257.22 38.56 256.86 38.92C256.5 39.28 256.068 39.46 255.564 39.46H230.436ZM268.416 40.864C267.936 41.128 267.432 41.188 266.904 41.044C266.376 40.924 265.944 40.636 265.608 40.18C265.32 39.748 265.224 39.28 265.32 38.776C265.44 38.272 265.728 37.9 266.184 37.66C270.96 34.924 274.908 31.72 278.028 28.048C278.148 27.928 278.124 27.796 277.956 27.652C274.596 24.964 271.872 22.864 269.784 21.352C269.376 21.04 269.136 20.632 269.064 20.128C268.992 19.624 269.124 19.18 269.46 18.796C269.796 18.388 270.228 18.16 270.756 18.112C271.308 18.04 271.8 18.16 272.232 18.472C274.8 20.296 277.476 22.324 280.26 24.556C280.428 24.676 280.572 24.664 280.692 24.52C282.708 21.472 284.34 18.052 285.588 14.26C285.756 13.732 286.08 13.336 286.56 13.072C287.04 12.784 287.556 12.7 288.108 12.82C288.636 12.94 289.032 13.228 289.296 13.684C289.584 14.14 289.644 14.62 289.476 15.124C288.108 19.612 286.236 23.608 283.86 27.112C283.74 27.28 283.752 27.424 283.896 27.544C286.992 30.16 289.632 32.476 291.816 34.492C292.2 34.852 292.392 35.296 292.392 35.824C292.416 36.352 292.236 36.808 291.852 37.192C291.468 37.576 291 37.78 290.448 37.804C289.92 37.804 289.464 37.624 289.08 37.264C286.656 35.008 284.16 32.8 281.592 30.64C281.4 30.496 281.244 30.496 281.124 30.64C277.764 34.576 273.528 37.984 268.416 40.864ZM302.112 28.912C301.584 28.912 301.14 28.732 300.78 28.372C300.42 28.012 300.24 27.568 300.24 27.04C300.24 26.512 300.42 26.068 300.78 25.708C301.14 25.348 301.584 25.168 302.112 25.168H327.888C328.416 25.168 328.86 25.348 329.22 25.708C329.58 26.068 329.76 26.512 329.76 27.04C329.76 27.568 329.58 28.012 329.22 28.372C328.86 28.732 328.416 28.912 327.888 28.912H302.112ZM340.308 28.012C339.972 28.372 339.564 28.564 339.084 28.588C338.604 28.588 338.184 28.42 337.824 28.084C337.464 27.772 337.272 27.376 337.248 26.896C337.224 26.416 337.38 25.996 337.716 25.636C340.86 22.132 342.876 18.016 343.764 13.288C343.86 12.784 344.1 12.376 344.484 12.064C344.868 11.752 345.312 11.608 345.816 11.632C346.296 11.68 346.692 11.896 347.004 12.28C347.34 12.64 347.472 13.06 347.4 13.54C347.376 13.66 347.328 13.852 347.256 14.116C347.208 14.38 347.172 14.584 347.148 14.728C347.1 14.896 347.184 14.98 347.4 14.98H361.764C362.316 14.98 362.796 15.184 363.204 15.592C363.612 15.976 363.816 16.444 363.816 16.996C363.72 24.724 361.908 30.52 358.38 34.384C354.852 38.224 349.26 40.576 341.604 41.44C341.124 41.488 340.68 41.368 340.272 41.08C339.888 40.792 339.66 40.408 339.588 39.928C339.516 39.472 339.624 39.052 339.912 38.668C340.2 38.284 340.572 38.068 341.028 38.02C348.132 37.132 353.112 34.9 355.968 31.324C356.112 31.18 356.076 31.06 355.86 30.964C352.524 29.284 349.512 27.832 346.824 26.608C346.368 26.392 346.056 26.056 345.888 25.6C345.72 25.12 345.756 24.652 345.996 24.196C346.236 23.74 346.608 23.428 347.112 23.26C347.64 23.092 348.144 23.116 348.624 23.332C351.552 24.652 354.588 26.104 357.732 27.688C357.9 27.784 358.032 27.736 358.128 27.544C359.112 25.048 359.676 22.108 359.82 18.724C359.82 18.508 359.712 18.4 359.496 18.4H346.788C346.668 18.4 346.572 18.388 346.5 18.364C346.332 18.34 346.2 18.412 346.104 18.58C344.856 22.06 342.924 25.204 340.308 28.012ZM374.112 28.912C373.584 28.912 373.14 28.732 372.78 28.372C372.42 28.012 372.24 27.568 372.24 27.04C372.24 26.512 372.42 26.068 372.78 25.708C373.14 25.348 373.584 25.168 374.112 25.168H399.888C400.416 25.168 400.86 25.348 401.22 25.708C401.58 26.068 401.76 26.512 401.76 27.04C401.76 27.568 401.58 28.012 401.22 28.372C400.86 28.732 400.416 28.912 399.888 28.912H374.112ZM422.352 29.74C421.8 29.74 421.32 29.536 420.912 29.128C420.504 28.72 420.3 28.24 420.3 27.688V26.392C420.3 25.84 420.504 25.36 420.912 24.952C421.32 24.544 421.8 24.34 422.352 24.34H423.648C424.2 24.34 424.68 24.544 425.088 24.952C425.496 25.36 425.7 25.84 425.7 26.392V27.688C425.7 28.24 425.496 28.72 425.088 29.128C424.68 29.536 424.2 29.74 423.648 29.74H422.352ZM446.508 41.62C446.172 41.98 445.752 42.16 445.248 42.16C444.744 42.16 444.312 41.98 443.952 41.62C443.592 41.284 443.412 40.864 443.412 40.36V14.332C443.412 13.78 443.616 13.3 444.024 12.892C444.432 12.484 444.912 12.28 445.464 12.28H451.476C452.028 12.28 452.496 12.484 452.88 12.892C453.288 13.3 453.492 13.78 453.492 14.332V27.4C453.492 27.448 453.516 27.484 453.564 27.508C453.636 27.532 453.684 27.532 453.708 27.508C454.02 27.196 454.392 27.04 454.824 27.04H454.932C455.1 27.04 455.184 26.956 455.184 26.788V17.212C455.184 16.66 455.388 16.18 455.796 15.772C456.204 15.364 456.684 15.16 457.236 15.16H462.672C462.864 15.16 462.96 15.064 462.96 14.872V12.244C462.96 11.74 463.14 11.308 463.5 10.948C463.884 10.588 464.328 10.408 464.832 10.408C465.336 10.408 465.768 10.588 466.128 10.948C466.488 11.308 466.668 11.74 466.668 12.244V14.872C466.668 15.064 466.764 15.16 466.956 15.16H472.392C472.944 15.16 473.424 15.364 473.832 15.772C474.24 16.18 474.444 16.66 474.444 17.212V26.824C474.444 26.968 474.516 27.04 474.66 27.04C475.068 27.04 475.404 27.172 475.668 27.436C475.932 27.7 476.064 28.036 476.064 28.444V28.66C476.064 29.116 475.908 29.5 475.596 29.812C475.284 30.124 474.9 30.28 474.444 30.28H467.496C467.28 30.28 467.196 30.376 467.244 30.568C468.276 34 470.724 36.784 474.588 38.92C475.02 39.184 475.32 39.544 475.488 40C475.656 40.48 475.632 40.948 475.416 41.404C475.2 41.86 474.852 42.172 474.372 42.34C473.916 42.508 473.472 42.472 473.04 42.232C471.312 41.248 469.752 40 468.36 38.488C466.992 36.952 465.876 35.284 465.012 33.484C464.988 33.436 464.952 33.412 464.904 33.412C464.856 33.388 464.808 33.4 464.76 33.448C463.8 35.272 462.54 36.964 460.98 38.524C459.42 40.06 457.668 41.32 455.724 42.304C455.268 42.52 454.8 42.532 454.32 42.34C453.84 42.172 453.48 41.86 453.24 41.404C453.024 40.948 453 40.48 453.168 40C453.36 39.544 453.684 39.208 454.14 38.992C458.436 36.832 461.16 34.024 462.312 30.568C462.36 30.376 462.288 30.28 462.096 30.28H454.824C454.392 30.28 454.02 30.124 453.708 29.812C453.612 29.764 453.54 29.8 453.492 29.92V37.948C453.492 38.5 453.288 38.98 452.88 39.388C452.496 39.796 452.028 40 451.476 40H447.3C447.132 40 447.048 40.096 447.048 40.288V40.36C447.048 40.864 446.868 41.284 446.508 41.62ZM466.668 18.796V26.248V26.752C466.668 26.944 466.776 27.04 466.992 27.04H470.448C470.664 27.04 470.772 26.944 470.772 26.752V18.796C470.772 18.58 470.664 18.472 470.448 18.472H466.956C466.764 18.472 466.668 18.58 466.668 18.796ZM458.892 18.796V26.752C458.892 26.944 458.988 27.04 459.18 27.04H462.636C462.852 27.04 462.96 26.944 462.96 26.752V26.248V18.796C462.96 18.58 462.864 18.472 462.672 18.472H459.18C458.988 18.472 458.892 18.58 458.892 18.796ZM447.048 15.916V23.764C447.048 23.98 447.144 24.088 447.336 24.088H449.784C450 24.088 450.108 23.98 450.108 23.764V15.916C450.108 15.7 450 15.592 449.784 15.592H447.336C447.144 15.592 447.048 15.7 447.048 15.916ZM447.048 27.616V36.472C447.048 36.664 447.144 36.76 447.336 36.76H449.784C450 36.76 450.108 36.664 450.108 36.472V27.616C450.108 27.424 450 27.328 449.784 27.328H447.336C447.144 27.328 447.048 27.424 447.048 27.616ZM478.296 28.588C477.984 27.34 478.188 26.116 478.908 24.916C480.972 21.58 482.58 17.464 483.732 12.568C483.852 12.064 484.128 11.668 484.56 11.38C484.992 11.092 485.46 10.996 485.964 11.092C486.468 11.188 486.864 11.44 487.152 11.848C487.44 12.256 487.536 12.712 487.44 13.216C486.792 16.168 485.916 18.904 484.812 21.424C484.716 21.664 484.668 21.868 484.668 22.036V41.476C484.668 41.98 484.488 42.4 484.128 42.736C483.792 43.096 483.372 43.276 482.868 43.276C482.364 43.276 481.932 43.096 481.572 42.736C481.236 42.4 481.068 41.98 481.068 41.476V28.444C481.068 28.396 481.044 28.372 480.996 28.372C480.948 28.372 480.912 28.384 480.888 28.408C480.84 28.48 480.732 28.66 480.564 28.948C480.396 29.212 480.264 29.416 480.168 29.56C479.928 29.896 479.616 30.028 479.232 29.956C478.848 29.86 478.596 29.608 478.476 29.2L478.296 28.588ZM495.036 10.624C495.396 10.672 495.66 10.852 495.828 11.164C495.996 11.476 496.008 11.8 495.864 12.136C495.792 12.256 495.84 12.316 496.008 12.316H504.468C504.876 12.316 505.224 12.472 505.512 12.784C505.824 13.096 505.98 13.456 505.98 13.864C505.98 14.92 505.704 15.832 505.152 16.6C505.128 16.624 505.104 16.66 505.08 16.708C505.056 16.732 505.032 16.756 505.008 16.78C504.96 16.804 504.948 16.852 504.972 16.924C504.996 16.972 505.032 16.996 505.08 16.996H509.256C509.808 16.996 510.288 17.2 510.696 17.608C511.104 18.016 511.308 18.496 511.308 19.048V23.98C511.308 24.532 511.104 25.012 510.696 25.42C510.288 25.804 509.808 25.996 509.256 25.996H504.288C504.096 25.996 504.024 26.092 504.072 26.284C504.552 27.82 505.104 29.176 505.728 30.352C505.824 30.544 505.944 30.568 506.088 30.424C507.024 29.536 507.876 28.636 508.644 27.724C508.932 27.388 509.292 27.208 509.724 27.184C510.18 27.136 510.576 27.244 510.912 27.508C511.248 27.772 511.44 28.12 511.488 28.552C511.56 28.984 511.464 29.368 511.2 29.704C510 31.144 508.872 32.344 507.816 33.304C507.648 33.424 507.636 33.58 507.78 33.772C508.884 35.332 510.156 36.76 511.596 38.056C512.004 38.416 512.244 38.86 512.316 39.388C512.412 39.916 512.328 40.408 512.064 40.864C511.8 41.272 511.428 41.524 510.948 41.62C510.468 41.716 510.048 41.608 509.688 41.296C507.696 39.52 505.884 37.312 504.252 34.672C502.644 32.008 501.432 29.224 500.616 26.32C500.568 26.104 500.436 25.996 500.22 25.996H498.996C498.948 25.996 498.9 26.032 498.852 26.104C498.828 26.152 498.828 26.188 498.852 26.212C501.516 29.404 502.848 32.968 502.848 36.904C502.848 39.232 502.584 40.816 502.056 41.656C501.552 42.496 500.64 42.916 499.32 42.916C497.832 42.916 496.56 42.892 495.504 42.844C494.928 42.82 494.436 42.604 494.028 42.196C493.644 41.788 493.428 41.296 493.38 40.72L493.344 40.108C493.344 39.892 493.248 39.832 493.056 39.928C491.424 40.744 489.708 41.488 487.908 42.16C487.452 42.328 487.02 42.304 486.612 42.088C486.204 41.896 485.904 41.584 485.712 41.152C485.544 40.72 485.556 40.3 485.748 39.892C485.94 39.484 486.252 39.208 486.684 39.064C491.556 37.408 495.468 35.44 498.42 33.16C498.588 33.04 498.636 32.884 498.564 32.692C498.372 32.116 498.216 31.696 498.096 31.432C498.024 31.264 497.904 31.24 497.736 31.36C495.144 33.232 491.892 34.876 487.98 36.292C487.572 36.436 487.164 36.412 486.756 36.22C486.372 36.028 486.096 35.728 485.928 35.32C485.76 34.912 485.772 34.516 485.964 34.132C486.156 33.748 486.456 33.496 486.864 33.376C490.632 32.152 493.776 30.7 496.296 29.02C496.464 28.9 496.5 28.768 496.404 28.624C496.236 28.408 495.96 28.084 495.576 27.652C495.48 27.532 495.324 27.52 495.108 27.616C493.164 28.696 490.86 29.704 488.196 30.64C487.788 30.784 487.392 30.772 487.008 30.604C486.624 30.412 486.348 30.124 486.18 29.74C486.012 29.38 486.024 29.02 486.216 28.66C486.408 28.3 486.696 28.06 487.08 27.94C488.784 27.436 490.464 26.836 492.12 26.14C492.144 26.116 492.156 26.092 492.156 26.068C492.156 26.02 492.144 25.996 492.12 25.996H489.78C489.228 25.996 488.748 25.804 488.34 25.42C487.932 25.012 487.728 24.532 487.728 23.98V22.684C487.728 22.492 487.644 22.336 487.476 22.216L486.576 21.568C486.168 21.28 485.94 20.884 485.892 20.38C485.868 19.852 486.048 19.408 486.432 19.048C488.616 16.96 490.428 14.596 491.868 11.956C492.132 11.452 492.504 11.068 492.984 10.804C493.488 10.54 494.004 10.456 494.532 10.552L495.036 10.624ZM497.628 22.9V20.38C497.628 20.164 497.52 20.056 497.304 20.056H491.652C491.436 20.056 491.328 20.164 491.328 20.38V22.9C491.328 23.116 491.436 23.224 491.652 23.224H497.304C497.52 23.224 497.628 23.116 497.628 22.9ZM498.888 36.256C497.424 37.384 495.78 38.452 493.956 39.46C493.908 39.484 493.884 39.52 493.884 39.568C493.908 39.616 493.944 39.64 493.992 39.64C495.408 39.736 496.62 39.784 497.628 39.784C498.276 39.784 498.684 39.616 498.852 39.28C499.044 38.944 499.14 38.092 499.14 36.724V36.4C499.14 36.328 499.104 36.28 499.032 36.256C498.984 36.208 498.936 36.208 498.888 36.256ZM507.312 20.056H501.516C501.324 20.056 501.228 20.164 501.228 20.38V22.9C501.228 23.116 501.324 23.224 501.516 23.224H507.312C507.528 23.224 507.636 23.116 507.636 22.9V20.38C507.636 20.164 507.528 20.056 507.312 20.056ZM501.336 15.376H494.424C494.232 15.376 494.076 15.46 493.956 15.628C493.86 15.748 493.728 15.94 493.56 16.204C493.392 16.444 493.26 16.624 493.164 16.744C493.116 16.792 493.104 16.852 493.128 16.924C493.176 16.972 493.236 16.996 493.308 16.996H499.932C500.124 16.996 500.304 16.912 500.472 16.744C500.592 16.624 500.76 16.444 500.976 16.204C501.192 15.94 501.348 15.748 501.444 15.628C501.564 15.46 501.528 15.376 501.336 15.376ZM547.02 13.9C547.476 13.9 547.86 14.056 548.172 14.368C548.484 14.68 548.64 15.064 548.64 15.52C548.64 15.976 548.484 16.36 548.172 16.672C547.86 16.984 547.476 17.14 547.02 17.14H538.236C538.044 17.14 537.948 17.248 537.948 17.464V22.576C537.948 22.792 538.044 22.9 538.236 22.9H545.94C546.396 22.9 546.78 23.056 547.092 23.368C547.404 23.68 547.56 24.064 547.56 24.52C547.56 24.976 547.404 25.36 547.092 25.672C546.78 25.984 546.396 26.14 545.94 26.14H538.236C538.044 26.14 537.948 26.248 537.948 26.464V31.756C537.948 31.972 538.044 32.08 538.236 32.08H545.904C546.36 32.08 546.744 32.236 547.056 32.548C547.392 32.86 547.56 33.256 547.56 33.736C547.56 34.216 547.392 34.624 547.056 34.96C546.744 35.272 546.36 35.428 545.904 35.428H538.236C538.044 35.428 537.948 35.524 537.948 35.716V41.224C537.948 41.776 537.744 42.244 537.336 42.628C536.928 43.036 536.448 43.24 535.896 43.24C535.344 43.24 534.864 43.036 534.456 42.628C534.072 42.244 533.88 41.776 533.88 41.224V17.464C533.88 17.248 533.772 17.14 533.556 17.14H533.016C532.8 17.14 532.656 17.224 532.584 17.392C531.336 20.272 529.968 22.936 528.48 25.384C528.216 25.816 527.82 26.08 527.292 26.176C526.788 26.248 526.332 26.128 525.924 25.816C525.492 25.48 525.228 25.048 525.132 24.52C525.036 23.992 525.132 23.5 525.42 23.044C527.532 19.612 529.26 15.976 530.604 12.136C530.796 11.632 531.12 11.248 531.576 10.984C532.032 10.696 532.512 10.6 533.016 10.696C533.496 10.792 533.868 11.056 534.132 11.488C534.42 11.92 534.48 12.364 534.312 12.82C534.216 13.132 534.12 13.408 534.024 13.648C533.976 13.816 534.048 13.9 534.24 13.9H547.02ZM518.076 29.128C517.788 29.512 517.404 29.668 516.924 29.596C516.468 29.524 516.12 29.284 515.88 28.876C515.28 27.724 515.376 26.608 516.168 25.528C518.976 21.76 521.016 17.428 522.288 12.532C522.408 12.028 522.684 11.644 523.116 11.38C523.572 11.092 524.052 11.008 524.556 11.128C525.06 11.248 525.456 11.524 525.744 11.956C526.032 12.388 526.116 12.856 525.996 13.36C525.396 15.856 524.652 18.052 523.764 19.948C523.668 20.188 523.62 20.38 523.62 20.524V41.26C523.62 41.812 523.428 42.28 523.044 42.664C522.66 43.048 522.192 43.24 521.64 43.24C521.088 43.24 520.62 43.048 520.236 42.664C519.852 42.28 519.66 41.812 519.66 41.26V27.04C519.66 26.992 519.636 26.968 519.588 26.968C519.564 26.944 519.54 26.944 519.516 26.968C518.892 27.976 518.412 28.696 518.076 29.128ZM553.248 19.66C552.72 19.66 552.264 19.48 551.88 19.12C551.52 18.76 551.34 18.316 551.34 17.788V14.692C551.34 14.14 551.544 13.66 551.952 13.252C552.36 12.844 552.84 12.64 553.392 12.64H564.696C564.912 12.64 565.02 12.532 565.02 12.316V11.56C565.02 11.032 565.212 10.576 565.596 10.192C566.004 9.784 566.472 9.58 567 9.58C567.528 9.58 567.984 9.784 568.368 10.192C568.776 10.576 568.98 11.032 568.98 11.56V12.316C568.98 12.532 569.088 12.64 569.304 12.64H580.608C581.16 12.64 581.64 12.844 582.048 13.252C582.456 13.66 582.66 14.14 582.66 14.692V17.788C582.66 18.316 582.468 18.76 582.084 19.12C581.724 19.48 581.28 19.66 580.752 19.66C580.488 19.66 580.26 19.612 580.068 19.516C579.9 19.444 579.792 19.504 579.744 19.696C579.672 20.056 579.492 20.356 579.204 20.596C578.916 20.812 578.58 20.92 578.196 20.92H572.508C572.316 20.92 572.244 21.028 572.292 21.244C572.82 23.476 573.528 25.528 574.416 27.4C574.512 27.592 574.644 27.628 574.812 27.508C575.892 26.572 577.08 25.384 578.376 23.944C578.688 23.608 579.072 23.416 579.528 23.368C579.984 23.296 580.392 23.404 580.752 23.692C581.112 23.98 581.316 24.352 581.364 24.808C581.436 25.264 581.316 25.672 581.004 26.032C579.516 27.784 578.016 29.296 576.504 30.568C576.312 30.712 576.288 30.868 576.432 31.036C577.968 33.46 579.828 35.656 582.012 37.624C582.42 37.984 582.648 38.428 582.696 38.956C582.744 39.484 582.6 39.952 582.264 40.36C581.928 40.792 581.484 41.032 580.932 41.08C580.404 41.152 579.936 41.008 579.528 40.648C576.912 38.368 574.62 35.488 572.652 32.008C570.684 28.504 569.328 24.904 568.584 21.208C568.536 21.016 568.416 20.92 568.224 20.92H567.18C566.988 20.92 566.808 20.98 566.64 21.1C566.28 21.388 565.848 21.724 565.344 22.108C565.2 22.204 565.2 22.324 565.344 22.468C567.24 24.22 568.716 26.296 569.772 28.696C570.852 31.072 571.392 33.52 571.392 36.04C571.392 38.56 571.068 40.3 570.42 41.26C569.796 42.22 568.776 42.7 567.36 42.7C566.4 42.7 565.056 42.664 563.328 42.592C562.872 42.568 562.476 42.388 562.14 42.052C561.828 41.74 561.66 41.356 561.636 40.9C561.612 40.468 561.756 40.096 562.068 39.784C562.404 39.472 562.788 39.328 563.22 39.352C564.588 39.424 565.512 39.46 565.992 39.46C566.64 39.46 567.06 39.28 567.252 38.92C567.444 38.536 567.54 37.576 567.54 36.04C567.54 35.416 567.504 34.792 567.432 34.168C567.432 33.976 567.348 33.94 567.18 34.06C563.82 36.82 559.5 39.232 554.22 41.296C553.788 41.464 553.344 41.452 552.888 41.26C552.456 41.068 552.144 40.756 551.952 40.324C551.784 39.892 551.796 39.472 551.988 39.064C552.18 38.632 552.492 38.332 552.924 38.164C558.612 36.124 563.124 33.724 566.46 30.964C566.652 30.82 566.712 30.652 566.64 30.46C566.448 29.932 566.172 29.344 565.812 28.696C565.716 28.504 565.584 28.468 565.416 28.588C562.488 30.772 558.804 32.704 554.364 34.384C553.932 34.552 553.512 34.552 553.104 34.384C552.696 34.192 552.396 33.892 552.204 33.484C552.036 33.076 552.036 32.68 552.204 32.296C552.372 31.912 552.66 31.648 553.068 31.504C557.484 29.992 561.096 28.264 563.904 26.32C564.072 26.224 564.072 26.092 563.904 25.924C563.352 25.3 562.836 24.772 562.356 24.34C562.212 24.22 562.056 24.208 561.888 24.304C559.968 25.408 557.532 26.524 554.58 27.652C554.172 27.82 553.764 27.82 553.356 27.652C552.948 27.46 552.648 27.16 552.456 26.752C552.288 26.392 552.288 26.02 552.456 25.636C552.648 25.252 552.948 25 553.356 24.88C556.692 23.824 559.668 22.552 562.284 21.064C562.308 21.04 562.32 21.016 562.32 20.992C562.32 20.944 562.296 20.92 562.248 20.92H555.804C555.42 20.92 555.084 20.812 554.796 20.596C554.508 20.356 554.328 20.056 554.256 19.696C554.208 19.504 554.1 19.444 553.932 19.516C553.74 19.612 553.512 19.66 553.248 19.66ZM555.12 16.024V17.644C555.12 17.812 555.216 17.872 555.408 17.824C555.504 17.8 555.636 17.788 555.804 17.788H578.196C578.364 17.788 578.496 17.8 578.592 17.824C578.784 17.872 578.88 17.812 578.88 17.644V16.024C578.88 15.808 578.784 15.7 578.592 15.7H555.444C555.228 15.7 555.12 15.808 555.12 16.024Z" fill="black"/>
<path d="M24.9 86.25C23.75 86.25 22.75 85.825 21.9 84.975C21.05 84.125 20.625 83.125 20.625 81.975V78.975C20.625 77.825 21.05 76.85 21.9 76.05C22.75 75.2 23.75 74.775 24.9 74.775H74.775C75.925 74.775 76.925 75.2 77.775 76.05C78.625 76.85 79.025 77.825 78.975 78.975C78.675 95.275 74.775 107.675 67.275 116.175C59.825 124.625 48.425 129.825 33.075 131.775C31.875 131.925 30.75 131.65 29.7 130.95C28.7 130.25 28.1 129.3 27.9 128.1L27.375 125.25C27.175 124.15 27.4 123.15 28.05 122.25C28.7 121.3 29.6 120.75 30.75 120.6C41.9 119.15 50.225 115.8 55.725 110.55C61.225 105.3 64.55 97.4 65.7 86.85C65.7 86.45 65.525 86.25 65.175 86.25H24.9ZM145.275 71.775C146.425 71.775 147.425 72.2 148.275 73.05C149.125 73.85 149.55 74.825 149.55 75.975V92.85C149.55 105.2 146.575 114.65 140.625 121.2C134.725 127.75 125.575 131.825 113.175 133.425C111.975 133.575 110.875 133.3 109.875 132.6C108.925 131.9 108.325 130.95 108.075 129.75L107.475 127.05C107.275 125.95 107.5 124.95 108.15 124.05C108.8 123.1 109.7 122.525 110.85 122.325C120.55 120.825 127.25 117.95 130.95 113.7C134.65 109.4 136.5 102.55 136.5 93.15V75.975C136.5 74.825 136.925 73.85 137.775 73.05C138.625 72.2 139.625 71.775 140.775 71.775H145.275ZM103.725 105.9C102.575 105.9 101.575 105.475 100.725 104.625C99.875 103.775 99.45 102.775 99.45 101.625V75.975C99.45 74.825 99.875 73.85 100.725 73.05C101.575 72.2 102.575 71.775 103.725 71.775H107.925C109.075 71.775 110.075 72.2 110.925 73.05C111.775 73.85 112.2 74.825 112.2 75.975V101.625C112.2 102.775 111.775 103.775 110.925 104.625C110.075 105.475 109.075 105.9 107.925 105.9H103.725ZM172.5 108.075C171.35 108.075 170.35 107.65 169.5 106.8C168.65 105.95 168.225 104.95 168.225 103.8V100.2C168.225 99.05 168.65 98.05 169.5 97.2C170.35 96.35 171.35 95.925 172.5 95.925H226.5C227.65 95.925 228.65 96.35 229.5 97.2C230.35 98.05 230.775 99.05 230.775 100.2V103.8C230.775 104.95 230.35 105.95 229.5 106.8C228.65 107.65 227.65 108.075 226.5 108.075H172.5ZM248.25 85.2C247.1 85.2 246.1 84.775 245.25 83.925C244.4 83.075 243.975 82.075 243.975 80.925V78.225C243.975 77.075 244.4 76.1 245.25 75.3C246.1 74.45 247.1 74.025 248.25 74.025H300.9C302.05 74.025 303.05 74.45 303.9 75.3C304.75 76.1 305.175 77.075 305.175 78.225V85.2C302.875 91.7 299.525 97.45 295.125 102.45C290.775 107.4 285.05 111.875 277.95 115.875C277.6 116.075 277.525 116.325 277.725 116.625C278.125 117.225 278.875 118.35 279.975 120C281.125 121.6 282 122.85 282.6 123.75C283.25 124.7 283.45 125.75 283.2 126.9C282.95 128 282.35 128.85 281.4 129.45L277.8 131.7C276.8 132.35 275.7 132.525 274.5 132.225C273.35 131.975 272.425 131.35 271.725 130.35C265.775 121.6 260.05 113.475 254.55 105.975C253.85 105.025 253.6 104 253.8 102.9C254 101.75 254.575 100.85 255.525 100.2L258.975 97.875C259.975 97.225 261.05 97 262.2 97.2C263.4 97.4 264.35 97.975 265.05 98.925C266.7 101.175 268.275 103.35 269.775 105.45C270.025 105.8 270.35 105.875 270.75 105.675C275.45 103.075 279.625 100.025 283.275 96.525C286.925 92.975 289.675 89.375 291.525 85.725C291.575 85.625 291.55 85.525 291.45 85.425C291.4 85.275 291.3 85.2 291.15 85.2H248.25ZM325.275 84.675C324.225 84.175 323.525 83.375 323.175 82.275C322.825 81.175 322.925 80.125 323.475 79.125L325.2 75.75C325.75 74.7 326.575 74 327.675 73.65C328.825 73.25 329.95 73.3 331.05 73.8C336.2 76.25 341.475 78.875 346.875 81.675C347.925 82.175 348.6 83 348.9 84.15C349.25 85.3 349.15 86.375 348.6 87.375L346.65 90.75C346.1 91.75 345.25 92.425 344.1 92.775C343 93.125 341.925 93.025 340.875 92.475C335.675 89.775 330.475 87.175 325.275 84.675ZM378.525 81C379.675 81.25 380.575 81.875 381.225 82.875C381.875 83.825 382.075 84.875 381.825 86.025C378.875 99.175 373.075 109.4 364.425 116.7C355.825 124 344.075 128.575 329.175 130.425C327.975 130.575 326.9 130.275 325.95 129.525C325 128.825 324.425 127.875 324.225 126.675L323.7 123.225C323.5 122.125 323.75 121.125 324.45 120.225C325.15 119.275 326.075 118.725 327.225 118.575C339.425 116.875 348.925 113.25 355.725 107.7C362.575 102.15 367.4 94.075 370.2 83.475C370.5 82.325 371.125 81.45 372.075 80.85C373.075 80.2 374.15 80 375.3 80.25L378.525 81ZM421.35 109.35C420.2 109.35 419.2 108.95 418.35 108.15C417.55 107.3 417.15 106.3 417.15 105.15V98.85C417.15 97.7 417.55 96.725 418.35 95.925C419.2 95.075 420.2 94.65 421.35 94.65H427.65C428.8 94.65 429.775 95.075 430.575 95.925C431.425 96.725 431.85 97.7 431.85 98.85V105.15C431.85 106.3 431.425 107.3 430.575 108.15C429.775 108.95 428.8 109.35 427.65 109.35H421.35ZM473.25 90.225C472.1 90.225 471.1 89.825 470.25 89.025C469.4 88.175 468.975 87.175 468.975 86.025V83.925C468.975 82.775 469.4 81.775 470.25 80.925C471.1 80.075 472.1 79.65 473.25 79.65H504.675C505.125 79.65 505.35 79.45 505.35 79.05V73.05C505.35 71.9 505.75 70.925 506.55 70.125C507.4 69.275 508.4 68.85 509.55 68.85H512.85C514 68.85 515 69.275 515.85 70.125C516.7 70.925 517.125 71.9 517.125 73.05V79.05C517.125 79.45 517.35 79.65 517.8 79.65H527.25C528.4 79.65 529.4 80.075 530.25 80.925C531.1 81.775 531.525 82.775 531.525 83.925V86.025C531.525 87.175 531.1 88.175 530.25 89.025C529.4 89.825 528.4 90.225 527.25 90.225H517.8C517.35 90.225 517.125 90.45 517.125 90.9V118.2C517.125 120.45 517.075 122.25 516.975 123.6C516.925 124.9 516.7 126.125 516.3 127.275C515.9 128.425 515.45 129.25 514.95 129.75C514.45 130.25 513.625 130.675 512.475 131.025C511.325 131.425 510.1 131.65 508.8 131.7C507.5 131.8 505.725 131.85 503.475 131.85C502.425 131.85 499.7 131.7 495.3 131.4C494.1 131.35 493.1 130.875 492.3 129.975C491.55 129.075 491.225 128.025 491.325 126.825L491.475 124.65C491.575 123.5 492.05 122.55 492.9 121.8C493.75 121.05 494.75 120.725 495.9 120.825C499.25 121.075 501.375 121.2 502.275 121.2C503.675 121.2 504.525 121.05 504.825 120.75C505.175 120.4 505.35 119.525 505.35 118.125V101.925C505.35 101.825 505.275 101.75 505.125 101.7C505.025 101.65 504.925 101.675 504.825 101.775C495.925 109.575 486.925 116.25 477.825 121.8C476.825 122.4 475.75 122.55 474.6 122.25C473.5 121.9 472.675 121.225 472.125 120.225L470.85 118.05C470.3 117.05 470.175 115.975 470.475 114.825C470.775 113.675 471.425 112.8 472.425 112.2C482.575 106.15 492.175 98.975 501.225 90.675C501.325 90.475 501.25 90.325 501 90.225H473.25ZM547.35 128.4L546 125.925C545.45 124.925 545.35 123.875 545.7 122.775C546.1 121.625 546.8 120.775 547.8 120.225C564.7 111.325 577.25 99.625 585.45 85.125C585.5 85.025 585.475 84.925 585.375 84.825C585.325 84.675 585.225 84.6 585.075 84.6H554.925C553.775 84.6 552.775 84.175 551.925 83.325C551.075 82.475 550.65 81.475 550.65 80.325V77.625C550.65 76.475 551.075 75.475 551.925 74.625C552.775 73.775 553.775 73.35 554.925 73.35H595.125C596.275 73.35 597.275 73.775 598.125 74.625C598.975 75.475 599.4 76.475 599.4 77.625V80.325C599.4 83.225 598.775 85.9 597.525 88.35C594.375 94.15 590.575 99.625 586.125 104.775C585.825 105.075 585.825 105.375 586.125 105.675C591.625 110.525 597.25 115.675 603 121.125C603.85 121.925 604.275 122.925 604.275 124.125C604.275 125.275 603.85 126.25 603 127.05L600.675 129.3C599.825 130.15 598.8 130.575 597.6 130.575C596.45 130.575 595.45 130.175 594.6 129.375C589.3 124.225 583.8 119.1 578.1 114C577.75 113.75 577.425 113.75 577.125 114C569.975 120.5 562.025 125.925 553.275 130.275C552.175 130.825 551.05 130.9 549.9 130.5C548.75 130.15 547.9 129.45 547.35 128.4ZM624.225 90.75C623.075 90.75 622.075 90.325 621.225 89.475C620.425 88.625 620.025 87.625 620.025 86.475V84.15C620.025 83 620.425 82 621.225 81.15C622.075 80.3 623.075 79.875 624.225 79.875H637.05C637.5 79.875 637.725 79.675 637.725 79.275C637.825 76.675 637.875 74.675 637.875 73.275C637.875 72.125 638.3 71.125 639.15 70.275C640 69.425 641 69 642.15 69H645.45C646.6 69 647.575 69.425 648.375 70.275C649.225 71.075 649.65 72.05 649.65 73.2C649.65 74.65 649.6 76.675 649.5 79.275C649.5 79.675 649.7 79.875 650.1 79.875H673.275C674.425 79.875 675.4 80.3 676.2 81.15C677.05 82 677.475 83 677.475 84.15V89.4C677.475 95.75 677.375 101.15 677.175 105.6C677.025 110.05 676.7 113.875 676.2 117.075C675.7 120.225 675.125 122.725 674.475 124.575C673.825 126.425 672.925 127.875 671.775 128.925C670.625 129.975 669.425 130.65 668.175 130.95C666.975 131.3 665.4 131.475 663.45 131.475C659.85 131.475 655.95 131.275 651.75 130.875C650.6 130.775 649.625 130.25 648.825 129.3C648.075 128.4 647.75 127.375 647.85 126.225L648.075 123.75C648.175 122.6 648.675 121.65 649.575 120.9C650.475 120.1 651.5 119.75 652.65 119.85C655.45 120.1 657.8 120.225 659.7 120.225C661.05 120.225 662.025 119.75 662.625 118.8C663.275 117.8 663.775 115.5 664.125 111.9C664.525 108.3 664.725 102.8 664.725 95.4V91.425C664.725 90.975 664.525 90.75 664.125 90.75H649.35C648.95 90.75 648.7 90.975 648.6 91.425C647.55 100.725 645.575 108.375 642.675 114.375C639.775 120.325 635.6 125.65 630.15 130.35C629.25 131.1 628.2 131.425 627 131.325C625.85 131.225 624.875 130.725 624.075 129.825L622.2 127.8C621.4 126.95 621.05 125.95 621.15 124.8C621.25 123.65 621.725 122.7 622.575 121.95C626.725 118.3 629.9 114.175 632.1 109.575C634.35 104.975 635.925 98.925 636.825 91.425C636.925 90.975 636.725 90.75 636.225 90.75H624.225ZM745.275 71.775C746.425 71.775 747.425 72.2 748.275 73.05C749.125 73.85 749.55 74.825 749.55 75.975V92.85C749.55 105.2 746.575 114.65 740.625 121.2C734.725 127.75 725.575 131.825 713.175 133.425C711.975 133.575 710.875 133.3 709.875 132.6C708.925 131.9 708.325 130.95 708.075 129.75L707.475 127.05C707.275 125.95 707.5 124.95 708.15 124.05C708.8 123.1 709.7 122.525 710.85 122.325C720.55 120.825 727.25 117.95 730.95 113.7C734.65 109.4 736.5 102.55 736.5 93.15V75.975C736.5 74.825 736.925 73.85 737.775 73.05C738.625 72.2 739.625 71.775 740.775 71.775H745.275ZM703.725 105.9C702.575 105.9 701.575 105.475 700.725 104.625C699.875 103.775 699.45 102.775 699.45 101.625V75.975C699.45 74.825 699.875 73.85 700.725 73.05C701.575 72.2 702.575 71.775 703.725 71.775H707.925C709.075 71.775 710.075 72.2 710.925 73.05C711.775 73.85 712.2 74.825 712.2 75.975V101.625C712.2 102.775 711.775 103.775 710.925 104.625C710.075 105.475 709.075 105.9 707.925 105.9H703.725Z" fill="#FCB23A"/>
</svg>
