<svg width="150" height="149" viewBox="0 0 150 149" fill="none" xmlns="http://www.w3.org/2000/svg">
<path d="M53.5676 81.9412C60.3882 81.9412 66.0882 87.2706 66.5294 94.1C66.547 94.3735 66.5558 94.6471 66.5558 94.9294C66.5558 100.329 63.1588 105.226 58.1029 107.106C56.6558 107.644 55.1294 107.918 53.5676 107.918C46.4029 107.918 40.5794 102.094 40.5794 94.9294C40.5794 87.7647 46.4029 81.9412 53.5676 81.9412ZM53.5676 77.5294C43.9588 77.5294 36.1676 85.3206 36.1676 94.9294C36.1676 104.538 43.9588 112.329 53.5676 112.329C55.7029 112.329 57.7499 111.941 59.6382 111.244C66.2558 108.782 70.9676 102.403 70.9676 94.9294C70.9676 94.5412 70.9499 94.1618 70.9235 93.7824C70.3323 84.7029 62.7882 77.5294 53.5676 77.5294Z" fill="#FCB23A"/>
<path d="M101.462 81.9412C108.626 81.9412 114.45 87.7647 114.45 94.9294C114.45 102.094 108.626 107.918 101.462 107.918C99.6176 107.918 97.8441 107.538 96.1765 106.797C91.5 104.706 88.4735 100.047 88.4735 94.9294C88.4735 94.7618 88.4735 94.6029 88.4824 94.4441C88.4824 94.4265 88.4824 94.4 88.4824 94.3824C88.7735 87.4029 94.4735 81.9412 101.462 81.9412ZM101.462 77.5294C92.1 77.5294 84.4588 84.9235 84.0794 94.1971C84.0618 94.4441 84.0618 94.6824 84.0618 94.9382C84.0618 102.024 88.2971 108.129 94.3853 110.838C96.5471 111.8 98.9471 112.338 101.471 112.338C111.079 112.338 118.871 104.547 118.871 94.9382C118.871 85.3294 111.071 77.5294 101.462 77.5294Z" fill="#FCB23A"/>
<path d="M70.9236 93.7824C72.8118 93.0765 74.8589 92.6971 76.9942 92.6971C79.5177 92.6971 81.9089 93.2353 84.0795 94.1971" stroke="#FCB23A" stroke-width="5" stroke-miterlimit="10" stroke-linecap="round" stroke-linejoin="round"/>
<path d="M128.038 77.6706C128.144 49.6294 105.159 26.9353 77.0912 26.9353C49.0236 26.9353 26.2589 49.6294 26.1442 77.6706V96.2706" stroke="black" stroke-width="5" stroke-miterlimit="10" stroke-linecap="round" stroke-linejoin="round"/>
<path d="M49.3059 95.45C49.3147 93.0236 51.2824 91.0559 53.7177 91.0559C56.153 91.0559 58.1206 93.0236 58.1294 95.45" stroke="black" stroke-width="5" stroke-miterlimit="10" stroke-linecap="round" stroke-linejoin="round"/>
<path d="M96.4854 95.45C96.4942 93.0236 98.4618 91.0559 100.897 91.0559C103.332 91.0559 105.3 93.0236 105.309 95.45" stroke="black" stroke-width="5" stroke-miterlimit="10" stroke-linecap="round" stroke-linejoin="round"/>
</svg>
