<svg width="120" height="120" viewBox="0 0 120 120" fill="none" xmlns="http://www.w3.org/2000/svg">
<path d="M61.58 86.01L31.55 51.55L57.27 29.14L87.3 63.59L87.8 80.04L88.12 90.49L77.81 88.75L61.58 86.01Z" stroke="#161616" stroke-width="4" stroke-miterlimit="10" stroke-linecap="round" stroke-linejoin="round"/>
<path d="M86.84 63.61C86.84 63.61 85.01 70.51 78.36 71" stroke="#161616" stroke-width="4" stroke-miterlimit="10" stroke-linecap="round" stroke-linejoin="round"/>
<path d="M69.88 78.4C76.54 77.91 78.36 71.01 78.36 71.01L55.29 44.53" stroke="#161616" stroke-width="4" stroke-miterlimit="10" stroke-linecap="round" stroke-linejoin="round"/>
<path d="M69.88 78.4C69.88 78.4 68.05 85.3 61.4 85.79" stroke="#161616" stroke-width="4" stroke-miterlimit="10" stroke-linecap="round" stroke-linejoin="round"/>
<path d="M53.97 60.14L40.46 44.64" stroke="#161616" stroke-width="4" stroke-miterlimit="10" stroke-linecap="round" stroke-linejoin="round"/>
<path d="M69.62 78.17L61.6 68.97" stroke="#161616" stroke-width="4" stroke-miterlimit="10" stroke-linecap="round" stroke-linejoin="round"/>
<path d="M77.81 88.75L87.8 80.04L88.12 90.49L77.81 88.75Z" stroke="#161616" stroke-width="4" stroke-miterlimit="10" stroke-linecap="round" stroke-linejoin="round"/>
</svg>
